<?xml version="1.0" encoding="utf-8"?>
<!-- Generator: Adobe Illustrator 15.0.0, SVG Export Plug-In . SVG Version: 6.00 Build 0)  -->
<!DOCTYPE svg PUBLIC "-//W3C//DTD SVG 1.1//EN" "http://www.w3.org/Graphics/SVG/1.1/DTD/svg11.dtd">
<svg version="1.1" xmlns="http://www.w3.org/2000/svg" xmlns:xlink="http://www.w3.org/1999/xlink" x="0px" y="0px" width="300px"
	 height="300px" viewBox="0 0 300 300" enable-background="new 0 0 300 300" xml:space="preserve">
<g id="Layer_13">
	<g id="EUvz30_1_">
		
	</g>
</g>
<g id="chevron">
	<g>
		<g>
			<path d="M208.478,105.702c2.466,2.793,12.998,21.091,13.688,24.728c1.649,3.393-3.419,25.244-3.829,25.879
				c0.4,0.699-5.512-20.924-6.794-23.271C211.459,130.508,208.604,105.758,208.478,105.702z"/>
		</g>
		<g>
			<path d="M138.506,99.385c-0.578,4.068,1.377,24.802,2.427,27.506c0.186,1.441-1.362,6.996-1.081,12.6
				c-0.02,5.656,4.208,10.543,4.825,10.711c0.689,0.348-6.019-1.422-9.607-7.852c-3.766-5.955-4.945-13.23-5.035-14.776
				C128.767,123.769,137.585,98.883,138.506,99.385z"/>
		</g>
		<g>
			<path d="M137.627,100.18c-1.255,1.557-5.218,6-6.875,11.183c-1.782,5.169-2.096,10.337-2.354,11.682
				c-1.823,1.642-8.49,20.456-6.892,22.247c0.322,0.479-2.602-4.404-3.532-10.533c-1.237-6.057-0.641-12.958-0.154-14.423
				c0.241-1.493,3.817-8.219,8.599-13.198C131.538,102.133,137.765,100.274,137.627,100.18z"/>
		</g>
		<g>
			<path d="M136.566,98.66c-2.013,0.943-9.133,4.078-11.9,9.999c-2.94,5.698-3.016,12.143-3.311,13.878
				c-1.429,2.438-8.672,26.756-8.375,28.104c-0.222,1.387-4.416-25.925-2.368-30.1c0.334-1.644,3.369-10.855,10.464-16.708
				C128.356,97.787,136.797,98.855,136.566,98.66z"/>
		</g>
		<g>
			<path d="M132.718,94.44c-2.567-0.057-12.464,0.581-15.653,8.312c-3.774,6.663-4.238,14.84-4.682,16.929
				c-1.916,3.268-10.47,31.987-9.314,33.878c-1.045,1.641-4.014-31.521-1.411-36.057c0.506-1.957,3.79-12.489,11.932-19.778
				C122.673,89.653,133.325,94.794,132.718,94.44z"/>
		</g>
		<g>
			<path d="M120.983,94.415c-2.144,0.961-9.074,4.513-11.556,10.99c-2.936,6.007-3.625,12.774-4.074,14.577
				c-1.46,2.701-12.08,26.379-12.175,27.652c-0.266,1.312-0.411-26.697,1.623-30.529c0.482-1.672,4.176-10.248,10.784-16.387
				C112.363,94.132,121.25,94.44,120.983,94.415z"/>
		</g>
		<g>
			<path d="M111.772,86.344c-2.604,4.908-15.231,32.877-15.89,37.346c-0.809,2.052-5.706,9.167-8.908,17.089
				c-3.495,7.816-4.893,16.205-5.141,16.926c0.274,0.77-1.401-7.516-0.52-16.77c0.395-9.332,3.439-19.162,4.385-21.211
				C86.57,114.393,111.427,85.804,111.772,86.344z"/>
		</g>
		<g>
			<path d="M102.538,93.008c-2.482,1.097-10.359,5.415-13.522,12.98c-3.66,7.088-4.718,15.009-5.253,17.096
				c-2.202,3.121-11.738,31.285-10.419,33.293c-1.306,1.689-3.188-31.644-0.179-36.004c0.548-2.016,4.738-11.967,12.055-19.173
				C92.641,93.486,102.789,92.968,102.538,93.008z"/>
		</g>
		<g>
			<path d="M106.879,92.994c-3.074,0.976-13.915,4.455-19.934,12.789c-6.299,7.92-8.851,17.673-9.711,20.246
				c-3.437,3.666-15.097,39.2-13.789,41.577c0.041,0.891-1.294-8.888-0.761-19.753c0.251-10.85,2.905-22.726,4.152-25.231
				c0.816-2.454,6.977-14.827,17.422-22.413C94.855,92.298,107.128,93.146,106.879,92.994z"/>
		</g>
		<g>
			<path d="M102.301,88.829c-2.542,1.901-11.517,7.818-18.081,15.591c-6.747,7.701-10.529,16.602-11.46,18.99
				c-1.204,2.095-6.591,10.209-8.547,19.895c-2.395,9.568-0.88,19.562-0.749,20.369c0.443,0.83-4.125-8.008-4.876-19.111
				c-1.104-11.055,2.616-23.213,4.123-25.5c0.954-2.592,8.829-13.626,18.967-20.226C91.616,91.893,102.378,88.909,102.301,88.829z"
				/>
		</g>
		<g>
			<path d="M146.945,108.217c1.44,2.567,6.671,17.389,6.848,20.02c0.579,2.699-7.88,17.639-8.242,17.941
				c0.186,0.49-2.287-15.859-2.7-17.766C142.949,126.54,146.917,108.23,146.945,108.217z"/>
		</g>
		<g>
			<path d="M141.481,106.178c-0.89,3.287-2.283,18.387-2.181,20.761c-0.469,1.989-10.649,15.579-10.728,16.401
				c-0.27,0.766-0.632-16.937,0.174-19.239c0.093-1.073,3.252-5.975,5.971-10.3C138.218,109.627,141.501,106.183,141.481,106.178z"
				/>
		</g>
		<g>
			<path d="M127.163,119.28c1.088,1.568,4.028,10.093,3.813,11.511c-0.033,1.523-9.263,6.684-9.397,6.656
				c0.043,0.174-1.212-8.66-1.147-9.549C120.739,127.11,127.166,119.322,127.163,119.28z"/>
		</g>
		<g>
			<path d="M90.376,105.068c0.194,3.803-0.883,24.637-0.95,27.623c-1.031,2.527-9.365,22.254-9.002,23.617
				c-0.455,1.215-3.209-22.422-1.763-25.508C78.919,127.487,90.305,104.949,90.376,105.068z"/>
		</g>
		<g>
			<path d="M142.697,111.049c1.295,2.053,6.938,11.968,7.569,13.315c0.245,1.233-3.661,13.187-3.271,13.897
				c0.032,0.701-7.377-10.094-7.47-11.936C138.957,124.545,142.494,110.877,142.697,111.049z"/>
		</g>
		<g>
			<path d="M147.704,107.703c-2.536-7.971-33.707-12.401-36.719-10.39c-1.406,0.014-9.117-0.502-15.805,4.899
				c-6.923,4.682-10.347,13.076-10.47,13.788c0.023,0.935-0.388-8.251,5.458-16.473c4.962-8.781,16.732-13.657,19.687-13.064
				c3.261-0.578,14.289,2.153,23.218,7.154C142.806,98.215,148.38,107.234,147.704,107.703z"/>
		</g>
		<g>
			<path d="M160.359,100.063c3.109,2.366,11.146,22.958,10.528,27.102c0.05,1.683-1.781,8.538-5.582,13.956
				c-3.895,5.838-9.832,7.07-10.044,7.166c-0.392,0.223,3.864-3.082,4.559-8.498c1.066-5.201,0.048-11.26,0.125-12.562
				C161.169,124.958,161.366,100.111,160.359,100.063z"/>
		</g>
		<g>
			<path d="M162.313,102.101c1.574,0.155,7.479,1.807,12.176,6.249c4.661,4.24,7.936,9.967,8.492,11.609
				c0.61,1.565,0.574,8.217-1.016,13.967c-1.525,5.883-4.644,10.326-4.62,10.744c1.015,0.449-2.457-19.668-4.773-21.331
				c-0.188-1.196-1.099-6.987-3.374-12.343C166.77,105.859,162.272,102.206,162.313,102.101z"/>
		</g>
		<g>
			<path d="M164.085,100.788c1.8-0.366,9.708-0.999,16.157,4.416c6.3,5.177,9.403,12.932,9.948,14.868
				c2.253,4.554-4.127,29.625-4.399,30.568c0.233,0.959-4.475-25.472-6.162-27.719c-0.303-1.49-0.762-9.013-4.518-14.566
				C171.478,102.57,163.954,100.836,164.085,100.788z"/>
		</g>
		<g>
			<path d="M168.725,96.516c1.438-1.104,11.675-4.809,19.124,2.806c7.272,6.42,10.506,15.386,11.252,17.644
				c2.738,4.979-2.248,35.526-3.403,36.403c1.012,1.158-4.816-30.184-7.063-33.215c-0.399-1.79-1.426-11.273-6.032-17.889
				C178.121,95.105,168.504,96.576,168.725,96.516z"/>
		</g>
		<g>
			<path d="M179.637,96.541c1.763-0.462,10.064-0.36,15.976,5.586c6.067,5.351,9.621,12.615,10.336,14.528
				c2.319,4.149-0.415,30.257-0.338,31.331c0.228,1.012-8.303-25.165-9.943-27.602c-0.434-1.566-1.654-9.35-5.317-15.407
				C186.879,98.652,179.585,96.527,179.637,96.541z"/>
		</g>
		<g>
			<path fill="#414042" d="M141.587,107.729c0.673-0.316,3.696-1.901,7.226-0.499c3.278,1.462,5.508,4.587,5.842,5.443
				c2.131,2.11-1.795,13.493-2.803,13.089c0.75,0.234-0.575-10.254-2.207-10.863c-0.091-0.621-0.907-3.4-2.801-5.443
				C144.823,107.585,141.55,107.91,141.587,107.729z"/>
		</g>
		<g>
			<path d="M187.415,87.629c4.588,2.804,25.848,25.995,27.552,31.556c1.129,2.188,3.42,11.662,3.42,20.678
				c0.321,9.01-1.733,17.145-1.469,17.842c-0.268,0.766-0.84-7.438-3.762-15.549c-2.451-8.25-7.104-16.136-7.943-17.984
				C204.992,120.203,188.031,87.476,187.415,87.629z"/>
		</g>
		<g>
			<path d="M197.991,95.119c2.154-0.374,11.597,0.661,18.078,7.643c6.723,6.34,10.683,14.789,11.503,17.072
				c3.131,4.83-0.791,35.557-2.151,36.377c1.235,1.035-5.589-29.78-8.147-32.666c-0.485-1.803-2.135-10.925-6.624-18.176
				C206.353,97.838,197.951,95.08,197.991,95.119z"/>
		</g>
		<g>
			<path fill="#414042" d="M158.177,104.046c1.401,0.481,6.2,2.248,10.419,5.472c4.413,3.053,7.171,8.321,7.54,9.85
				c1.917,3.441-2.463,20.994-3.475,21.426c0.778,0.824-0.146-18.166-1.746-19.727c-0.104-0.996-1.314-6.025-4.955-10.004
				C162.567,107.01,158.1,104.099,158.177,104.046z"/>
		</g>
		<g>
			<path d="M193.846,95.131c2.808-0.379,14.397-0.489,23.729,6.801c9.36,6.812,15.072,17.244,16.238,20.037
				c4.631,5.767,2.898,44.337,1.509,45.638c1.417,1.318-7.639-37.657-11.434-41.008c-0.745-2.221-4.07-13.497-11.509-21.437
				C205.037,96.945,193.703,95.189,193.846,95.131z"/>
		</g>
		<g>
			<path fill="#414042" d="M169.908,101.613c2.313-0.949,10.74-3.48,19.631-3.744c8.854-0.546,17.903,2.034,20.193,3.516
				c3.98,0.429,8.233,11.454,6.204,19.46c-0.443,8.51-3.307,16.041-2.976,16.873c-0.398,0.748,0.776-7.424,0.231-15.61
				c0.137-9.272-3.783-15.952-5.641-15.721c-1.436-1.022-10.037-5.219-19.511-5.587C178.743,99.895,169.888,101.645,169.908,101.613
				z"/>
		</g>
		<g>
			<path d="M197.755,90.802c2.97,0.567,13.279,3.481,22.402,9.636c9.209,5.945,16.342,15.134,17.711,17.996
				c1.726,2.447,4.826,14.088,3.365,24.65c-0.958,10.645-5.779,19.173-5.852,19.969c-0.396,0.829,1.862-8.58,0.389-18.346
				c-1.186-9.857-6.153-18.9-7.374-20.78c-0.773-2.057-5.426-12.288-13.363-20.063C207.383,95.902,197.686,90.852,197.755,90.802z"
				/>
		</g>
		<g>
			<path fill="#414042" d="M157.152,108.254c0.076-0.759,0.091-4.006,2.581-6.686c2.479-2.441,6.447-3.254,7.491-3.07
				c0.973-0.004,4.963,1.869,6.027,5.291c1.467,3.195-0.347,5.963,0.065,6.085c-0.228,0.35-0.296-2.651-2.167-4.2
				c-1.569-1.857-4.092-1.612-4.518-1.719c-0.406-0.169-2.991-0.772-5.533,0.345C158.474,105.352,157.353,108.405,157.152,108.254z"
				/>
		</g>
		<g>
			<path fill="#414042" d="M160.554,105.523c-1.796-3.537,11.619-9.497,14.092-8.177c0.922-0.295,6.002,1.974,7.265,5.775
				c1.612,3.514,1.245,6.88,1.377,7.113c0.025,0.328-1.093-2.836-3.332-5.102c-2.294-2.502-4.864-2.388-5.745-2.335
				c-0.579-0.206-4.379-0.884-7.963-0.368C162.335,102.639,160.502,105.458,160.554,105.523z"/>
		</g>
		<path fill="none" stroke="#29ABE2" stroke-width="0.5" d="M144.401,107.21c-5.437-5.888-21.752-8.38-29.222-9.517
			c-4.987-0.679-9.519,0.456-14.047,2.04c-6.567,2.039-7.028,4.076-7.7,10.422"/>
		<g>
			<path d="M151.818,108.217c1.388,2.549,5.925,17.721,6.207,19.938c-0.149,1.961-5.234,17.42-4.777,18.482
				c-0.135,0.986-6.566-15.717-6.143-18.115C147.022,126.171,151.844,108.201,151.818,108.217z"/>
		</g>
		<g>
			<path d="M157.675,107.425c2.767,0.758,13.937,13.575,14.403,16.406c1.05,2.452-1.88,19.321-1.847,19.978
				c0.234,0.623-7.913-14.83-8.562-16.612C161.886,125.053,158.399,107.479,157.675,107.425z"/>
		</g>
		<g>
			<path fill="#414042" d="M147.137,107.854c-1.127-0.523-4.622-0.165-4.964-0.064c-0.088-0.094-1.909-4.121-2.525-4.061
				c-0.362-0.243,4.353-1.359,4.95-0.828C145.454,102.975,147.527,107.859,147.137,107.854z"/>
		</g>
		<g>
			<path d="M171.662,119.799c1.673,0.943,8.21,7.081,8.762,7.979c0.283,0.815-3.42,10.026-3.021,10.63
				c0.105,0.576-7.272-6.191-7.44-7.475C169.539,129.715,171.637,119.762,171.662,119.799z"/>
		</g>
		<g>
			<path d="M208.777,96.27c4.765,1.087,26.01,19.475,27.704,24.548c1.115,1.889,3.463,10.298,3.551,18.317
				c0.261,8.086-2.085,15.09-1.878,15.686c-0.327,0.645-0.452-6.539-3.347-13.432c-2.442-7.02-6.99-13.517-7.798-15.062
				c-0.69-1.583-4.068-9.468-8.517-16.659C214.01,102.547,208.715,96.322,208.777,96.27z"/>
		</g>
		<g>
			<path d="M156.06,111.049c1.572,1.614,5.635,13.032,5.354,15.07c0.052,2.09-9.289,11.271-9.535,11.467
				c0.055,0.346-1.28-11.812-1.28-13.049C151.047,123.396,156.239,111.245,156.06,111.049z"/>
		</g>
		<g>
			<path fill="#414042" d="M122.73,98.764c-4.703,0.396-14.29,16.652-13.2,19.73c-0.396,1.224-2.442,5.932-2.164,11.191
				c-0.06,5.24,2.126,10.131,2.124,10.613c0.519,0.287-3.148-3.637-4.663-9.328c-2.09-5.579-1.149-12.314-0.62-13.674
				c-0.055-1.498,3.302-7.987,7.906-12.363C116.678,100.207,122.784,98.672,122.73,98.764z"/>
		</g>
		<g>
			<path fill="#414042" d="M128.322,100.381c-2.527-0.908-11.423-2.274-19.506,0.695c-8.182,2.586-14.524,8.011-15.95,9.525
				c-1.458,1.297-7.835,6.922-11.715,14.244c-4.178,7.15-5.246,15.365-5.246,16.072c0.056,0.789-0.853-7.5,2.236-16.009
				c2.517-8.679,8.924-16.433,10.604-17.985c1.629-1.63,10.8-7.972,20.824-8.984C119.635,95.958,128.479,100.389,128.322,100.381z"
				/>
		</g>
		<g>
			<path fill="#414042" d="M87.171,145.934c-0.358-1.883-0.58-9.16,2.659-15.736c2.911-6.593,7.432-12.215,8.684-13.693
				c1.366-1.352,6.438-5.989,12.341-9.807c6.159-4.274,12.957-2.131,13.259-2.135c0.644,0.141-6.038-0.838-10.862,3.785
				c-4.702,4.307-9.306,10.604-10.474,11.59c-1.071,1.217-6.982,6.46-10.917,12.654C87.465,138.672,87.252,145.986,87.171,145.934z"
				/>
		</g>
		<g>
			<path fill="#414042" d="M110.954,124.031c-0.856-2.707,0-20.844,5.517-23.101c3.747-5.194,21.552,1.766,21.65,2.485
				c0.764-0.516-18.415-1.655-18.252,1.807C116.845,103.621,110.217,123.919,110.954,124.031z"/>
		</g>
		<g>
			<path fill="#414042" d="M127.026,125.438c-1.649-1.647-4.276-14.886-2.355-17.658c-0.217-0.935,4.148-6.003,8.745-4.508
				c4.364,1.055,5.338,4.859,5.519,4.855c0.144,0.312-2.181-2.355-5.242-2.08c-3.053,0.167-3.688,2.812-3.908,3.67
				C128.122,110.143,126.219,125.392,127.026,125.438z"/>
		</g>
		<g>
			<path fill="#414042" d="M141.853,106.363c-0.255,2.222-0.469,14.211-0.174,15.919c-0.769,1.49-2.589,13.485-1.63,14.327
				c-0.457,0.977-4.943-12.6-3.828-14.591C135.896,119.953,141.576,106.16,141.853,106.363z"/>
		</g>
		<g>
			<path fill="#414042" d="M143.508,106.833c2.428,0.489,6.142,11.88,5.763,13.822c0.499,2.039-5.142,12.626-5.8,12.585
				c0.391,0.461,0.849-11.202,0.325-12.621C144.601,119.207,144.698,106.7,143.508,106.833z"/>
		</g>
		<g>
			<path fill="#414042" d="M158.781,105.663c-2.653,1.812-4.624,14.029-3.75,15.88c-0.982,1.492-1.61,14.553-0.465,15.342
				c-0.413,1.09-6.353-13.104-4.986-15.505c-0.057-0.979,1.149-5.692,3.344-9.56C155.33,107.926,158.875,105.709,158.781,105.663z"
				/>
		</g>
		<g>
			<path fill="#414042" d="M159.961,106.41c0.25,1.779,0.549,11.506,0.801,12.756c-0.7,1.053-2.416,10.588-1.684,11.34
				c-0.29,0.867-4.744-9.905-3.769-11.64C155.143,117.123,159.933,106.322,159.961,106.41z"/>
		</g>
		<g>
			<path fill="#414042" d="M167.828,101.619c1.682-0.631,8.085-1.82,14.762-0.514c7.947,2.594,8.73,11.203,9.453,12.32
				c1.85,3.86-2.145,26.271-3.308,26.93c0.83,0.975-0.3-22.912-1.943-25.387c-0.605-1.08-0.379-9.613-6.048-11.369
				C174.463,101.367,167.724,101.547,167.828,101.619z"/>
		</g>
		<g>
			<path fill="#414042" d="M163.795,102.98c4.354-2.48,17.299,12.786,17.622,15.705c2.709,2.42,2.812,21.764,1.415,22.172
				c1.187,0.414-3.807-17.886-6.24-19.583c-0.459-1.07-2.374-6.841-5.172-11.474C168.759,104.812,163.837,102.871,163.795,102.98z"
				/>
		</g>
		<g>
			<path fill="#414042" d="M141.913,106.27c-5.104-3.125-9.817,10.176-9.526,12.092c-1.031,1.467-6.773,14.006-5.497,15.25
				c-1.272,0.719-1.227-15.036,0.276-16.888c0.368-0.907,2.353-5.397,5.944-8.704C136.737,103.699,142.438,106.178,141.913,106.27z"
				/>
		</g>
		<g>
			<path fill="#414042" d="M157.398,112.873c-0.26-1.036-1.487-4.269-0.933-8.187c0.279-5.335,8.117-5.413,8.501-4.548
				c3.369,0.549,8.965,12.021,8.641,12.539c0.74-0.02-9.452-8.025-10.613-7.42c-0.704,0.115-2.318-2.345-3.926,0.883
				C157.708,109.135,157.461,112.938,157.398,112.873z"/>
		</g>
		<g>
			<path fill="#414042" d="M177.661,104.828c0.839-4.824,25.909-2.453,26.58,4.469c1.113,1.346,3.76,7.809,3.562,13.942
				c0.082,6.108-1.669,11.476-1.629,11.972c-0.132,0.512,0.239-5.104-0.99-10.793c-1.099-5.797-4.529-10.738-5.26-11.785
				c-0.881-1.254-3.412-6.705-10.375-7.277C182.56,103.182,177.536,103.99,177.661,104.828z"/>
		</g>
		<g>
			<path fill="#414042" d="M181.808,99.064c0.596-1.058,0.89-4.326,4.176-6.384c3.335-1.839,8.351-1.365,12.646-0.091
				c4.334,1.625,8.182,1.967,12.244,4.426c3.241,2.639,5.014,3.948,6.045,4.847c1.408,1.583,8.936,7.548,12.004,16.255
				c2.621,8.575,0.945,16.672,1.251,17.375c-0.263,0.865,0.021-7.661-3.373-15.189c-3.443-7.381-11.669-12.406-13.076-13.966
				c-0.701-0.65-3.31-3.099-5.734-5.66c-2.122-1.735-7.721-3.866-11.701-5.749c-4.135-1.934-8.9-2.335-11.296-0.335
				C182.794,96.817,181.878,99.189,181.808,99.064z"/>
		</g>
		<g>
			<path d="M155.214,108.437c-0.395-2.497,5.786-10.367,14.204-14.749c8.091-4.827,17.448-7.438,20.935-7.293
				c3.106-0.461,14.35,4.181,18.752,12.764c5.243,8.076,4.764,16.666,4.972,17.193c0.03,0.82-1.961-7.332-8.366-12.633
				c-6.035-5.92-14.019-6.735-15.394-6.349c-1.001-0.434-10.876-0.424-20.095,2.335C160.95,101.828,154.554,108.213,155.214,108.437
				z"/>
		</g>
		<g>
			<path fill="#414042" d="M130.438,110.811c-0.293-0.873-1.121-4.566,0.904-8.213c2-5.049,9.662-2.404,9.704-1.225
				c2.222,1.02,5.918,13.79,4.634,14.248c1.018-0.282-6.515-9.588-8.505-10.42c-0.578,0.019-1.157-3-3.843-0.332
				C130.835,107.098,130.47,110.901,130.438,110.811z"/>
		</g>
		<g>
			<path d="M143.146,103.512c-1.235,0.062-5.481,0.807-7.139,4.143c-1.899,2.951-2.344,6.535-2.559,7.451
				c-1.264,1.226-5.083,14.109-3.598,15.16c-1.168,1.064-3.542-14.521-1.68-16.588c0.236-0.921,2.278-5.634,6.222-8.592
				C138.574,101.797,143.362,103.592,143.146,103.512z"/>
		</g>
		<g>
			<path d="M142.29,105.045c1.76,1.666,3.452,14.953,3.264,16.803c0.466,1.899-4.913,14.738-5.912,14.52
				c0.711,0.496,0.918-12.599,0.442-14.697C140.597,119.708,143.085,105.22,142.29,105.045z"/>
		</g>
		<g>
			<path d="M151.439,110.191c0.413-0.635,0.763-2.519,2.745-4.02c2.368-1.622,5.761,0.42,7.812,2.176
				c4.587,3.236,8.01,8.985,8.418,10.561c2.665,3.375-1.544,23.496-3.605,23.383c-0.191,0.404,1.412-4.334,0.936-9.666
				c-0.186-5.356-2.12-10.619-2.459-11.746c-0.252-1.235-1.84-6.516-6.011-11.043C155.452,103.916,151.236,110.488,151.439,110.191z
				"/>
		</g>
		<g>
			<path d="M134.869,99.466c-1.616-0.091-7.908-3.595-12.621,0.464c-4.917,3.199-8.53,7.604-9.587,8.725
				c-2.833,1.037-15.736,17.471-15.197,19.205c-1.446,0.727,7.3-21.289,11.047-22.801c1.09-1.078,6.726-5.891,13.445-8.188
				C129.691,93.933,134.98,100.428,134.869,99.466z"/>
		</g>
		<g>
			<path d="M90.676,94.687c-3.424,3.84-16.059,27.319-16.598,31.233c-0.758,1.747-5.53,7.512-8.772,14.238
				c-3.379,6.637-4.527,14.137-4.697,14.793c0.35,0.699-1.826-6.619-0.911-14.908c0.445-8.338,3.545-16.99,4.496-18.76
				c0.82-1.877,6.721-9.657,13.174-15.783C83.889,99.382,90.738,94.751,90.676,94.687z"/>
		</g>
		<g>
			<path fill="#414042" d="M110.791,96.349c-2.318,0.105-10.51,0.376-16.912,4.583c-6.564,3.822-10.663,10.181-11.657,11.857
				c-1.137,1.453-5.922,7.328-7.971,14.414c-2.679,7.043-0.111,14.422,0.356,14.916c0.345,0.76-4.328-5.838-3.309-14.295
				c0.583-8.222,4.938-16.279,6.187-17.818c0.97-1.665,7.567-9.326,16.301-12.275C102.398,94.164,110.911,96.553,110.791,96.349z"/>
		</g>
	</g>
</g>
</svg>
