<?xml version="1.0" encoding="utf-8"?>
<!-- Generator: Adobe Illustrator 15.0.0, SVG Export Plug-In . SVG Version: 6.00 Build 0)  -->
<!DOCTYPE svg PUBLIC "-//W3C//DTD SVG 1.1//EN" "http://www.w3.org/Graphics/SVG/1.1/DTD/svg11.dtd">
<svg version="1.1" id="Layer_1" xmlns="http://www.w3.org/2000/svg" xmlns:xlink="http://www.w3.org/1999/xlink" x="0px" y="0px"
	 width="300px" height="300px" viewBox="0 0 300 300" enable-background="new 0 0 300 300" xml:space="preserve">
<g id="Layer_13">
	<g id="EUvz30_1_">
		
	</g>
</g>
<g id="dali">
	<g>
		<g>
			<path d="M140.778,108.118c-2.23-1.002-8.618-3.749-15.442-0.12c-6.697,3.447-11.937,11.065-18.264,17.593
				c-3.167,3.274-6.75,6.378-10.964,8.202c-4.271,1.831-8.63,2.03-12.452,2.007c-7.754-0.27-13.428-2.757-15.753-3.817
				c-4.724-1.516-20.428-13.042-28.317-29.039C31.51,87.177,29.795,70.389,29.215,69.06c0-1.617,2.482,15.075,10.836,30.784
				c4.219,7.767,10.233,14.884,15.845,19.786c5.623,4.942,10.777,7.574,12.621,8.554c1.881,0.808,7.384,3.847,15.308,4.456
				c3.928,0.234,8.477,0.076,12.544-1.834c4.14-1.914,7.875-5.236,11.341-8.703c6.779-6.898,13.579-14.904,21.316-16.164
				C136.61,104.866,140.792,108.474,140.778,108.118z"/>
		</g>
		<g>
			<path d="M139.588,108.411c0.088,1.365-1.055,4.604-4.47,7.133c-3.317,2.508-7.262,5.438-11.135,8.641
				c-7.512,6.602-17.12,11.046-19.99,11.479c-2.49,0.872-13.322,2.378-22.606-1.132c-9.152-2.925-17.739-6.08-18.529-6.283
				c-0.77-0.272,8.007,2.025,17.668,4.109c9.542,2.901,19.802,0.566,21.957-0.123c2.374-0.106,12.772-3.982,21.637-10.62
				c4.409-3.222,9.346-5.689,12.238-8.081C139.514,111.122,139.494,108.324,139.588,108.411z"/>
		</g>
		<g>
			<path d="M136.273,109.212c-1.003,0.766-5.112,2.506-8.671,4.723c-3.604,2.216-5.506,5.714-6.073,6.664
				c-0.655,0.857-3.438,4.683-7.5,6.683c-4.038,1.985-8.105,1.434-8.408,1.602c-0.433-0.071,3.709-0.488,6.907-2.885
				c3.213-2.256,5.128-6.486,5.771-7.25c0.449-0.845,4.205-5.392,9.06-6.922C132.012,110.246,136.279,109.318,136.273,109.212z"/>
		</g>
		<g>
			<path d="M131.984,114.277c-1.533-0.063-5.542,2.649-10.132,3.563c-4.368,1.194-7.004,4.638-7.908,5.499
				c-0.874,0.77-4.405,3.909-8.488,6.16c-4.07,2.335-8.413,2.563-8.727,2.71c-0.42,0.007,3.769-1.021,7.137-3.896
				c3.377-2.748,6.421-6.718,7.303-7.451c0.627-0.673,5.467-4.959,11.042-5.128C127.051,115.4,131.866,113.736,131.984,114.277z"/>
		</g>
		<g>
			<path fill="#414042" d="M135.694,108.274c0.214,0.181,0.684,0.593,1.272,1.12c-0.208,0.401-1.601,0.046-2.422,0.006
				c-1.907-0.269-3.78-0.462-4.295-0.464c-0.46-0.013-2.434-0.366-3.972,0.599c-1.553,1.021-1.82,3.002-1.889,3.093
				c0.071,0.228-0.073-1.765,1.451-3.209c1.558-1.444,3.939-1.245,4.341-1.229c0.484-0.016,2.704,0.402,4.738,0.867
				c0.514,0.111,1.017,0.201,1.489,0.271c0.183,0.134,0.585-0.179,0.559,0.321l-0.418-0.451
				C136.031,108.64,135.694,108.274,135.694,108.274z"/>
		</g>
		<g>
			<path fill="#414042" d="M139.576,109.961c-0.289-0.512-1.76-2.596-4.064-2.447c-2.164-0.061-4.128,1.003-4.63,1.269
				c-0.508,0.212-2.482,1.172-4.037,2.584c-1.637,1.354-2.448,3.279-2.454,3.469c-0.074,0.194,0.381-1.893,1.978-3.509
				c1.455-1.692,3.563-2.948,4.065-3.148c0.439-0.261,2.941-1.404,5.475-1.044C138.615,107.501,139.597,110.069,139.576,109.961z"/>
		</g>
		<g>
			<path fill="#414042" d="M138.193,111.914c-1.156-0.718-6.057,1.747-6.56,2.585c-0.662,0.46-5.344,3.648-5.654,3.616
				c-0.095,0.314,4.479-3.691,5.141-4.162c0.308-0.224,1.889-1.308,3.622-1.859C136.496,111.5,138.213,111.919,138.193,111.914z"/>
		</g>
		<g>
			<path fill="#414042" d="M137.004,109.97c-0.186,0.479-0.745,2.24-2.051,3.599c-1.348,1.272-3.046,2.091-3.521,2.253
				c-0.895,0.513-7.154,1.478-7.429,1.625c-0.309,0.014,6.338-1.86,7.061-2.282c0.414-0.104,2.343-0.834,3.814-2.096
				C136.342,111.763,136.927,109.919,137.004,109.97z"/>
		</g>
		<g>
			<path fill="#414042" d="M137.444,110.421c0.569,1.978-5.77,8.759-7.256,9.229c-0.564,0.395-2.876,1.757-5.304,2.504
				c-2.439,0.875-4.873,0.477-5.047,0.386c-0.225-0.008,2.168,0.384,4.582-0.626c2.413-0.872,4.718-2.448,5.224-2.794
				c0.518-0.325,3.044-1.967,4.975-4.051C136.695,113.06,137.488,110.418,137.444,110.421z"/>
		</g>
		<g>
			<path fill="#414042" d="M125.519,118.124c-1.02,0.866-6.812,6.25-8.246,6.571c-1.202,0.351-8.49,3.575-8.571,4.274
				c-0.088,0.221,1.309-1.473,3.383-2.502c2.002-1.148,4.268-2.118,4.745-2.386C117.985,124.046,125.489,118.075,125.519,118.124z"
				/>
		</g>
		<g>
			<path fill="#414042" d="M124.711,113.69c-0.459-0.156-2.236-0.738-3.814-0.026c-1.569,0.619-2.701,1.905-3.004,2.238
				c-0.839,0.396-4.215,5.387-4.122,5.786c-0.348,0.176,2.577-5.795,3.515-6.226c0.26-0.307,1.813-1.799,3.759-2.274
				C123.046,112.695,124.736,113.735,124.711,113.69z"/>
		</g>
		<g>
			<path fill="#414042" d="M125.798,110.143c-1.446-0.922-6.487,2.858-6.824,3.891c-0.824,0.495-4.522,5.626-4.322,6.109
				c-0.465,0.133,2.796-6.051,3.7-6.527c0.286-0.33,1.799-1.883,3.625-2.812C123.812,109.747,125.835,110.128,125.798,110.143z"/>
		</g>
		<g>
			<path fill="#414042" d="M129.124,107.268c-1.403-1.042-7.637,2.033-8.182,3.114c-0.401,0.31-1.991,1.508-3.185,3.004
				c-1.249,1.464-1.777,3.279-1.783,3.447c-0.037,0.18,0.162-1.73,1.32-3.43c1.047-1.742,2.693-3.232,3.086-3.522
				c0.359-0.324,2.309-1.736,4.457-2.406C127.003,106.679,129.156,107.253,129.124,107.268z"/>
		</g>
		<g>
			<path fill="#414042" d="M125.142,117.671c-0.591-0.124-2.756-0.551-4.729,0.17c-1.979,0.648-3.532,2.046-3.928,2.435
				c-1.164,0.345-5.354,6.406-5.147,6.944c-0.522,0.173,3.269-7.043,4.561-7.414c0.344-0.362,2.385-1.973,4.744-2.438
				C123.014,116.841,125.162,117.705,125.142,117.671z"/>
		</g>
		<g>
			<path fill="#414042" d="M115.365,117.891c-0.993-0.019-4.039,3.268-4.399,3.887c-0.502,0.438-3.54,3.874-3.609,4.108
				c-0.176,0.15,2.467-4.116,2.999-4.536C110.577,120.638,115.117,117.416,115.365,117.891z"/>
		</g>
		<g>
			<path fill="#414042" d="M117.751,125.463c0.365,1.969-6.639,5.001-7.809,4.87c-1.072,0.476-8.404,0.482-8.707,0.172
				c-0.329,0.276,7.515-0.398,8.435-0.875c0.479-0.088,2.851-0.467,4.894-1.393C116.775,127.46,117.808,125.463,117.751,125.463z"/>
		</g>
		<g>
			<path fill="#414042" d="M107.12,125.477c-0.023,0.492-0.354,2.717-2.282,3.707c-1.772,0.995-3.769,1.267-4.28,1.398
				c-0.503,0.126-2.479,0.21-4.245,0.755c-1.873,0.468-2.867,2.161-2.903,2.302c-0.08,0.21,0.527-1.766,2.511-2.54
				c1.823-0.855,3.948-1.109,4.394-1.228c0.45-0.115,2.753-0.242,4.604-1.183C106.878,127.694,107.103,125.408,107.12,125.477z"/>
		</g>
		<g>
			<path fill="#414042" d="M123.951,118.371c-0.483,0.935-2.076,4.32-4.757,6.901c-2.563,2.67-5.792,4.549-6.699,5.019
				c-0.845,0.511-4.333,1.766-7.603,3.024c-3.353,1.163-5.932,3.413-6.147,3.617c-0.226,0.229,2.143-2.265,5.525-3.757
				c3.326-1.522,6.949-2.983,7.686-3.45c0.765-0.358,4.564-2.312,7.387-5.143C122.215,121.796,123.898,118.326,123.951,118.371z"/>
		</g>
		<g>
			<path fill="#414042" d="M122.615,120.179c0.092,0.817,0.196,4.135-1.859,6.614c-1.866,2.521-4.662,4.058-5.402,4.429
				c-1.31,1.265-11.833,3.507-12.359,3.263c-0.411,0.408,10.783-2.646,11.853-3.838c0.645-0.276,3.863-1.852,5.902-4.474
				C122.86,123.506,122.589,120.123,122.615,120.179z"/>
		</g>
		<g>
			<path fill="#414042" d="M131.568,111.696c-1.009-0.572-5.582-1.579-9.087,0.968c-3.486,2.23-5.963,5.648-6.747,6.462
				c-0.532,1.008-3.979,3.652-7.314,5.777c-3.526,2.119-5.004,5.92-4.839,6.303c-0.194,0.396,0.548-3.755,4.154-6.242
				c3.372-2.494,6.8-5.174,7.27-6.129c0.7-0.674,3.715-4.644,7.865-6.858C127.213,109.51,131.727,111.747,131.568,111.696z"/>
		</g>
		<g>
			<path fill="#414042" d="M120.047,114.793c-0.999-0.353-4.494,0.043-7.343,1.941c-2.921,1.685-5.266,4.118-5.896,4.781
				c-0.619,0.604-3.035,3.001-4.636,5.824c-1.758,2.816-1.606,6.079-1.468,6.335c0.013,0.331-0.703-2.941,0.938-6.073
				c1.377-3.135,3.911-5.892,4.492-6.455c0.54-0.614,3.467-3.377,6.864-5.026C116.354,114.143,120.112,114.711,120.047,114.793z"/>
		</g>
		<g>
			<path fill="#414042" d="M135.01,110.667c0.226,1.209,0.811,6.234-2.208,10.055c-2.725,3.844-6.968,6.097-8.076,6.651
				c-1.041,0.637-5.379,2.437-9.713,3.366c-4.322,1.021-8.539,1.278-8.908,1.312c-0.382,0.021,3.806-0.328,8.196-1.529
				c4.421-1.08,8.904-3.109,9.836-3.683c0.967-0.421,5.866-2.822,8.793-6.936C135.95,115.678,134.947,110.572,135.01,110.667z"/>
		</g>
		<g>
			<path fill="#414042" d="M130.582,115.756c0.034,0.532,0.275,1.83-0.412,3.296c-0.642,1.491-2.335,2.699-4.093,3.451
				c-3.576,1.5-7.365,2.16-8.372,2.466c-0.946,0.281-4.812,0.792-8.09,2.407c-3.589,1.471-4.585,5.352-4.481,5.607
				c-0.086,0.453,0.162-3.673,3.829-5.678c3.346-1.999,7.482-2.752,8.35-3.01c0.873-0.295,5.332-0.84,9.174-2.404
				C130.96,120.452,130.768,115.551,130.582,115.756z"/>
		</g>
		<g>
			<path fill="#414042" d="M127.278,117.03c-0.67,1.915-10.062,4.709-11.351,5.365c-0.646,0.284-3.36,1.064-5.423,2.708
				c-2.256,1.716-1.886,4.663-1.835,4.809c0.132,0.354-0.934-2.607,1.309-4.79c1.975-2.101,4.944-3.078,5.525-3.359
				C116.778,121.295,127.9,118.099,127.278,117.03z"/>
		</g>
		<g>
			<path fill="#414042" d="M129.048,111.941c-1.853,1.517-14.584,8.118-16.376,9.55c-0.882,0.607-4.642,2.555-7.479,5.336
				c-1.461,1.248-2.385,3.526-1.021,4.638c1.099,1.037,2.188,1.28,2.314,1.384c0.186,0.009-0.701-0.117-1.938-0.896
				c-1.586-0.67-1.646-3.452-0.023-4.942c2.77-3.197,6.729-5.448,7.542-6.021C113.637,119.662,129.307,112.24,129.048,111.941z"/>
		</g>
		<g>
			<path fill="#414042" d="M128.197,114.35c-2.146,0.952-15.543,3.928-17.321,5.343c-0.973,0.275-4.466,2.26-7.209,4.919
				c-1.362,1.307-2.491,2.892-2.638,4.344c-0.068,1.513,0.973,2.205,1.011,2.327c0.214,0.067-0.726-0.332-1.067-1.74
				c-0.312-1.466,0.733-3.307,2.042-4.778c2.652-3.014,6.364-5.353,7.332-5.649C111.987,117.657,128.303,114.669,128.197,114.35z"/>
		</g>
		<g>
			<path fill="#414042" d="M128.591,120.405c0.036,0.695,0.365,2.437-0.704,4.314c-0.956,1.89-2.979,3.599-5.161,4.879
				c-4.407,2.587-9.354,3.903-10.682,4.317c-1.281,0.225-6.211,1.959-11.16,1.669c-2.526-0.114-4.551-1.566-6.34-1.914
				c-1.788-0.429-3.078-0.058-3.275-0.07c-0.205,0.09,0.825-0.299,2.581-0.157c1.785,0.062,3.95,1.444,6.381,1.683
				c4.936,0.456,10.15-1.712,11.316-1.845c1.136-0.36,6.918-1.636,11.668-4.453c2.36-1.383,4.343-3.326,5.004-5.21
				C128.873,121.739,128.503,120.394,128.591,120.405z"/>
		</g>
		<g>
			<path fill="#414042" d="M129.923,119.704c0.188,1.479-4.946,6.002-6.135,6.186c-0.862,0.682-7.435,2.407-7.752,2.399
				c-0.271,0.164,6.606-2.382,7.315-3.011c0.422-0.174,2.403-1.148,4.051-2.437C129.021,121.506,129.892,119.683,129.923,119.704z"
				/>
		</g>
		<g>
			<path fill="#414042" d="M114.771,133.06c0.996-2.521,13.475-8.604,15.297-9.708c0.851-0.542,4.564-2.263,7.053-5.166
				c2.713-2.848,2.859-6.796,2.896-7.065c-0.099-0.428,0.365,3.595-2.265,6.859c-2.376,3.317-6.311,5.422-7.108,5.895
				c-0.817,0.544-5.021,2.494-8.933,4.413C117.722,130.138,114.729,133.022,114.771,133.06z"/>
		</g>
		<g>
			<path fill="#414042" d="M134.365,119.018c-0.996,0.754,0.484,0.364,1.49-0.558c1.043-0.755,1.666-1.849,1.84-2.129
				c0.191-0.255,0.854-1.311,1.11-2.517c0.222-1.212-0.12-2.404-0.109-2.515c-0.107-0.093,0.528,0.999,0.487,2.362
				c0.015,1.35-0.622,2.733-0.811,2.996c-0.172,0.271-1.127,1.59-2.469,2.253c-0.638,0.399-1.278,0.578-1.855,0.745
				C133.754,119.104,134.524,119.064,134.365,119.018z"/>
		</g>
		<g>
			<path d="M135.261,108.18c0.82-0.011,5.753,1.087,5.977,5.792c0.024,4.57-4.878,6.804-5.71,6.85
				c-1.817,0.583-15.717,2.544-14.568,5.527c0.024,0.226-0.155-0.862,0.899-1.869c0.993-1.001,2.695-1.852,4.487-2.569
				c3.609-1.403,7.581-2.496,8.421-2.798c0.751-0.029,5.434-1.49,5.448-5.733C139.979,109.161,134.958,108.131,135.261,108.18z"/>
		</g>
		<g>
			<path d="M137.555,111.993c0.476,1.304-0.346,6.474-4.17,9.782c-3.101,3.671-7.328,6.365-8.547,6.93
				c-1.129,0.613-5.828,2.332-10.473,2.617c-4.616,0.424-8.973-0.075-9.357-0.041c-0.398-0.05,3.971-0.003,8.576-0.807
				c4.65-0.696,9.206-2.772,10.167-3.313c1.069-0.405,5.754-2.852,9.483-6.642C137.566,117.234,137.634,111.918,137.555,111.993z"/>
		</g>
		<g>
			<path d="M139.432,110.327c-0.776-1.639-5.966-3-10.711-1.509c-4.847,1.043-8.702,4.039-9.691,4.881
				c-0.965,0.725-4.961,3.697-7.053,7.952c-2.358,4.221-1.373,9.079-1.203,9.398c0.186,0.488-1.77-4.145,0.086-9.102
				c1.561-4.959,5.828-8.812,6.786-9.517c0.871-0.812,6.055-4.256,11.691-4.739c2.75-0.371,5.54-0.185,7.438,0.612
				C138.735,109.044,139.405,110.399,139.432,110.327z"/>
		</g>
		<g>
			<path d="M158.834,108.77c2.08-1.15,8.075-4.327,15.264-1.087c7.03,3.1,12.842,10.599,19.37,16.627
				c3.255,3.038,6.826,5.761,10.649,7.18c3.75,1.411,7.852,1.423,11.349,1.233c7.089-0.58,12.191-3.073,14.333-4.093
				c4.208-1.405,19.748-11.273,28.562-26.45c8.908-14.879,11.875-31.683,12.424-32.963c-0.029-1.585-1.676,15.123-9.577,31.653
				c-4.028,8.202-9.933,15.797-15.628,21.16c-5.7,5.396-11.15,8.424-13.141,9.474c-2.024,0.875-8.096,4.002-16.801,4.38
				c-4.244,0.113-9.281-0.218-13.928-2.586c-4.578-2.336-8.333-6.004-11.729-9.651c-6.623-7.307-12.896-15.146-19.955-16.534
				C163.087,105.815,158.793,109.094,158.834,108.77z"/>
		</g>
		<g>
			<path d="M158.975,108.474c0.18,1.575,1.801,4.701,5.402,6.789c3.496,2.088,7.861,4.688,11.962,7.462
				c8.207,5.846,17.243,9.011,19.892,9.354c2.332,0.697,11.918,3.244,21.271,0.955c9.41-1.827,18.335-3.885,19.131-4.091
				c0.778-0.273-7.821,2.747-17.315,5.559c-9.549,3.76-21.141,2.118-23.406,1.332c-2.594-0.096-13.779-5.214-22.049-12.424
				c-4.199-3.539-8.715-6.144-11.744-9.002C158.904,111.594,159.044,108.346,158.975,108.474z"/>
		</g>
		<g>
			<path d="M162.741,109.889c1.26,0.353,5.507,0.985,9.743,2.444c4.373,1.433,7.703,5.194,8.354,6.206
				c0.727,0.828,2.324,4.853,5.27,7.452c2.968,2.714,7.193,3.494,7.467,3.616c0.398-0.116-3.721,0.37-7.954-1.702
				c-4.336-2.096-7.062-6.34-7.71-7.08c-0.542-0.87-2.799-4.857-6.924-6.986C166.949,111.705,162.676,109.967,162.741,109.889z"/>
		</g>
		<g>
			<path d="M167.303,115.005c1.344-0.562,5.827,1.136,10.492,1.08c5.03,0.261,9.256,3.784,10.116,4.582
				c0.978,0.772,3.68,4.628,6.813,7.573c3.125,3.084,7.33,4.549,7.662,4.675c0.438-0.005-4.006-0.252-8.201-2.761
				c-4.215-2.433-7.81-5.942-8.643-6.616c-0.831-0.76-3.954-4.701-8.854-5.619C171.502,116.737,167.409,114.489,167.303,115.005z"/>
		</g>
		<g>
			<path fill="#414042" d="M163.488,108.17c-0.178,0.215-0.594,0.683-1.12,1.272c0.092,0.075,1.532-0.209,2.312-0.397
				c1.852-0.455,3.75-0.829,4.301-0.85c0.459-0.031,2.652-0.172,4.209,1.091c1.519,1.323,1.475,3.27,1.562,3.365
				c-0.052,0.232-0.135-1.75-1.602-2.898c-1.438-1.156-3.598-0.841-4.002-0.822c-0.447-0.017-2.616,0.24-4.711,0.564
				c-0.521,0.074-1.047,0.128-1.533,0.163c-0.283-0.096-0.385,0.273-0.797-0.213l0.457-0.417
				C163.124,108.509,163.488,108.17,163.488,108.17z"/>
		</g>
		<g>
			<path fill="#414042" d="M159.844,110.025c0.186-0.502,1.442-2.784,3.905-2.87c2.287-0.265,4.444,0.695,4.978,0.961
				c0.551,0.21,2.508,1.424,3.933,3.029c1.522,1.572,2.091,3.56,2.097,3.722c0.064,0.178-0.514-1.782-2.156-3.235
				c-1.519-1.534-3.611-2.604-4.076-2.79c-0.42-0.252-2.729-1.458-5.084-1.268C160.943,107.736,159.82,110.106,159.844,110.025z"/>
		</g>
		<g>
			<path fill="#414042" d="M161.12,112.059c0.953-0.952,6.421,0.976,6.969,1.836c0.729,0.478,4.79,4.351,5.146,4.349
				c0.104,0.321-4.897-3.259-5.502-3.686c-0.31-0.224-1.744-1.382-3.336-2.045C162.796,111.812,161.105,112.059,161.12,112.059z"/>
		</g>
		<g>
			<path fill="#414042" d="M162.143,110.017c0.275,0.463,1.057,2.14,2.432,3.286c1.423,1.072,3.074,1.679,3.545,1.825
				c0.788,0.445,6.865,2.316,7.124,2.458c0.303,0.011-6.449-1.27-7.279-1.729c-0.416-0.104-2.422-1.025-3.864-2.47
				C162.657,111.885,162.225,109.965,162.143,110.017z"/>
		</g>
		<g>
			<path fill="#414042" d="M161.697,110.45c-0.301,2.054,6.38,8.17,7.811,8.587c0.561,0.367,2.686,1.88,4.996,2.826
				c2.294,1.07,4.771,0.924,4.979,0.819c0.242-0.01-2.223,0.552-4.756-0.343c-2.527-0.752-4.974-2.241-5.498-2.598
				c-0.537-0.335-3.035-2.146-4.898-4.375C162.322,113.204,161.648,110.438,161.697,110.45z"/>
		</g>
		<g>
			<path fill="#414042" d="M173.68,118.241c1.131,0.712,7.395,5.598,8.653,5.783c1.169,0.3,8.176,4.418,8.153,5.046
				c0.076,0.214-1.387-1.333-3.5-2.212c-2.02-0.995-4.35-1.831-4.846-2.104C180.794,124.608,173.705,118.182,173.68,118.241z"/>
		</g>
		<g>
			<path fill="#414042" d="M174.639,113.822c0.396-0.225,2.094-1.055,3.864-0.501c1.739,0.471,3.099,1.724,3.424,2.064
				c0.97,0.503,3.583,6.026,3.458,6.355c0.321,0.135-3.074-5.434-3.922-5.763c-0.251-0.295-1.592-1.783-3.341-2.358
				C176.341,113.012,174.613,113.854,174.639,113.822z"/>
		</g>
		<g>
			<path fill="#414042" d="M173.514,110.287c0.469-0.185,2.403-0.279,4.028,0.706c1.649,0.854,2.967,2.172,3.313,2.537
				c0.931,0.562,3.883,6.263,3.639,6.657c0.439,0.093-3.268-5.659-4.107-6.072c-0.273-0.319-1.621-1.911-3.287-2.924
				C175.438,110.062,173.49,110.271,173.514,110.287z"/>
		</g>
		<g>
			<path fill="#414042" d="M170.198,107.406c0.518-0.229,2.606-0.527,4.538,0.229c1.947,0.624,3.627,1.817,4.072,2.166
				c0.428,0.313,1.938,1.742,2.965,3.404c1.105,1.652,1.381,3.5,1.387,3.649c0.033,0.166-0.309-1.652-1.543-3.203
				c-1.133-1.601-2.812-2.916-3.184-3.194c-0.347-0.311-2.119-1.778-4.141-2.565C172.277,106.991,170.18,107.393,170.198,107.406z"
				/>
		</g>
		<g>
			<path fill="#414042" d="M174.188,117.809c0.545-0.204,2.651-0.864,4.779-0.312c2.116,0.482,3.893,1.825,4.319,2.222
				c1.319,0.46,4.778,7.104,4.528,7.554c0.487,0.112-3.746-6.647-4.918-6.911c-0.336-0.346-2.151-1.974-4.354-2.562
				C176.338,117.148,174.167,117.838,174.188,117.809z"/>
		</g>
		<g>
			<path fill="#414042" d="M183.887,118.031c0.942-0.271,4.596,2.624,4.989,3.255c0.565,0.465,2.879,4.469,2.931,4.674
				c0.162,0.137-2.938-3.743-3.438-4.125C188.156,121.155,184.175,117.604,183.887,118.031z"/>
		</g>
		<g>
			<path fill="#414042" d="M181.398,125.509c-0.029,2.018,6.965,4.229,8.094,4.099c1.003,0.43,8.199,1.352,8.572,1.04
				c0.36,0.283-7.61,0.2-8.596-0.289c-0.49-0.09-2.892-0.626-4.943-1.723C182.291,127.691,181.324,125.494,181.398,125.509z"/>
		</g>
		<g>
			<path fill="#414042" d="M192.02,125.496c0.117,0.522,0.705,2.649,2.592,3.372c1.746,0.769,3.716,0.868,4.236,0.985
				c0.488,0.108,2.469,0.411,4.229,1.196c1.896,0.74,2.628,2.534,2.661,2.646c0.063,0.185-0.652-1.616-2.561-2.188
				c-1.761-0.674-3.886-0.784-4.339-0.902c-0.437-0.119-2.771-0.382-4.711-1.534C192.074,127.804,192.053,125.407,192.02,125.496z"
				/>
		</g>
		<g>
			<path fill="#414042" d="M175.204,118.438c0.575,0.898,2.362,4.182,5.14,6.576c2.653,2.486,5.911,4.178,6.784,4.613
				c0.817,0.478,4.179,1.925,7.396,3.405c3.301,1.393,5.715,3.81,5.918,4.003c0.216,0.221-2.215-2.123-5.606-3.459
				c-3.338-1.366-7.062-2.704-7.834-3.188c-0.796-0.376-4.595-2.501-7.369-5.496C176.807,121.942,175.26,118.389,175.204,118.438z"
				/>
		</g>
		<g>
			<path fill="#414042" d="M176.525,120.169c-0.002,0.854,0.146,4.146,2.287,6.402c1.953,2.316,4.725,3.642,5.461,3.993
				c1.187,1.177,11.41,4.296,11.996,4.065c0.455,0.416-10.985-2.078-12.168-3.319c-0.654-0.284-3.927-2.049-5.929-4.878
				C176.098,123.537,176.561,120.104,176.525,120.169z"/>
		</g>
		<g>
			<path fill="#414042" d="M167.773,111.831c0.938-0.641,5.474-1.913,9.213,0.525c3.683,2.126,6.33,5.484,7.13,6.283
				c0.554,1,3.649,3.635,6.94,6.018c3.449,2.363,4.678,6.231,4.506,6.573c0.18,0.363-0.672-3.607-4.285-5.92
				c-3.363-2.289-7.084-5.016-7.555-5.991c-0.699-0.681-3.576-4.689-7.517-6.953C172.122,109.853,167.637,111.866,167.773,111.831z"
				/>
		</g>
		<g>
			<path fill="#414042" d="M179.273,114.934c0.918-0.44,4.477-0.275,7.479,1.486c3.071,1.542,5.595,3.902,6.25,4.574
				c0.647,0.609,2.962,3.229,4.386,6.206c1.586,3.003,1.178,6.221,1.055,6.442c-0.014,0.308,0.531-2.876-1.193-5.851
				c-1.48-2.99-4.057-5.578-4.624-6.127c-0.524-0.595-3.28-3.403-6.543-5.151C182.877,114.451,179.227,114.857,179.273,114.934z"/>
		</g>
		<g>
			<path fill="#414042" d="M164.131,110.646c-0.146,1.253-0.465,6.279,2.643,9.863c2.812,3.633,7.025,5.672,8.123,6.205
				c1.019,0.603,5.193,2.581,9.459,3.725c4.234,1.235,8.443,1.724,8.816,1.758c0.383,0.02-3.828-0.177-8.294-1.243
				c-4.481-0.942-9.103-2.86-10.063-3.45c-0.979-0.426-5.934-3.021-8.83-7.352C163.001,115.678,164.208,110.539,164.131,110.646z"/>
		</g>
		<g>
			<path fill="#414042" d="M168.559,115.739c0.008,0.546-0.141,1.876,0.618,3.28c0.72,1.427,2.411,2.501,4.171,3.151
				c3.564,1.292,7.377,1.784,8.397,2.075c0.948,0.27,4.819,1.002,8.077,2.86c3.574,1.757,4.281,5.678,4.184,5.896
				c0.087,0.418-0.329-3.546-3.91-5.316c-3.296-1.803-7.422-2.409-8.287-2.667c-0.865-0.295-5.287-0.976-9.195-2.723
				c-1.926-0.889-3.584-2.46-3.902-4.032C168.324,116.75,168.609,115.733,168.559,115.739z"/>
		</g>
		<g>
			<path fill="#414042" d="M171.893,117.119c0.907,1.844,10.332,3.908,11.729,4.582c0.655,0.273,3.372,1.289,5.372,3.174
				c2.193,2.023,1.503,4.889,1.48,5.009c-0.109,0.325,0.715-2.564-1.486-4.454c-1.941-1.869-4.899-2.703-5.473-2.973
				C182.338,122.02,171.273,118.224,171.893,117.119z"/>
		</g>
		<g>
			<path fill="#414042" d="M170.122,112.029c2.032,1.429,15.005,7.378,16.877,8.829c0.896,0.601,4.583,2.756,7.325,5.762
				c1.429,1.336,2.246,3.827,0.793,4.843c-1.15,0.966-2.231,1.142-2.359,1.249c-0.188,0.011,0.698-0.162,1.846-0.956
				c1.431-0.735,1.393-3.018-0.178-4.463c-2.773-2.984-6.785-5.111-7.584-5.673C185.29,120.305,169.96,112.412,170.122,112.029z"/>
		</g>
		<g>
			<path fill="#414042" d="M171.043,114.489c2.205,0.771,15.723,3.083,17.671,4.526c1.054,0.293,4.524,2.532,7.134,5.384
				c1.301,1.402,2.35,3.1,2.406,4.559c-0.025,1.505-1.066,2.089-1.104,2.214c-0.203,0.072,0.676-0.373,0.93-1.671
				c0.236-1.333-0.803-3.053-2.141-4.44c-2.697-2.845-6.426-5.017-7.306-5.271C187.15,118.395,170.957,114.807,171.043,114.489z"/>
		</g>
		<g>
			<path fill="#414042" d="M170.55,120.386c0.007,0.718-0.231,2.486,0.91,4.3c1.026,1.828,3.074,3.422,5.276,4.602
				c4.438,2.386,9.377,3.519,10.697,3.914c1.272,0.214,6.125,2.142,10.94,2.076c2.425,0.019,4.563-1.341,6.36-1.604
				c1.8-0.342,3.051,0.082,3.25,0.069c0.205,0.09-0.834-0.257-2.524-0.062c-1.729,0.106-3.79,1.538-6.354,1.884
				c-5.142,0.613-10.385-1.439-11.57-1.566c-1.145-0.368-6.938-1.791-11.711-4.789c-2.365-1.477-4.359-3.537-4.992-5.508
				C170.219,121.733,170.641,120.373,170.55,120.386z"/>
		</g>
		<g>
			<path fill="#414042" d="M169.227,119.76c0.094,1.509,5.475,5.328,6.604,5.469c0.79,0.615,7.028,3.199,7.377,3.2
				c0.293,0.172-6.824-1.823-7.604-2.488c-0.431-0.177-2.412-1.319-4.014-2.769C170.002,121.666,169.257,119.73,169.227,119.76z"/>
		</g>
		<g>
			<path fill="#414042" d="M184.619,132.963c-1.207-2.435-13.842-7.836-15.762-8.966c-0.867-0.53-4.557-2.492-6.932-5.615
				c-2.59-3.09-2.463-7.01-2.518-7.265c0.097-0.416-0.188,3.553,2.477,6.595c2.403,3.109,6.324,5.046,7.121,5.516
				c0.793,0.53,4.896,2.601,8.773,4.669C181.738,129.892,184.674,132.933,184.619,132.963z"/>
		</g>
		<g>
			<path fill="#414042" d="M164.818,119.118c1.142,0.562-0.405,0.424-1.59-0.361c-1.197-0.619-2.058-1.718-2.271-2.03
				c-0.224-0.275-0.76-1.597-0.788-2.885c0.006-1.312,0.573-2.384,0.561-2.49c0.098-0.092-0.377,1.04-0.181,2.284
				c0.136,1.243,0.825,2.396,0.995,2.631c0.16,0.234,0.889,1.515,2.077,2.271c0.521,0.434,1.233,0.687,1.601,0.88
				C165.268,119.651,164.729,118.992,164.818,119.118z"/>
		</g>
		<g>
			<path d="M163.941,107.824c-0.902,0.151-5.445,2.164-5,6.113c0.599,3.795,4.441,5.003,5.354,5.113
				c0.913,0.302,4.616,1.441,8.079,2.854c3.642,1.177,6.196,3.971,5.586,4.448c-0.03,0.166,0.049-0.659-0.942-1.432
				c-0.947-0.78-2.646-1.439-4.443-1.96c-3.612-1.013-7.68-1.748-8.588-2.069c-0.567,0.092-6.603-2.313-6.025-7.601
				C158.895,108.138,164.322,107.878,163.941,107.824z"/>
		</g>
		<g>
			<path d="M161.366,111.978c-0.212,1.467,1.146,6.349,5.155,9.153c3.465,3.323,7.578,5.4,8.748,5.918
				c1.065,0.529,5.258,2.66,9.76,3.508c4.453,0.976,8.871,1.057,9.256,1.088c0.395-0.05-3.957,0.377-8.73-0.068
				c-4.797-0.329-9.799-2.16-10.834-2.745c-1.082-0.371-6.076-3.522-9.455-7.522C160.973,117.536,161.266,111.812,161.366,111.978z"
				/>
		</g>
		<g>
			<path d="M160.145,110.542c0.396-1.624,5.537-3.675,10.588-2.604c5.082,0.567,9.592,3.415,10.658,4.294
				c1.075,0.746,4.989,4.434,6.629,9.115c1.903,4.714,0.274,9.31,0.145,9.592c-0.159,0.456,1.316-4.144-0.771-8.603
				c-1.802-4.504-6.021-7.805-6.908-8.456c-0.825-0.751-5.33-4.241-10.713-5.096c-2.602-0.536-5.254-0.535-7.051,0.076
				C160.861,109.414,160.177,110.604,160.145,110.542z"/>
		</g>
	</g>
</g>
</svg>
