<?xml version="1.0" encoding="utf-8"?>
<!-- Generator: Adobe Illustrator 15.0.0, SVG Export Plug-In . SVG Version: 6.00 Build 0)  -->
<!DOCTYPE svg PUBLIC "-//W3C//DTD SVG 1.1//EN" "http://www.w3.org/Graphics/SVG/1.1/DTD/svg11.dtd">
<svg version="1.1" xmlns="http://www.w3.org/2000/svg" xmlns:xlink="http://www.w3.org/1999/xlink" x="0px" y="0px" width="300px"
	 height="300px" viewBox="0 0 300 300" enable-background="new 0 0 300 300" xml:space="preserve">
<g id="Layer_13">
	<g id="EUvz30_1_">
		
	</g>
</g>
<g id="english">
	<g>
		<g>
			<g>
				<g>
					<path fill="#414042" d="M139.924,111.318c-1.341,1.941-4.829,6.393-11.345,9.156c-6.461,2.734-15.043,3.762-23.48,3.838
						c-16.935-0.598-33.335,0.16-38.121,0.47c-2.198,0.058-7.587,0.086-14.457-0.575c-6.975-0.831-14.777-2.454-22.922-2.134
						c-7.95,0.056-16.292,0.577-21.721-2.525c-5.819-3.021-4.927-8.356-4.933-8.703c0.371-0.957-1.242,3.486,3.272,6.974
						c4.564,3.439,12.69,3.233,20.979,2.451c8.228-0.884,17.451-0.074,24.215,0.679c6.972,0.407,12.452,0.136,14.466,0.121
						c2.014-0.003,7.863-0.145,15.591-0.117c7.808-0.023,17.225,1.229,26.357,1.343c9.126,0.268,18.042-1.058,23.867-4.111
						C137.51,115.092,139.833,111.178,139.924,111.318z"/>
				</g>
				<g>
					<path fill="#414042" d="M106.083,121.588c-1.026,0.129-7.081,0.01-8.053-0.195c-0.94-0.04-6.972-1.355-7.241-1.47
						c-0.288-0.004,6.328,1.059,7.178,1.083C98.794,121.249,106.074,121.683,106.083,121.588z"/>
				</g>
				<g>
					<path fill="#414042" d="M101.315,121.973c-1.568,1.193-11.447,0.274-12.945-0.304c-1.42-0.588-11.338-1.8-11.834-1.095
						c-0.239,0.056,2.351-0.5,5.199-0.221c2.841,0.195,5.857,0.803,6.534,0.916c0.679,0.107,3.905,0.847,7.015,1.118
						C98.414,122.7,101.323,121.976,101.315,121.973z"/>
				</g>
				<g>
					<path fill="#414042" d="M66.803,124.066c-2.125,0.155-14.409-1.329-16.283-2.267c-0.916-0.178-4.37-1.341-7.737-2.081
						c-3.388-0.865-6.719-0.367-6.995-0.265c-0.314,0.056,2.979-0.799,6.54-0.01c3.538,0.613,7.229,1.781,8.076,1.938
						C51.976,122.39,66.759,124.337,66.803,124.066z"/>
				</g>
				<g>
					<path fill="#414042" d="M48.171,120.155c-1.265,0.286-8.798,0.235-10.006,0.123c-1.14-0.195-8.797-0.312-9.16-0.096
						c-0.376-0.145,7.983-0.521,9.041-0.281C39.102,120.066,48.168,120.345,48.171,120.155z"/>
				</g>
				<g>
					<path fill="#414042" d="M99.073,122.05c-0.991,0.246-6.812-0.2-7.729-0.265c-0.942-0.593-6.656,0.918-6.809,1.396
						c-0.095,0.133,1.182-0.814,2.822-1.28c1.617-0.578,3.499-0.503,3.903-0.49C92.096,121.505,99.057,122.257,99.073,122.05z"/>
				</g>
				<g>
					<path fill="#414042" d="M104.934,123.493c-0.901,0.277-6.368,0.92-7.27,0.839c-0.841,0.005-6.447-0.175-6.713-0.164
						c-0.263-0.003,5.837-0.214,6.606-0.208C98.338,124.092,104.939,123.605,104.934,123.493z"/>
				</g>
				<g>
					<path fill="#414042" d="M100.708,123.182c-0.287,1.007-4.797,2.617-5.639,2.359c-0.75,0.249-5.462-0.588-5.651-0.744
						c-0.228,0.059,4.9,0.647,5.549,0.373c0.324,0.013,1.88-0.102,3.292-0.532C99.662,124.146,100.689,123.157,100.708,123.182z"/>
				</g>
				<g>
					<path fill="#414042" d="M110.336,124.651c-1.038-0.216-4.601-0.12-8.138,0.228c-3.569,0.294-7.09-0.374-8.074-0.392
						c-1.846-0.285-14.112-2.272-14.717-2.198c-0.565-0.199,12.87,1.491,14.549,1.804c0.854-0.009,4.912,0.863,8.803,0.555
						C106.648,124.273,110.348,124.586,110.336,124.651z"/>
				</g>
				<g>
					<path fill="#414042" d="M85.571,122.761c-1.623,0.279-7.247,0.089-12.828,0.133c-5.492,0.844-11.052,1.657-12.635,1.378
						c-2.994,0.083-22.129-4.325-23.178-3.235c-0.471,0.008,4.675-0.293,10.142,0.858c5.456,1.044,11.361,2.041,12.717,1.975
						c1.346,0.458,7.723-0.59,13.855-1.182C79.791,122.899,85.568,122.881,85.571,122.761z"/>
				</g>
				<g>
					<path fill="#414042" d="M45.418,123.679c-1.347-0.042-9.221-0.361-10.496-0.46c-1.227,0.046-9.158-1.37-9.502-1.562
						c-0.38,0.045,8.267,1.243,9.391,1.177C35.912,122.938,45.418,123.671,45.418,123.679z"/>
				</g>
				<g>
					<path fill="#414042" d="M23.897,121.787c-1.985,0.24-13.415-1.434-15.157-2.26c-0.739-0.347-4.353-1.049-6.45-3.703
						c-1.039-1.52,0.075-3.235,0.89-3.984c0.855-0.856,1.586-1.286,1.674-1.393c0.673-0.127-3.416,1.463-2.613,4.877
						c1.805,2.805,5.796,3.447,6.411,3.785C10.087,120.012,23.859,122.171,23.897,121.787z"/>
				</g>
				<g>
					<path d="M139.245,109.582c-0.174,1.106-5.179,3.511-6.169,3.271c-0.879,0.166-6.074-1.1-6.339-1.042
						c-0.251-0.051,5.503-0.704,6.122-0.816c0.355,0,2.003,0.04,3.549-0.245C137.94,110.426,139.222,109.549,139.245,109.582z"/>
				</g>
				<g>
					<path d="M138.711,110.04c-0.146,0.701-3.229,3.161-3.861,3.298c-0.553,0.224-4.42,0.362-4.6,0.506
						c-0.207,0.015,3.451-2.1,3.906-2.239C134.7,111.614,138.771,110.271,138.711,110.04z"/>
				</g>
				<g>
					<path d="M137.381,112.135c-0.838,0.303-4.812,2.844-5.46,3.274c-0.614,0.437-5.63,1.187-5.824,1.091
						c-0.132,0.179,4.393-2.347,4.961-2.748C131.606,113.343,137.359,111.94,137.381,112.135z"/>
				</g>
				<g>
					<path d="M133.188,113.627c-0.231,0.383-1.135,1.795-2.656,2.684c-1.493,0.838-3.181,1.255-3.622,1.32
						c-0.921,0.109-6.531-0.59-6.847-0.346c-0.325-0.129,5.854-1.486,6.542-1.5c0.391-0.021,2.16-0.05,3.771-0.5
						C131.967,114.787,133.151,113.579,133.188,113.627z"/>
				</g>
				<g>
					<path d="M127.07,112.397c-0.183,0.89-4.026,4.308-4.982,4.408c-0.757,0.376-5.812,0.562-6.04,0.675
						c-0.243,0.031,4.785-2.145,5.321-2.402C122.104,115.221,127.16,112.681,127.07,112.397z"/>
				</g>
				<g>
					<path d="M122.188,119.433c-0.862,0.19-5.906,0.473-6.676,0.49c-0.709-0.162-5.717-1.173-6.028-0.958
						c-0.3-0.135,5.343-1.154,6.067-0.91C116.294,118.068,122.191,119.46,122.188,119.433z"/>
				</g>
				<g>
					<path d="M119.195,118.237c-0.473,0.329-2.123,1.488-4.071,2.207c-1.945,0.661-4.05,0.896-4.612,0.875
						c-1.163,0.092-7.88-1.945-8.231-1.912c-0.328-0.097,7.318,0.098,8.171,0.038c0.467,0.051,2.655,0.25,4.744-0.074
						C117.295,119.072,119.172,118.172,119.195,118.237z"/>
				</g>
				<g>
					<path d="M127.791,114.382c-0.943-0.017-4.48,2.297-4.923,2.8c-0.548,0.185-4.657,1.99-4.793,2.242
						c-0.245,0.096,3.078-3.601,3.778-3.807C122.312,114.955,127.782,113.957,127.791,114.382z"/>
				</g>
				<g>
					<path d="M138.089,109.939c-0.863,0.117-5.473,1.209-5.918,1.674c-0.287,0.121-1.546,0.234-2.499,1.051
						c-1.09,0.709-1.455,2.094-1.586,2.148c0.074,0.156-0.085-1.242,0.725-2.572c0.7-1.443,2.338-2.251,2.659-2.355
						C132.286,109.24,138.152,109.825,138.089,109.939z"/>
				</g>
				<g>
					<path d="M140.594,110.383c-0.662-0.014-2.867-0.332-4.998-0.164c-2.138,0.243-4.024,0.986-4.512,1.251
						c-1.172-0.251-7.434,4.103-7.544,4.65c-0.512,0.156,5.089-6.452,6.74-6.333c0.482-0.31,3.232-0.864,5.7-0.547
						C138.465,109.517,140.577,110.457,140.594,110.383z"/>
				</g>
				<g>
					<path d="M127.285,118.331c-1.087-0.357-5.857,0.932-6.494,1.566c-0.652,0.479-6.238,0.776-6.395,0.433
						c-0.1,0.313,5.01-1.662,5.694-2.165c0.344-0.104,2.153-0.575,3.923-0.493C125.792,117.673,127.28,118.423,127.285,118.331z"/>
				</g>
				<g>
					<path d="M112.739,119.709c-0.85-0.039-5.457-0.079-6.146,0.005c-0.612-0.145-5.273-1.034-5.562-0.898
						c-0.272-0.069,4.899-1.176,5.629-0.964C107.402,117.756,112.791,119.633,112.739,119.709z"/>
				</g>
				<g>
					<path d="M120.01,120.542c-0.767,1.134-7.833,4.022-9.198,3.815c-1.233,0.357-8.75-1.162-9.063-1.258
						c-0.334,0.038,7.836-0.269,8.775-0.595c0.503-0.013,2.916-0.101,5.182-0.572C117.971,121.457,119.993,120.499,120.01,120.542z"
						/>
				</g>
				<g>
					<path d="M111.524,121.366c-0.628,0.597-5.406,1.728-6.213,1.609c-0.773,0.056-5.454-1.516-5.681-1.531
						c-0.218-0.024,5.046-0.312,5.666-0.339C105.926,121.336,111.5,121.591,111.524,121.366z"/>
				</g>
				<g>
					<path d="M141.353,111.221c-0.76-0.836-5.387-1.377-5.994-0.9c-0.313,0.054-1.583-0.118-2.814,0.32
						c-1.259,0.377-2.136,1.49-2.251,1.548c0.027,0.192,0.318-1.267,1.578-2.225c1.152-1.089,2.891-1.476,3.26-1.491
						c0.38-0.084,2.22,0.152,3.709,0.863C140.346,110.08,141.335,111.262,141.353,111.221z"/>
				</g>
				<g>
					<path fill="#414042" d="M141.853,111.623c-2.092-1.518-8.896,1.192-15.077,3.916c-3.355,1.094-6.328,2.447-9.36,3.011
						c-2.933,0.415-5.106,0.297-6.022,0.403c-0.886,0.006-2.936,0.083-5.503,0.973c-1.248,0.486-3.212,0.745-4.612,0.756
						c-1.515,0.172-3.188,0.671-4.891,0.752c-6.81,0.021-12.736-2.494-13.385-2.208c-0.557-0.383,5.723,1.331,12.367,1.348
						c1.652-0.092,3.229-0.618,4.936-1.021c1.822-0.389,3.274-0.359,4.528-0.93c2.713-1.184,5.206-1.515,6.045-1.513
						c0.865-0.13,3.355,0.121,6.331-0.139c2.805-0.408,6.836-1.719,10.237-2.772C134.497,111.42,141.898,110.149,141.853,111.623z"
						/>
				</g>
				<g>
					<path d="M138.632,109.982c-0.7-0.039-3.123-0.335-5.339,0.249c-2.239,0.539-3.988,1.918-4.456,2.282
						c-1.234,0.115-6.879,6.134-6.798,6.762c-0.554,0.234,3.945-7.881,5.609-8.207c0.451-0.367,3.132-1.869,5.899-1.875
						C136.293,109.043,138.632,110.031,138.632,109.982z"/>
				</g>
				<g>
					<path fill="#414042" d="M138.802,113.979c-0.679-0.028-2.646-0.313-4.058,1.409c-1.617,1.584-4.625,1.229-6.75,1.865
						c-2.002,0.876-4.418,3.064-6.986,2.206c-2.171-0.774-3.064-0.633-3.865-0.395c-1.249-0.027-5.9,1.741-10.864,2.59
						c-4.942-0.111-9.468-0.719-9.925-0.211c-0.497-0.195,4.304-0.682,9.134-0.641c4.606-0.978,9.64-3.599,11.029-3.511
						c0.375-0.273,3.024-0.441,4.93,0.635c1.897,0.944,4.043-1.162,7.112-1.857c2.979,0.043,5.289-0.158,6.87-1.692
						C137.433,113.264,138.837,114.164,138.802,113.979z"/>
				</g>
				<g>
					<path d="M124.373,114.378c-1.431-0.93-6.621,2.321-7.123,3.145c-0.895,0.181-5.746,4.125-5.195,5.044
						c-0.054,0.179,0.009-1.671,1.118-3.249c1.002-1.599,2.52-2.985,2.891-3.242c0.359-0.276,2.274-1.403,4.314-1.876
						C122.437,113.562,124.427,114.346,124.373,114.378z"/>
				</g>
				<g>
					<path d="M137.684,113.045c-0.02,0.895-1.323,4.005-4.013,5.972c-2.511,2.095-5.552,3.373-6.391,3.666
						c-0.791,0.324-4.023,1.006-7.118,1.06c-3.121,0.127-5.948-0.63-6.177-0.699c-0.254-0.041,2.585,0.372,5.639-0.206
						c3.059-0.453,6.191-1.597,6.873-1.863c0.705-0.199,4.18-1.193,6.995-3.069C136.497,116.16,137.727,113.033,137.684,113.045z"/>
				</g>
				<g>
					<path d="M138.268,112.504c-0.491,0.598-2.27,2.615-4.442,4.269c-2.186,1.604-4.636,2.855-5.344,3.124
						c-1.323,0.916-10.787,1.546-11.188,1.405c-0.368,0.217,9.386-2.279,10.384-3.103c0.598-0.178,3.439-1.146,5.971-2.518
						C136.164,114.299,138.235,112.465,138.268,112.504z"/>
				</g>
				<g>
					<path d="M141.578,111.602c-0.163,0.293-1.692,2.418-3.831,1.475c-1.692-0.467-2.967,0.818-3.385,0.998
						c-0.8,0.2-6.302,3.809-6.484,4.11c-0.291,0.184,4.331-5.319,5.443-5.659c0.225-0.168,2.929-1.622,5.055-0.293
						C139.983,113.35,141.605,111.41,141.578,111.602z"/>
				</g>
				<g>
					<path d="M142.59,111.855c-0.558-1.509-6.161-1.937-6.924-1.496c-0.389,0.041-1.948-0.171-3.412,0.257
						c-1.532,0.36-2.285,1.954-2.266,2.106c-0.033,0.22-0.065-1.705,1.604-2.807c1.494-1.12,3.478-1.388,3.892-1.414
						c0.428-0.039,2.521,0.127,4.291,0.939C141.649,110.152,142.65,111.863,142.59,111.855z"/>
				</g>
				<g>
					<path d="M142.574,111.01c0.471,0.525-0.083,2.918-1.925,4.364c-1.667,1.493-3.544,2.641-4.06,2.936
						c-1.05,0.485-8.19,2.865-8.256,3.649c-0.652-0.261,6.35-4.945,7.293-5.252c0.444-0.256,2.783-1.123,4.68-2.352
						C142.483,113.229,142.686,111.011,142.574,111.01z"/>
				</g>
				<g>
					<path d="M140.657,110.821c-0.1,0.621,0.148,2.368-1.344,3.831c-1.621,1.278-4.158,1.487-6.175,2.564
						c-3.864,2.354-8.09,5.22-9.77,5.062c-1.451,0.558-6.228-0.952-10.619-0.497c-4.547,0.239-8.775,1.505-9.12,1.722
						c-0.385,0.132,3.612-1.771,8.333-2.56c4.724-1.177,10.035,0.016,10.894-0.494c1.177,0.481,5.595-2.211,10.62-4.444
						c2.57-0.865,5.237-0.855,6.253-2.385C140.666,112.139,140.583,110.777,140.657,110.821z"/>
				</g>
				<g>
					<path d="M114.655,118.889c-0.934,1.833-9.7,0.507-10.527,0.989c-1.203-0.349-9.297,1.364-9.611,1.951
						c-0.577-0.124,7.842-4.229,9.252-3.801c0.691-0.187,3.648,0.277,6.088,0.946C112.389,119.743,114.667,118.938,114.655,118.889z
						"/>
				</g>
				<g>
					<path fill="#414042" d="M138.674,110.855c0.26-0.305,2.371,0.452,1.823,2.583c-1.064,2.181-3.207,1.421-3.369,1.747
						c-0.394,0.068-1.86-0.229-3.152,0.088c-1.416,0.23-2.161,1.699-2.203,1.783c0.009,0.201,0.057-1.478,1.565-2.525
						c1.458-0.984,3.236-1.145,3.569-1.2c0.319-0.179,2.488,0.521,2.736-0.476C140.246,111.529,138.646,110.699,138.674,110.855z"/>
				</g>
				<g>
					<path fill="#414042" d="M140.708,111.321c0.377-0.435,2.344,0.601,1.901,2.652c-0.472,1.895-2.239,2.88-2.597,3.05
						c-0.886,0.637-6.496,0.637-6.741,0.857c-0.271-0.059,5.448-2.116,5.888-2.523c0.288-0.121,2.014-0.617,2.534-1.875
						C142.383,111.855,140.719,111.184,140.708,111.321z"/>
				</g>
			</g>
			<g>
				<g>
					<path fill="#414042" d="M159.569,111.744c1.577,1.881,5.465,6.108,12.067,8.401c6.55,2.282,14.997,2.769,23.322,2.361
						c8.339-0.388,16.681-1.438,23.658-1.474c6.908-0.088,12.25,0.023,14.561,0.018c2.194,0.021,7.475,0.304,14.167,0.067
						c6.542-0.38,15.144-1.511,23.196-0.599c8.029,0.612,16.027,1.729,21.678-0.961c6.078-2.549,5.736-8.413,5.656-8.764
						c-0.443-1.044,1.66,3.668-3.264,7.973c-4.832,4.063-13.713,4.117-21.812,3.734c-8.461-0.47-16.545,0.615-23.851,1.702
						c-7.186,0.707-12.765,0.613-14.8,0.601c-2.043-0.003-7.944-0.333-15.56-0.584c-7.552-0.31-17.02,0.566-26.333,0.31
						c-9.286-0.104-18.484-1.843-24.436-5.289C161.873,115.748,159.665,111.598,159.569,111.744z"/>
				</g>
				<g>
					<path fill="#414042" d="M194.002,121.659c1.04,0.03,7.055-0.42,8.011-0.64c0.915-0.051,7.021-0.911,7.301-1.024
						c0.297-0.009-6.285,1.353-7.152,1.38C201.321,121.623,194.002,121.758,194.002,121.659z"/>
				</g>
				<g>
					<path fill="#414042" d="M198.754,122.042c1.645,1.102,11.396-0.15,12.893-0.741c1.428-0.604,11.454-1.362,11.896-0.655
						c0.231,0.056-2.352-0.421-5.167-0.069c-2.817,0.269-5.808,0.945-6.483,1.061c-0.676,0.107-3.926,0.775-7.068,0.974
						C201.65,122.852,198.74,122.045,198.754,122.042z"/>
				</g>
				<g>
					<path fill="#414042" d="M233.29,124.14c2.138,0.056,14.338-1.756,16.173-2.696c0.931-0.191,4.394-1.243,7.814-1.876
						c3.438-0.758,6.742-0.142,7.004-0.04c0.309,0.056-2.961-0.718-6.479,0.139c-3.499,0.682-7.167,1.921-8.028,2.082
						C248.19,122.755,233.306,124.414,233.29,124.14z"/>
				</g>
				<g>
					<path fill="#414042" d="M251.908,120.228c1.292,0.192,8.785-0.195,9.996-0.322c1.15-0.213,8.832,0.135,9.17,0.349
						c0.359-0.145-7.963-0.221-9.021,0.02C261.006,120.438,251.902,120.418,251.908,120.228z"/>
				</g>
				<g>
					<path fill="#414042" d="M201.009,122.123c1.015,0.15,6.757-0.627,7.713-0.71c1.02-0.609,6.713,1.377,6.79,1.833
						c0.347-0.206-5.76-2.136-6.667-1.461C208.058,121.874,201.011,122.331,201.009,122.123z"/>
				</g>
				<g>
					<path fill="#414042" d="M195.138,123.564c0.937,0.185,6.4,0.49,7.291,0.396c0.831-0.011,6.441,0.273,6.702,0.279
						c0.262-0.002-5.832,0.091-6.61,0.093C201.734,124.466,195.123,123.677,195.138,123.564z"/>
				</g>
				<g>
					<path fill="#414042" d="M199.327,123.232c0.426,0.972,4.919,2.205,5.712,1.935c0.694,0.233,5.432-0.14,5.642-0.299
						c0.245,0.058-4.89,0.951-5.579,0.675c-0.335,0.014-1.929-0.18-3.353-0.695C200.329,124.267,199.345,123.205,199.327,123.232z"
						/>
				</g>
				<g>
					<path fill="#414042" d="M189.76,124.724c1.016-0.266,4.595-0.274,8.136-0.024c3.549,0.195,7.034-0.559,8.017-0.58
						c1.828-0.3,14.177-1.831,14.771-1.756c0.559-0.198-12.812,1.789-14.511,2.102c-0.85-0.01-4.949,0.794-8.863,0.405
						C193.426,124.423,189.755,124.66,189.76,124.724z"/>
				</g>
				<g>
					<path fill="#414042" d="M214.508,122.834c1.644,0.232,7.24-0.067,12.841-0.12c5.567,0.756,11.068,1.471,12.609,1.187
						c2.912,0.078,22.188-3.881,23.2-2.79c0.465,0.009-4.658-0.215-10.1,1.005c-5.427,1.116-11.351,2.193-12.735,2.128
						c-1.377,0.46-7.838-0.675-13.886-1.332C220.316,123.049,214.502,122.954,214.508,122.834z"/>
				</g>
				<g>
					<path fill="#414042" d="M254.676,123.751c1.336-0.139,9.195-0.79,10.459-0.905c1.211,0.034,9.186-0.925,9.551-1.118
						c0.391,0.041-8.246,1.543-9.379,1.476C264.195,123.312,254.673,123.744,254.676,123.751z"/>
				</g>
				<g>
					<path fill="#414042" d="M276.191,121.859c2,0.144,13.352-1.859,15.049-2.688c0.729-0.345,4.334-0.953,6.428-3.432
						c1.592-3.29-2.65-5.255-2.396-5.351c-0.697-0.076,3.504,1.268,2.773,5.025c-1.879,3.037-5.879,3.69-6.502,4.05
						C290.062,120.383,276.227,122.247,276.191,121.859z"/>
				</g>
				<g>
					<path d="M160.603,109.86c0.808,0.863,5.727,1.431,6.534,1.132c0.682,0.082,5.975,1.129,6.196,1.185
						c0.242-0.052-5.409,0.802-6.231,0.683c-0.362,0.001-2.194-0.35-3.788-1.052C161.702,111.051,160.623,109.818,160.603,109.86z"
						/>
				</g>
				<g>
					<path d="M161.137,110.318c0.629,0.432,4.148,1.217,4.734,1.266c0.51,0.129,3.713,2.481,3.815,2.592
						c0.159,0-3.857-0.649-4.39-0.814C164.694,113.365,160.949,110.491,161.137,110.318z"/>
				</g>
				<g>
					<path d="M162.62,112.492c0.835-0.211,5.647,0.861,6.331,1.224c0.628,0.358,4.612,3.185,4.954,3.14
						c0.214,0.211-5.112-1.012-5.661-1.41C167.685,115.037,162.721,112.33,162.62,112.492z"/>
				</g>
				<g>
					<path d="M166.618,113.859c0.445,0.271,1.763,1.273,3.277,1.615c1.523,0.319,3.052,0.275,3.496,0.301
						c0.76,0.019,6.393,1.644,6.546,1.863c0.242-0.135-5.783,0.035-6.659,0.002c-0.376-0.02-2.351-0.445-4.02-1.338
						C167.567,115.34,166.657,113.8,166.618,113.859z"/>
				</g>
				<g>
					<path d="M172.76,112.658c0.714,0.672,5.101,2.436,5.876,2.395c0.603,0.242,5.096,2.676,5.289,2.775
						c0.225,0.025-5.133-0.678-5.842-0.993C177.147,116.917,172.505,112.84,172.76,112.658z"/>
				</g>
				<g>
					<path d="M177.926,119.797c0.834-0.293,5.678-1.67,6.52-1.735c0.801-0.247,5.956,1.063,6.091,1.265
						c0.203-0.137-5.199,0.356-5.872,0.593C184.003,119.927,177.932,119.824,177.926,119.797z"/>
				</g>
				<g>
					<path d="M180.722,118.559c0.596,0.126,2.507,0.795,4.441,1.005c1.947,0.151,3.817-0.055,4.354-0.112
						c0.929,0.03,8.003,0.282,8.312,0.319c0.311-0.096-7.059,1.585-8.129,1.54c-0.477,0.056-2.94-0.123-5.083-0.856
						C182.452,119.745,180.75,118.492,180.722,118.559z"/>
				</g>
				<g>
					<path d="M172.298,114.748c0.693-0.571,5.263,0.295,5.868,0.824c0.767,0.23,3.551,3.944,3.597,4.116
						c0.181,0.046-3.925-2.343-4.477-2.466C176.938,116.656,172.466,114.396,172.298,114.748z"/>
				</g>
				<g>
					<path d="M162.003,110.306c0.748-0.364,5.603-0.975,6.527-0.458c0.373,0.09,1.854,0.953,2.494,2.324
						c0.768,1.276,0.463,2.653,0.618,2.704c-0.055,0.159-0.335-1.153-1.259-1.972c-0.809-0.926-2.136-1.163-2.398-1.262
						C167.656,111.145,162.056,110.188,162.003,110.306z"/>
				</g>
				<g>
					<path d="M159.591,110.736c0.588-0.239,2.63-1.09,4.882-1.42c2.242-0.266,4.609,0.137,5.203,0.412
						c1.749-0.057,6.652,6.254,6.587,6.62c0.374,0.024-5.962-5.151-7.15-4.826c-0.403-0.265-2.628-1.077-4.96-1.167
						C161.824,110.242,159.597,110.811,159.591,110.736z"/>
				</g>
				<g>
					<path d="M172.894,118.686c0.635-0.842,6.197-1.195,7.02-0.55c0.728,0.415,5.325,2.848,5.788,2.562
						c0.273,0.367-5.757-0.293-6.313-0.768c-0.338-0.104-1.846-0.864-3.382-1.142C174.454,118.42,172.899,118.771,172.894,118.686z"
						/>
				</g>
				<g>
					<path d="M187.441,120.064c0.645-0.492,5.077-2.202,5.899-2.211c0.807-0.23,5.509,1.199,5.653,1.324
						c0.173-0.076-4.839,0.338-5.422,0.534C192.981,119.607,187.46,119.971,187.441,120.064z"/>
				</g>
				<g>
					<path d="M179.899,120.862c1.195,0.774,8.368,1.93,9.531,1.636c1.012,0.271,8.553,1.064,8.932,0.968
						c0.382,0.033-7.826,1.239-8.958,0.898c-0.528-0.013-3.088-0.498-5.354-1.364C181.78,122.126,179.917,120.818,179.899,120.862z"
						/>
				</g>
				<g>
					<path d="M188.473,121.722c0.894,0.143,5.518-0.423,6.239-0.611c0.668-0.016,5.549,0.713,5.774,0.699
						c0.228-0.024-4.91,1.185-5.625,1.163C194.15,123.212,188.39,121.943,188.473,121.722z"/>
				</g>
				<g>
					<path d="M158.978,111.494c0.104-1.049,4.777-3.479,5.875-3.037c0.408,0.008,2.024,0.484,3.093,1.52
						c1.138,1.005,1.398,2.353,1.518,2.383c-0.02,0.174-0.656-1.014-1.875-1.473c-1.131-0.597-2.501-0.533-2.789-0.555
						c-0.275-0.062-1.734-0.225-3.182,0.053C160.195,110.695,158.998,111.523,158.978,111.494z"/>
				</g>
				<g>
					<path fill="#414042" d="M158.527,111.844c1.46-1.465,8.795,0.49,15.074,2.841c3.257,0.816,6.727,2.048,9.278,2.325
						c2.666,0.217,4.905-0.008,5.893,0.08c0.904-0.021,3.299,0.225,5.948,1.378c1.346,0.574,2.449,0.836,4.265,1.034
						c1.67,0.335,3.198,0.947,4.802,1.157c6.496,0.59,12.804-1.361,13.345-1.069c0.487-0.384-5.416,1.683-12.457,2.099
						c-1.789,0-3.576-0.484-5.158-0.771c-1.466-0.25-3.333-0.178-4.807-0.757c-2.712-1.015-4.786-1.178-5.603-1.188
						C185.178,121.913,158.253,108.338,158.527,111.844z"/>
				</g>
				<g>
					<path d="M161.551,110.336c0.619-0.26,2.892-1.113,5.372-1c2.49,0.061,4.838,1.246,5.392,1.639
						c1.732,0.425,5.611,8.035,5.409,8.463c0.454,0.087-5.092-6.82-6.361-6.848c-0.396-0.312-2.463-1.912-4.942-2.289
						C163.976,109.793,161.54,110.379,161.551,110.336z"/>
				</g>
				<g>
					<path fill="#414042" d="M161.34,114.342c0.639-0.13,2.494-0.656,4.105,0.904c1.795,1.363,4.23,0.651,6.94,1.153
						c2.537,0.899,4.576,2.415,6.267,1.567c1.636-0.897,4.076-1.058,4.6-0.742c1.491-0.018,6.197,2.356,10.664,3.659
						c4.707,0.443,9.429,0.426,9.729,0.919c0.362-0.194-3.963-0.289-9.138,0.115c-5.242-0.73-10.088-2.925-11.278-2.787
						c-0.745-0.187-1.787-0.591-4.144,0.367c-2.94,0.979-5.521-1.811-7.716-2.324c-2.511-0.059-5.795-0.656-7.062-2.305
						C162.793,113.82,161.272,114.488,161.34,114.342z"/>
				</g>
				<g>
					<path d="M175.852,114.719c0.805-1.46,7.406,0.341,8.077,1.289c0.416,0.265,1.78,1.652,2.69,3.214
						c1.009,1.564,1.077,3.273,1.046,3.375c0.044,0.132-0.354-1.398-1.633-2.589c-1.187-1.229-2.776-2.193-3.111-2.42
						c-0.316-0.248-1.835-1.559-3.561-2.326C177.642,114.352,175.838,114.688,175.852,114.719z"/>
				</g>
				<g>
					<path d="M162.047,113.141c0.291,0.939,2.08,3.694,4.894,5.138c2.655,1.6,5.664,2.396,6.472,2.637
						c0.749,0.269,3.643,1.441,6.603,2.053c2.948,0.687,5.901,0.515,6.169,0.433c0.273-0.045-2.604,0.766-5.829,0.549
						c-3.209-0.087-6.624-0.917-7.351-1.204c-0.745-0.211-4.298-1.632-7.075-3.944C162.935,116.597,161.987,113.094,162.047,113.141
						z"/>
				</g>
				<g>
					<path d="M161.562,112.766c0.674,0.438,2.832,2.054,5.176,3.238c2.376,1.145,4.84,1.924,5.52,2.144
						c1.107,0.762,9.971,3.635,10.496,3.517c0.455,0.232-9.783-0.821-10.985-1.714c-0.63-0.188-3.509-1.582-5.925-3.328
						C163.42,114.855,161.597,112.725,161.562,112.766z"/>
				</g>
				<g>
					<path d="M158.256,111.865c0.445,0.223,2.229,1.697,3.782,0.359c1.966-1.141,4.259,0.062,4.625,0.234
						c1.207,0.379,5.155,5.737,5.286,5.978c0.251,0.141-5.344-4.175-6.134-4.306c-0.388-0.162-1.875-1.572-3.709-0.854
						C159.474,114.17,158.225,111.551,158.256,111.865z"/>
				</g>
				<g>
					<path d="M157.813,112.039c-0.285-1.534,5.584-3.996,6.677-3.545c0.458,0,2.309,0.388,3.706,1.436
						c1.532,1.088,1.542,2.78,1.539,2.84c0.03,0.144-0.342-1.38-1.812-1.896c-1.362-0.604-3.064-0.486-3.409-0.509
						c-0.351-0.03-2.155-0.25-3.843,0.132C158.921,110.781,157.785,112.023,157.813,112.039z"/>
				</g>
				<g>
					<path d="M157.151,110.943c-0.973,2.424,6.146,5.411,7.195,5.705c1.021,0.372,7.32,4.954,7.133,5.549
						c0.6-0.264-6.822-3.467-7.861-3.826c-0.446-0.26-2.675-1.478-4.526-3.137C156.891,113.666,156.98,110.844,157.151,110.943z"/>
				</g>
				<g>
					<path d="M159.063,110.85c0.199,0.62,0.234,2.452,1.817,3.664c1.646,1.031,4.127,0.961,6.424,1.879
						c4.459,2.122,8.405,4.285,9.65,4.037c1.019,0.495,5.807-0.444,10.481,0.583c4.559,0.819,8.551,2.626,8.863,2.827
						c0.373,0.126-3.678-1.389-8.35-1.792c-4.611-0.79-9.509,0.785-10.927,0.261c-1.56,0.467-6.522-2.973-10.812-5.259
						c-2.177-0.97-5.205-1.147-6.357-3.09C158.912,112.146,159.16,110.828,159.063,110.85z"/>
				</g>
				<g>
					<path d="M185.249,119.209c1.539,1.445,9.153-1.611,10.91-1.188c1.535-0.379,9.153,3.632,9.223,4.123
						c0.407-0.18-8.099-2.708-9.291-2.264c-0.464-0.143-3.005-0.124-5.703,0.2C187.637,120.516,185.178,119.252,185.249,119.209z"/>
				</g>
				<g>
					<path fill="#414042" d="M161.423,110.488c-0.628-0.082-1.877,1.504-1.019,2.562c0.437,0.857,2.316,0.1,2.679,0.276
						c0.362,0.03,2.039,0.288,3.379,1.253c1.434,0.957,1.43,2.547,1.499,2.588c0.017,0.158-0.496-1.246-1.759-1.665
						c-1.215-0.444-2.796-0.267-3.151-0.31c-0.218-0.018-0.623-0.092-1.387-0.178c-0.631-0.061-2.257-0.555-2.287-1.832
						C158.994,110.674,161.603,110.326,161.423,110.488z"/>
				</g>
				<g>
					<path fill="#414042" d="M159.371,110.955c-0.69-0.113-1.877,1.449-1.029,2.757c0.713,1.099,2.137,1.489,2.509,1.612
						c0.493,0.406,5.672,2.711,5.835,2.897c0.303-0.053-5.68-0.606-6.516-1.155c-0.264-0.139-2.455-1.119-2.87-3.357
						C156.844,111.238,159.551,110.685,159.371,110.955z"/>
				</g>
			</g>
		</g>
	</g>
</g>
</svg>
