<?xml version="1.0" encoding="utf-8"?>
<!-- Generator: Adobe Illustrator 15.0.0, SVG Export Plug-In . SVG Version: 6.00 Build 0)  -->
<!DOCTYPE svg PUBLIC "-//W3C//DTD SVG 1.1//EN" "http://www.w3.org/Graphics/SVG/1.1/DTD/svg11.dtd">
<svg version="1.1" xmlns="http://www.w3.org/2000/svg" xmlns:xlink="http://www.w3.org/1999/xlink" x="0px" y="0px" width="300px"
	 height="300px" viewBox="0 0 300 300" enable-background="new 0 0 300 300" xml:space="preserve">
<g id="Layer_13">
	<g id="EUvz30_1_">
		
	</g>
</g>
<g id="Freestyle">
	<g>
		<g>
			<g>
				<path d="M144.791,108.392c-0.881,1.345-8.407,1.707-8.835,1.587c0.017-0.446-3.154-6.312-4.573-5.946
					c-1.04-0.598,7.656-3.2,8.57-1.863C141.049,102.915,144.391,108.59,144.791,108.392z"/>
			</g>
			<g>
				<path d="M140.521,110.047c-1.802,0.495-10.739,1.854-11.603,2.158c-0.546-0.577-8.577-5.057-9.646-4.326
					c-1.013-0.316,9.119-5.426,10.825-4.363C131.922,103.477,140.692,110.009,140.521,110.047z"/>
			</g>
			<g>
				<path d="M135.981,113.271c-1.309,0.95-7.835,4.453-8.614,4.71c-0.571-0.037-7.339-4.5-8.061-4.126
					c-0.612-0.084,6.628-4.9,7.878-4.642C128.382,109.094,136.088,113.21,135.981,113.271z"/>
			</g>
			<g>
				<path d="M141.723,112.27c-1.275,0.594-2.425,5.265-2.024,3.706c0.685,2.153-1.369-4.292-2.01-3.706
					c-0.466,0.124,0.973-3.955,1.813-3.998C140.361,108.183,142.166,112.388,141.723,112.27z"/>
			</g>
			<g>
				<path d="M140.793,113.901c1.144-1.187,7.022-5.354,7.903-5.589c0.865-0.263,7.624,4.533,7.963,4.495
					c0.327-0.03-6.255,4.154-7.171,4.243C148.521,117.125,140.722,113.896,140.793,113.901z"/>
			</g>
			<g>
				<path d="M152.133,112.682c0.051-1.485,4.078-7.855,5.137-8.333c0.939-0.592,8.595,2.478,8.822,2.435
					c0.217-0.103-4.861,5.397-5.502,5.691C159.878,112.563,152.22,112.49,152.133,112.682z"/>
			</g>
			<g>
				<path d="M157.672,114.246c-0.506-1.312,2.539-7.475,3.703-7.851c1.035-0.613,7.271,3.592,7.288,3.688
					c0.044-0.091-4.11,4.399-4.406,4.601C163.866,114.555,157.857,113.907,157.672,114.246z"/>
			</g>
			<g>
				<path d="M161.711,105.705c0.289-1.315,3.663-6.227,4.562-6.557c1.079-0.543,6.233,4.776,5.938,4.946
					c-0.108-0.136-3.977,3.46-4.265,3.669C167.587,107.779,161.791,105.635,161.711,105.705z"/>
			</g>
			<g>
				<path d="M164.077,102.903c-0.252-1.589,4.956-7.325,6.789-7.298c0.589-0.119,3.169,1.227,4.589,3.312
					c1.54,2.176,0.911,4.276,1.065,4.236c-0.382-0.822-4.998,0.501-5.271,1.226C171.217,103.908,164.295,102.452,164.077,102.903z"
					/>
			</g>
			<g>
				<path d="M166.372,112.27c0.331-1.13,2.943-5.001,3.428-5.171c0.833-0.09,2.522,5.741,2.283,5.673
					c-0.126-0.031-2.867,3.119-2.816,3.084C169.025,115.855,166.43,112.271,166.372,112.27z"/>
			</g>
			<g>
				<path d="M170.181,107.913c0.091-1.315,4.816-4.425,5.927-3.942c1.421,0.319,0.937,7.101,0.457,6.861
					c-0.159-0.288-4.235,0.875-4.141,1.109C172.698,111.828,170.597,107.843,170.181,107.913z"/>
			</g>
			<g>
				<path d="M175.315,104.615c0.141-0.508,1.164-2.039,3.079-3.082c1.77-0.621,4.524-0.857,4.889-0.359
					c2.209,1.017,0.181,8.76-0.334,8.26c-0.074-0.479-4.792-1.661-4.67-1.038C179.037,108.079,176.181,104.32,175.315,104.615z"/>
			</g>
			<g>
				<path d="M171.543,115.49c0.377-1.069,3.864-3.846,4.458-3.738c1.06,0.412-1.218,6.115-1.693,5.481
					c-0.374-0.372-3.237,1.8-2.836,2.028C171.54,119.345,171.728,115.576,171.543,115.49z"/>
			</g>
			<g>
				<path d="M140.249,114.354c-0.988,1.194-5.715,5.35-6.409,5.602c-0.706,0.26-6.468-4.538-6.75-4.506
					c-0.272,0.03,5.063-4.133,5.824-4.224C133.737,111.134,140.347,114.36,140.249,114.354z"/>
			</g>
			<g>
				<path d="M120.431,119.185c0.834,1.1,4.457,2.806,4.646,2.588c0.193-0.016-5.271,0.83-5.281,1.062
					c-0.008,0.174-3.463-1.732-3.433-2.095C116.424,120.129,120.528,118.864,120.431,119.185z"/>
			</g>
			<g>
				<path d="M121.032,116.006c-0.883,1.321-1.051,5.811-0.522,5.838c0.47-0.548-5.357-1.306-5.592-0.272
					c-0.469,0.581-1.612-5.385-0.323-6.205C115.496,114.203,121.418,115.644,121.032,116.006z"/>
			</g>
			<g>
				<path d="M118.649,114.372c-1.455,0.91-2.699,5.063-2.121,5.245c0.542-0.291-4.811-2.844-5.264-2.2
					c-0.485,0.318,0.146-5.258,1.458-5.699C113.94,110.76,119.245,114.108,118.649,114.372z"/>
			</g>
			<g>
				<path d="M118.752,110.592c-1.528,0.666-4.836,4.334-4.833,4.747c0.08,0-5.094-3.939-5.613-3.618
					c-0.469,0.084,3.048-5.024,4.223-5.043C113.708,106.125,119.222,110.411,118.752,110.592z"/>
			</g>
			<g>
				<path d="M124.468,101.84c-0.846,1.092-3.357,5.313-3.396,5.587c0.152-0.019-4.716-3.729-5.28-3.242
					c-0.528,0.117,2.052-5.172,3.099-5.265C119.798,98.599,124.684,101.729,124.468,101.84z"/>
			</g>
			<g>
				<path d="M127.122,101.44c-1.344,0.633-4.681,3.367-4.878,3.523c-0.291,0.108-1.167-5.757-1.374-5.814
					c-0.18-0.05,3.611-2.664,4.05-2.538C125.512,96.727,127.391,101.586,127.122,101.44z"/>
			</g>
			<g>
				<path d="M109.627,104.905c0.694,0.907,1.327,6.014,0.94,6.668c-0.169,0.396-6.157-1.455-6.298-1.322
					c-0.13,0.121-0.067-4.744,0.283-5.068C104.685,105.029,109.511,105.03,109.627,104.905z"/>
			</g>
			<g>
				<path d="M106.778,114.4c-0.274,1.423,0.862,5.349,1.15,5.271c0.469-0.218-4.536-2.633-4.909-2.121
					c-0.274,0.377-1.447-4.008-0.819-4.533C102.812,112.533,107.088,114.224,106.778,114.4z"/>
			</g>
			<g>
				<path d="M108.302,117.713c-0.185,0.934,2.687,5.506,1.606,3.958c-0.5-0.363-1.069-1.084-1.107-1.278
					c-0.896-0.703-2.694-0.351-2.61-0.281c0.018,0.038-0.874-0.279-1.304-1.535c-0.366-1.362-0.183-2.742-0.206-2.641
					C105.077,115.593,108.507,117.572,108.302,117.713z"/>
			</g>
			<g>
				<path d="M106.736,115.761c1.137,0.073,5.061,0.5,5.246,0.568c0.177,0.063-5.246,0.499-5.246,0.519
					c0,0.022-3.529-0.456-3.529-0.516C103.207,116.271,106.736,115.761,106.736,115.761z"/>
			</g>
			<g>
				<path d="M111.088,120.66c1.137,0.331,5.061,2.243,5.247,2.553c0.176,0.294-5.247,2.251-5.247,2.344
					c0,0.09-3.529-2.04-3.529-2.309C107.559,122.979,111.088,120.66,111.088,120.66z"/>
			</g>
			<g>
				<path d="M115.375,125.876c0.483,1.199-2.325,6.006-3.117,6.106c-0.742,0.274-4.063-5.079-4.113-5.109
					c-0.068,0.027,3.092-3.567,3.256-3.62C111.608,123.396,115.088,126.083,115.375,125.876z"/>
			</g>
			<g>
				<path d="M175.939,117.008c0.538,1.717,4.343,3.44,4.66,2.929c-0.138-0.541-3.894,3.996-3.491,4.5
					c0.181,0.452-4.864-1.144-5.026-2.406C171.333,120.736,175.797,116.274,175.939,117.008z"/>
			</g>
			<g>
				<path d="M179.679,121.373c1.251,0.651,5.776,1.629,5.999,1.406c-0.133-0.269-2.452,5.243-1.868,5.64
					c0.281,0.436-5.267-0.155-5.676-1.167C177.453,126.415,179.479,121.116,179.679,121.373z"/>
			</g>
			<g>
				<path d="M182.635,115.282c1.038-0.55,5.517-1.613,5.97-1.325c0.521,0.351-2.229,5.608-2.271,5.544
					c-0.008-0.014-4.217,0.396-4.282,0.294C181.984,119.649,182.645,115.31,182.635,115.282z"/>
			</g>
			<g>
				<path d="M187.118,108.857c1.145-0.761,7.743-0.276,8.585,0.65c1.23,0.862-0.976,8.349-1.316,8.116
					c0.062-0.218-5.02-2.357-5.347-2.399C189.074,114.917,187.407,108.904,187.118,108.857z"/>
			</g>
			<g>
				<path d="M193.838,115.425c0.552,0.18,1.952,1.238,3.156,3.074c0.682,1.771,0.814,4.567,0.397,5.005
					c-1.155,2.285-8.84,0.094-8.369-0.412c0.485-0.034,1.835-4.827,1.144-4.593c0.178-0.02,0.84,0.019,2.096-0.73
					C193.006,116.902,193.853,115.431,193.838,115.425z"/>
			</g>
			<g>
				<path d="M188.074,120.052c0.178,1.433,3.889,3.868,3.118,3.109c1.833-0.113-4.834,0.3-4.455,0.763
					c-0.047,0.311-3.484-1.918-3.242-2.771C183.664,120.088,188.26,119.605,188.074,120.052z"/>
			</g>
			<g>
				<path d="M175.308,113.584c1.245,0.621,5.278,0.892,5.438,0.729c0.158-0.128-4.376,3.193-4.262,3.463
					c0.087,0.207-3.951-0.377-4.103-0.811C172.163,116.438,175.271,113.276,175.308,113.584z"/>
			</g>
			<g>
				<path d="M181.77,112.178c0.613-0.936,4.509-3.224,5.026-3.029c0.569,0.22-1.352,5.676-1.445,5.586
					c-0.044-0.04-3.672,1.564-3.679,1.539C181.687,116.227,181.884,112.267,181.77,112.178z"/>
			</g>
			<g>
				<path d="M46.229,62.001c1.98,7.733,32.272,37.744,39.121,38.889c2.652,1.455,13.056,8.296,24.808,9.487
					c11.656,1.267,23.088,0.749,24.055,0.918c0.973-0.212-10.071,1.245-22.492,1.436c-12.759,0.192-25.404-6.021-27.874-7.666
					C75.906,104.384,43.329,63.774,46.229,62.001z"/>
			</g>
			<g>
				<path d="M42,83.971c2.918,1.665,11.168,11.257,22.439,14.572c11.369,2.87,22.418,9.448,24.831,10.745
					c2.332,1.769,12.804,6.968,24.254,6.729c11.291,0.215,22.027-2.492,22.963-2.547c0.902-0.417-9.282,3.354-21.197,4.721
					c-12.062,1.775-25.153-2.866-27.485-4.689c-2.94-1.697-13.452-9.044-25.982-13.444C49.435,93.975,42.447,83.443,42,83.971z"/>
			</g>
			<g>
				<path d="M34.993,119.396c1.368,0.632,4.628,1.517,8.513,0.385c3.744-0.943,8.548-3.088,13.524-2.969
					c9.837-0.745,19.765,0.861,22.219,1.164c2.585,0.161,12.027,2.864,21.188,3.266c9.478,1.047,17.338-4.425,17.773-5.147
					c0.811-0.695-5.809,7.028-16.311,7.281c-9.949,1.04-20.396-0.83-22.656-0.968c-2.521-0.307-13.19-3.149-23.729-3.196
					c-5.092-0.383-10.033,1.751-14.104,1.766C37.274,121.139,34.983,119.26,34.993,119.396z"/>
			</g>
			<g>
				<path d="M29.37,120.815c2.951,10.404,38.618,2.843,43.946,3.702c2.66-0.084,12.65,1.209,22.18,1.377
					c9.611,0.533,18.549-2.278,19.305-2.648c0.819-0.408-7.6,4.126-17.776,4.803c-10.033,1.066-20.809,0.828-23.186,0.865
					c-2.392-0.431-13.663,0.147-24.909-0.253c-5.541-0.277-11.023-1.168-14.766-3.014C30.189,123.907,29.411,120.649,29.37,120.815z
					"/>
			</g>
			<g>
				<path d="M113.392,122.996c-3.065,1.728-18.36,14.132-20.919,16.17c-1.096,0.84-6.665,3.808-12.142,5.194
					c-5.571,1.625-10.921,1.004-11.308,0.9c-0.464,0.021,4.729-0.135,9.763-2.717c5.16-2.308,9.743-5.991,10.953-6.821
					C91.812,133.938,113.167,122.488,113.392,122.996z"/>
			</g>
			<g>
				<path d="M166.917,110.749c2.398-0.813,10.681,2.709,16.547,8.986c6.175,5.782,10.695,13.677,10.915,16.353
					c0.488,2.059,2.449,11.054-0.356,19.161c-2.438,8.5-10.163,11.959-10.436,12.366c-0.904,0.271,6.493-3.812,7.997-11.845
					c1.872-7.712-0.847-16.305-1.345-18.125c0.114-1.942-3.336-10.383-9.432-17.304C175.251,112.92,166.996,110.052,166.917,110.749
					z"/>
			</g>
			<g>
				<path d="M179.45,124.354c2.514-0.549,11.832,0.226,20.122,4.331c8.341,3.88,16.063,7.996,18.405,9.159
					c2.127,0.779,10.689,7.58,12.074,16.798c1.583,8.616,3.424,16.626,3.935,17.303c0.178,0.786-3.185-6.967-5.694-15.454
					c-2.302-8.855-10.182-13.748-12.05-14.575c-1.766-0.871-10.729-6.902-19.041-11.765
					C188.773,124.896,179.444,124.223,179.45,124.354z"/>
			</g>
			<g>
				<path d="M179.432,114.016c3.114-0.316,14.155,0.141,24.707,3.329c10.565,2.938,20.723,6.745,23.545,7.729
					c2.63,0.942,12.545,5.557,22.35,8.936c9.698,4.141,20.266,2.712,20.553,0.579c0.331-0.459-1.176,1.891-5.098,2.717
					c-3.825,0.816-9.199,0.337-14.541-0.772c-10.719-2.296-21.742-6.222-24.237-7.138c-2.507-0.871-13.883-6.294-24.969-10.341
					C190.688,114.596,179.42,114.007,179.432,114.016z"/>
			</g>
			<g>
				<path d="M266.115,110.143c-0.136,3.728-9.802,12.337-22.067,13.263c-11.779,1.796-23.638,0.362-26.869-0.092
					c-3.302,0.206-14.589-5.006-24.695-8.749c-5.392-1.66-10.688-2.037-14.955-2.364c-4.249-0.386-6.665-2.101-7.087-2.23
					c-0.389-0.309,1.667,1.023,5.525,1.368c3.733,0.398,9.608-0.558,15.367,0.749c11.902,2.537,22.977,7.101,25.872,6.784
					c2.656,0.456,15.895,3.188,28.433,1.96c6.241-0.498,12.151-2.424,15.701-5.14C264.931,112.988,266.011,110.041,266.115,110.143z
					"/>
			</g>
			<g>
				<path d="M175.098,108.027c2.451-0.615,11.335,0.016,19.83,1.668c8.633,1.81,16.485-0.451,18.579-1.37
					c1.974-0.151,10.067-4.541,19.104-4.367c8.372,0.248,16.28,1.61,16.897,1.881c0.669-0.004-7.017-0.651-15.68,0.325
					c-8.205,0.396-16.088,5.827-18.46,6.164c-1.873,1.127-13.126,2.779-22.325-0.606
					C183.909,108.645,175.152,107.85,175.098,108.027z"/>
			</g>
			<g>
				<path fill="#414042" d="M103.181,113.467c0.904-0.387,5.146-2.098,5.686-2.281c0.445,0.02,5.019,1.942,5.389,1.723
					c0.344,0.046-4.328,2.769-5.13,2.649C108.353,115.707,103.093,113.548,103.181,113.467z"/>
			</g>
			<g>
				<path fill="#414042" d="M111.404,106.396c1.071-1.372,9.022,0.637,9.752,1.542c0.574,0.961,5.504,5.948,6.563,5.531
					c0.489,0.823-8.515-0.629-9-1.881C118.078,110.442,111.947,105.712,111.404,106.396z"/>
			</g>
			<g>
				<path fill="#414042" d="M132.279,104.491c-1.7-0.663-8.429,0.16-8.872,1.347c-0.64,0.088-8.619,1.31-8.907,1.365
					c-0.249,0.228,5.91-5.127,7.387-5.478c0.44-0.282,3.69-0.629,6.159,0.372C130.569,102.961,132.21,104.609,132.279,104.491z"/>
			</g>
			<g>
				<path fill="#414042" d="M128.135,103.101c-0.606-0.552-2.28-2.472-4.295-2.635c-2.041-0.034-3.7,0.834-4.159,1.065
					c-0.94-0.712-8.197,2.385-8.13,3.73c-1.129,0.112,4.425-8.447,6.795-7.902c0.524-0.322,4.088-0.534,6.777,1.08
					C127.875,100.344,127.941,103.258,128.135,103.101z"/>
			</g>
			<g>
				<path fill="#414042" d="M120.77,115.216c0.124,0.312,0.94,2.587-1.091,4.211c-1.843,1.455-3.663,1.857-4.062,2.074
					c-0.997-0.533-6.534-0.424-6.788,1.18c0.083,0.332,0.002-1.913,1.819-3.335c1.721-1.552,3.871-2.072,4.236-2.167
					c0.464-0.122,2.585,0.229,3.978,0.047C120.189,117.125,120.689,115.141,120.77,115.216z"/>
			</g>
			<g>
				<path fill="#414042" d="M111.404,119.684c-1.3,0.514-8.506,2.655-9.544,2.929c-0.946-0.03-8.622-1.047-9.095-0.728
					c-0.486-0.032,7.306-3.743,8.536-3.62C102.461,118.022,111.449,119.617,111.404,119.684z"/>
			</g>
			<g>
				<path fill="#414042" d="M105.42,124.039c-0.618,0.57-4.237,2.526-4.823,2.623c-0.554,0.088-4.25-2.623-4.423-2.623
					c-0.174,0,3.847-1.765,4.357-1.765C101.041,122.274,105.42,124.039,105.42,124.039z"/>
			</g>
			<g>
				<path fill="#414042" d="M104.979,119.153c-0.616,0.443-3.825,1.663-4.28,1.666c-0.415,0-2.659-3.265-2.812-3.298
					c-0.147-0.032,3.339-1.078,3.753-0.991C102.051,116.608,104.982,119.157,104.979,119.153z"/>
			</g>
			<g>
				<path fill="#414042" d="M113.741,122.485c1.25-0.437,3.164,4.74,1.648,5.812c-0.762,1.509-5.843,0.378-5.672,0.098
					c0.156,0.135,2.759-2.705,2.311-2.925C112.549,126.003,114.25,123.03,113.741,122.485z"/>
			</g>
			<g>
				<path fill="#414042" d="M116.443,125.159c0.599,0.138,1.564,3.048-0.907,4.809c-1.936,1.599-4.127,2.438-4.713,2.633
					c-1.247,0.36-8.889-1.354-9.353-0.92c-0.411-0.241,7.565-3.199,8.406-3.364c0.448-0.121,2.927-0.031,4.78-0.583
					C116.76,127.41,116.425,125.179,116.443,125.159z"/>
			</g>
			<g>
				<path fill="#414042" d="M116.119,124.708c0.245-0.848,1.125-3.562,2.738-6.156c1.673-2.65,4.807-4.38,5.995-4.482
					c1.084-0.595,4.909,1.183,6.552,2.961c1.954,1.909,4.985,1.321,5.182,1.309c0.288-0.248-2.2,1.74-5.626,0.921
					c-3.229-1.063-5.048-1.209-5.479-0.846c-0.222-0.153-2.953,0.334-5.23,2.06C118.081,122.405,116.119,124.742,116.119,124.708z"
					/>
			</g>
			<g>
				<path fill="#414042" d="M139.827,110.402c1.325,0.192,2.119,6.818,0.08,7.781c-1.205,1.794-7.445-0.335-7.221-0.674
					c0.086,0.256,4.764-2.037,4.36-2.664C137.808,115.519,140.304,110.96,139.827,110.402z"/>
			</g>
			<g>
				<path fill="#414042" d="M135.056,113.233c-1.233-0.462-7.276-0.981-7.983-0.764c-0.428-0.721-6.146-2.173-6.736-0.806
					c-0.052,0.256,0.658-1.664,2.71-2.594c1.953-0.976,4.297-0.99,4.775-0.917C129.199,108,135.36,113.023,135.056,113.233z"/>
			</g>
			<g>
				<path fill="#414042" d="M142.212,109.604c1.164,0.091,5.67-0.655,6.289-0.871c0.596-0.062,5.127,3.048,5.274,3.094
					c0.207-0.006-4.893,1.31-5.655,1.284C147.21,113.294,141.979,109.771,142.212,109.604z"/>
			</g>
			<g>
				<path fill="#414042" d="M142.541,111.951c0.612,0.458,2.769,2.261,2.888,2.54c0.136,0.443-2.35,2.89-2.343,2.898
					c0.007,0.036-1.986-2.075-2.001-2.274C141.046,114.786,142.532,111.869,142.541,111.951z"/>
			</g>
			<g>
				<path fill="#414042" d="M148.003,113.175c0.665,0.153,3.118,1.105,3.299,1.325c0.199,0.278-1.683,2.981-1.667,3.027
					c0.023,0.057-2.329-1.182-2.402-1.378C147.138,115.896,147.993,113.143,148.003,113.175z"/>
			</g>
			<g>
				<path fill="#414042" d="M155.058,112.496c0.571,0.291,2.531,1.994,2.623,2.27c0.09,0.266-2.622,2-2.623,2.086
					c0.001,0.081-1.765-1.811-1.765-2.05C153.293,114.562,155.059,112.496,155.058,112.496z"/>
			</g>
			<g>
				<path fill="#414042" d="M149.086,113.703c0.283,0.212,1.273,1.022,1.596,2.529c0.276,1.5-0.717,3.318-1.093,3.482
					c-1.113,1.223-5.651-0.964-5.527-1.123c0.057,0.134,3.336-2.166,2.936-2.42C147.371,116.911,149.45,114.391,149.086,113.703z"/>
			</g>
			<g>
				<path fill="#414042" d="M145.27,112.956c0.646,0.398,1.271,4.472,0.442,5.24c-0.679,1.196-5.178,0.09-4.984-0.145
					c0.198,0.031,1.952-2.6,1.662-2.737C142.586,115.633,145.321,113.229,145.27,112.956z"/>
			</g>
			<g>
				<path fill="#414042" d="M150.75,113.393c0.093,1.047,1.87,3.033,2.117,2.748c-0.293-0.313-0.921,2.978-0.296,3.268
					c0.245,0.423-3.693-0.667-3.854-1.865C148.064,116.515,150.611,112.991,150.75,113.393z"/>
			</g>
			<g>
				<path fill="#414042" d="M153.968,111.408c0.502,1.016,3.233,3.488,3.683,3.438c-0.083,0.158,0.936,4.394,1.448,4.566
					c0.245,0.329-4.61-1.006-5.003-2.003C153.092,116.758,153.644,111.183,153.968,111.408z"/>
			</g>
			<g>
				<path fill="#414042" d="M155.08,111.543c0.74,0.725,4.133,2.671,4.505,2.684c-0.062,0.197,1.657,4.127,2.357,4.134
					c0.33,0.392-4.917-0.046-5.451-1.036C155.611,116.785,154.819,111.45,155.08,111.543z"/>
			</g>
			<g>
				<path fill="#414042" d="M158.879,111.512c0.799,1.201,4.617,2.802,5.264,2.668c0.401,0.158,3.426,4.627,3.664,4.686
					c0.215,0.14-5.112-0.425-5.88-0.904C160.572,117.837,158.295,111.493,158.879,111.512z"/>
			</g>
			<g>
				<path fill="#414042" d="M162.37,111.248c0.894-0.293,6.009,0.649,6.724,1.28c0.974,0.454,1.983,6.067,1.788,6.14
					c0.141-0.075-4.058-2.587-4.569-2.738C166.078,115.493,162.524,111.196,162.37,111.248z"/>
			</g>
			<g>
				<path fill="#414042" d="M161.904,111.979c-0.019-0.568-0.771-2.923,0.665-5.356c1.501-2.308,4.772-3.162,5.5-2.955
					c0.79-0.047,3.595,1.279,4.753,3.507c1.438,2.039,1.057,4.318,1.296,4.351c0.464-0.496-5.494-4.732-6.359-3.467
					c-0.336-0.184-2.057-0.56-3.65,0.469C162.387,109.542,162.107,112.123,161.904,111.979z"/>
			</g>
			<g>
				<path fill="#414042" d="M158.511,105.18c0.209-1.419,5.455-7.705,7.446-8.003c0.359-0.27,4.484-0.562,5.914,2.452
					c0.914,2.586-0.094,4.533,0.054,4.716c-0.022,0.268-0.478-2.021-1.703-3.157c-1.113-0.943-2.385,0.064-2.888,0.167
					C166.66,100.843,158.364,104.822,158.511,105.18z"/>
			</g>
			<g>
				<path fill="#414042" d="M168.16,99.292c0.783-0.391,4.166-2.923,8.354-1.12c3.79,2.124,5.386,6.038,5.817,6.874
					c0.762,2.015,1.512,14.562,3.328,14.823c-0.968,1.309-7.141-11.788-7.383-13.133c-0.316-0.696-0.976-4.876-3.498-6.785
					C172.144,97.861,168.017,99.503,168.16,99.292z"/>
			</g>
			<g>
				<path fill="#414042" d="M179.432,103.13c0.396-0.918,5.856-1.064,6.583,0.112c1.144,0.697,0.836,6.126,0.62,6.102
					c0.104-0.097-3.295-2.971-3.643-2.908C183.211,105.856,179.887,102.925,179.432,103.13z"/>
			</g>
			<g>
				<path fill="#414042" d="M184.791,105.844c1.132-1.231,8.111,1.963,8.434,3.607c1.192,1.093,0.157,8.424-0.073,8.521
					c0.222,0.098-2.995-5.994-3.694-6.267C189.82,110.645,185.53,105.349,184.791,105.844z"/>
			</g>
			<g>
				<path fill="#414042" d="M174.793,111.73c1.508,0.966,10.385,3.163,11.854,3.878c1.885,0.15,7.552,8.921,6.519,9.526
					c0.761-0.473-6.889-5.625-8.508-5.606C183.646,119.088,174.483,112.14,174.793,111.73z"/>
			</g>
			<g>
				<path fill="#414042" d="M178.591,123.147c1.246,0.823,5.55,4.48,7.681,9.759c2.319,5.126,2.957,10.807,2.981,12.327
					c0.886,3.267-5.242,21.484-5.876,22.091c0.263,0.856,2.377-19.351,1.49-21.733c0.063-1.234,0.39-7.251-1.092-12.739
					C182.366,127.31,178.562,123.136,178.591,123.147z"/>
			</g>
			<g>
				<path fill="#414042" d="M179.979,122.179c1.309-1.097,11.242-0.954,12.685,0.604c1.586,0.718,7.247,8.391,7.753,8.569
					c0.316,0.379-8.977-4.318-9.856-4.71C190.116,125.25,180.335,121.696,179.979,122.179z"/>
			</g>
			<g>
				<path fill="#414042" d="M174.745,112.785c0.608-1.589,8.211-6.705,10.8-5.996c0.796,0.021,4.374,2.564,4.654,5.979
					c0.488,3.172-1.616,5.021-1.285,5.16c-0.094,0.302-0.902-2.038-2.391-2.603c-1.248-0.686-2.457,0.273-2.729,0.084
					C184.154,114.729,174.987,112.449,174.745,112.785z"/>
			</g>
			<g>
				<path fill="#414042" d="M188.139,119.345c0.307-2.245,9.16-1.563,9.798-0.223c0.914,0.85,0.356,8.416,1.125,8.763
					c0.192,0.564-7.401-2.436-7.554-2.782C191.477,124.2,189.146,119.021,188.139,119.345z"/>
			</g>
			<g>
				<path fill="#414042" d="M172.81,107.786c0.149-2.101,8.918-9.466,11.973-8.978c0.943-0.09,5.372,1.728,6.898,5.313
					c1.712,3.379,0.1,6.298,0.509,6.36c-0.079,0.385-1.35-2.331-3.407-2.928c-1.803-0.855-3.709,0.164-4.148,0.049
					C184.426,106.556,172.957,107.083,172.81,107.786z"/>
			</g>
			<g>
				<path fill="#414042" d="M106.947,111.385c0.176,0.571-0.779,3.368-3.724,4.351c-2.733,1.148-5.5,1.089-6.139,0.975
					c-1.762-0.248-5.739-8.617-5.935-8.775c-0.239-0.083,8.336,0.572,8.882,0.512C100.712,109.521,106.371,112.859,106.947,111.385z
					"/>
			</g>
			<g>
				<path fill="#414042" d="M111.423,108.473c-2.64-1.194-11.957,3.781-20.82-0.525c-8.506-3.965-15.313-10.01-17.446-11.531
					c-2.028-1.36-8.607-8.28-12.614-16.205c-4.163-7.79-7.286-15.565-7.699-16.21c-0.265-0.715,3.395,6.812,8.01,14.56
					c4.506,7.881,11.529,14.585,13.289,15.827c1.693,1.152,9.469,8.815,18.28,13.098c4.359,2.438,9.402,1.313,12.964,1.066
					C109.02,108.185,111.429,108.509,111.423,108.473z"/>
			</g>
			<g>
				<path fill="#414042" d="M106.874,122.173c-0.503,3.959-16.829,15.228-20.15,15.691c-2.604,1.936-22.244,5.199-23.189,4.347
					c-0.714,1.017,19.87-4.386,22.041-6.244c1.248-0.463,7.285-2.756,12.452-6.012C103.338,126.842,106.908,122.18,106.874,122.173z
					"/>
			</g>
			<g>
				<path fill="#414042" d="M110.317,122.078c-2.57-0.074-10.92,1.915-19.612,1.949c-8.898-0.548-16.352-5.658-18.578-5.319
					c-2.21-0.381-10.521-2.57-18.649-3.566c-8.146-1.324-15.99,0.12-16.654,0.4c-0.737,0.174,6.925-2.388,15.555-1.603
					c8.561,0.374,17.639,2.147,19.656,2.515c2.582-0.533,10.995,5.994,20.114,6.459
					C101.345,122.895,110.333,121.755,110.317,122.078z"/>
			</g>
			<g>
				<path fill="#414042" d="M191.564,114.272c1.928-4.471,11.519,1.609,17.739,7.938c7.517,5.264,16.641,7.529,19.057,8.04
					c4.52,1.902,36.296,9.048,38.123,6.955c0.793-0.032-7.777,1.004-16.999-0.506c-9.2-1.348-18.917-3.633-21.115-4.184
					c-2.172-0.42-13.003-3.467-20.976-10.416c-3.668-3.544-7.179-7.116-10.502-8.552
					C193.362,111.871,191.484,114.487,191.564,114.272z"/>
			</g>
		</g>
	</g>
</g>
</svg>
