<?xml version="1.0" encoding="utf-8"?>
<!-- Generator: Adobe Illustrator 15.0.0, SVG Export Plug-In . SVG Version: 6.00 Build 0)  -->
<!DOCTYPE svg PUBLIC "-//W3C//DTD SVG 1.1//EN" "http://www.w3.org/Graphics/SVG/1.1/DTD/svg11.dtd">
<svg version="1.1" xmlns="http://www.w3.org/2000/svg" xmlns:xlink="http://www.w3.org/1999/xlink" x="0px" y="0px" width="300px"
	 height="300px" viewBox="0 0 300 300" enable-background="new 0 0 300 300" xml:space="preserve">
<g id="Layer_13">
	<g id="EUvz30_1_">
		
	</g>
</g>
<g id="fu_manchu">
	<g>
		<g>
			<path d="M138.964,109.136c-2.509-0.845-8.433-4.041-16.247-2.598c-8.025,1.362-14.358,9.757-17.668,18.413
				c-6.77,17.715-7.6,36.865-8.273,41.98c-0.934,9.84-5.696,76.056-4.741,79.199c-1.11,3.07,2.26-69.029,3.295-78.157
				c0.696-4.405,1.592-26.881,10.317-46.116c4.021-9.707,13.337-16.961,21.338-16.002
				C134.606,106.479,138.919,109.364,138.964,109.136z"/>
		</g>
		<g>
			<path d="M91,244.274c-1.915-5.122,5.816-21.007,5.466-37.841c-0.583-16.723,0.069-33.505,0.874-38.125
				c0.365-4.328,3.182-21.401,11.329-35.551c3.618-7.114,8.299-13.951,13.782-16.723c5.542-2.901,9.967-0.85,10.494-0.828
				c0.703,0.466-2.747-1.686-8.245,0.07c-5.507,1.809-10.701,8.403-14.371,15.734c-8.299,14.546-11.257,32.475-11.503,36.448
				c-0.999,3.961-1.783,23.241-1.763,41.704c-0.242,9.266-2.727,18.016-4.713,24.312C90.455,239.877,91.091,244.296,91,244.274z"/>
		</g>
		<g>
			<path d="M139.005,115.01c-1.491-1.331-5.546-6.408-12.329-5.196c-6.562,1.649-11.346,8.915-14.864,15.792
				c-7.439,14.198-9.542,29.987-9.811,34.36c-0.647,8.16-9.198,63.637-4.137,66.09c-4.504,2.829,1.437-57.775,2.667-65.288
				c0.213-3.738,2.742-22.541,11.865-37.771c4.076-7.389,10.872-14.941,17.885-13.559
				C136.651,111.07,138.871,115.326,139.005,115.01z"/>
		</g>
		<g>
			<path d="M135.755,113.055c-1.538-1.354-7.092-6.787-14.035-3.068c-6.345,3.714-10.547,11.959-13.883,19.902
				c-6.629,16.217-9.571,33.561-10.437,38.262c-1.042,4.457-2.928,21.963-3.809,38.806c-0.278,8.436-2.307,16.535-1.739,22.867
				c0.143,6.345,1.918,10.502,2.111,11.175c0.362,0.659-1.41-2.661-2.132-8.667c-1.107-5.993,0.574-14.403,0.937-22.987
				c0.592-17.373,2.125-36.191,3.127-40.359c0.716-4.153,4.325-24.362,12.421-41.996c3.975-8.461,9.553-17.555,17.126-18.465
				C132.859,108.385,135.641,113.617,135.755,113.055z"/>
		</g>
		<g>
			<path fill="#414042" d="M137.632,111.072c-2.42-0.234-7.945-1.376-14.795,0.011c-6.917,1.114-14.184,6.727-17.485,14.493
				c-6.713,15.518-5.495,32.871-5.872,37.359c-0.326,4.393,0.416,21.336-0.437,37.564c-2.494,16.044-5.307,31.198-5.053,32.651
				c-0.382,1.36,1.433-13.939,4.16-30.401c0.949-16.578-0.428-34.729-0.031-38.795c0.534-3.805-1.132-24.33,7.88-41.126
				c4.528-8.51,13.931-12.551,20.598-12.526C133.328,109.99,137.63,111.209,137.632,111.072z"/>
		</g>
		<g>
			<path fill="#414042" d="M93.596,231.924c-4.59-9.705,7.37-65.83,11.444-73.969c2.062-3.886,2.486-20.711,7.593-35.906
				c2.188-7.814,9.919-13.262,16.008-11.999c5.945,0.579,9.485,3.059,10.127,3.179c0.545,0.487-2.339-1.586-7.824-2.758
				c-5.498-1.515-14.039,1.689-16.843,9.709c-5.629,15.246-5.437,33.443-7.494,37.152c-1.002,3.98-7.671,21.722-10.338,39.759
				C91.777,214.79,93.085,231.998,93.596,231.924z"/>
		</g>
		<g>
			<path fill="#414042" d="M134.429,115.632c-2.022-0.806-7.015-4.104-13.619-2.415c-6.633,1.684-11.577,8.938-14.628,16.162
				c-6.146,14.83-7.972,30.904-8.776,35.221c-0.757,4.13-2.901,20.125-4.493,35.507c-3.232,15.382,1.586,29.96,1.708,31.147
				c0.684,1.346-5.02-12.89-2.634-29.011c1.36-15.855,3.186-33.047,3.936-36.867c0.775-3.726,2.961-22.56,10.71-38.659
				c3.657-7.924,10.84-14.895,17.77-14.228C130.925,112.889,134.377,115.902,134.429,115.632z"/>
		</g>
		<g>
			<path d="M137.734,114.405c-0.757-1.371-2.097-6.302-7.426-7.325c-5.203-0.658-10.849,3.208-14.856,7.684
				c-8.051,9.585-8.924,22.615-9.611,25.774c0.015,6.686-11.841,48.503-12.487,50.416c-0.422,1.978,11.174-43.784,11.032-49.866
				c0.718-2.581,1.673-18.287,11.943-28.271c4.752-4.663,12.064-8.043,16.713-4.981C137.29,110.779,137.487,114.637,137.734,114.405
				z"/>
		</g>
		<g>
			<path d="M138.337,115.641c-1.927-2.137-12.395-5.336-20.946,0.07c-8.712,4.42-13.787,13.025-14.603,15.377
				c-3.562,4.145-3.664,38.395-4.901,39.768c1.086,1.719-0.031-35.229,3.452-39.737c0.473-2.331,6.949-12.556,17.133-16.765
				c4.929-2.162,10.393-2.555,14.13-1.463C136.346,113.986,138.286,115.754,138.337,115.641z"/>
		</g>
		<g>
			<path d="M137.093,113.801c-0.203-0.875,0.04-3.334-1.957-5.266c-2.054-1.897-5.625-1.611-8.603-0.579
				c-6.186,1.984-11.116,6.362-11.858,7.909c-1.284,1.045-4.502,6.79-4.786,13.116c-0.572,6.215,0.316,12.2,0.323,12.716
				c0.17,0.525-1.179-5.309-1.054-11.846c-0.206-6.599,2.824-13.459,4.214-14.489c0.602-1.612,6.822-6.823,13.993-8.4
				c3.467-0.954,7.709-0.132,8.882,2.607C137.358,112.025,136.948,113.828,137.093,113.801z"/>
		</g>
		<g>
			<path d="M163.783,109.374c2.464-0.911,8.265-4.241,16.159-2.96c8.127,1.189,14.755,9.608,18.247,18.289
				c7.155,17.762,8.307,36.971,9.012,42.109c0.993,9.916,4.088,76.172,3.134,79.321c1.116,3.089-3.344-68.964-4.372-78.036
				c-0.688-4.383-1.335-26.811-9.7-45.889c-3.878-9.63-12.771-16.725-20.601-15.916
				C168.177,106.797,163.815,109.602,163.783,109.374z"/>
		</g>
		<g>
			<path d="M211.896,244.293c1.736-5.245-6.358-20.846-6.378-37.853c0.229-16.798-0.738-33.396-1.556-37.965
				c-0.397-4.29-2.761-21.192-10.49-35.448c-3.437-7.209-7.878-14.076-13.286-17c-5.469-3.062-10.051-1.111-10.575-1.076
				c-0.71,0.48,2.74-1.796,8.467-0.092c5.732,1.78,11.12,8.44,14.94,15.773c8.588,14.479,11.892,32.656,12.128,36.646
				c1.007,3.995,1.526,23.521,1.238,41.842c0.105,9.209,2.42,17.858,4.323,24.241C212.514,239.841,211.806,244.324,211.896,244.293z
				"/>
		</g>
		<g>
			<path d="M163.824,115.187c1.438-1.364,5.267-6.527,12.159-5.493c6.703,1.51,11.719,8.763,15.419,15.612
				c7.804,14.073,10.278,30.155,10.57,34.489c0.707,8.178,7.585,63.921,2.541,66.189c4.494,2.821-2.526-57.506-3.748-65.049
				c-0.227-3.774-2.425-22.271-11.229-37.546c-3.933-7.394-10.458-14.763-17.12-13.529
				C166.278,111.319,163.933,115.502,163.824,115.187z"/>
		</g>
		<g>
			<path d="M167.062,113.245c1.486-1.382,6.801-6.949,13.911-3.376c6.499,3.611,10.909,11.845,14.421,19.76
				c7.001,16.197,10.254,33.508,11.168,38.289c1.08,4.516,2.574,22.169,3.04,39.007c0.079,8.424,1.901,16.558,1.177,22.898
				c-0.3,6.343-2.16,10.408-2.35,11.073c-0.354,0.652,1.331-2.659,1.945-8.607c0.99-6.006-0.794-14.149-1.309-22.902
				c-0.867-17.391-2.657-36.07-3.657-40.186c-0.699-4.073-4.039-24.288-11.822-41.875c-3.805-8.47-9.246-17.447-16.438-18.371
				C170.071,108.688,167.142,113.791,167.062,113.245z"/>
		</g>
		<g>
			<path fill="#414042" d="M165.048,111.334c2.403-0.316,7.869-1.604,14.772-0.377c6.966,0.94,14.522,6.493,18.047,14.332
				c7.146,15.654,6.222,33.128,6.631,37.629c0.349,4.422-0.796,21.398-0.35,37.545c2.076,16.008,4.483,31.302,4.229,32.707
				c0.376,1.33-1.689-13.818-4.696-30.311c-1.232-16.785-0.117-34.832-0.517-38.886c-0.518-3.784,1.355-24.22-7.229-40.733
				c-4.292-8.348-13.328-12.407-19.933-12.506C169.362,110.324,165.046,111.468,165.048,111.334z"/>
		</g>
		<g>
			<path fill="#414042" d="M209.298,231.973c4.218-9.975-8.853-65.405-12.996-73.65c-2.128-4.047-2.177-21.021-6.821-36.064
				c-1.973-7.749-9.341-13.265-15.488-12.205c-5.966,0.422-9.611,2.832-10.25,2.951c-0.54,0.494,2.302-1.657,7.87-2.953
				c5.54-1.692,14.652,1.541,17.665,9.821c5.992,15.514,6.024,33.582,8.057,37.118c0.939,3.731,7.455,21.998,9.828,39.955
				C211.398,214.732,209.812,232.064,209.298,231.973z"/>
		</g>
		<g>
			<path fill="#414042" d="M168.335,115.859c1.978-0.863,6.82-4.291,13.519-2.768c6.753,1.533,11.963,8.799,15.194,16.021
				c6.53,14.84,8.676,30.951,9.512,35.281c0.789,4.148,2.542,20.259,3.727,35.649c2.824,15.527-2.41,29.966-2.526,31.132
				c-0.676,1.33,4.73-12.939,2.086-28.847c-1.631-15.882-3.723-32.952-4.468-36.755c-0.768-3.707-2.693-22.504-10.098-38.498
				c-3.516-7.887-10.346-14.698-17.044-14.156C171.886,113.203,168.374,116.129,168.335,115.859z"/>
		</g>
		<g>
			<path d="M165.147,114.492c0.69-1.369,1.792-6.312,7.151-7.531c5.283-0.834,11.153,2.921,15.366,7.363
				c8.539,9.616,9.743,22.863,10.461,26.012c0.021,6.571,10.244,48.739,10.898,50.689c0.433,2.018-12.23-43.537-12.108-49.732
				c-0.702-2.6-1.411-18.062-11.168-27.895c-4.573-4.666-11.549-7.994-15.932-5.194C165.72,110.9,165.367,114.73,165.147,114.492z"
				/>
		</g>
		<g>
			<path d="M164.453,115.854c1.726-2.209,12.118-5.91,21.085-0.719c9.049,4.168,14.63,12.881,15.539,15.412
				c3.823,4.865,2.129,38.867,3.409,40.356c-1.061,1.735-1.125-35.432-4.438-39.271c-0.4-2.131-6.393-12.167-16.216-16.537
				C173.841,109.715,163.984,115.727,164.453,115.854z"/>
		</g>
		<g>
			<path d="M165.804,113.801c0.126-0.859-0.305-3.262,1.604-5.355c1.997-2.096,5.771-2.019,8.872-1.123
				c6.421,1.671,11.836,5.996,12.735,7.703c1.435,1.148,4.45,7.537,4.292,13.918c0.158,6.316-1.142,12.186-1.145,12.71
				c-0.171,0.535,0.905-5.372,0.509-11.774c-0.096-6.512-3.212-12.789-4.485-13.709c-0.491-1.451-6.186-6.6-13.103-8.431
				c-3.336-1.022-7.149-0.407-8.309,2.036C165.636,112.023,165.94,113.844,165.804,113.801z"/>
		</g>
	</g>
</g>
</svg>
