<?xml version="1.0" encoding="utf-8"?>
<!-- Generator: Adobe Illustrator 15.0.0, SVG Export Plug-In . SVG Version: 6.00 Build 0)  -->
<!DOCTYPE svg PUBLIC "-//W3C//DTD SVG 1.1//EN" "http://www.w3.org/Graphics/SVG/1.1/DTD/svg11.dtd">
<svg version="1.1" xmlns="http://www.w3.org/2000/svg" xmlns:xlink="http://www.w3.org/1999/xlink" x="0px" y="0px" width="300px"
	 height="300px" viewBox="0 0 300 300" enable-background="new 0 0 300 300" xml:space="preserve">
<g id="Layer_13">
	<g id="EUvz30_1_">
		
	</g>
</g>
<g id="handlebar">
	<g>
		<g>
			<g>
				<path d="M111.732,99.118c-1.411-1.683-5.092-6.164-11.688-7.065C93.576,91,85.515,95.411,82.738,102.639
					c-2.885,7.121-1.062,15.406,2.781,20.087c3.786,4.899,8.253,7.097,10.084,7.882c1.677,0.663,6.339,2.927,12.033,1.074
					c5.766-1.761,10.701-8.228,16.262-13.414c5.369-5.669,13.357-8.178,18.961-6.755c5.6,1.119,8.993,3.306,9.605,3.47
					c0.561,0.379-2.325-1.342-7.513-2.553c-5.139-1.54-12.977-0.16-18.394,5.473c-5.592,5.187-10.031,12.525-16.735,15.732
					c-6.818,3.188-12.829,0.843-14.526,0.212c-1.832-0.729-7.459-3.285-11.917-9.573c-4.603-6.08-5.982-16.872-0.914-24.685
					c4.903-8.044,15.426-10.208,21.236-7.173C109.678,95.16,111.629,99.316,111.732,99.118z"/>
			</g>
			<g>
				<path d="M83.187,97.686c-1.247,1.548-4.157,5.225-5.149,10.823c-1.187,5.464-0.493,12.589,2.73,18.431
					c3.062,5.8,9.036,10.214,13.982,10.305c4.915-0.094,7.548-4.166,8.721-5.315c1.167-1.182,3.515-4.828,7.417-9.008
					c3.78-4.222,9.614-8.3,15.675-10.832c5.863-3.142,12.82-4.223,17.461-2.283c4.624,1.784,6.979,4.415,7.461,4.657
					c0.383,0.46-1.643-1.675-5.846-3.5c-4.17-2.053-10.861-1.674-16.68,1.66c-6.1,2.998-11.748,6.894-15.385,11.248
					c-3.694,4.216-5.999,8.078-7.195,9.393c-0.544,0.657-1.604,1.964-3.397,3.497c-1.736,1.476-4.654,3.329-8.323,3.122
					c-7.221-0.618-13.657-7.02-16.336-14.267c-2.778-7.302-2.16-15.208-0.008-20.288C80.285,100.088,83.336,97.748,83.187,97.686z"
					/>
			</g>
			<g>
				<path d="M78.913,100.125c-0.682,2.181-2.513,6.928-4.16,13.152c-1.595,6.089-2.819,14.413,0.959,21.149
					c3.677,6.642,10.839,10.678,16.491,12.605c5.86,1.947,10.488,0.485,12.316-0.191c1.792-0.576,6.061-2.59,10.843-6.627
					c4.859-3.896,10.216-9.502,16.436-13.925c12.72-8.908,27.77-9.291,28.801-9.828c1.516,0.171-13.463,1.086-26.156,9.825
					c-6.139,4.44-11.446,10.609-16.39,15.079c-4.844,4.62-9.617,7.36-11.534,8.016c-1.674,0.772-7.937,2.901-15.163,0.15
					c-6.789-2.633-15.13-8.013-18.18-16.766c-2.888-8.749,0.099-17.34,2.02-23.073C77.316,103.844,78.941,100.139,78.913,100.125z"
					/>
			</g>
			<g>
				<path d="M157.649,116.088c-0.434-1.113-1.062-3.808-3.256-6.362c-2.108-2.565-5.77-4.632-9.645-5.015
					c-8.149-1.073-14.346,4.574-15.464,6.163c-1.438,1.458-7.183,7.097-11.338,13.688c-4.313,6.456-7.387,13.302-7.663,13.9
					c-0.185,0.65,1.982-6.47,5.746-13.697c3.568-7.334,9.198-14.328,10.689-15.673c0.607-0.675,2.832-3.023,6.462-4.668
					c3.571-1.699,8.661-2.402,13.193-1.071c4.629,1.161,8.089,4.656,9.566,7.585C157.429,113.922,157.556,116.117,157.649,116.088z"
					/>
			</g>
			<g>
				<path fill="#414042" d="M81.746,96.797c-0.955,1.804-3.266,5.763-4.987,11.25c-1.751,5.397-2.812,12.599-0.676,19.069
					c2.092,6.35,7.312,11.698,12.365,12.963c5.143,1.361,9.457,0.156,11.208-0.18c3.338-0.454,16.782-4.943,26.223-14.668
					c4.818-4.745,11.152-7.894,16.26-7.747c5.014-0.162,8.465,0.387,9.038,0.365c0.573,0.076-2.326-0.181-7.039,0.01
					c-4.78-0.033-11.062,2.101-15.779,7.206c-9,10.85-23.681,17.261-27.156,17.644c-1.638,0.3-6.848,1.902-13.541-0.11
					c-6.732-2.16-12.382-9.45-13.732-17.28c-1.347-7.932,1.134-15.443,3.378-20.467C79.609,99.76,81.803,96.825,81.746,96.797z"/>
			</g>
			<g>
				<path fill="#414042" d="M155.247,113.617c-1.203-1.229-3.741-4.406-8.167-6.585c-4.424-2.444-10.792-1.45-15.507,2.022
					c-9.468,6.863-16.917,16.453-19.695,18.421c-1.203,1.022-4.085,3.647-8.596,5.985c-2.265,1.099-5.037,2.126-8.087,2.041
					c-3.048-0.033-6.031-1.354-8.347-3.19c-4.793-3.645-7.032-9.223-8.268-13.236c-1.28-4.116-1.322-7.109-1.415-7.577
					c-0.009-1.349,0.542,10.821,9.372,18.557c4.353,4.019,10.577,4.028,14.681,1.498c4.196-2.269,6.983-5.044,8.067-5.917
					c1.078-0.91,4.146-3.648,8.127-7.394c4.023-3.662,8.947-8.496,15.014-11.606c3.015-1.521,6.457-2.403,9.625-2.007
					c3.17,0.375,5.789,1.832,7.687,3.303C153.541,110.958,155.187,113.682,155.247,113.617z"/>
			</g>
			<g>
				<path fill="#414042" d="M147.989,116.777c-1.54,0.137-5.052,0.288-9.158,1.752c-4.14,1.401-8.421,4.564-11.855,8.492
					c-3.481,3.884-6.636,8.171-9.814,11.276c-3.124,3.153-6.088,5.126-7.411,5.88c-1.162,0.638-4.523,2.656-9.192,2.646
					c-4.599,0.133-9.982-1.73-14.101-4.937c-4.197-3.148-6.944-7.686-7.761-11.399c-0.879-3.74-0.146-6.354-0.143-6.754
					c0.138-0.435-0.449,1.75,0.272,5.2c0.694,3.435,3.293,7.846,7.406,10.824c4.025,3.063,9.26,4.643,13.402,4.463
					c4.23-0.146,6.899-1.801,8.037-2.426c1.066-0.578,4.188-2.269,7.689-5.424c3.558-3.077,7.303-7.723,11.654-11.744
					c4.299-4.116,9.779-6.677,13.993-7.333C145.213,116.525,147.998,116.845,147.989,116.777z"/>
			</g>
			<g>
				<path fill="#414042" d="M149.461,115.381c-1.538-0.092-6.958-0.729-11.827,0.951c-4.846,1.654-8.715,5.021-9.838,5.878
					c-1.092,0.726-5.395,3.736-9.683,6.524c-4.253,2.846-8.727,4.709-9.086,4.914c-0.386,0.184,3.706-2.263,7.557-5.71
					c3.855-3.41,8.007-7.312,9.124-8.031c0.976-0.708,6.336-4.507,12.389-5.368C144.126,113.496,149.487,115.513,149.461,115.381z"
					/>
			</g>
			<g>
				<path fill="#414042" d="M151.992,117.246c0.257-0.502,0.679-2.017-0.377-3.215c-0.956-1.184-2.699-1.93-4.428-2.372
					c-3.535-0.92-7.1-0.403-8.016-0.269c-0.862,0.098-4.496-0.016-7.554,1.736c-3.161,1.607-4.878,4.98-4.963,5.24
					c-0.048,0.387,0.524-3.355,3.586-6.159c2.951-2.905,7.495-3.835,8.422-3.874c0.958-0.143,5.776-0.077,9.72,1.992
					c1.931,0.994,3.763,2.48,4.199,4.248C152.939,116.409,151.882,117.254,151.992,117.246z"/>
			</g>
			<g>
				<path d="M153.427,113.242c-0.37-1.615-4.334-4.669-8.996-4.94c-4.584-0.668-8.94,0.441-10.033,0.811
					c-1.036,0.22-5.526,0.985-7.343,5.204c-1.844,3.979-2.179,8.488-2.296,8.81c0.089,0.376-0.408-3.873,0.593-8.694
					c0.525-2.408,2.032-4.9,3.915-6.23c1.826-1.373,3.505-1.822,4.086-2.004c1.17-0.438,7.081-1.129,12.203,0.652
					c2.553,0.791,4.931,2.096,6.254,3.588C153.169,111.916,153.387,113.279,153.427,113.242z"/>
			</g>
			<g>
				<path d="M149.055,115.872c-1.66-0.769-8.355-2.545-14.092,0.277c-5.689,2.483-10.282,6.893-11.685,7.911
					c-1.314,0.963-6.498,4.772-11.871,7.915c-5.342,3.306-11.167,4.471-11.652,4.458c-0.504,0.163,5.112-1.37,10.048-5.271
					c4.984-3.716,9.994-8.414,11.281-9.312c1.242-0.814,7.207-5.689,14.343-7.618C142.81,112.08,149.224,115.996,149.055,115.872z"
					/>
			</g>
			<g>
				<path d="M148.793,116.342c-0.754,0.416-2.536,1.396-5.109,1.701c-2.502,0.402-5.744,0.467-8.196,1.932
					c-4.9,3.133-7.796,8.913-9.464,9.978c-1.177,1.113-6.103,5.062-11.263,8.126c-5.107,3.177-10.421,5.167-10.862,5.387
					c-0.473,0.191,4.539-2.357,9.255-6.178c4.795-3.7,9.42-8.353,10.499-9.358c0.617-0.492,1.949-1.793,3.937-3.915
					c1.948-1.997,4.588-4.803,8.144-5.965c3.592-1.117,6.904-0.467,9.257-0.801C147.367,117.023,148.771,116.283,148.793,116.342z"
					/>
			</g>
			<g>
				<path d="M146.14,118.184c-0.607,0.184-2.656,0.521-4.507,1.156c-1.849,0.705-3.337,1.695-3.729,1.964
					c-0.383,0.228-2.158,0.653-3.681,1.797c-1.609,1.028-2.738,2.637-2.885,2.737c0.006,0.194,0.339-1.709,1.509-3.53
					c1.03-1.931,3.038-3.458,3.532-3.69c0.455-0.332,3.038-1.012,5.361-0.962C144.08,117.68,146.135,118.232,146.14,118.184z"/>
			</g>
			<g>
				<path fill="#414042" d="M142.399,116.312c-0.61,0.151-2.616,0.569-4.151,1.663c-1.578,1.02-2.736,2.396-3.078,2.742
					c-0.827,0.188-6.222,4.482-6.171,5.124c-0.542,0.213,2.801-6.972,4.103-7.428c0.359-0.356,2.567-1.666,4.873-2.127
					C140.304,115.781,142.42,116.326,142.399,116.312z"/>
			</g>
			<g>
				<path fill="#414042" d="M154.169,117.261c-2.116-0.685-10.534-2.057-17.257,2.099c-6.618,3.791-12.035,9.654-13.613,10.949
					c-1.497,1.37-7.563,6.614-14.15,10.512c-3.272,1.938-6.764,3.478-9.588,3.794c-2.904,0.405-4.514-0.938-4.708-1.08
					c-0.251-0.264,1.002,0.999,3.571,0.723c2.536-0.25,5.857-1.945,8.956-4.154c6.252-4.422,12.053-10.499,13.468-11.742
					c1.544-1.182,8.196-7.576,16.528-11.05C146.005,113.665,154.368,117.411,154.169,117.261z"/>
			</g>
			<g>
				<path d="M74.218,118.072c0.47,1.147,3.443,7.058,4.095,7.707c0.213,0.41,0.55,2.204,1.37,3.833
					c0.727,1.688,2.065,3.014,2.154,3.162c0.197,0.026-1.61-0.549-3.155-1.931c-1.644-1.278-2.916-3.196-3.116-3.645
					C74.728,126.252,74.037,118.027,74.218,118.072z"/>
			</g>
			<g>
				<path d="M80.305,133.535c0.394,0.708,1.777,3.479,4.304,4.137c2.408,0.748,4.967,0.189,5.669,0.114
					c1.188,0.234,10.981-0.168,11.43-0.28c0.485-0.124-9.448,3.608-11.094,3.36c-0.631,0.049-4.311,0.062-7.212-1.934
					C80.442,136.774,80.379,133.416,80.305,133.535z"/>
			</g>
			<g>
				<path d="M89.831,142.161c0.882,0.19,3.852,0.867,6.666,0.363c2.828-0.409,5.295-1.651,5.968-1.96
					c0.64-0.26,3.38-0.892,5.766-2.339c2.445-1.334,4.312-3.452,4.445-3.659c0.107-0.242-0.934,2.383-3.116,4.589
					c-2.071,2.292-5.075,4.011-5.809,4.225c-0.679,0.32-4.328,1.251-7.745,0.815C92.546,143.854,89.813,142.131,89.831,142.161z"/>
			</g>
			<g>
				<path d="M112.14,132.417c-0.2,0.923-1.368,4.909-5.16,6.725c-3.632,1.783-7.723,1.582-8.744,1.513
					c-2.316,0.207-14.15-5.485-14.735-5.609c-0.521-0.223,13.263,2.78,14.885,2.509c0.808,0.088,4.938,1.051,8.485-0.186
					C110.556,136.188,112.124,132.309,112.14,132.417z"/>
			</g>
			<g>
				<path d="M144.036,111.627c0.108-0.546,1.308-1.826,3.283-1.172c1.85,0.509,3.8,1.911,5.326,3.742
					c0.38,0.464,0.736,0.96,1.019,1.537c0.152,0.275,0.275,0.584,0.367,0.926l0.078,0.248l0.008,0.029
					c1.432-0.806-1.951,1.111-1.604,0.91l-0.005-0.001l-0.014-0.007l-0.038-0.021l-0.079-0.04l-0.311-0.162
					c-0.773-0.455-1.688-0.717-2.502-0.894c-1.628-0.382-2.984-0.408-3.554-0.466c-1.056-0.109-5.361-0.873-9.518-0.09
					c-4.388,0.362-7.209,4.008-7.037,4.562c0.018,0.234,0.002-0.861,0.972-2.218c0.925-1.375,2.828-2.767,4.993-3.639
					c4.339-1.863,9.507-1.862,10.635-1.725c0.567,0.086,2.227,0.273,4.323,1.065c1.044,0.362,2.2,0.958,3.287,1.841l0.101,0.077
					l0.052,0.04l0.027,0.02l0.014,0.012c1.655-0.934-2.25,1.272-1.853,1.043v-0.004l-0.028-0.153l-0.048-0.319
					c-0.089-0.231-0.129-0.47-0.255-0.712c-0.212-0.486-0.484-0.983-0.808-1.449c-1.271-1.862-3.123-3.471-4.646-3.78
					C144.653,110.479,144.039,111.712,144.036,111.627z"/>
			</g>
			<g>
				<path d="M189.056,99.479c1.235-1.741,4.507-6.391,11.151-7.713c6.505-1.464,15.295,2.596,18.718,10.264
					c3.532,7.527,2.003,16.732-2.063,22.202c-3.938,5.61-8.819,8.267-10.911,9.198c-1.859,0.773-7.461,3.229-14.17,0.663
					c-6.701-2.594-11.135-9.563-16.296-14.914c-4.861-5.79-12.318-8.71-18.051-7.675c-5.676,0.762-9.252,2.768-9.864,2.93
					c-0.551,0.381,2.236-1.486,7.541-2.971c5.178-1.875,13.938-0.697,19.862,5.062c6.004,5.237,10.833,12.244,16.63,14.649
					c5.751,2.454,10.715,0.36,12.255-0.207c1.577-0.63,6.673-2.764,10.87-8.283c4.247-5.21,5.848-14.913,1.534-22.123
					c-4.169-7.438-13.729-9.864-19.294-7.228C191.25,95.696,189.135,99.67,189.056,99.479z"/>
			</g>
			<g>
				<path d="M216.671,98.105c1.338,1.365,4.488,4.758,5.872,10.336c1.559,5.438,1.356,12.783-1.678,19.173
					c-2.979,6.331-8.818,11.627-15.226,12.198c-6.796,0.062-9.881-4.773-11.162-5.872c-2.61-2.824-9.023-15.085-21.356-20.712
					c-5.489-3.452-12.05-5.008-16.854-3.43c-4.758,1.445-7.367,3.957-7.841,4.201c-0.372,0.461,1.523-1.801,5.827-3.943
					c4.246-2.414,11.702-2.326,17.892,0.904c6.216,2.687,12.575,6.643,16.561,11.071c4.103,4.33,6.562,8.158,7.607,9.277
					c1.011,0.931,3.788,5.716,9.235,5.87c5.534-0.153,12.05-5.596,14.712-12.255c2.881-6.694,2.649-14.297,0.788-19.248
					C219.377,100.559,216.528,98.164,216.671,98.105z"/>
			</g>
			<g>
				<path d="M220.818,100.342c0.871,2.115,2.993,6.718,5.005,12.855c1.923,5.988,3.754,14.395,0.097,21.91
					c-3.682,7.408-10.897,11.944-17,14.359c-6.388,2.49-12.12,1.062-14.183,0.286c-2.11-0.637-6.818-3.185-11.481-7.598
					c-4.777-4.283-9.764-10.173-15.531-14.836c-11.769-9.446-26.936-10.968-27.927-11.46c-1.491,0.217,13.461,0.352,27.095,8.896
					c6.632,4.418,12.155,10.398,17.147,14.587c4.903,4.335,9.257,6.604,10.904,7.173c1.54,0.663,6.59,2.659,13.126,0.454
					c6.263-2.179,14.363-7.055,17.312-14.835c2.965-7.832,0.5-16.376-1.229-22.126C222.274,104.133,220.787,100.352,220.818,100.342
					z"/>
			</g>
			<g>
				<path d="M143.243,116.207c0.234-1.113,0.504-3.82,2.428-6.658c1.832-2.834,5.456-5.475,9.63-6.313
					c8.659-2.156,16.687,3.706,17.926,5.483c1.572,1.492,6.867,8.062,10.236,15.197c3.559,7.031,5.706,14.168,5.986,14.765
					c0.189,0.654-2.571-6.241-6.796-13.012c-4.056-6.901-9.901-13.165-11.311-14.439c-0.676-0.743-2.359-2.734-5.409-4.376
					c-2.984-1.668-7.442-2.609-11.568-1.71c-4.2,0.743-7.552,3.645-9.147,6.285C143.627,114.115,143.327,116.244,143.243,116.207z"
					/>
			</g>
			<g>
				<path fill="#414042" d="M218.036,97.119c1.116,1.684,3.688,5.439,5.777,10.831c2.101,5.305,3.694,12.547,1.834,19.591
					c-1.879,6.921-7.042,13.072-13.034,14.993c-5.935,1.877-10.727,0.704-12.647,0.383c-3.779-0.445-17.624-6.247-26.439-16.752
					c-4.433-4.994-10.216-8.432-15.368-8.691c-5.001-0.52-8.509-0.211-9.079-0.228c-0.567,0.077,2.297-0.339,7.111-0.38
					c2.4,0.014,5.349,0.234,8.412,1.32c3.062,1.125,5.954,3.201,8.579,5.508c9.496,10.378,23.514,15.636,26.662,16.012
					c1.501,0.297,6.25,1.833,11.984,0.309c5.601-1.483,11.246-7.912,12.721-15.05c1.566-7.279-0.47-14.711-2.475-19.723
					C220.028,100.149,217.979,97.145,218.036,97.119z"/>
			</g>
			<g>
				<path fill="#414042" d="M145.524,113.996c1.047-1.338,3.252-4.67,7.561-7.221c4.251-2.863,11.266-2.321,16.42,1.006
					c10.381,6.534,18.265,15.593,20.966,17.381c1.177,0.967,3.832,3.643,7.766,6.041c3.809,2.549,9.788,3.514,14.458,0.067
					c4.791-3.044,7.451-8.25,9.035-12.191c1.62-3.994,1.92-7.048,2.008-7.526c-0.097-1.291,0.352,10.894-8.77,19.91
					c-2.262,2.057-5.199,3.797-8.419,4.146c-3.212,0.398-6.256-0.516-8.659-1.622c-4.815-2.335-7.767-5.108-8.909-6.014
					c-1.125-0.948-4.183-3.891-7.979-7.789c-3.84-3.815-8.471-8.75-13.99-11.905c-5.494-3.533-12.222-2.499-15.867,0.46
					C147.367,111.445,145.573,114.067,145.524,113.996z"/>
			</g>
			<g>
				<path fill="#414042" d="M152.305,117.386c1.522-0.062,4.983-0.249,9.246,0.865c4.286,1.04,9.023,3.971,12.838,7.727
					c3.868,3.707,7.294,7.711,10.508,10.443c3.162,2.788,5.958,4.407,7.185,5.075c1.207,0.61,3.777,2.449,7.788,2.767
					c3.957,0.445,9.053-0.757,13.229-3.43c4.239-2.6,7.347-6.711,8.515-10.34c1.23-3.645,0.743-6.443,0.731-6.851
					c-0.148-0.446,0.635,1.764,0.103,5.479c-0.496,3.693-2.983,8.611-7.229,12.085c-4.143,3.557-9.76,5.667-14.566,5.72
					c-4.823,0.149-8.501-1.84-9.513-2.416c-1.161-0.625-4.525-2.653-8.051-6.164c-3.592-3.439-7.121-8.313-11.086-12.385
					C164.162,117.014,152.023,117.363,152.305,117.386z"/>
			</g>
			<g>
				<path fill="#414042" d="M150.969,115.973c1.412-0.455,6.604-2.047,12.053-1.092c5.42,0.951,10.129,4.008,11.298,4.832
					c1.234,0.756,5.023,4.539,8.652,8.004c3.597,3.531,7.629,6.252,8.01,6.471c0.401,0.192-4.064-1.746-8.396-4.777
					c-4.347-3.004-8.809-6.357-9.836-7.009c-0.984-0.712-5.523-4.677-10.931-6.047C156.428,114.771,150.933,116.086,150.969,115.973
					z"/>
			</g>
			<g>
				<path fill="#414042" d="M148.819,116.918c-0.331-0.315-1.147-1.482-0.382-3.04c0.7-1.498,2.394-2.74,4.146-3.62
					c3.561-1.814,7.694-2.049,8.808-1.949c1.014,0.021,5.272,1.005,8.059,3.781c2.913,2.678,3.513,6.262,3.626,6.479
					c0.069,0.356-1.18-3.027-4.177-4.92c-2.901-2.023-6.764-2.188-7.56-2.235c-0.773-0.112-4.954-0.67-8.695,0.616
					c-1.824,0.603-3.5,1.661-3.972,2.841C148.194,116.061,148.885,116.936,148.819,116.918z"/>
			</g>
			<g>
				<path d="M147.445,113.434c-0.183-1.439,3.221-5.447,8.104-6.593c4.64-1.538,9.729-1.12,11.092-0.73
					c1.139-0.007,6.931,2.649,7.812,7.762c1.045,4.618,0.342,8.896,0.482,9.285c-0.068,0.435-0.266-3.997-1.755-8.175
					c-1.392-4.486-6.063-5.643-7.03-5.799c-0.905-0.344-6.006-1.602-10.949-0.542c-2.425,0.438-4.709,1.356-6.021,2.511
					C147.832,112.291,147.481,113.465,147.445,113.434z"/>
			</g>
			<g>
				<path d="M151.502,116.42c1.374-1.049,7.793-3.861,14.328-1.68c6.377,1.882,11.631,5.906,13.072,6.869
					c1.41,0.96,6.003,5.475,10.713,9.302c4.637,3.98,10.24,6.118,10.799,6.115c0.553,0.179-5.451-0.794-10.934-4.317
					c-5.521-3.331-10.916-7.549-12.154-8.407c-1.24-0.831-6.639-5.986-12.986-8.299C157.857,113.415,151.37,116.49,151.502,116.42z"
					/>
			</g>
			<g>
				<path d="M151.236,116.885c0.896,0.268,2.843,0.943,5.401,0.869c2.503,0.06,5.694-0.42,8.857,0.892
					c6.017,2.911,9.508,8.406,10.874,9.033c1.202,1.052,5.388,5.578,9.92,9.353c4.458,3.875,9.398,6.76,9.851,6.986
					c0.487,0.193-4.855-1.812-10.058-5.212c-5.271-3.273-10.437-7.574-11.526-8.593c-1.601-0.71-5.1-7.66-10.651-10.433
					c-2.826-1.228-6.311-0.997-8.741-1.547C152.675,117.756,151.25,116.822,151.236,116.885z"/>
			</g>
			<g>
				<path d="M154.199,118.789c0.562-0.212,2.533-0.781,4.667-0.931c2.116-0.094,4.367,0.392,4.929,0.689
					c0.555,0.224,2.356,1.806,3.254,3.71c1.026,1.822,1.203,3.741,1.358,3.835c0.006,0.198-0.925-1.429-2.385-2.607
					c-1.362-1.309-3.18-1.938-3.538-2.126c-0.326-0.244-2.103-1.299-4.155-1.867C156.3,118.922,154.189,118.834,154.199,118.789z"/>
			</g>
			<g>
				<path fill="#414042" d="M157.949,116.916c0.501-0.232,2.519-0.767,4.63-0.339c2.103,0.339,4.061,1.388,4.513,1.753
					c1.404,0.539,3.927,7.472,3.654,7.761c0.384-0.011-4.644-5.186-5.537-5.304c-0.3-0.299-1.723-1.804-3.491-2.754
					C159.966,117.059,157.943,116.919,157.949,116.916z"/>
			</g>
			<g>
				<path fill="#414042" d="M146.317,117.839c1.882-0.999,10.119-3.432,17.719,0.175c7.432,3.322,13.286,8.649,15.058,10.02
					c1.561,1.341,6.864,7.141,12.774,11.716c2.946,2.278,6.11,4.2,8.87,4.876c2.808,0.797,4.85-0.405,5.063-0.601
					c0.297-0.307-1.038,1.281-3.984,1.225c-2.87-0.041-6.514-1.57-9.9-3.589c-6.829-4.06-13.151-9.788-14.563-11.023
					c-1.381-1.062-7.723-7.923-15.157-11.624C154.528,115.031,146.152,117.938,146.317,117.839z"/>
			</g>
			<g>
				<path d="M225.483,117.965c0.359,1.128,0.02,7.994-0.694,9.119c-0.18,0.508-1.541,2.228-3.192,3.368
					c-1.593,1.227-3.393,1.665-3.458,1.812c-0.185,0.023,1.213-1.064,2.097-2.652c0.997-1.499,1.528-3.353,1.704-3.736
					C222.577,125.37,225.631,118.078,225.483,117.965z"/>
			</g>
			<g>
				<path d="M219.404,133.388c-0.031,0.682-0.317,3.828-3.036,5.614c-2.59,1.749-5.752,1.887-6.504,1.87
					c-1.794,0.298-10.732-3.864-11.148-3.961c-0.402-0.098,10.024,1.165,11.146,0.865c0.605,0.056,3.623,0.601,6.091-0.438
					C218.485,136.291,219.387,133.311,219.404,133.388z"/>
			</g>
			<g>
				<path d="M210.209,141.611c-0.646,0.516-3.292,2.086-6.417,2.408c-3.085,0.414-6.252-0.264-7.066-0.569
					c-0.79-0.238-3.586-1.942-5.485-4.232c-2.006-2.219-2.971-4.786-3.099-4.964c-0.109-0.224,1.443,1.979,3.809,3.506
					c2.284,1.635,5.109,2.562,5.728,2.74c0.577,0.268,3.487,1.629,6.572,1.845C207.324,142.651,210.219,141.596,210.209,141.611z"/>
			</g>
			<g>
				<path d="M187.593,132.636c0.574,0.909,2.744,4.368,6.269,5.113c3.402,0.826,6.888-0.042,7.836-0.163
					c1.729,0.18,14.66-1.818,15.246-1.951c0.617-0.257-12.511,5.178-14.648,4.99c-0.85,0.084-5.618,0.543-9.634-1.572
					C188.479,136.858,187.649,132.474,187.593,132.636z"/>
			</g>
			<g>
				<path d="M156.776,111.305c-0.354-0.631-2.046-1.6-3.694-0.577c-1.612,0.811-3.167,2.485-4.192,4.309
					c-0.253,0.452-0.473,0.929-0.595,1.376c-0.083,0.227-0.12,0.443-0.134,0.639l-0.021,0.15l-0.003,0.02
					c-0.715-0.402,1.601,0.908-1.604-0.902l0.007-0.006l0.011-0.008l0.042-0.035l0.09-0.072l0.36-0.285
					c0.951-0.791,1.977-1.268,2.894-1.635c1.853-0.756,3.36-0.992,4.011-1.092c1.228-0.205,6.091-0.032,10.228,1.746
					c2.06,0.847,3.922,2.096,4.892,3.412c0.993,1.305,1.087,2.403,1.188,2.543c0.277,0.304-1.518-3.493-5.977-4.266
					c-4.127-1.123-8.774-0.514-9.739-0.396c-0.49,0.076-1.985,0.102-3.789,0.564c-0.922,0.193-1.867,0.578-2.71,1.092l-0.083,0.045
					l-0.043,0.023l-0.022,0.012l-0.009,0.004c0.398,0.229-3.509-1.977-1.856-1.047l0.003-0.01l0.082-0.283l0.169-0.561
					c0.16-0.322,0.294-0.676,0.481-0.963c0.36-0.6,0.762-1.142,1.204-1.635c1.759-1.939,3.921-3.441,5.975-3.629
					C156.201,109.697,156.797,111.467,156.776,111.305z"/>
			</g>
		</g>
	</g>
</g>
</svg>
