<?xml version="1.0" encoding="utf-8"?>
<!-- Generator: Adobe Illustrator 15.0.0, SVG Export Plug-In . SVG Version: 6.00 Build 0)  -->
<!DOCTYPE svg PUBLIC "-//W3C//DTD SVG 1.1//EN" "http://www.w3.org/Graphics/SVG/1.1/DTD/svg11.dtd">
<svg version="1.1" xmlns="http://www.w3.org/2000/svg" xmlns:xlink="http://www.w3.org/1999/xlink" x="0px" y="0px" width="300px"
	 height="300px" viewBox="0 0 300 300" enable-background="new 0 0 300 300" xml:space="preserve">
<g id="Layer_13">
	<g id="EUvz30_1_">
		
	</g>
</g>
<g id="horseshoe">
	<g>
		<g>
			<g>
				<g>
					<path d="M212.767,145.4c2.011,1.183,9.687,12.257,9.995,14.586c0.864,2.178-3.462,15.566-3.68,15.925
						c0.214,0.397-4.321-12.631-4.902-14.034C214.376,160.325,213.137,145.492,212.767,145.4z"/>
				</g>
				<g>
					<path d="M139.25,100.123c0.659,2.023,2.351,12.829,2.16,14.591c-0.037,1.802-8.3,10.618-8.519,10.856
						c-0.003,0.375-0.189-11.246-0.087-12.602C133.088,111.662,139.202,100.092,139.25,100.123z"/>
				</g>
				<g>
					<path d="M145.654,100.604c2.132,1.201,7.623,13.426,7.617,15.52c0.231,1.977-4.696,14.438-4.461,15.165
						c-0.121,0.665-4.288-12.972-4.294-14.53C144.901,115.076,146.268,100.72,145.654,100.604z"/>
				</g>
				<g>
					<path d="M157.448,102.906c1.674,0.23,8.575,6.488,8.939,8.09c0.812,1.52-3.528,10.578-3.742,10.621
						c0.179,0.11-4.264-7.511-4.714-8.231C158.081,112.514,157.778,103.023,157.448,102.906z"/>
				</g>
				<g>
					<path d="M169.052,97.291c1.436,2.291,8.666,14.076,9.721,15.887c0.745,1.786,0.641,16.638,0.964,17.269
						c0.197,0.667-8.573-12.218-9.176-14.175C169.565,114.41,168.773,97.223,169.052,97.291z"/>
				</g>
				<g>
					<path d="M128.614,96.889c0.606,2.287-0.323,15.656-1.125,17.577c-0.705,1.737-10.41,11.46-10.568,12.194
						c-0.335,0.595,1.579-13.898,2.422-15.463C120.223,109.682,128.75,97.047,128.614,96.889z"/>
				</g>
				<g>
					<path d="M122.499,106.059c-0.775,2.006-3.957,11.262-4.55,12.63c-0.666,1.355-11.21,5.392-11.473,5.514
						c-0.152,0.325,3.76-9.668,4.489-10.833C111.621,112.062,122.435,105.76,122.499,106.059z"/>
				</g>
				<g>
					<path d="M113.989,106.053c-2.916,4.025-24.346,23.734-24.757,27.514c-1.189,1.406-5.864,6.848-6.568,14.764
						c-0.769,7.72,1.127,15.535,1.236,16.16c0.397,0.577-3.659-5.981-5.531-14.643c-2.511-8.781,1.819-19.386,3.379-20.883
						C83.834,122.823,114.408,106.393,113.989,106.053z"/>
				</g>
				<g>
					<path d="M107.956,110.141c-2.237,1.064-9.582,4.604-15.484,9.799c-6.117,4.966-10.588,10.984-11.789,12.529
						c-1.044,1.488-7.221,6.078-9.495,12.926c-2.817,6.917,0.823,14.565,1.088,15.021c0.86,0.566-5.902-4.964-5.634-14.436
						c-0.184-9.322,5.884-17.467,7.13-18.917c1.287-1.722,9.027-8.184,17.368-11.892
						C99.439,111.225,107.987,110.109,107.956,110.141z"/>
				</g>
				<g>
					<path d="M174.684,105.615c2.053,0.087,12.656,3.727,14.12,5.449c2.268,1.234,2.753,13.908,2.276,14.016
						c0.351-0.078-7.432-7.758-8.673-7.997C182.11,116.161,174.83,105.631,174.684,105.615z"/>
				</g>
				<g>
					<path d="M185.561,105.847c2.465,1.444,16.182,9.312,17.982,11.706c0.829,0.885,3.013,5.562,3.691,10.386
						c0.877,4.94-0.911,8.952-0.925,9.183c-0.044,0.333-0.368-3.629-2.932-6.852c-2.291-3.306-5.834-6.184-6.479-6.969
						C196.139,121.765,185.375,106.124,185.561,105.847z"/>
				</g>
				<g>
					<path d="M192.846,108.145c1.828,0.515,7.862,3.879,13.231,7.76c5.264,3.54,11.228,6.277,13.086,8.295
						c1.974,1.523,4.713,9.305,4.374,15.889c-0.152,6.602-0.717,12.667-0.539,13.263c0.293,0.807-6.97-23.528-10.049-22.947
						c-0.214-0.697-6.099-5.819-10.918-11.806C197.582,112.773,192.91,108.174,192.846,108.145z"/>
				</g>
				<g>
					<path d="M199.014,110.418c3.24,4.51,28.97,20.365,31.996,25.867c1.734,1.564,6.146,11.199,5.995,20.096
						c0.456,9.062-2.997,16.613-3.314,17.085c-0.194,0.693,1.576-7.04-0.915-15.176c-1.852-8.333-7.123-14.856-8.525-16.388
						C223.462,138.666,197.622,111.682,199.014,110.418z"/>
				</g>
				<g>
					<path d="M216.979,118.295c0.866,2.922,6.547,9.651,12.232,17.107c5.286,8.074,7.694,17.33,8.149,20.013
						c0.302,2.63,0.04,11.863-2.075,20.75c-1.918,8.978-6.955,15.785-7.216,16.366c-0.356,0.653,2.823-6.938,2.682-15.571
						c0.009-8.499-1.886-18.107-2.053-19.961c-0.192-1.838-0.694-12.118-4.345-20.639
						C219.748,127.928,216.505,118.33,216.979,118.295z"/>
				</g>
				<g>
					<path d="M156.621,90.815c0.556,1.861,2.325,5.933,7.05,7.752c4.468,2.039,10.243,2.771,16.249,3.683
						c11.715,1.584,23.888,4.348,27.135,6.063c3.444,1.483,13.347,8.289,21.754,16.88c9.33,8.856,8.405,21.008,8.016,21.555
						c0.063,1.156-0.092-10.543-9.762-17.152c-8.938-6.608-21.017-12.136-23.037-12.988c-2.062-1.52-14.462-6.352-27.166-10.234
						c-6.213-1.917-12.724-4.314-16.505-7.955C156.397,94.701,156.82,90.626,156.621,90.815z"/>
				</g>
				<g>
					<path fill="#414042" d="M138.245,97.831c-0.133,2.367,0.104,14.308-0.343,16.334c-0.059,2.175-10.477,11.022-10.927,10.856
						c0.199,0.396,2.555-11.879,2.558-13.508C129.865,110.133,137.944,97.602,138.245,97.831z"/>
				</g>
				<g>
					<path fill="#414042" d="M133.779,91.834c-3.197,2.332-14.029,20.589-16.187,23.505c-1.017,1.314-5.785,5.966-11.258,8.832
						c-5.395,2.986-11.023,4.232-11.453,4.498c-0.517,0.141,4.715-2.199,9.499-5.862c4.837-3.616,8.655-8.835,9.564-9.952
						C115.444,110.516,132.929,90.984,133.779,91.834z"/>
				</g>
				<g>
					<path fill="#414042" d="M135.517,101.813c-1.796,2.417-9.348,17.928-12.323,19.917c-2.324,3.258-19.981,6.355-20.795,5.86
						c-0.451,0.729,16.8-6.706,17.797-9.063C121.878,118.102,135.158,101.51,135.517,101.813z"/>
				</g>
				<g>
					<path fill="#414042" d="M115.215,106.875c0.347,4.104-15.228,16.01-17.71,17.238c-1.14,0.814-6.148,2.852-10.11,5.984
						c-4.197,3.074-5.292,8.451-5.232,8.894c0.03,0.624-0.802-5.106,3.092-9.795c3.482-4.663,8.633-7.896,9.683-8.653
						c1.115-0.758,6.868-3.406,11.903-6.309C112.029,111.418,115.273,106.922,115.215,106.875z"/>
				</g>
				<g>
					<path fill="#414042" d="M114.902,107.878c-0.622,2.093-6.622,7.077-13.986,8.798c-7.188,1.941-14.046,3.669-15.705,4.502
						c-1.656,0.428-8.271,2.525-12.402,8.238c-4.336,5.42-4.913,12.586-4.847,13.135c0.134,0.727-1.163-6.424,2.44-13.374
						c3.08-7.183,11.154-11.729,12.963-12.02c1.786-0.934,10.479-1.972,18.18-3.048C109.636,113.382,115.09,108.022,114.902,107.878
						z"/>
				</g>
				<g>
					<path fill="#414042" d="M92.348,123.721c-3.176,1.092-10.798,14.478-11.358,16.811c-0.507,1.012-3.18,4.549-4.88,8.468
						c-2.006,3.86-1.353,8.295-1.004,8.66c0.105,0.493-2.265-3.696-1.315-8.564c0.636-4.729,2.67-9.437,3.214-10.421
						C77.307,135.967,91.24,122.292,92.348,123.721z"/>
				</g>
				<g>
					<path fill="#414042" d="M90.921,136.502c-1.438,1.457-8.341,3.373-14.712,5.304c-6.732,2.082-7.737,8.703-7.959,10.349
						c-0.398,1.508-1.786,7.992-1.23,14.538c0.204,6.564,3.341,12.315,3.877,12.699c0.359,0.563-4.39-4.325-5.869-11.352
						c-2.03-6.749-1.616-14.618-1.174-16.395c-0.417-1.294,3.812-11.933,12.815-12.41C84.398,138.452,90.939,136.813,90.921,136.502
						z"/>
				</g>
				<g>
					<path fill="#414042" d="M89.188,149.261c-1.429,0.782-6.086,3.681-9.127,7.984c-3.24,4.114-5.175,8.857-5.704,10.126
						c-0.542,1.171-3.344,5.542-4.414,10.457c-1.324,4.894-0.02,9.931,0.18,10.324c0.252,0.465-2.603-4.027-2.447-9.755
						c-0.192-5.644,1.95-11.479,2.586-12.647c0.503-1.259,4.021-6.867,8.704-10.806C83.588,150.816,89.229,149.229,89.188,149.261z"
						/>
				</g>
				<g>
					<path fill="#414042" d="M88.43,148.558c-1.978-1.036-8.681,0.079-12.424,5.251c-4.055,4.546-6.332,10.296-7.02,11.776
						c-0.727,1.373-3.894,6.65-5.617,12.353c-2.097,5.693-0.528,11.633,0.036,12.055c0.16,0.658-3.372-4.859-2.361-11.545
						c0.489-6.499,3.072-13.117,3.847-14.479c0.629-1.404,4.464-8.133,10.283-12.595C80.931,145.785,88.859,148.377,88.43,148.558z"
						/>
				</g>
				<g>
					<path fill="#414042" d="M89.284,158.821c-1.441,0.447-6.593,2.181-9.185,6.391c-2.758,3.962-3.696,8.737-4.04,10.002
						c-1.399,1.99-5.717,19.204-5.261,20.214c-0.493,0.929-0.756-18.702,0.978-21.228c0.311-1.17,2.626-7.174,7.125-11.228
						C83.529,158.75,89.418,158.877,89.284,158.821z"/>
				</g>
				<g>
					<path fill="#414042" d="M91.718,165.22c-3.486,0.304-13.618,12.154-14.234,14.503c-0.597,0.936-3.695,4.114-5.25,8.064
						c-1.795,3.994,0.117,8.37,0.419,8.621c0.367,0.445-3.371-3.07-2.697-8.38c0.318-5.06,3.158-9.68,3.787-10.61
						c0.625-1.007,4.411-5.194,8.77-8.073C86.753,166.212,91.737,165.136,91.718,165.22z"/>
				</g>
				<g>
					<path fill="#414042" d="M102.788,124.991c-0.11,5.328-20.352,24.776-19.548,29.302c-0.789,1.736-3.875,8.796-4.958,16.274
						c-1.412,7.421-0.177,14.752-0.024,15.384c0.221,0.665-2.417-6.327-2.295-14.418c-0.146-8.033,2.108-16.663,3.05-18.474
						C78.982,147.057,105.042,126.576,102.788,124.991z"/>
				</g>
				<g>
					<path fill="#414042" d="M91.463,149.063c-1.422,3.154-14.278,19.305-12.508,22.53c-0.307,1.333-1.836,6.854-1.319,12.325
						c-0.086,5.89,4.954,9.404,5.508,9.442c0.754,0.332-5.951-1.452-7.517-8.104c-1.957-5.935-1.449-12.72-1.032-14.186
						C73.156,165.771,92.043,149.137,91.463,149.063z"/>
				</g>
				<g>
					<path fill="#414042" d="M88.564,155.93c0.091,2.435-5.202,15.335-5.477,17.273c-0.292,0.936-2.459,4.175-3.053,7.728
						c-0.815,3.688,2.026,6.915,2.288,7.05c0.509,0.228-3.769-1.537-4.455-6.35c-0.849-4.489,0.768-8.924,1.056-9.829
						C79.421,169.555,89.126,156.095,88.564,155.93z"/>
				</g>
				<g>
					<path fill="#414042" d="M92.758,165.584c-2.853,0.515-7.812,10.521-7.882,12.172c-0.274,0.757-2.041,3.271-3,6.237
						c-0.903,2.938,0.236,6.085,0.365,6.386c0.382,0.238-2.342-2.195-2.558-5.997c-0.369-3.638,0.759-7.446,1.11-8.222
						c0.287-0.824,2.582-4.348,5.451-6.932C89.141,166.526,92.808,165.578,92.758,165.584z"/>
				</g>
				<g>
					<path fill="#414042" d="M90.793,173.867c-1.013,1.363-2.635,8.885-2.354,9.929c-0.856,0.678-2.596,8.308-1.617,9.018
						c-0.485,0.885-4.014-8.404-2.682-9.863C83.841,181.204,90.424,173.368,90.793,173.867z"/>
				</g>
				<g>
					<path fill="#414042" d="M88.257,171.094c-0.388,1.727-4.187,10.956-4.645,12.297c-1.115,0.903-6.338,9.255-5.711,10.292
						c-0.817,0.595,0.25-11.165,1.773-12.227C80.277,179.969,88.311,171.091,88.257,171.094z"/>
				</g>
				<g>
					<path fill="#414042" d="M89.426,147.906c-3.674,2.015-15.066,20.045-14.721,23.646c-0.578,1.409-3.112,6.943-3.249,12.863
						c-0.457,5.947,2.045,11.485,2.225,11.934c0.405,0.443-3.414-4.295-4.382-10.863c-1.232-6.496,0.497-13.658,1.148-15.064
						c0.378-1.575,3.907-8.438,8.701-13.63C83.882,151.504,89.452,147.912,89.426,147.906z"/>
				</g>
				<g>
					<path fill="#414042" d="M85.803,150.3c-2.122,0.031-8.08,2.818-11.634,8.046c-3.804,4.961-5.555,10.834-5.547,12.206
						c-0.271,1.219-1.566,7.65-1.328,13.544c-0.105,6.157,3.803,11.086,4.362,11.322c0.511,0.503-5.122-3.212-6.378-10.065
						c-1.735-6.489-1.309-13.42-1.067-15.199c0.112-1.93,3.359-9.415,8.964-14.157C78.406,150.452,85.912,150.058,85.803,150.3z"/>
				</g>
				<g>
					<path fill="#414042" d="M150.305,97.89c0.57,2.094,4.858,13.271,5.426,15.187c0.821,1.812-0.513,14.499-0.819,14.924
						c0.311,0.438-2.709-12.284-3.437-13.831C151.006,112.619,150.005,97.886,150.305,97.89z"/>
				</g>
				<g>
					<path fill="#414042" d="M157.115,100.566c1.631,1.359,9.888,10.503,10.699,12.585c1.863,1.696,1.654,14.886,0.945,15.188
						c0.6,0.264-3.209-12.046-4.812-13.097C163.656,113.765,157.183,100.578,157.115,100.566z"/>
				</g>
				<g>
					<path fill="#414042" d="M152.433,98.525c-0.186,2.319,4.15,12.587,5.188,14.073c0.52,1.505,2.52,13.274,2.644,13.781
						c0.274,0.472-6.206-10.438-6.702-12.108C152.273,112.834,151.546,98.441,152.433,98.525z"/>
				</g>
				<g>
					<path fill="#414042" d="M157.145,97.411c1.878,1.54,13.37,9.956,14.309,12.842c2.494,2.06,2.433,16.949,2.637,17.494
						c0.08,0.606-4.578-14.381-6.334-15.119C167.866,110.903,157.001,97.572,157.145,97.411z"/>
				</g>
				<g>
					<path fill="#414042" d="M165.02,102.447c1.998,0.963,13.638,5.884,15.365,7.467c0.805,0.575,3.471,3.635,4.9,7.119
						c1.619,3.438,1.329,6.939,1.576,7.14c-0.139,0.374-0.827-2.974-3.195-5.509c-2.073-2.699-5.26-4.688-5.897-5.211
						C176.826,112.303,164.916,102.633,165.02,102.447z"/>
				</g>
				<g>
					<path fill="#414042" d="M158.118,92.24c2.985,0.221,13.632,2.209,22.768,8.006c9.246,5.412,17.089,12.814,19.114,14.955
						c1.688,1.949,9.76,10.166,11.93,20.727c2.363,10.609-3.07,19.565-3.016,20.27c-0.607,0.902,3.846-8.463,1.188-18.335
						c-2.419-9.858-11.378-17.274-12.855-19.2c-1.677-1.817-9.644-10.923-19.061-17.377
						C168.993,94.263,158.042,92.319,158.118,92.24z"/>
				</g>
				<g>
					<path fill="#414042" d="M170.533,104.662c2.95,0.275,13.218,1.525,22.95,5.176c9.878,3.309,18.444,9.758,20.585,11.81
						c1.889,1.679,9.599,10.862,9.374,21.343c0.439,9.97-0.665,19.26-0.382,20.14c-0.142,0.885-0.449-8.6-1.637-18.47
						c-0.741-10.374-8.32-17.815-9.983-19.455c-1.576-1.67-10.064-9.49-20.39-13.829
						C181.01,106.631,170.485,104.758,170.533,104.662z"/>
				</g>
				<g>
					<path fill="#414042" d="M182.266,114.6c1.485-0.07,7.195,0.377,11.914,3.729c4.778,3.126,8.163,7.917,8.912,9.269
						c2.837,2.494,4.401,22.046,3.288,22.753c1.138,0.562-4.552-18.867-6.987-20.361c-0.514-1.093-3.101-6.556-7.353-10.349
						C187.853,115.711,182.219,114.617,182.266,114.6z"/>
				</g>
				<g>
					<path fill="#414042" d="M189.071,111.585c2.632,3.505,22.332,20.03,23.521,25.181c1.013,1.697,3.731,9.731,2.071,17.084
						c-1.384,7.198-4.023,13.481-4.003,14.149c-0.261,0.61,1.192-6.175,1.688-13.333c0.761-7.314-2.803-14.088-3.478-15.576
						C209.04,135.488,188.397,112.207,189.071,111.585z"/>
				</g>
				<g>
					<path fill="#414042" d="M203.602,149.53c1.184,1.584,5.564,6.039,10.697,9.856c5.276,3.926,8.308,10.559,8.606,12.396
						c2.084,4.031-2.908,25.887-3.381,26.776c0.206,1.001,0.971-23.114-0.776-25.406C221.247,169.497,202.616,150.58,203.602,149.53
						z"/>
				</g>
				<g>
					<path fill="#414042" d="M204.26,156.854c0.139,3.614,12.145,15.19,13.574,18.201c0.53,1.259,2.505,6.307,2.077,11.366
						c-0.279,4.859-1.142,9.294-1.107,9.717c-0.028,0.425-0.339-4.137-1.015-8.854c-0.672-4.624-3.329-8.983-3.732-9.946
						C213.458,175.782,202.301,157.679,204.26,156.854z"/>
				</g>
				<g>
					<path fill="#414042" d="M204.619,144.801c1.142,3.117,9.129,20.418,9.948,23.546c0.439,1.405,1.31,7.122,1.215,12.599
						c-0.016,5.527-1.651,10.416-1.583,10.851c-0.263,0.431,0.52-4.579-0.586-9.88c-0.842-5.302-2.839-10.813-3.194-12.08
						C209.877,167.387,204.299,144.895,204.619,144.801z"/>
				</g>
				<g>
					<path fill="#414042" d="M204.65,172.574c1.188,1.385,8.61,8.258,9.24,10.348c1.865,1.828-1.09,12.631-0.762,12.919
						c-0.221,0.754-1.982-11.198-3.209-11.042C209.998,183.815,204.424,172.712,204.65,172.574z"/>
				</g>
				<g>
					<path fill="#414042" d="M213.146,148.383c0.514,2.236,5.453,5.965,10.488,10.087c5.136,4.525,6.443,12.109,6.257,13.741
						c0.212,1.78-0.721,8.416-2.929,14.205c-2.074,5.914-5.663,10.523-5.938,10.899c-0.275,0.438,2.539-4.544,3.551-10.627
						c1.293-6.011,1.038-12.586,0.945-13.965c0.114-1.494,0.297-8.306-4.324-13.398C216.244,154.76,212.61,148.58,213.146,148.383z"
						/>
				</g>
				<g>
					<path fill="#414042" d="M226.982,156.525c1.341,3.015,10.338,20.271,9.957,24.223c0.199,1.372,0.062,8.234-3.887,12.7
						c-3.554,4.384-7.842,7.279-8.081,7.725c-0.41,0.304,3.141-3.62,5.8-8.248c2.947-4.61,1.832-10.2,1.847-11.442
						C233.572,179.112,226.697,156.687,226.982,156.525z"/>
				</g>
				<g>
					<path fill="#414042" d="M210.254,126.305c2.598,0.48,12.535,2.827,19.278,10.522c6.938,7.337,9.495,17.521,9.89,20.142
						c0.896,2.423,0.889,13.257-3.414,21.76c-4.08,8.521-9.676,15.374-10.014,16.097c-0.539,0.635,4.265-6.856,7.42-15.684
						c3.581-8.89,2.414-18.742,1.796-20.853c-0.304-2.071-1.694-13.246-8.51-21.077
						C220.404,128.801,210.037,126.445,210.254,126.305z"/>
				</g>
				<g>
					<path fill="#414042" d="M121.302,98.28c-1.554,2.474-9.124,9.898-18.847,13.876c-9.43,4.143-18.923,8.102-20.869,9.512
						c-2.022,1.061-10.802,6.618-14.092,15.881c-3.964,9.281,1.393,18.713,1.946,19.072c0.873,0.947-6.983-7.056-4.456-18.254
						c1.87-10.928,11.469-19.048,13.772-20.113c2.405-1.905,13.82-5.285,24.336-8.92C113.852,105.937,121.378,98.32,121.302,98.28z"
						/>
				</g>
				<g>
					<path d="M136.169,94.429c-0.971,2.11-4.446,14.318-4.71,16.248c-1.027,1.532-5.86,13.542-5.289,14.498
						c-0.635,0.71-0.262-14.022,1.067-15.692C127.436,107.439,135.862,94.17,136.169,94.429z"/>
				</g>
				<g>
					<path d="M140.092,96.177c-1.494,2.204-5.774,15.679-5.941,17.878c-1.198,1.709-5.8,15.436-5.143,16.451
						c-0.66,0.812-0.642-15.637,0.89-17.555C129.914,110.555,139.576,95.735,140.092,96.177z"/>
				</g>
				<g>
					<path d="M143.207,97.154c0.722,2.061,2.305,14.748,2.123,16.794c-0.101,1.914-3.553,14.468-3.543,15.101
						c-0.071,0.611-1.032-13.426-0.849-15.168C141.248,112.147,143.37,97.203,143.207,97.154z"/>
				</g>
				<g>
					<path d="M149.773,98.197c2.625-0.012,11.295,10.243,11.816,12.439c1.308,1.811,2.38,15.141,2.203,15.672
						c0.359,0.448-5.056-12.395-6.143-13.721C157.739,110.633,150.787,97.578,149.773,98.197z"/>
				</g>
				<g>
					<path d="M147.21,93.31c-2.042,1.921-2.469,13.653-2.053,15.554c-0.088,1.682-3.116,13.993-3.368,14.465
						c0.166,0.561-1.187-12.71-1.018-14.566c0.034-0.846,0.806-5.049,2.223-8.842C144.495,96.045,147.282,93.316,147.21,93.31z"/>
				</g>
				<g>
					<path d="M139.369,92.292c-0.269,5.184-21.328,19.451-23.792,21.665c-3.195,1.802-22.864,17.011-23.352,18.366
						c-1.227,0.566,16.983-19.932,20.294-21.531c1.326-1.363,8.805-5.348,15.492-9.055
						C134.889,98.102,139.411,92.324,139.369,92.292z"/>
				</g>
				<g>
					<path d="M131.839,95.296c-3.224,0.184-8.253,6.895-14.606,12.901c-6.954,5.445-15.052,8.406-16.949,9.557
						c-1.92,0.914-9.891,3.695-16.031,8.789c-6.823,4.745-8.218,13.225-8.124,13.852c-0.049,0.943-0.686-7.91,5.697-14.581
						c5.749-6.757,14.346-10.96,16.177-11.843c1.82-1.169,11.542-3.509,18.918-8.484C123.373,99.355,131.428,94.275,131.839,95.296z
						"/>
				</g>
				<g>
					<path d="M87.224,132.361c-3.164,3.05-11.508,24.548-10.846,28.333c-0.381,1.639-2.223,8.015-2.103,14.453
						c-0.151,6.455,2.04,12.501,2.233,13.007c0.36,0.503-3.187-4.882-4.339-11.809c-1.435-6.842-0.623-14.515-0.171-16.131
						c0.2-1.696,2.69-9.521,6.573-16.051C82.378,137.568,87.25,132.365,87.224,132.361z"/>
				</g>
				<g>
					<path d="M87.618,155.389c-1.839,1.596-5.222,12.331-4.944,14.05c-1.289,1.221-3.108,12.558-1.901,13.399
						c-0.7,1.028-4.199-12.397-2.397-14.263C77.892,166.206,86.929,154.621,87.618,155.389z"/>
				</g>
				<g>
					<path d="M72.994,148.024c-0.776,1.784-3.104,7.964-3.087,14.347c-0.268,6.36,1.227,12.4,1.624,14.018
						c0.376,1.506,1.005,7.816,4.169,12.996c2.93,5.423,8.742,8.103,9.219,8.241c0.676,0.101-5.84-0.818-10.398-6.168
						c-4.821-4.938-6.901-12.248-7.195-13.788c-0.445-1.576-1.228-9.49,0.345-16.657C69.057,153.743,73.002,147.977,72.994,148.024z
						"/>
				</g>
				<g>
					<path d="M163.844,96.504c2.735-0.373,12.233,1.584,21.229,4.337c8.952,1.688,18.941,3.728,21.199,6.292
						c2.883,1.338,8.457,10.588,9.028,19.93c1.119,9.225-0.093,17.877-0.042,18.637c-0.086,0.801,0.057-7.91-1.889-16.953
						c-1.602-9.312-7.517-17.152-9.316-17.805c-0.945-2.059-10.829-5.039-21.148-8.322
						C173.281,98.198,163.949,96.283,163.844,96.504z"/>
				</g>
				<g>
					<path d="M175.327,103.521c4.482,2.436,31.388,16.783,34.159,22.055c1.385,1.553,8.089,9.705,6.821,19.033
						c-1.479,8.674-5.426,15.758-5.287,16.618c-0.474,0.717,2.154-7.258,2.984-15.55c0.733-8.593-6.38-15.305-7.451-16.823
						C205.444,124.518,175.27,103.73,175.327,103.521z"/>
				</g>
				<g>
					<path d="M203.658,138.252c4.299,1.654,14.81,23.465,15.642,27.095c0.428,1.535,2.725,8.654,2.115,15.509
						c-0.566,6.86-3.565,12.454-3.636,12.982c-0.346,0.49,1.783-5.441,1.449-12.023c-0.473-6.597-3.409-12.936-3.948-14.656
						c-0.578-1.566-2.481-9.251-5.021-16.209C207.957,143.812,203.701,138.221,203.658,138.252z"/>
				</g>
				<g>
					<path d="M204.662,150.23c2.769,1.938,9.29,19.389,9.28,22.499c0.883,2.857-0.938,21.551-1.174,22.341
						c0.221,0.804-2.332-19.063-3.136-21.413C210.219,171.021,205.78,149.973,204.662,150.23z"/>
				</g>
				<g>
					<path d="M219.671,143.258c1.797,0.961,7.028,6.323,9.697,13.299c2.87,6.782,4.185,14.086,4.383,16.128
						c0.35,1.912-0.295,10.046-4.083,16.16c-3.562,6.17-8.324,10.77-8.618,11.283c-0.455,0.438,3.584-4.871,6.162-11.327
						c2.969-6.438,2.369-13.76,2.215-15.308c-0.152-1.633-0.407-9.863-2.706-17.249
						C224.878,148.583,219.717,143.184,219.671,143.258z"/>
				</g>
				<g>
					<path d="M221.306,154.052c1.857,2.638,7.441,20.98,6.239,24.558c0.47,1.545-1.752,7.496-4.009,11.879
						c-0.969,2.325-1.59,4.891-0.551,6.673c1.077,1.737,2.705,2.12,2.855,2.247c0.26-0.05-1.015,0.099-2.813-1.147
						c-1.968-1.381-2.382-4.825-1.845-7.562c1.302-5.813,2.434-10.66,1.968-12.058C224.766,176.364,221.843,154.025,221.306,154.052
						z"/>
				</g>
			</g>
			<g>
				<g>
					<path d="M85.709,146.122c-0.09,2.584,0.02,15.164,0.185,16.966c-0.385,1.503-6.835,13.366-6.65,14.245
						c-0.248,0.749-2.694-13.717-2-15.693C77.156,159.48,85.458,145.822,85.709,146.122z"/>
				</g>
				<g>
					<path d="M159.126,101.963c1.536,1.388,7.561,10.753,8.066,12.253c0.307,1.37-1.993,12.75-1.653,13.38
						c0.074,0.627-6.723-9.686-6.864-11.273C158.347,114.793,159.183,101.969,159.126,101.963z"/>
				</g>
				<g>
					<path d="M152.758,101.48c-0.09,2.586,2.425,14.592,2.774,16.482c0.138,1.743-5.798,14.14-6.007,14.555
						c0.126,0.518-2.787-12.879-2.768-14.752C146.351,115.906,152.19,101.132,152.758,101.48z"/>
				</g>
				<g>
					<path d="M141.122,103.439c0.022,1.969,0.855,10.208,1.008,11.241c-0.254,0.745-6.601,7.585-6.458,8.355
						c-0.241,0.587-2.688-9.114-2.054-10.468C133.633,111.027,140.971,103.107,141.122,103.439z"/>
				</g>
				<g>
					<path d="M129.302,98.404c0.892,2.36,1.08,16.826,0.266,19.053c-0.511,2.182-10.571,13.239-10.858,13.771
						c-0.164,0.586,1.965-14.695,2.475-16.403C122.079,113.244,129.508,98.598,129.302,98.404z"/>
				</g>
				<g>
					<path d="M169.785,98.805c1.67,1.887,9.725,11.92,10.831,13.607c1.063,1.676,0.819,15.738,0.881,16.213
						c0.276,0.454-8.014-10.967-8.853-12.529C171.73,114.523,169.576,98.777,169.785,98.805z"/>
				</g>
				<g>
					<path d="M176.445,108.803c1.902-0.092,11.527,4.543,12.528,5.859c0.911,1.09,2.862,11.771,3.376,12.18
						c0.288,0.482-9.463-5.471-10.146-6.596C181.625,119.074,176.745,108.764,176.445,108.803z"/>
				</g>
				<g>
					<path d="M184.976,108.811c4.293,2.345,30.118,15.057,32.989,21.094c1.846,1.595,5.441,11.736,3.071,20.091
						c-2.009,8.285-6.403,14.605-6.49,15.293c-0.381,0.648,1.959-6.771,1.91-14.525c0.297-7.999-4.304-14.151-5.389-15.414
						C211.289,131.936,184.729,109.127,184.976,108.811z"/>
				</g>
				<g>
					<path d="M191.719,113.239c2.287-0.083,10.49,0.991,18.06,4.497c7.67,3.178,14.511,8.535,16.15,10.334
						c1.419,1.566,6.782,9.49,6.55,18.207c0.09,8.912-6.078,14.104-6.123,14.575c-0.677,0.567,3.865-5.978,1.822-12.964
						c-1.378-6.927-7.47-12.398-8.536-13.654c-1.005-1.342-6.431-8.105-13.382-13.108
						C199.459,115.998,191.719,113.209,191.719,113.239z"/>
				</g>
				<g>
					<path d="M124.28,105.699c-0.797,1.99-6.136,11.518-6.543,12.681c-1.03,0.325-10.347,6.409-10.407,7.577
						c-0.763,0.66,1.737-12.24,3.771-13.312C112.236,110.846,124.336,105.562,124.28,105.699z"/>
				</g>
				<g>
					<path d="M113.156,106.178c-0.647,2.812-8.976,16.45-9.856,18.342c-0.619,0.92-4.31,3.25-7.15,6.337
						c-3.035,2.952-4.222,7.45-4.124,7.883c0.077,0.493-1.578-4.049-0.207-9.065c1.077-4.984,3.794-9.608,4.492-10.473
						C97.748,116.895,113.451,106.338,113.156,106.178z"/>
				</g>
				<g>
					<path d="M106.247,108.135c-1.404,1.627-5.527,6.696-9.357,12.267c-4.202,5.614-9.156,10.283-9.584,11.188
						c-0.803,0.7-4.761,4.646-7.213,10.658c-2.422,5.84-4.579,11.739-4.729,12.187c-0.187,1.539-0.726-24.742,5.182-28.453
						c1.578-2.051,8.404-5.538,13.838-9.751C100.027,111.684,106.281,108.07,106.247,108.135z"/>
				</g>
				<g>
					<path d="M99.634,110.832c-1.113,5.479-22.386,28.209-23.545,32.092c-1.429,1.703-6.845,7.454-9.448,15.506
						c-3.024,7.784-2.359,16.312-1.915,17.042c0.24,0.842-3.551-7.178-2.65-16.533c0.03-9.309,5.068-19.305,6.603-20.765
						C71.18,132.938,101.017,112.135,99.634,110.832z"/>
				</g>
				<g>
					<path d="M81.401,119.281c0.478,2.655-3.379,11.432-6.791,19.486c-2.757,8.154-3.016,16.943-3.214,19.137
						c-0.067,2.047-2.406,10.938-2.988,19.354c-0.864,8.517,1.697,16.813,2.04,17.483c0.412,0.72-4.623-6.392-6.367-15.789
						c-1.829-9.332-1.675-19.083-1.448-21.528c0.278-2.362,2.577-13.215,8.477-22.193C77.521,127.141,81.702,119.566,81.401,119.281
						z"/>
				</g>
				<g>
					<path d="M141.712,92.105c0.009,1.427-0.485,5.625-4.908,8.592c-4.047,3.057-10.058,5.104-15.582,7.072
						c-11.519,3.908-22.054,8.365-24.602,9.951c-2.224,1.058-13.609,5.688-22.983,11.661c-10.165,5.641-12.652,17.901-12.136,18.823
						c-0.034,1.541-2.001-11.65,7.906-21.032c9.002-8.919,19.699-15.598,22.87-17.083c2.766-1.868,16.821-5.311,29.619-7.383
						c6.461-1.061,12.448-2.477,15.968-5.021C141.43,95.186,141.519,91.991,141.712,92.105z"/>
				</g>
				<g>
					<path fill="#414042" d="M160.251,99.995c2.06,1.034,9.521,11.196,10.197,12.75c0.227,1.554,0.322,13.997,1.224,14.688
						c0.051,0.955-9.398-9.729-9.457-11.644C161.735,113.992,160.612,99.971,160.251,99.995z"/>
				</g>
				<g>
					<path fill="#414042" d="M165.723,93.923c3.713,1.215,18.089,17.577,20.14,20.073c1.033,1.176,4.378,6.24,8.89,10.088
						c4.413,3.954,9.668,6.553,10.096,6.803c0.508,0.133-5.048-1.35-10.627-4.469c-5.64-3.062-10.557-8.17-11.509-9.357
						C180.92,114.357,166.638,93.184,165.723,93.923z"/>
				</g>
				<g>
					<path fill="#414042" d="M163.905,103.822c2.57,1.619,13.638,15.113,15.863,16.054c0.883,2.016,16.522,10.426,17.696,9.978
						c0.821,0.844-18.405-3.443-20.233-6.381C174.082,121.648,164.332,103.512,163.905,103.822z"/>
				</g>
				<g>
					<path fill="#414042" d="M184.07,108.695c1.183,4.024,17.913,11.775,20.749,13.09c1.191,0.744,5.845,4.09,9.168,8.484
						c3.587,4.544,3.04,9.846,3.038,10.143c-0.014,0.497-0.214-4.674-4.223-8.08c-3.621-3.521-8.953-5.894-9.987-6.624
						c-1.048-0.72-6.328-4.106-11.13-7.908C186.703,114.052,183.968,108.689,184.07,108.695z"/>
				</g>
				<g>
					<path fill="#414042" d="M184.464,109.823c2.236,6.374,27.508,6.926,31.767,8.614c1.94,0.322,9.534,4.59,12.566,11.438
						c3.437,6.665,2.439,13.575,2.43,14.057c-0.09,0.682,0.152-6.258-3.864-12.05c-3.716-6.101-10.578-8.867-12.122-9.159
						c-1.409-0.797-9.364-2.609-17.334-4.637C189.545,116.424,184.145,109.896,184.464,109.823z"/>
				</g>
				<g>
					<path fill="#414042" d="M207.341,125.924c3.195-0.381,14.702,11.289,15.561,13.912c0.631,1.049,2.337,5.592,2.809,10.135
						c0.764,4.694-1.312,8.561-1.528,8.699c-0.07,0.345,1.166-3.472-0.49-7.578c-1.382-4.062-4.008-8.001-4.51-8.904
						C219.075,139.894,208.505,124.714,207.341,125.924z"/>
				</g>
				<g>
					<path fill="#414042" d="M208.753,138.697c1.971,1.033,8.668,1.579,15.671,2.489c8.012,0.823,11.708,9.809,11.654,11.431
						c0.607,1.918,0.689,9.345-1.249,15.812c-1.632,6.729-5.909,11.54-6.301,11.794c-0.306,0.477,3.375-4.529,3.919-11.284
						c1.064-6.605-0.203-13.611-0.555-14.995c-0.104-1.479-1.441-9.125-9.143-10.742
						C215.574,141.648,208.567,138.983,208.753,138.697z"/>
				</g>
				<g>
					<path fill="#414042" d="M210.574,151.493c1.479,0.199,6.791,1.929,10.937,5.696c4.288,3.52,7.436,8.274,8.122,9.666
						c0.704,1.268,2.553,6.827,2.295,12.22c-0.022,5.492-2.649,9.809-2.784,10.137c-0.214,0.411,1.625-4.18,0.609-9.23
						c-0.673-5.033-3.358-9.871-3.928-10.913c-0.437-1.104-2.833-6.544-6.588-10.838
						C215.595,153.819,210.567,151.468,210.574,151.493z"/>
				</g>
				<g>
					<path fill="#414042" d="M211.945,150.775c1.275-1.457,8.467-1.896,13.55,2.911c5.217,4.057,8.645,9.77,9.476,11.343
						c0.882,1.462,3.061,7.789,3.499,14.012c0.802,6.438-2.157,11.705-2.544,11.88c-0.121,0.505,2.223-4.657,0.47-10.667
						c-1.298-5.893-4.472-11.682-5.184-12.916c-0.562-1.281-3.379-7.914-8.071-12.562
						C218.638,149.161,211.777,150.626,211.945,150.775z"/>
				</g>
				<g>
					<path fill="#414042" d="M210.671,161.099c1.318-0.104,6.872,0.189,10.861,4.117c4.032,3.646,6.183,8.749,6.642,10.091
						c1.791,2.771,0.69,20.851,0.213,21.54c0.479,0.7-2.772-18.106-4.309-19.932c-0.289-1.094-1.545-6.627-4.807-10.688
						C216.008,162.038,210.593,161.116,210.671,161.099z"/>
				</g>
				<g>
					<path fill="#414042" d="M208.136,167.481c3.147-1.192,16.891,8.291,17.991,11.11c0.753,0.979,3.135,5.5,3.471,10.248
						c0.488,5.031-2.752,8.302-2.888,8.459c-0.254,0.335,2.216-3.3,0.777-7.44c-1.042-4.062-4.23-7.676-4.782-8.496
						c-0.534-0.858-3.263-5.166-6.827-8.553C212.465,169.215,208.148,167.418,208.136,167.481z"/>
				</g>
				<g>
					<path fill="#414042" d="M196.486,126.783c1.236,5.1,23.879,20.877,24.363,27.217c1.004,1.969,3.011,10.126,2.741,17.864
						c0.078,7.814-2.508,14.691-2.632,15.266c-0.21,0.628,1.491-6.386,0.505-14.055c-0.752-7.686-3.673-15.375-4.489-16.934
						C218.169,152.122,194.324,128.413,196.486,126.783z"/>
				</g>
				<g>
					<path fill="#414042" d="M207.88,150.981c2.176,2.465,18.27,15.71,17.5,21.131c0.465,1.587,0.758,8.011-1.185,13.634
						c-1.553,6.297-7.32,8.24-7.555,8.217c-0.529,0.191,4.76-2.017,5.243-7.956c0.914-5.456-0.369-11.465-0.732-12.66
						C223.411,170.373,207.601,151.249,207.88,150.981z"/>
				</g>
				<g>
					<path fill="#414042" d="M210.656,157.601c1.053,2.235,9.662,12.913,10.377,15.382c0.396,0.96,1.578,5.265,0.81,9.438
						c-0.745,4.486-4.526,6.146-4.615,6.281c-0.359,0.195,2.769-2.223,2.342-5.886c-0.09-3.499-2.24-7.151-2.521-7.974
						C216.816,173.193,210.155,157.921,210.656,157.601z"/>
				</g>
				<g>
					<path fill="#414042" d="M207.041,167.826c2.52-1.161,11.711,7.309,12.129,9.548c0.43,0.834,1.207,4.516,0.827,7.941
						c-0.507,3.644-2.875,5.735-2.874,5.953c-0.291,0.133,1.29-2.424,0.609-5.429c-0.511-2.977-2.203-5.825-2.503-6.489
						c-0.222-0.665-1.441-4.059-3.382-6.948C209.937,169.486,207.056,167.852,207.041,167.826z"/>
				</g>
				<g>
					<path fill="#414042" d="M208.625,175.87c1.559,0.128,7.184,6.597,7.253,8.346c1.246,1.673-2.668,9.974-3.406,9.597
						c0.543,0.168,0.235-7.716-0.846-8.476C212.088,184.368,209.19,175.749,208.625,175.87z"/>
				</g>
				<g>
					<path fill="#414042" d="M211.058,172.962c1.347,1.124,8.416,8.166,9.226,9.752c1.538,1.277,1.797,12.173,1.004,12.349
						c0.639,0.094-3.45-9.264-4.778-10.104C216.116,183.837,211.038,173.013,211.058,172.962z"/>
				</g>
				<g>
					<path fill="#414042" d="M210.1,150.01c3.982,0.687,19.181,16.987,19.356,21.447c0.742,1.521,2.223,8.309,0.959,14.512
						c-0.964,6.3-4.662,10.938-4.798,11.372c-0.377,0.437,2.522-4.681,2.519-10.709c0.258-6-2.089-12.036-2.674-13.315
						c-0.319-1.368-2.709-7.935-6.62-13.472C215.022,154.273,210.08,150.013,210.1,150.01z"/>
				</g>
				<g>
					<path fill="#414042" d="M214.282,152.582c1.706-0.574,8.411,0.919,13.168,5.758c4.901,4.428,8.051,10.629,8.279,12.806
						c0.474,1.972,0.425,8.456-1.173,14.664c-1.4,6.503-6.324,10.211-6.684,10.339c-0.393,0.387,4.048-3.55,4.313-9.876
						c0.778-5.938-0.514-12.801-0.68-13.975c0-1.123-1.902-7.983-6.519-13.053C220.807,153.571,214.273,152.394,214.282,152.582z"/>
				</g>
				<g>
					<path fill="#414042" d="M148.884,99.225c0.593,2.047,0.092,14.317-0.272,16.158c-0.608,1.666-4.616,13.268-4.345,14.037
						c-0.336,0.66-0.756-13.065,0-14.707C144.767,113.02,149.163,99.324,148.884,99.225z"/>
				</g>
				<g>
					<path fill="#414042" d="M142.208,101.52c-0.711,2.039-5.608,13.239-6.024,14.954c-1.412,1.14-6.351,12.286-5.751,13.312
						c-0.719,0.751-0.141-13.536,1.706-15.007C132.675,112.816,142.2,101.451,142.208,101.52z"/>
				</g>
				<g>
					<path fill="#414042" d="M146.755,100.012c1.396,1.729,0.776,13.729-0.197,15.482c-0.459,1.832-7.436,11.443-7.581,12.002
						c-0.272,0.482,2.982-11.883,3.379-13.293C143.538,112.947,147.555,100.275,146.755,100.012z"/>
				</g>
				<g>
					<path fill="#414042" d="M142.235,98.287c-1.017,2.238-9.729,13.584-9.834,15.561c-1.739,0.854-7.078,14.453-7.274,15.107
						c-0.092,0.813,1.027-15.131,3.333-17.047C129.066,109.105,142.465,98.396,142.235,98.287z"/>
				</g>
				<g>
					<path fill="#414042" d="M134.501,103.187c-1.264,1.831-10.925,10.175-12.061,11.546c-2.107,0.219-10.667,9.164-10.1,10.703
						c0.148,0.404-0.067-3.271,1.81-6.734c1.597-3.615,4.634-6.646,5.33-7.211C120.941,109.947,134.645,103.352,134.501,103.187z"/>
				</g>
				<g>
					<path fill="#414042" d="M141.792,92.81c-3.03,0.802-13.257,4.05-21.461,10.624c-8.373,6.218-15.189,14.057-17.086,16.189
						c-1.677,2.086-10.135,8.804-13.358,18.203c-3.586,9.52,0.43,19.439,0.451,20.113c0.676,0.878-4.86-8.064-2.95-19.203
						c1.846-11.205,10.806-19.779,12.202-21.637c1.736-1.879,10.644-10.693,20.868-16.607
						C130.499,93.977,141.91,92.885,141.792,92.81z"/>
				</g>
				<g>
					<path fill="#414042" d="M129.366,105.23c-2.887,0.84-12.933,3.367-21.967,7.976c-9.239,4.326-16.482,11.119-18.355,13.005
						c-1.69,1.828-9.364,8.426-10.623,18.447c-1.736,9.558-2.016,19.069-2.284,19.837c0.146,0.808-0.454-8.365-0.114-18.702
						c-0.304-10.867,7.708-20.758,9.49-22.271c1.755-1.898,11.594-9.591,22.499-13.158
						C118.699,106.318,129.412,105.34,129.366,105.23z"/>
				</g>
				<g>
					<path fill="#414042" d="M117.672,115.17c-1.55,0.492-6.906,2.29-10.464,6.222c-3.682,3.743-5.8,8.48-6.407,9.738
						c-2.236,1.671-9.009,19.289-7.994,20.64c-1.227,0.953,1.161-20.242,3.983-22.442c0.562-1.206,4.325-6.898,9.627-10.353
						C111.721,115.346,117.752,115.203,117.672,115.17z"/>
				</g>
				<g>
					<path fill="#414042" d="M110.276,112.506c-1.716,4.12-18.63,23.635-18.891,27.626c-0.783,1.603-4.38,7.821-4.175,14.993
						c0.017,7.044,1.369,13.894,1.337,14.469c0.251,0.539-2.024-5.764-3.458-13.232c-1.792-7.658,1.324-16.159,2.134-17.754
						C87.852,133.68,111.08,113.031,110.276,112.506z"/>
				</g>
				<g>
					<path fill="#414042" d="M95.708,150.512c-0.573,1.723-4.137,7.178-8.461,11.798c-4.279,4.721-5.6,10.347-5.843,11.927
						c-1.673,2.438-2.265,24.802-1.731,25.851c-0.148,1.162-4.606-22.748-2.652-26.477c0.151-1.577,3.403-9.498,9.291-13.699
						C91.921,155.675,95.732,150.592,95.708,150.512z"/>
				</g>
				<g>
					<path fill="#414042" d="M94.947,158.098c1.241,3.332-8.199,18.391-8.847,20.412c-0.305,1.097-3.293,4.984-4.149,9.513
						c-1.033,4.559-1.541,9.159-1.566,9.535c0.03,0.385-0.549-4.022-0.748-9.05c-0.151-5.247,1.904-10.567,2.433-11.73
						C83.381,174.021,96.727,159.118,94.947,158.098z"/>
				</g>
				<g>
					<path fill="#414042" d="M94.593,146.016c-0.015,3.313-4.331,22.036-4.884,24.917c-1.686,2.467-5.995,21.155-4.707,22.442
						c0.274,0.469-1.432-4.558-1.183-10.257c-0.011-5.693,1.208-11.712,1.569-13.011C86.034,167.323,94.912,146.116,94.593,146.016z
						"/>
				</g>
				<g>
					<path fill="#414042" d="M94.625,173.61c-0.13,1.794-4.449,11.229-4.442,12.461c-1.268,0.55-3.794,10.557-4.118,11.093
						c0.351,0.349-1.844-10.32,0.012-12.635C86.508,182.527,94.873,173.747,94.625,173.61z"/>
				</g>
				<g>
					<path fill="#414042" d="M86.083,149.53c0.291,2.015-4.12,7.146-8.073,11.762c-3.769,4.979-3.62,10.785-3.465,12.49
						c-0.1,1.495-0.542,7.639,0.316,13.605c0.693,5.974,3.124,11.392,3.452,11.825c0.303,0.474-3.423-4.23-5.372-10.416
						c-2.228-6.042-2.902-13.121-2.804-14.752c-0.276-1.328,0.911-10.255,6.811-15.107C82.825,154.641,86.428,149.87,86.083,149.53z
						"/>
				</g>
				<g>
					<path fill="#414042" d="M72.235,157.715c-0.278,3.338-5.533,22.108-4.765,24.864c-0.003,1.356-1.357,6.577,1.084,11.345
						c2.22,4.792,5.697,8.882,5.888,9.254c0.378,0.247-3.667-2.841-7.366-7.397c-4.17-4.655-4.125-12.004-4.022-13.242
						C62.307,178.884,72.604,157.727,72.235,157.715z"/>
				</g>
				<g>
					<path fill="#414042" d="M89.58,126.891c-2.592,1.023-12.056,4.763-17.429,12.693c-5.627,7.611-6.913,17.108-7.211,19.565
						c-0.702,2.324-2.066,11.463,0.807,20.353c2.719,8.744,7.246,16.519,7.579,17.203c0.526,0.603-4.984-6.292-9.128-15.16
						c-4.633-8.781-4.42-20.309-3.689-22.551c0.309-2.222,2.809-14.25,10.885-22.111C78.996,128.432,89.831,127.069,89.58,126.891z"
						/>
				</g>
				<g>
					<path fill="#414042" d="M178.089,100.256c2.133,2.254,10.415,8.553,20.292,11.352c9.728,3.053,19.507,5.941,22.333,7.717
						c2.522,1.174,11.5,8.799,13.602,19.129c2.735,10.56-4.01,18.76-4.395,19.078c-0.749,0.886,5.81-7.418,2.589-17.146
						c-2.556-9.656-11.643-16.121-13.548-16.994c-1.491-1.391-12.603-5.704-23.009-10.215
						C185.151,108.817,177.953,100.248,178.089,100.256z"/>
				</g>
				<g>
					<path d="M163.146,96.298c1.844,1.313,9.049,12.202,9.591,14.379c1.338,1.887,0.918,15.488,0.28,15.886
						c0.569,0.39-3.147-12.837-4.365-14.255C168.559,110.588,163.524,96.199,163.146,96.298z"/>
				</g>
				<g>
					<path d="M159.257,98.1c2.26,1.246,10.354,13.504,10.806,16.021c1.525,2.154,0.819,17.301,0.11,17.752
						c0.604,0.473-2.808-14.576-4.213-16.158C166.066,113.701,159.883,97.887,159.257,98.1z"/>
				</g>
				<g>
					<path d="M155.982,98.545c0.418,2.22,2.75,14.547,3.109,16.531c0.276,1.893-1.681,14.851-1.692,15.422
						c0.066,0.58-2.485-13.139-2.67-14.904C154.416,113.823,155.814,98.505,155.982,98.545z"/>
				</g>
				<g>
					<path d="M149.773,98.917c-2.343,1.399-7.018,12.919-7.294,14.887c-0.978,1.479-7.174,12.96-7.069,13.755
						c-0.408,0.611,1.729-13.646,2.951-15.287C138.341,110.031,148.941,97.956,149.773,98.917z"/>
				</g>
				<g>
					<path d="M152.181,95.287c2.653,0.479,7.388,12.575,7.086,14.678c0.281,1.979-2.125,14.24-1.859,14.893
						c-0.168,0.612-2.358-12.838-2.505-14.361c-0.037-0.838,0.094-4.77-0.38-8.457C154.003,98.383,152.143,95.33,152.181,95.287z"/>
				</g>
				<g>
					<path d="M159.954,94.177c1.722,4.987,23.74,15.002,27.236,17.754c3.519,1.844,19.689,21.217,19.981,22.373
						c1.089,0.438-19.217-17.177-22.366-18.656c-1.08-1.164-7.73-5.68-14.221-10.307C163.904,100.793,159.865,94.16,159.954,94.177z
						"/>
				</g>
				<g>
					<path d="M168.041,97.562c2.789-0.679,9.457,5.601,15.999,10.323c7.055,4.156,15.353,6.134,17.514,7.282
						c2.031,0.856,9.983,5.099,15.522,11.487c6.267,6.234,6.026,14.727,5.98,15.16c0.052,0.797-0.299-7.358-6.744-12.775
						c-5.862-5.617-14.353-8.821-16.084-9.654c-1.568-1.084-11.097-4.208-18.711-10.396
						C175.016,101.682,168.6,96.776,168.041,97.562z"/>
				</g>
				<g>
					<path d="M212.154,134.32c3.807,1.91,16.126,22.383,15.807,26.891c0.511,1.748,1.124,8.993-0.375,15.55
						c-1.241,6.647-4.657,11.954-4.829,12.441c-0.341,0.486,2.311-5.192,2.513-11.775c0.486-6.543-1.114-13.42-1.528-14.92
						c-0.178-1.54-1.643-9.02-4.61-15.735C216.254,140.037,212.134,134.322,212.154,134.32z"/>
				</g>
				<g>
					<path d="M211.84,157.435c2.285,0.259,9.74,9.982,9.781,12.345c1.681,2.106-2.09,14.277-3.133,14.121
						c0.716,0.391,0.487-11.614-1.082-12.854C218.036,169.386,212.738,157.071,211.84,157.435z"/>
				</g>
				<g>
					<path d="M226.32,149.892c1.187,1.38,4.745,7.045,5.926,13.64c1.461,6.491,0.937,13.312,0.57,15.15
						c-0.303,1.695-2.459,8.491-7.01,13.228c-4.424,5.041-10.552,6.152-10.923,6.313c-0.602,0.108,5.292-1.703,8.611-7.004
						c3.648-4.936,4.661-11.654,4.933-13.044c0.392-1.383,1.973-8.437,1.353-15.359C229.342,155.871,226.328,149.863,226.32,149.892
						z"/>
				</g>
				<g>
					<path d="M136.161,97.066c-2.952,0.244-11.775,3.342-20.563,7.221c-9.347,2.973-17.821,5.774-19.185,7.77
						c-1.878,0.785-7.877,7.752-9.871,16.773c-2.391,8.707-2.568,17.564-2.609,18.317c0.09,0.788-0.964-7.872,0.161-17.427
						c0.67-9.706,6.42-19.468,9.15-20.782c1.79-2.771,13.419-5.208,23.089-7.402C126.062,98,136.181,96.797,136.161,97.066z"/>
				</g>
				<g>
					<path d="M124.219,104.242c-3.929,3.4-28.6,21.105-30.368,25.656c-1.255,1.646-8.088,7.649-8.283,16.066
						c0.076,8.23,2.794,16.225,2.626,16.899c0.448,0.559-2.918-6.562-4.765-15.53c-1.808-9.821,5.642-18.471,6.737-19.928
						C92.179,122.172,124.473,104.352,124.219,104.242z"/>
				</g>
				<g>
					<path d="M95.765,139.078c-3.714,2.906-10.125,25.31-10.863,29.095c-0.439,1.883-3.693,7.696-4.44,14.14
						c-0.8,6.426,0.903,12.715,1.004,13.271c0.376,0.512-2.701-5.199-3.271-12.331c-0.457-7.116,1.977-14.701,2.412-16.09
						c0.572-1.521,3.331-9.02,6.781-15.848C90.584,144.307,95.747,139.007,95.765,139.078z"/>
				</g>
				<g>
					<path d="M94.635,151.232c-1.916,2.899-4.395,20.639-4.188,23.527c-0.665,2.552-4.257,20.775-4.028,21.731
						c-0.229,0.918-1.193-19.391-0.356-22.012c0.128-1.283,1.541-7.395,3.516-12.961C91.637,155.929,94.685,151.24,94.635,151.232z"
						/>
				</g>
				<g>
					<path d="M79.832,144.013c-1.61,1.558-5.681,7.64-7.142,14.634c-1.685,6.89-1.927,13.931-2.026,15.84
						c-0.179,1.732-1.003,8.518,1.384,15.032c2.203,6.451,5.979,12.075,6.268,12.558c0.446,0.408-4.265-4.256-7.851-10.723
						c-4.009-6.349-4.463-15.015-4.221-16.794c0.162-1.771,1.344-10.32,4.607-17.778C73.67,148.987,79.827,143.887,79.832,144.013z"
						/>
				</g>
				<g>
					<path d="M77.918,155.22c-0.839,3.247-2.402,21.881-1.039,24.522c-0.333,1.462,0.229,6.147,1.401,11.708
						c0.402,2.63,0.268,5.68-1.231,7.124c-1.462,1.366-2.912,1.274-3.062,1.425c-0.407,0.37,4.968-1.773,2.313-7.293
						c-1.885-4.529-4.308-10.899-3.79-12.323C70.872,177.133,77.44,154.956,77.918,155.22z"/>
				</g>
			</g>
		</g>
	</g>
</g>
</svg>
