<?xml version="1.0" encoding="utf-8"?>
<!-- Generator: Adobe Illustrator 15.0.0, SVG Export Plug-In . SVG Version: 6.00 Build 0)  -->
<!DOCTYPE svg PUBLIC "-//W3C//DTD SVG 1.1//EN" "http://www.w3.org/Graphics/SVG/1.1/DTD/svg11.dtd">
<svg version="1.1" xmlns="http://www.w3.org/2000/svg" xmlns:xlink="http://www.w3.org/1999/xlink" x="0px" y="0px" width="300px"
	 height="300px" viewBox="0 0 300 300" enable-background="new 0 0 300 300" xml:space="preserve">
<g id="Layer_13">
	<g id="EUvz30_1_">
		
	</g>
</g>
<g id="imperial">
	<g>
		<g>
			<path fill="#414042" d="M139.869,109.082c0.74,0.374,3.604,2.171,4.667,5.476c1.115,3.201,0.551,6.68,0.308,7.53
				c0.164,2.301-7.647,10.562-8.38,10.319c0.242,0.698,5.988-9.399,5.527-10.96c0.223-0.633,1.461-3.861,0.896-6.99
				C142.41,111.263,139.809,109.078,139.869,109.082z"/>
		</g>
		<g>
			<path fill="#414042" d="M143.312,110.054c-1.737,0.714-6.772,8.107-7.3,9.43c-0.917,0.905-6.89,8.064-6.904,8.663
				c-0.405,0.347,3.343-9.272,4.439-10.218C133.91,116.416,142.895,109.366,143.312,110.054z"/>
		</g>
		<g>
			<g>
				<path d="M84.447,119.998c-1.081,0.846-4.236,3.013-2.812,6.515c1.899,3.068,7.961,1.564,9.074-2.588
					c1.438-3.838,0.509-9.724-3.745-11.853c-4.375-3.117-9.437-0.838-10.735,4.29c-1.557,4.684-1.772,10.089-0.757,14.558
					c1.152,4.121,4.513,7.508,7.88,9.109c7.1,3.543,13.266,1.038,15.077-0.148c2.211-0.747,5.77-4.971,10.131-12.927
					c4.17-8.65,15.041-13.716,23.459-18.584c4.485-2.429,9.16-5.425,14.331-5.057c4.995,0.607,8.884,4.701,8.602,8.669
					c-1.17,7.823-7.107,10.364-7.384,10.893c-1.003,0.396,3.669-1.67,6.008-8.2c1.232-3.241-0.435-7.323-4.665-8.828
					c-3.785-1.75-8.544,0.727-12.792,3.498c-8.549,6.052-18.959,11.113-22.392,18.64c-3.664,7.573-8,14.754-11.107,16.172
					c-2.105,1.847-11.7,5.937-21.659,0.235c-4.732-2.709-9.272-7.777-9.836-14.505c-0.407-6.102,0.257-12.506,4.038-18.096
					c1.78-2.89,6.064-4.604,9.288-3.39c3.007,0.944,5.923,2.674,7.286,5.646c2.433,5.334,1.232,12.144-3.61,14.26
					c-2.131,0.839-4.654,1.117-6.338-0.554c-1.61-1.724-0.943-3.799-0.396-4.962C82.932,120.461,84.568,120.152,84.447,119.998z"/>
			</g>
			<g>
				<path d="M151.758,120.17c0.292-1.834,1.048-4.793,0.619-8.622c-0.275-3.6-2.251-8.924-7.327-10.244
					c-5.078-1.248-10.321,2.333-14.065,6.621c-3.957,4.412-7.446,9.558-11.02,14.698c-6.782,10.479-16.067,20.228-26.352,24.348
					c-5.198,2.126-11.025,2.063-15.019,0.132c-3.99-1.884-6.273-4.429-7.433-5.946c-2.407-2.786-6.671-10.862-6.635-21.663
					c0.018-5.316,0.842-11.479,4.439-16.959c3.49-6.009,12.159-7.504,17.762-4.635c12.499,5.176,15.07,21.114,9.422,28.235
					c-5.866,7.577-13.648,4.979-14.164,5.444c-1.305-0.616,4.836,1.706,11.254-3.44c6.384-5.097,5.636-20.345-4.716-26.092
					c-4.891-2.77-11.425-3.164-14.699,0.865c-3.44,3.871-4.34,9.709-4.356,14.534c0.055,10.05,3.999,16.996,5.475,19.041
					c1.224,1.923,6.669,9.568,16.928,5.832c10.318-3.481,19.953-13.658,27.968-24.818c4.293-5.413,8.432-10.865,13.856-14.845
					c5.175-4.138,13.673-4.126,16.734,1.019C155.712,113.427,151.001,120.363,151.758,120.17z"/>
			</g>
			<g>
				<path fill="#414042" d="M88.136,121.688c-0.944-1.675-3.84-5.221-8.435-4.07c-4.672,1.036-6.319,8.374-2.392,12.601
					c3.61,4.515,12.682,3.527,14.451-2.9c2.023-6.116,0.254-13.424-3.914-18.486c-4.057-5.373-11.317-6.987-15.882-2.894
					c-4.893,3.831-6.95,9.523-5.774,14.402c2.52,10.072,11.083,14.492,13.879,15.573c2.388,1.182,12.104,4.245,16.669-5.567
					c2.298-4.413,3.018-11.798,8.498-17.012c5.029-5.01,11.685-7.833,18.049-10.133c6.387-1.814,12.376-5.581,19.017-5.633
					c6.783-0.09,11.546,5.887,11.812,10.77c-0.371,5.265-4.807,7.732-7.21,9.366c-2.672,1.627-4.55,2.426-5.049,2.708
					c-1.454,0.217,5.235-1.326,10.479-8.681c2.439-3.747-1.142-9.795-6.237-11.721c-5.443-1.806-11.661,1.772-18.108,4.556
					c-6.425,2.574-12.934,5.342-17.734,9.599c-5.25,3.989-6.127,9.804-8.064,15.919c-1.598,6.176-6.94,11.522-12.017,12.425
					c-5.04,1.188-8.704-0.009-10.5-0.524c-3.25-1.086-15.1-5.994-18.381-20.782c-1.487-7.455,2.861-16.101,10.45-19.962
					c8.681-4.665,18.335,2.47,21.176,9.826c3.236,7.224,3.79,17.391-3.514,22.338c-7.563,4.439-16.289-2.492-15.316-8.915
					c-0.081-6.913,7.656-9.091,10.404-6.692C87.58,119.639,88.014,121.822,88.136,121.688z"/>
			</g>
			<g>
				<path fill="#414042" d="M152.747,105.914c-0.438-1.922-0.708-5.993-4.668-8.308c-3.804-2.259-9.374-1.834-14.728,0.075
					c-5.397,1.857-11.114,5.099-15.516,9.894c-4.374,4.739-4.268,12.341-5.227,19.083c-0.716,6.831-1.458,14.637-6.582,20.375
					c-5.223,5.546-12.196,7.512-18.587,7.608c-13.376-0.96-19.772-10.276-22.148-13.099c-2.28-3.096-7.585-11.32-8.91-23.347
					c-0.542-5.823-0.362-13.214,4.447-19.144c5.082-6.206,13.894-5.986,20.258-4.106c6.636,1.778,13.023,5.41,16.612,10.792
					c3.708,5.353,4.1,11.634,3.416,16.551c-1.638,10.044-6.286,15.688-6.622,16.712c-0.802,0.923,2.934-3.83,5.067-12.989
					c0.913-4.512,1.155-10.353-1.378-15.707c-2.418-5.409-7.914-9.493-14.229-11.428c-6.228-2.004-13.643-2.809-18.159,0.892
					c-4.487,3.638-5.238,10.322-4.69,15.677c1.164,11.139,6.282,18.812,7.956,21.326c1.703,2.122,7.124,11.594,18.632,12.901
					c5.4,0.244,12.712-1.788,16.572-6.999c4.046-5.323,4.547-13.353,5.831-20.948c0.667-3.865,1.415-7.668,3.029-11.42
					c1.975-3.791,4.996-6.295,7.982-8.367c6.091-3.985,12.523-6.359,18.312-6.72c5.808-0.752,10.914,2.248,12.107,5.587
					C152.955,103.945,152.54,105.958,152.747,105.914z"/>
			</g>
			<g>
				<path d="M140.588,113.139c-0.811,0.381-3.511,1.022-5.401,2.425c-1.826,1.558-2.707,3.317-3.007,3.839
					c-0.77,0.071-7.646,6.565-7.713,7.194c-0.354,0.495,1.434-9.752,3.263-10.953c0.305-0.606,3.621-2.862,6.915-3.174
					C137.969,112.079,140.577,113.314,140.588,113.139z"/>
			</g>
			<g>
				<path d="M145.802,112.896c1.035,1.174,2.832,8.22-1.892,13.596c-4.133,5.18-9.904,8.238-11.396,9.037
					c-3.062,1.93-24.375,4.789-25.226,5.811c-1.102-0.259,20.286-9.594,22.522-10.985c1.213-0.611,7.94-2.597,12.435-6.725
					C147.254,119.564,145.836,112.711,145.802,112.896z"/>
			</g>
			<g>
				<path d="M144.811,109.366c0.412,1.878,1.308,8.987-1.19,15.873c-2.322,6.878-7.293,12.567-8.803,13.859
					c-1.326,1.411-7.762,5.263-14.375,6.952c-6.567,1.938-12.927,1.901-13.448,2.025c-0.581,0.028,5.589-1.227,11.437-4.391
					c5.974-2.947,11.211-7.616,12.25-8.724c1.198-0.903,7.198-5.576,10.5-12.022C144.707,116.594,144.751,109.313,144.811,109.366z"
					/>
			</g>
			<g>
				<path d="M144.96,108.952c-2.055,2.636-8.601,11.838-16.275,20.315c-7.645,8.671-18.109,14.449-21.389,15.567
					c-2.583,0.496-15.328,5.325-25.944-1.709c-2.382-1.938-3.606-4.781-4.011-7.332c-0.131-1.302-0.291-2.525-0.134-3.695
					l0.114-1.693c0.339-0.591,1.036-0.091,1.487-0.188c4.271,0.693,4.483,4.518,4.873,4.533c0.068,0.641-0.61-2.181-3.652-3.34
					c-0.228-0.802-2.73,0.81-1.473-0.981c0.124,1.067,0.081,2.236,0.332,3.376c0.368,2.318,1.467,4.568,3.207,6.072
					c8.054,5.734,20.799-0.021,22.726-0.366c2.285-0.578,14.056-5.265,22.988-13.793
					C136.826,117.486,144.887,108.845,144.96,108.952z"/>
			</g>
			<g>
				<path d="M143.659,113.606c-1.066,2.789-3.612,9.129-9.226,15.684c-5.496,6.571-13.93,13.191-23.55,17.378
					c-9.527,4.353-20.216,6.238-28.878,5.409c-8.788-0.591-15.058-4.293-17.432-6.171c-2.134-1.769-7.392-7.426-8.079-16.365
					c-1.107-8.503,2.568-20.044,11.497-25.701c2.425-1.391,5.7-0.515,7.339,1.464c1.604,1.979,2.702,4.158,3.409,6.401
					c1.407,4.573-0.439,9.339-3.44,11.538c-3.415,2.932-6.581-0.58-6.489-2.82c-0.509-2.242-0.177-3.781-0.299-4.185
					c-0.015-0.419,0.033,0.434,0.123,2.255c0.282,1.385,0.518,5.623,3.969,5.482c3.143-0.542,6.007-4.733,5.752-9.063
					c-0.374-3.903-3.017-9.923-7.343-10.285c-4.453,0.39-7.722,5.535-9.722,9.717c-2.23,4.475-2.813,9.055-2.434,13.318
					c0.357,8.608,4.992,13.782,6.738,15.141c1.517,1.659,7.332,5.922,16.652,6.791c9.175,1.181,20.871-0.96,31.05-5.733
					c10.228-4.732,18.772-12.076,23.639-18.604C141.89,118.75,143.549,113.532,143.659,113.606z"/>
			</g>
			<g>
				<path d="M142.185,111.563c-0.998-0.723-2.489-2.395-5.159-2.769c-2.688-0.463-5.694,1.223-8.082,3.743
					c-4.669,5.069-9.103,13.069-17.387,16.745c-16.133,6.104-34.571,6.156-38.821,1.002c-2.314-1.396-5.089-8.163-2.134-15.08
					c1.314-3.428,4.009-6.941,8.016-8.672c3.966-2.377,10.019,0.518,10.333,5.246c0.527,4.125,0.278,8.761-2.643,11.641
					c-2.96,3.143-8.208,1.027-8.196-2.342c0.24-6.303,4.787-8.916,4.816-9.525c0.742-0.417-2.568,1.846-4.223,7.215
					c-1.005,2.652,1.452,6.473,5.016,5.187c3.411-1.18,4.342-5.675,4.076-9.647c-0.042-4.104-2.963-7.724-6.782-6.459
					c-3.594,0.918-6.294,4.053-7.578,7.045c-2.799,6.421-0.665,11.653,0.634,12.619c0.761,4.321,22.583,6.572,39.216-0.872
					c8.213-4.331,12.176-13.349,18.36-16.993c3.086-1.991,6.513-1.182,8.093-0.034C141.453,110.684,142.141,111.62,142.185,111.563z
					"/>
			</g>
			<g>
				<path d="M146.074,113.996c-0.917-1.211-5.68-2.886-9.368,0.034c-3.642,2.357-6.495,5.769-7.342,6.623
					c-1.766,1.348-13.185,12.312-13.771,12.731c-0.375,0.711,9.646-13.227,11.531-14.625c0.82-0.698,4.667-4.524,9.572-6.446
					C142.034,109.537,146.46,114.161,146.074,113.996z"/>
			</g>
			<g>
				<path d="M148.302,104.686c-1.712,0.18-7.734,0.638-12.921,3.21c-5.217,2.502-9.221,6.588-10.278,7.732
					c-2.769,1.299-15.266,17.639-15.386,18.782c-0.906,0.689,9.983-19.132,13.101-20.625c0.937-1.059,6.471-5.759,12.889-7.686
					C142.082,103.992,148.34,104.77,148.302,104.686z"/>
			</g>
			<g>
				<path d="M139.573,105.657c-2.057,0.065-6.765,0.184-12.099,2.526c-5.352,2.224-11,6.515-16.025,11.347
					c-9.833,9.681-19.125,20.896-24.366,21.252c-1.629,0.777-8.177,1.06-11.934-4.324c-3.715-4.886-5.583-12.002-5.432-18.904
					c0.146-1.718,0.188-3.515,1.372-5.09c1.628-1.275,3.663-0.882,4.924,0.21c2.384,2.359,2.712,5.519,3.028,7.958
					c0.479,5.065-0.556,8.507-0.864,8.91c-0.219,0.551,1.033-2.098,0.579-6.889c-0.194-2.327-0.634-5.232-2.107-7.793
					c-1.335-2.707-5.615-3.09-5.335,0.874c-0.416,6.613,1.85,13.889,5.107,18.312c3.356,4.763,7.843,4.506,9.169,4.106
					c3.621,1.046,14.886-10.96,26.52-21.313c5.95-4.995,12.666-8.938,18.207-10.254
					C135.835,105.167,139.595,105.771,139.573,105.657z"/>
			</g>
			<g>
				<path fill="#414042" d="M144.13,111.566c-1.325-0.966-4.306-4.547-9.43-4.585c-5.258,0.432-8.713,6.354-11.547,11.443
					c-5.107,10.704-11.515,22.195-16.433,22.69c-1.569,0.633-5.639,1.837-10.814,1.287c-4.981-0.41-11.802-3.018-14.265-9.005
					c-1.176-2.835-1.335-6-0.447-8.655c0.777-2.599,3.645-4.786,5.701-3.391c2.799,3.641-0.339,6.958,0.012,7.227
					c-0.471,0.51,1.443-1.982,0.61-5.723c-0.602-1.957-3.583-1.673-4.721,0.639c-1.321,2.084-1.155,5.199-0.365,7.817
					c1.68,5.631,8,8.204,12.729,8.519c4.899,0.449,8.604-0.754,9.859-1.186c1.398-0.334,4.787-1.811,7.906-6.46
					c3.196-4.377,6.252-10.561,9.89-16.266c3.188-5.527,9.249-11.573,14.75-9.11C142.265,108.795,144.018,111.735,144.13,111.566z"
					/>
			</g>
			<g>
				<path fill="#414042" d="M152.354,114.454c-0.943-0.6-2.761-1.812-5.183-1.173c-2.343,0.662-4.467,2.792-6.452,5.282
					c-3.439,5.527-9.554,10.83-16.375,14.753c-13.722,9.021-30.801,6.973-34.916,6.614c-1.97-0.397-7.533-0.997-12.686-5.639
					c-4.711-4.979-7.761-12.341-8.794-20.001c-0.688-3.738,1.275-8.509,5.22-9.011c4.032-0.496,5.915,3.418,6.921,5.729
					c2.056,5.286,1.598,9.313,1.446,9.848c-0.131,0.662,0.631-2.593-1.104-7.623c-0.854-2.345-2.246-5.65-5.106-6.874
					c-2.969-1.027-6.318,2.137-5.989,5.739c0.335,7.261,4.329,15.004,8.24,19.552c4.362,4.353,9.736,4.84,11.377,5.263
					c3.169,0.395,22.286,3.657,36.752-6.239c3.502-2.245,7.384-4.462,9.911-7.128c2.576-2.876,4.727-5.893,7.114-7.992
					c2.269-2.171,5.199-3.202,7.061-2.482C151.633,113.622,152.292,114.562,152.354,114.454z"/>
			</g>
			<g>
				<path fill="#414042" d="M153.916,118.105c0.171-2.001,0.015-8.546-6.454-11.012c-5.836-1.976-14.237-3.387-20.956,0.174
					c-6.707,3.59-11.281,9.949-14.989,15.036c-3.646,5.202-7.438,8.888-9.42,10.071c-1.62,1.315-6.693,4.006-13.44,3.318
					c-5.965-0.859-15.497-3.909-16.743-12.534c-0.092-3.87,1.372-7.938,4.559-9.81c3.917-1.356,6.429,3.012,6.008,5.524
					c-0.451,2.932-3.164,3.938-4.759,4.124c-1.748,0.458,0.712-1.086,0.436-1.358c0.249-0.553-0.239,0.876-0.99,1.178
					c-0.521,0.397,3.134-0.327,4.185-2.16c1.455-1.877,0.266-5.778-2.639-6.618c-3.035-0.763-4.87,3.751-5.318,7.016
					c-0.722,7.679,8.599,11.373,14.318,12.011c6.205,1.005,10.65-1.732,11.994-2.614c1.592-0.713,5.546-4.037,9.841-9.671
					c4.328-5.393,10.065-13.024,18.677-15.96c8.626-2.16,17.488-0.183,22.554,3.674
					C155.722,113.303,153.409,118.405,153.916,118.105z"/>
			</g>
			<g>
				<path fill="#414042" d="M150.49,122.315c-0.883-0.958-2.562-5.668-7.355-5.38c-4.444,1.117-7.434,6.366-9.892,11.044
					c-2.527,4.815-4.416,10.097-7.749,13.71c-3.35,3.63-7.229,4.634-8.684,5.111c-2.838,0.691-14.053,3.366-24.8,0.88
					c-5.529-1.03-9.329-6.968-7.212-10.81c1.699-3.694,4.644-4.592,4.863-4.921c0.525-0.111-1.865,0.7-3.748,3.77
					c-2.388,3.12-0.263,8.859,5.092,10.117c10.201,2.525,22.08-1.277,24.412-1.656c1.11-0.455,5.016-0.882,8.302-4.229
					c3.35-3.222,5.8-9.142,9.032-14.298c3.007-4.789,7.717-11.017,12.989-8.948C149.853,119.188,150.245,122.531,150.49,122.315z"/>
			</g>
			<g>
				<path fill="#414042" d="M148.493,111.775c0.2,1.254,0.653,5.863-0.799,10.328c-1.337,4.478-4.438,8.27-5.451,9.098
					c-0.81,0.96-4.978,3.612-9.36,4.49c-4.347,1.074-8.489,0.475-8.831,0.535c-0.389-0.056,3.762-0.139,7.794-1.742
					c4.099-1.496,7.575-4.525,8.242-5.265c0.813-0.558,4.527-3.921,6.393-8.36C148.476,116.493,148.452,111.746,148.493,111.775z"/>
			</g>
			<g>
				<path fill="#414042" d="M148.073,113.601c-0.353-1.105-3.674-4.698-7.293-2.37c-3.303,1.703-5.869,4.618-6.615,5.321
					c-1.703,0.949-11.643,10.392-11.365,11.597c-1.065,0.124,7.24-12.633,9.226-13.598c0.747-0.563,4.268-3.865,8.891-4.998
					c2.25-0.635,4.976,0.125,5.883,1.675C147.757,112.587,148.019,113.632,148.073,113.601z"/>
			</g>
			<g>
				<path fill="#414042" d="M149.063,113.222c-0.246-0.904-0.15-3.694-2.622-5.326c-2.43-1.532-6.072-0.739-9.175,0.415
					c-6.562,2.233-11.377,6.998-13.123,8.116c-1.492,1.134-7.766,4.316-13.529,7.594c-5.894,3.13-10.44,7.76-10.587,8.431
					c-0.464,0.436,3.119-5.158,8.958-9.105c5.612-4.139,11.874-8.126,13.183-9.102c1.275-0.685,7.887-6.196,15.738-7.767
					c3.652-0.89,8.428-0.822,10.09,2.159C149.468,111.284,148.896,113.261,149.063,113.222z"/>
			</g>
			<g>
				<path fill="#414042" d="M137.721,109.12c1.101-0.069,4.173-2.77,7.611-0.471c2.636,3.264,0.659,8.491-0.811,12.614
					c-3.161,8.651-9.383,16.288-12.021,17.402c-1.912,1.769-11.149,5.351-20.081,5.096c-8.856,0.051-17.18-0.84-17.943-0.738
					c-0.768-0.102,7.625-0.013,16.591-0.665c9.141-0.338,17.833-4.408,19.356-5.823c2.1-0.56,9.36-7.885,13.213-17.244
					c1.826-4.053,3.629-10.373-0.287-10.992C140.014,107.909,137.706,109.36,137.721,109.12z"/>
			</g>
			<g>
				<path d="M146.43,112.461c-1.319-0.037-5.931-1.586-10.349-1.44c-4.45,0.083-7.5,3.769-7.731,4.604
					c-1.841,1.387-9.221,15.786-8.485,16.96c-1.159,0.549,3.696-16.675,5.914-18.37c0.052-1.063,5.546-5.92,11.137-4.762
					C142.141,110.499,146.361,112.588,146.43,112.461z"/>
			</g>
			<g>
				<path d="M142.573,111.015c-1.562-0.355-6.995-1.945-12.353-1.348c-5.435,0.389-9.77,3.438-10.783,4.308
					c-1.129,0.622-5.292,3.908-7.324,8.77c-2.291,4.697-2.361,9.94-2.445,10.354c0.105,0.477-0.667-4.619,0.772-10.115
					c1.298-5.57,5.672-10.513,6.98-11.133c0.964-0.966,7.314-4.479,13.665-3.757C137.388,108.306,142.567,111.141,142.573,111.015z"
					/>
			</g>
			<g>
				<path d="M149.806,107.118c-2.76-0.323-12.515-1.23-21.568,1.619c-9.249,2.382-16.279,8.817-17.561,10.913
					c-2.313,1.198-6.322,9.563-11.5,17.506c-6.745,7.825-16.989,4.842-17.312,5.382c-1.251-0.577,9.084,1.598,15.325-5.301
					c4.735-7.488,8.387-17.792,10.912-19.079c1.051-2.275,10.564-9.729,21.276-11.287
					C139.935,104.576,149.863,107.245,149.806,107.118z"/>
			</g>
			<g>
				<path d="M140.247,110.847c0.739,2.1,2.055,10.972-2.756,18.308c-4.421,7.379-12.248,11.535-14.253,12.521
					c-1.934,1.065-10.074,3.868-18.09,4.122c-8.034,0.577-15.366-1.557-15.947-1.793c-0.682-0.146,6.675,1.583,14.678,0.438
					c8.03-0.852,16.004-4.304,17.673-5.193c1.618-0.756,10.581-4.524,15.325-12.055C141.994,119.75,140.185,110.655,140.247,110.847
					z"/>
			</g>
		</g>
		<g>
			<g>
				<path d="M214.797,121.004c1.005,0.611,3.941,2.245,2.984,5.324c-1.253,2.856-7.598,2.22-9.208-2.178
					c-1.798-3.926-1.552-10.338,3.396-13.499c2.085-1.538,5.157-2.672,8.213-1.702c3.066,1.041,4.842,3.821,5.995,6.36
					c2.148,5.302,2.798,10.903,1.972,16.417c-1.233,5.829-5.156,10.099-9.38,12.56c-8.722,5.152-17.479,2.447-20.264,0.679
					c-3.464-1.186-8.228-8.107-11.486-15.621c-3.038-7.916-12.021-12.889-20.595-18.942c-4.142-2.753-8.381-5.921-12.924-5.957
					c-4.38,0.113-8.654,3.576-8.681,7.546c0.464,8.02,6.427,11.324,6.748,11.835c1.034,0.324-3.971-1.27-7.137-8.562
					c-1.883-3.63,0.257-9.863,5.355-11.795c5.339-2.664,11.251,0.397,15.685,2.895c8.718,5.593,19.812,9.889,24.959,18.988
					c4.658,8.372,8.042,13.18,10.016,13.987c1.358,1.186,7.979,4.562,15.93,0.585c3.685-1.833,7.42-5.744,7.975-10.559
					c0.67-5.075,0.129-11.241-2.548-15.513c-2.245-4.774-9.363-2.265-11.414,1.414c-2.19,4.084-1.308,9.9,2.036,11.336
					c3.843,2.161,6.26-1.131,4.791-3.162C216.119,121.55,214.662,121.112,214.797,121.004z"/>
			</g>
			<g>
				<path d="M149.135,119.862c-0.454-1.722-1.434-4.531-1.305-8.284c0.027-3.51,1.47-8.975,6.756-10.804
					c5.363-1.706,11.236,1.775,15.427,6.01c4.327,4.245,8.213,9.269,12.073,14.165c7.396,10.038,16.623,18.364,25.786,21.485
					c9.16,3.224,14.604-2.513,16.168-4.871c1.741-2.084,5.777-8.593,6.385-18.229c0.319-4.688-0.151-10.211-2.729-14.779
					c-2.46-4.76-8.331-6.388-13.808-4.374c-11.203,3.529-15.402,18.351-10.268,25.963c5.32,8.122,13.787,6.186,14.278,6.571
					c1.301-0.732-4.798,2.322-12.58-3.169c-7.646-5.676-7.9-22.82,4.133-30.487c5.403-3.581,14.267-4.844,19.635,0.82
					c4.979,5.254,6.008,11.946,6.331,17.459c0.442,11.353-3.805,19.723-5.752,22.428c-1.007,1.309-2.867,4.223-7.004,6.599
					c-4.031,2.564-10.66,3.164-16.532,0.728c-11.699-4.46-21.561-16.198-28.984-27.516c-3.951-5.495-7.959-11.102-12.58-14.786
					c-4.619-3.788-11.013-3.975-13.714,0.006C145.882,112.888,149.746,120.184,149.135,119.862z"/>
			</g>
			<g>
				<path fill="#414042" d="M212.661,122.227c0.729-1.569,3.009-4.955,7.325-4.207c4.398,0.589,6.801,7.762,2.912,12.554
					c-3.451,5.046-13.735,4.854-16.433-2.688c-2.599-6.652-1.16-14.758,3.256-20.785c3.854-6.398,14.088-9.572,20.419-4.325
					c6.079,4.066,9.568,11.856,8.235,18.402c-2.716,13.135-12.711,18.479-16.417,20.118c-1.889,0.739-5.381,2.124-10.312,1.543
					c-4.822-0.357-11.016-4.447-13.013-10.523c-2.391-5.785-2.612-12.087-6.775-16.401c-4.054-4.63-10.136-7.799-16.247-10.449
					c-6.408-2.323-12.044-6.347-18.153-6.769c-6.099-0.561-11.198,4.756-11.802,9.646c0.008,5.351,4.431,8.271,6.771,10.067
					c2.631,1.836,4.487,2.749,4.995,3.03c1.371,0.048-5.146-0.649-11.611-8.803c-3.156-5.013,0.622-12.412,6.99-15.093
					c7.084-2.541,14.112,1.546,20.235,3.766c6.556,2.326,13.562,4.875,19.304,9.525c6.39,4.359,8.358,12.625,10.064,17.526
					c3.571,11.186,13.719,9.106,15.91,8.076c2.29-0.639,12.333-4.815,15.162-16.116c1.356-5.312-1.698-11.917-7.412-15.21
					c-5.586-3.5-13.04,1.032-16.048,7.482c-3.202,6.011-3.392,15.161,1.724,18.554c5.528,3.549,12.644-1.346,12.09-6.604
					c0.217-5.548-5.507-7.301-7.905-5.553C213.298,120.385,212.75,122.357,212.661,122.227z"/>
			</g>
			<g>
				<path fill="#414042" d="M148.185,105.971c0.26-1.796,0.171-5.58,3.752-8.009c3.467-2.419,9.129-2.421,14.663-0.802
					c5.6,1.564,11.582,4.45,16.578,9.287c5.281,5.306,5.412,13.147,6.799,19.853c1.035,6.844,2.341,13.847,6.638,18.055
					c4.148,4.147,10.655,5.669,15.489,5.45c10.303-1.134,15.677-9.115,17.696-11.715c1.92-2.693,7.018-9.853,8.81-20.518
					c0.822-5.161,0.836-11.531-2.548-16.183c-3.316-4.839-10.516-5.475-16.789-4.083c-6.387,1.274-12.541,4.25-16.274,9.087
					c-3.854,4.804-4.709,10.925-4.347,15.896c0.959,10.166,5.319,16.284,5.662,17.31c0.82,0.911-3.229-3.66-5.913-13.16
					c-1.167-4.695-1.789-10.979,0.802-17.198c2.474-6.296,8.671-11.274,15.486-13.653c6.551-2.321,15.004-4.168,21.942,0.726
					c6.654,5.148,7.463,13.463,7.142,19.499c-0.866,12.704-6.28,21.298-8.213,24.23c-2.006,2.304-8.127,13.336-23.206,14.729
					c-7.12-0.015-15.22-2.505-20.357-9.547c-4.819-7.138-4.696-15.591-5.755-22.977c0.659-16.415-16.078-23.685-26.021-25.147
					c-5.406-0.837-9.591,1.542-10.761,4.327C148.1,104.082,148.37,106.047,148.185,105.971z"/>
			</g>
			<g>
				<path d="M159.319,114.275c0.673-0.332,3.133-1.509,6.18-1.384c2.971,0.241,5.94,1.978,6.438,2.609
					c2.023,1.31,2.378,11.25,2.312,11.498c0.246,0.188-5.686-7.491-6.566-7.497c-0.269-0.47-1.439-2.391-3.535-3.688
					C162.062,114.504,159.279,114.414,159.319,114.275z"/>
			</g>
			<g>
				<path d="M152.889,112.576c-0.466,1.788-0.046,8.682,5.006,11.944c4.558,3.459,10.296,5.037,11.757,5.687
					c2.45,1.424,21.778,11.266,22.316,12.141c1.228-0.2-21.47-5.017-24.344-6.659c-1.277-0.673-8.146-3.874-12.704-9.77
					C149.741,119.645,152.971,112.166,152.889,112.576z"/>
			</g>
			<g>
				<path d="M153.837,109.314c0.305,2.04,1.246,9.12,4.886,14.73c3.496,5.691,8.695,9.603,10.085,10.668
					c1.198,1.114,5.809,5.844,11.497,9.104c5.543,3.452,11.771,5.277,12.321,5.392c0.597,0.016-5.851-0.049-12.579-2.291
					c-6.793-1.977-13.503-6.226-14.733-7.521c-1.37-1.013-7.422-7.418-9.913-15.079
					C152.649,116.682,153.928,109.248,153.837,109.314z"/>
			</g>
			<g>
				<path d="M153.988,109.727c2.565,2.071,10.51,10.302,19.048,17.486c8.513,7.341,18.691,11.29,21.305,12.095
					c2.345,0.414,13.54,6.141,22.68,1.844c2.105-1.191,3.556-3.329,4.333-5.615c0.311-1.164,0.671-2.31,0.705-3.455l0.168-1.664
					c0.083-0.226-0.877-0.139-1.249-0.22c-4.507-0.03-5.611,4.072-5.917,4.104c0.055,0.677,0.012-2.412,4.047-4.645
					c0.521-0.249,1.072-0.509,1.694-0.465l0.944-0.047l0.49-0.017l0.249-0.007l0.03-0.001c0.416,0.458-0.911-1.034,0.937,1.036
					v0.014l0.003,0.055l0.003,0.111c0.009,1.185,0.186,2.454,0.045,3.802c-0.135,2.68-1.126,5.826-3.379,8.245
					c-4.815,4.887-11.979,4.966-16.794,4.598c-5.047-0.411-8.789-1.488-10.15-1.914c-2.936-0.729-15.343-7.214-23.633-16.845
					C161.124,118.914,154.099,109.658,153.988,109.727z"/>
			</g>
			<g>
				<path d="M155.597,113.808c1.253,2.769,4.115,9.017,9.968,15.305c5.73,6.304,14.321,12.512,23.891,16.268
					c9.488,3.915,19.908,5.351,28.095,4.29c8.322-0.858,13.742-4.38,15.813-6.005c1.813-1.618,6.53-6.183,7.527-14.382
					c1.43-7.82-1.786-18.774-9.629-24.339c-4.692-2.732-8.333,3.038-9.677,6.941c-1.543,4.274-0.009,9.038,2.896,11.381
					c1.378,1.193,3.408,1.726,4.785,0.76c1.305-0.933,1.856-2.369,2.116-3.494c0.622-2.315,0.342-3.87,0.465-4.296
					c0.012-0.431,0.004,0.439-0.023,2.327c-0.342,1.342-0.042,6.132-4.729,6.36c-8.65-1.195-10.24-18.27,1.645-22.027
					c6.232,0.578,9.319,6.183,11.72,10.52c2.488,4.585,3.336,9.914,3.019,14.402c-0.1,9.307-5.28,15.614-7.297,17.132
					c-1.749,1.938-8.539,6.555-18.393,7.199c-9.726,1.006-21.755-1.545-32.058-6.702c-10.358-5.121-18.854-12.841-23.63-19.613
					C157.239,119.063,155.71,113.735,155.597,113.808z"/>
			</g>
			<g>
				<path d="M158.008,111.968c0.901-0.756,2.244-2.47,4.792-2.97c2.562-0.607,5.7,0.904,8.24,3.344
					c5.005,4.945,9.754,12.561,17.782,15.661c15.746,5.305,34.214,4.112,36.268,0.132c1.556-0.981,4.022-5.647,1.828-12.099
					c-0.98-3.009-3.209-6.181-6.501-7.803c-3.298-1.979-7.648-0.3-8.391,3.812c-0.692,3.743-0.676,8.271,1.847,10.966
					c2.505,3.014,7.577,1.439,7.817-1.933c0.108-6.386-4.385-9.34-4.413-9.929c-0.741-0.357,2.682,1.614,4.725,7.411
					c1.397,2.812-1.595,8.209-6.325,6.639c-4.475-1.409-5.565-6.863-5.423-10.984c0.155-2.206,0.568-4.623,2.231-6.528
					c1.66-1.951,4.51-2.512,6.757-1.975c4.64,1.064,7.77,4.641,9.422,8.096c3.518,7.091,1.196,14.03-0.745,15.612
					c-3.078,5.871-24.982,6.952-42.288-1.28c-8.562-4.959-12.332-14.253-17.972-17.692
					C161.47,106.854,157.822,112.662,158.008,111.968z"/>
			</g>
			<g>
				<path d="M154.131,114.39c0.375-1.264,4.975-4.07,9.591-1.615c4.324,1.857,7.821,4.962,8.74,5.79
					c2.072,1.5,10.698,14.759,11.332,15.225c0.319,0.648-11.482-11.754-13.172-12.943c-0.772-0.669-4.106-4.738-8.239-6.937
					C158.053,110.924,153.956,114.452,154.131,114.39z"/>
			</g>
			<g>
				<path d="M151.506,105.258c1.658-0.183,7.669-0.638,13.428,1.331c5.764,1.874,10.616,5.763,11.77,6.938
					c3.298,1.689,12.844,20.177,12.866,21.154c0.83,0.554-11.897-17.716-14.635-18.813c-0.896-0.998-5.592-5.766-11.453-8.135
					C157.685,105.196,151.463,105.327,151.506,105.258z"/>
			</g>
			<g>
				<path d="M160.247,106.228c1.999-0.114,6.653-0.331,12.17,1.697c5.522,1.909,11.526,5.939,16.866,10.553
					c10.548,9.415,20.314,19.733,24.176,19.484c1.433,0.467,5.782,1.213,9.322-3.054c3.461-3.989,5.821-10.783,6.076-17.344
					c0.007-1.592-0.056-3.393-0.824-4.526c-0.857-0.828-2.85-0.884-3.905,0.065c-2.299,1.953-2.945,5.12-3.392,7.515
					c-0.818,5.021-0.018,8.616,0.36,9.16c0.222,0.583-1.268-2.282-1.006-7.188c0.11-2.425,0.369-5.4,1.915-8.411
					c0.759-1.411,2.365-3.078,4.516-2.923c0.773,0.044,2.249,0.276,2.823,1.458c0.551,0.944,0.696,1.859,0.858,2.782
					c0.723,7.285-1.249,14.738-4.766,20.027c-3.521,5.781-10.188,6.165-11.789,5.483c-1.942-0.178-7.046-2.517-11.516-7.304
					c-4.638-4.532-9.895-10.437-15.591-15.549c-5.656-5.125-12.01-9.187-17.323-10.678
					C163.93,105.902,160.221,106.339,160.247,106.228z"/>
			</g>
			<g>
				<path fill="#414042" d="M156.072,111.965c1.212-1.071,3.764-4.83,9.029-5.258c5.566,0.083,9.582,6.062,12.755,11.006
					c5.948,10.742,12.698,20.895,16.269,20.682c1.344,0.511,4.858,1.777,9.583,1.592c4.567-0.093,10.755-1.954,13.342-7.101
					c2.767-4.413,1.125-13.208-4.161-11.544c-3.155,3.539-0.188,7.232-0.526,7.463c0.518,0.411-1.704-1.695-0.964-6.287
					c0.673-2.893,5.386-2.586,6.704,0.271c1.731,2.566,1.678,5.935,0.926,9.035c-1.665,6.692-8.935,10.015-14.104,10.541
					c-5.408,0.734-9.63-0.449-11.1-0.952c-1.46-0.23-6.17-2.784-9.053-7.765c-3.186-4.77-5.967-11.085-9.279-16.806
					c-3.018-5.643-8.127-11.104-12.977-9.132C158.122,109.309,156.14,112.142,156.072,111.965z"/>
			</g>
			<g>
				<path fill="#414042" d="M147.792,114.901c0.841-0.623,2.421-1.878,4.776-1.416c2.302,0.493,4.588,2.512,6.713,4.9
					c3.769,5.37,9.896,10.104,16.865,13.709c13.604,8.071,29.953,5.299,33.775,4.959c1.847-0.385,6.932-0.803,11.502-4.555
					c4.215-3.92,7.911-11.267,9.213-18.335c0.776-3.555-0.596-7.584-4.119-8.333c-3.48-0.729-5.703,2.874-6.821,5.174
					c-2.379,5.149-2.177,9.321-2.003,9.951c0.138,0.692-0.815-2.754,0.776-8.007c0.861-2.471,1.896-5.994,5.532-7.817
					c4.096-1.657,8.429,2.678,8.198,6.902c-0.183,8.267-3.792,15.835-8.123,21.361c-5.07,5.324-10.97,5.909-12.724,6.387
					c-3.436,0.504-23.477,3.122-38.189-7.63c-3.595-2.496-7.15-4.606-9.973-7.735c-2.557-3.074-4.552-6.092-6.768-8.179
					C151.773,111.188,147.443,115.133,147.792,114.901z"/>
			</g>
			<g>
				<path fill="#414042" d="M146.441,118.044c-0.299-1.886-0.66-8.269,5.769-11.201c5.81-2.306,14.189-4.271,21.682-0.845
					c7.316,3.455,12.396,9.949,16.296,14.819c3.874,5.027,7.411,8.15,9.146,9.154c1.433,1.137,5.651,3.585,11.562,3.316
					c5.537-0.461,14.415-2.979,15.771-10.255c0.338-3.317-0.937-7.463-3.583-9.169c-3.207-1.447-6.074,2.414-5.788,5.023
					c0.257,2.971,3.053,4.26,4.671,4.526c0.959,0.906,1.804-1.272,0.701-1.288c-0.38-0.215-0.435-0.558-0.502-0.679
					c0.02-0.12-0.214,0.031,1.123,1.316c-1.035,1.87-3.759,0.312-5.62-1.556c-1.853-2.385-0.824-7.047,3.064-8.431
					c4.805-0.908,6.688,4.554,7.393,8.075c0.765,4.279-1.979,8.567-5.304,10.695c-3.315,2.281-6.999,3.495-10.377,4.046
					c-7.035,1.376-12.355-1.632-13.896-2.65c-1.868-0.849-6.22-4.797-10.327-10.597c-4.173-5.582-9.44-12.924-17.222-15.865
					c-7.68-2.288-16.777-0.645-21.38,2.729C144.975,113.318,146.889,118.344,146.441,118.044z"/>
			</g>
			<g>
				<path fill="#414042" d="M149.81,122.57c0.776-1.005,1.86-5.768,6.879-5.907c4.812,0.84,8.251,6.062,11.094,10.639
					c2.876,4.716,5.189,9.827,8.244,12.689c3.014,2.908,6.386,3.586,7.733,3.999c2.543,0.576,13.477,4.021,23.717,2.507
					c5.224-0.578,9.179-5.555,7.523-9.636c-1.381-3.855-4.368-5.104-4.602-5.419c-0.536-0.093,1.987,0.525,4.283,3.79
					c3.038,3.202,0.677,10.681-5.301,12.237c-11.177,3.338-23.127-0.087-25.714-0.46c-1.209-0.493-5.629-1.141-9.42-5.273
					c-3.753-4.056-5.774-10.024-8.712-15.196c-2.688-4.918-6.983-10.586-11.12-8.971C150.774,119.477,149.967,122.819,149.81,122.57
					z"/>
			</g>
			<g>
				<path fill="#414042" d="M150.724,111.757c0.163,1.317,0.611,5.932,2.675,9.823c1.978,3.948,5.192,6.785,6.11,7.475
					c0.74,0.784,3.855,3.793,7.783,5.49c3.843,1.866,8.094,2.211,8.445,2.261c0.39-0.067-3.799,0.479-8.31-0.647
					c-4.541-0.987-8.896-3.899-9.665-4.753c-0.938-0.637-4.69-4.954-6.094-9.937C150.111,116.521,150.783,111.727,150.724,111.757z"
					/>
			</g>
			<g>
				<path fill="#414042" d="M152.247,113.813c-0.146-0.915,2.45-5.629,7.238-3.908c4.033,1.171,7.258,3.792,8.097,4.484
					c2.064,1.114,9.385,13.143,8.871,13.956c1.004,0.102-8.904-10.892-10.656-11.638c-0.671-0.526-3.693-4.049-7.395-5.471
					C154.281,109.24,152.127,114.077,152.247,113.813z"/>
			</g>
			<g>
				<path fill="#414042" d="M151.298,113.222c0.094-0.875-0.455-3.513,1.885-5.549c2.401-1.957,6.415-1.551,9.757-0.705
					c7.035,1.548,12.859,6.177,14.334,7.042c1.438,1.024,7.215,4.93,12.584,9.006c5.526,3.968,9.342,9.17,9.421,9.742
					c0.425,0.392-3.429-4.596-9.463-7.98c-5.805-3.561-12.424-7.081-13.808-8.108c-1.58-0.89-7.294-6.469-14.574-8.515
					c-3.415-1.092-7.438-1.256-8.873,1.017C151.136,111.275,151.429,113.297,151.298,113.222z"/>
			</g>
			<g>
				<path fill="#414042" d="M162.279,108.589c-1.13,0.048-4.619-2.238-7.627,0.259c-2.109,3.103,0.113,7.973,1.907,11.847
					c3.943,8.32,10.057,14.702,12.358,15.553c1.676,1.481,9.677,5.603,18.537,6.297c8.691,0.938,17.131,0.944,17.861,1.053
					c0.739-0.108-7.531,0.576-16.686,0.504c-9.243,0.304-19.078-3.485-20.845-5.117c-2.469-0.744-10.023-9.365-13.253-19.045
					c-0.913-2.387-1.538-4.88-1.704-7.29c-0.382-2.32,1.161-5.334,3.434-5.273C160.187,107.185,162.207,108.841,162.279,108.589z"/>
			</g>
			<g>
				<path d="M153.519,113.012c1.311-0.412,5.342-2.73,10.158-3.4c5.162-0.705,9.544,2.965,10.162,4.356
					c2.304,1.902,6.342,17.881,5.516,18.669c1.107,0.435-5.851-15.56-7.761-16.792c-0.313-1.111-3.532-4.771-8.572-4.657
					C158.224,111.571,153.506,113.146,153.519,113.012z"/>
			</g>
			<g>
				<path d="M157.425,111.547c1.404-0.682,6.479-3.111,12.188-3.288c5.731-0.434,11.237,2.355,12.467,3.368
					c1.404,0.695,5.549,5.336,6.741,10.709c1.521,5.266,0.628,10.333,0.729,10.748c-0.094,0.48,0.038-4.623-1.863-9.568
					c-1.817-5.044-5.996-8.832-7.09-9.348c-0.82-0.779-5.896-4.378-11.889-4.33C162.829,109.438,157.415,111.659,157.425,111.547z"
					/>
			</g>
			<g>
				<path d="M150.096,107.68c2.632-0.672,12.257-2.472,21.806-0.31c9.668,1.641,17.865,8.008,19.376,10.324
					c2.622,1.424,6.254,10.965,10.314,18.74c5.336,7.846,16.096,6.286,16.348,6.675c1.177-0.748-8.824,2.599-16.65-4.72
					c-5.81-8.09-9.536-17.315-11.802-18.324c-0.894-2.009-9.186-9.355-19.45-11.493C159.992,105.777,150.041,107.791,150.096,107.68
					z"/>
			</g>
			<g>
				<path d="M158.98,110.744c-0.423,2.273-0.71,11.204,4.486,17.624c4.805,6.542,12.413,9.782,14.332,10.676
					c1.82,0.933,9.191,4.409,16.974,5.551c7.725,1.452,15.34,0.225,15.962-0.028c0.703-0.155-6.642,2.202-14.969,1.615
					c-8.313-0.271-16.952-3.318-18.746-4.278c-1.715-0.791-11.026-5.393-15.603-13.809
					C156.483,119.69,159.092,110.526,158.98,110.744z"/>
			</g>
		</g>
	</g>
</g>
</svg>
