<?xml version="1.0" encoding="utf-8"?>
<!-- Generator: Adobe Illustrator 15.0.0, SVG Export Plug-In . SVG Version: 6.00 Build 0)  -->
<!DOCTYPE svg PUBLIC "-//W3C//DTD SVG 1.1//EN" "http://www.w3.org/Graphics/SVG/1.1/DTD/svg11.dtd">
<svg version="1.1" xmlns="http://www.w3.org/2000/svg" xmlns:xlink="http://www.w3.org/1999/xlink" x="0px" y="0px" width="300px"
	 height="300px" viewBox="0 0 300 300" enable-background="new 0 0 300 300" xml:space="preserve">
<g id="Layer_13">
	<g id="EUvz30_1_">
		
	</g>
</g>
<g id="mexican">
	<g>
		<g>
			<g>
				<g>
					<path d="M153.375,103.814c0.277,0.7,0.997,3.255,0.849,6.015c-0.062,2.754-1.26,5.505-1.739,6.173
						c-0.396,0.641-2.833,2.708-5.562,3.15c-2.673,0.604-5.004-0.137-5.19-0.087c-0.234-0.046,2.175-0.214,4.17-1.463
						c2.066-1.153,3.319-3.205,3.598-3.637c0.308-0.379,2.1-2.349,2.892-4.946C153.315,106.502,153.351,103.803,153.375,103.814z"/>
				</g>
				<g>
					<path d="M154.206,115.861c-0.062,0.616-0.383,2.868-1.745,4.914c-1.414,1.938-3.533,3.396-4.147,3.615
						c-1.343,1.035-9.356-0.361-9.593-0.488c-0.261,0.152,7.64-2.119,8.186-2.832c0.475-0.1,2.604-0.677,4.413-1.928
						C153.093,117.863,154.131,115.807,154.206,115.861z"/>
				</g>
				<g>
					<path d="M155.9,111.475c-0.512-0.615-2.098-2.719-4.143-4.043c-2.033-1.38-4.244-2.019-4.822-2.225
						c-0.53-0.209-2.424-1.623-4.724-2.278c-2.257-0.767-4.739-0.64-4.944-0.587c-0.214,0.1,1.957-1.082,4.696-1.257
						c2.712-0.304,5.72,0.45,6.309,0.776c0.63,0.233,3.434,2.053,5.165,4.516C155.271,108.791,155.887,111.503,155.9,111.475z"/>
				</g>
				<g>
					<path d="M143.533,96.395c-2.03-0.459-13.309-4.186-15.048-4.36c-0.823-0.195-3.777-1.787-6.938-2.283
						c-3.181-0.62-6.337,0.745-6.557,0.924c-0.275,0.238,2.205-2.29,6.007-2.716c3.703-0.613,7.583,0.371,8.396,0.587
						C131.365,88.782,143.57,96.435,143.533,96.395z"/>
				</g>
				<g>
					<path d="M133.45,92.167c-1.248-0.319-5.417-1.735-9.611-2.632c-4.222-0.968-8.299-0.891-9.344-0.81
						c-0.956,0.074-5.087-0.47-8.122,2.222c-3.168,2.527-4.135,6.847-4.312,7.083c0.071,0.408-0.054-3.763,2.49-7.831
						c2.763-4.259,8.624-5.217,9.614-5.055c1.187-0.136,6.57,0.706,10.955,2.779C129.586,89.84,133.436,92.19,133.45,92.167z"/>
				</g>
				<g>
					<path d="M101.507,89.292c-0.645,0.559-2.9,2.17-4.594,4.178c-1.703,2.025-2.907,4.231-3.232,4.835
						c-0.359,0.533-2.209,2.315-3.562,4.512c-1.446,2.132-2.233,4.595-2.336,4.802c0.069,0.25-0.189-2.324,0.5-5.069
						c0.51-2.79,1.935-5.619,2.356-6.176c0.312-0.639,2.762-3.042,5.387-4.71C98.733,90.048,101.532,89.334,101.507,89.292z"/>
				</g>
				<g>
					<path d="M96.03,97.191c-1.138,0.312-4.83,1.947-6.57,5.258c-1.948,3.073-2.664,6.65-2.894,7.598
						c-0.294,0.864-1.796,4.229-2.477,7.777c-0.818,3.519-0.536,7.113-0.434,7.428c0.09,0.328-1.29-3.037-1.412-6.977
						c-0.294-3.911,0.46-8.182,0.816-9.094c0.22-0.91,2.057-5.349,5.315-8.477C91.612,97.316,96.142,97.171,96.03,97.191z"/>
				</g>
				<g>
					<path d="M86.872,111.78c-0.628,0.816-2.65,3.522-3.574,6.632c-1.047,3.048-1.406,6.195-1.563,7.05
						c-0.766,1.374-3.625,12.6-3.152,13.314c-0.433,0.655-1.385-12.269-0.396-13.954c0.157-0.807,1.506-4.638,3.629-7.799
						C83.894,113.785,86.893,111.762,86.872,111.78z"/>
				</g>
				<g>
					<path d="M79.987,128.873c0.258,2.681-1.734,18.228-2.481,20.663c-0.476,2.372-7.223,16.877-7.477,17.562
						c-0.188,0.706,3.472-16.153,3.928-18.249C74.782,146.84,80.248,128.966,79.987,128.873z"/>
				</g>
				<g>
					<path d="M105.279,127.414c-0.171,1.348-1.29,6.07-3.763,10.293c-2.382,4.24-5.516,7.969-6.418,8.935
						c-1.749,1.925-15.379,11.481-15.71,12.36c-0.833,0.308,11.437-13.159,12.948-14.696c0.79-0.797,4.891-4.314,8.003-8.328
						C103.54,132.014,105.268,127.4,105.279,127.414z"/>
				</g>
				<g>
					<path d="M92.327,139.202c0.71,1.434-0.385,10.416-1.42,11.745c-0.296,0.635-2.095,2.723-4.123,4.258
						c-2.017,1.579-4.193,2.47-4.312,2.628c-0.21,0.074,1.465-1.484,2.695-3.561c1.317-2.01,2.224-4.395,2.489-4.895
						c0.297-0.471,1.8-2.768,2.934-5.21C91.679,141.725,92.298,139.198,92.327,139.202z"/>
				</g>
				<g>
					<path d="M87.769,154.621c-0.107,1.473-2.772,9.654-4.02,10.824c-0.415,0.523-2.627,2.328-5.154,2.977
						c-2.526,0.744-4.771,0.107-4.934,0.151c-0.215-0.037,2.045-0.272,3.809-1.636c1.826-1.228,3.074-3.311,3.423-3.7
						C81.794,162.819,87.835,154.729,87.769,154.621z"/>
				</g>
				<g>
					<path d="M105.273,127.434c0.194,0.322,0.474,1.399,1.024,2.076c0.644,0.674,1.071,0.491,1.199,0.483
						c-0.562,0.057,2.158,2.731,2.536,2.617c0.34,0.099-3.74,1.343-4.722,0.24c-0.397-0.063-1.375-2.027-0.953-3.311
						C104.611,128.235,105.337,127.471,105.273,127.434z"/>
				</g>
				<g>
					<path d="M110.06,126.882c0.358,0.399,1.331,1.758,2.658,2.226c1.239,0.583,2.53,0.43,2.85,0.488
						c0.248,0.412,5.42,2.26,5.872,1.987c0.434,0.133-5.57,2.224-6.69,1.524c-0.396-0.106-2.487-1.004-3.577-2.778
						C110.029,128.631,110.11,126.844,110.06,126.882z"/>
				</g>
				<g>
					<path d="M117.004,125.943c1.104,0.085,6.911,0.666,7.704,0.66c0.597,0.428,5.948,2.985,6.483,2.679
						c0.442,0.266-6.442,1.479-7.312,0.823C122.865,130.039,116.907,126.008,117.004,125.943z"/>
				</g>
				<g>
					<path d="M128.342,123.811c0.561,0.514,2.573,0.775,2.458,0.322c-0.334-0.114,0.73,2.51,0.884,2.518
						c0.151,0.037-2.174,1.02-2.826,0.516c-0.191-0.06-0.853-1.127-0.786-1.951C128.061,124.387,128.375,123.822,128.342,123.811z"
						/>
				</g>
				<g>
					<path d="M131.009,124.537c0.676,0.262,3.66,1.839,3.986,2.006c0.133,0.232,0.893,3.791,1.213,3.929
						c0.159,0.223-3.641-1.004-3.927-1.571C131.816,128.497,130.945,124.51,131.009,124.537z"/>
				</g>
				<g>
					<path d="M107.15,93.34c-0.735,0.23-3.278,0.854-5.041,2.368c-1.789,1.489-2.771,3.462-3.084,3.98
						c-0.933,0.448-5.911,7.623-5.776,8.262c-0.435,0.434,1.326-9.229,2.777-10.261c0.322-0.524,2.662-2.967,5.572-3.89
						C104.488,92.783,107.176,93.391,107.15,93.34z"/>
				</g>
				<g>
					<path d="M104.657,103.84c-0.76,0.244-3.278,0.972-5.145,2.508c-1.92,1.465-3.206,3.369-3.575,3.856
						c-0.392,0.417-2.284,1.801-3.703,3.718c-1.492,1.852-2.316,4.158-2.348,4.363c0.008,0.227-0.234-2.189,0.533-4.772
						c0.65-2.602,2.262-5.179,2.762-5.631c0.396-0.522,2.99-2.591,5.867-3.472C101.924,103.449,104.683,103.857,104.657,103.84z"/>
				</g>
				<g>
					<path d="M98.7,112.689c-0.567,0.676-2.627,2.676-4.188,4.93c-1.509,2.318-2.567,4.736-2.894,5.387
						c-0.961,0.858-6.208,9.236-6.118,9.901c-0.379,0.481,1.618-10.407,2.927-11.577c0.325-0.635,2.521-3.373,5.029-5.387
						C95.983,113.907,98.746,112.744,98.7,112.689z"/>
				</g>
				<g>
					<path d="M92.552,122.631c0.735,1.047,0.24,8.27-0.847,9.362c-0.288,0.496-2.017,2.005-3.891,2.819
						c-1.858,0.864-3.711,1.045-3.82,1.16c-0.18,0.012,1.332-0.959,2.455-2.412c1.2-1.377,1.946-3.106,2.17-3.439
						c0.231-0.328,1.558-1.862,2.473-3.703C92.035,124.6,92.507,122.617,92.552,122.631z"/>
				</g>
				<g>
					<path d="M97.388,125.621c0.15,0.572,0.438,2.607,0.153,4.758c-0.339,2.102-1.232,4.182-1.583,4.684
						c-0.522,1.538-7.751,3.959-8.004,3.694c0.01,0.304,5.068-4.874,5.077-5.806c0.274-0.312,1.735-1.77,2.774-3.562
						C96.854,127.622,97.336,125.607,97.388,125.621z"/>
				</g>
				<g>
					<path d="M82.571,141.408c-0.222,1.248-0.126,7.62-0.023,8.591c-0.147,0.854-2.853,7.141-2.853,7.47
						c-0.04,0.327-0.967-6.891-0.728-7.864C78.839,148.565,82.345,141.238,82.571,141.408z"/>
				</g>
				<g>
					<path d="M85.843,139.355c0.008,0.794,0.256,4.173,0.276,4.625c-0.076,0.388-3.042,2.951-3.061,3.144
						c-0.067,0.17-0.577-3.684-0.387-4.188C82.726,142.357,85.792,139.234,85.843,139.355z"/>
				</g>
				<g>
					<path d="M81.948,128.387c0.269,0.776,1.033,4.893,1.03,5.463c-0.117,0.462-2.553,4.128-2.439,4.477
						c-0.114,0.271-1.358-4.387-1.127-5.007C79.492,132.702,81.926,128.355,81.948,128.387z"/>
				</g>
				<g>
					<path d="M76.409,160.081c-0.214,0.716,0.576,2.456,0.67,2.561c0.029,0.061-2.523,0.791-2.53,0.95
						c-0.066,0.127-0.958-1.988-0.802-2.319C73.776,160.815,76.437,159.837,76.409,160.081z"/>
				</g>
				<g>
					<path d="M130.692,99.826c-0.656,0.029-2.763-0.157-4.649,0.179c-1.903,0.438-3.347,1.263-3.682,1.548
						c-0.345,0.183-2.084,0.369-3.597,1.523c-1.659,0.975-2.682,2.714-2.85,2.8c0.023,0.196,0.168-1.751,1.238-3.701
						c0.899-2.081,3.119-3.674,3.655-3.864c0.477-0.414,3.358-0.765,5.694-0.213C128.875,98.67,130.673,99.888,130.692,99.826z"/>
				</g>
				<g>
					<path d="M119.993,94.537c-0.691-0.128-3.005-0.871-5.06-0.486c-2.093,0.305-3.352,1.675-3.695,1.971
						c-0.354,0.213-2.105,1.031-3.446,2.713c-1.403,1.588-2.149,3.691-2.191,3.863c0.021,0.199-0.263-1.945,0.393-4.326
						c0.547-2.399,2.391-4.769,3.014-5.081c0.422-0.436,3.659-1.925,6.453-1.045C118.248,92.781,119.965,94.618,119.993,94.537z"/>
				</g>
				<g>
					<path d="M111.466,97.385c-0.233,1.373-2.587,8.865-3.131,9.986c-0.506,1.062-6.285,6.818-6.464,7.139
						c-0.18,0.322,2.727-7.834,3.258-8.777C105.661,104.787,111.466,97.385,111.466,97.385z"/>
				</g>
				<g>
					<path d="M95.71,113.162c0.344,0.575,1.264,3.684,1.232,4.146c-0.028,0.434-2.855,2.719-2.887,2.85
						c-0.033,0.131-0.719-3.246-0.632-3.63C93.518,116.145,95.71,113.162,95.71,113.162z"/>
				</g>
				<g>
					<path d="M108.152,111.396c0.195,0.84-1.087,5.613-1.732,6.236c-0.458,0.814-5.537,2.068-5.663,2.004
						c-0.024,0.143,2.728-3.896,2.941-4.369C104.178,115.045,108.206,111.547,108.152,111.396z"/>
				</g>
				<g>
					<path d="M120.348,106.816c-0.153,0.937-2.137,5.729-2.701,6.373c-0.46,0.712-5.698,2.557-5.862,2.627
						c-0.108,0.158,2.804-4.508,3.172-5.026C115.438,110.379,120.35,106.848,120.348,106.816z"/>
				</g>
				<g>
					<path d="M123.774,107.787c0.395,0.752,0.305,5.645-0.172,6.374c-0.25,0.835-4.732,3.318-4.858,3.356
						c-0.028,0.143,1.521-4.505,1.65-4.998C120.822,112.186,123.862,107.923,123.774,107.787z"/>
				</g>
				<g>
					<path d="M127.733,106.762c0.008,0.791,0.257,4.172,0.279,4.621c-0.076,0.389-3.041,2.955-3.065,3.145
						c-0.065,0.172-0.573-3.682-0.385-4.189C124.615,109.76,127.682,106.639,127.733,106.762z"/>
				</g>
				<g>
					<path d="M134.472,109.458c0.151,0.812,0.463,3.938-0.989,6.903c-1.412,2.947-4.126,5.064-4.893,5.473
						c-1.55,1.632-12.441,1.611-12.798,1.271c-0.308,0.407,10.239-3.165,10.924-4.353c0.579-0.268,3.518-1.481,5.376-3.854
						C134.049,112.582,134.437,109.42,134.472,109.458z"/>
				</g>
				<g>
					<path d="M112.542,120.582c-0.335,0.94-4.543,4.506-5.394,4.781c-0.771,0.434-6.45-0.307-6.647-0.311
						c-0.195,0.096,4.794-2.758,5.378-3.062C106.551,121.924,112.559,120.775,112.542,120.582z"/>
				</g>
				<g>
					<path d="M138.041,110.512c0.607,0.476,2.647,2.566,3.46,5.49c0.922,2.857,0.456,6.125,0.062,6.926
						c-0.164,0.814-2.265,3.578-4.988,4.68c-2.656,1.266-5.284,0.87-5.46,0.974c-0.251,0,2.262-0.61,4.145-2.271
						c1.924-1.654,2.763-4.084,2.916-4.6c0.291-0.439,1.48-3.006,1.341-5.854C139.458,113.025,138.02,110.504,138.041,110.512z"/>
				</g>
				<g>
					<path d="M132.809,110.492c-1.068-0.196-5.857,0.336-6.364,0.711c-0.425-0.254-5.557-1.082-5.908-0.783
						c-0.411-0.021,4.688-3.141,5.743-2.812C127.351,107.17,133.062,110.281,132.809,110.492z"/>
				</g>
				<g>
					<path d="M129.229,101.348c-0.701,0.365-3.068,1.293-5.033,2.647c-1.954,1.431-3.46,3.11-3.894,3.548
						c-0.414,0.404-2.45,1.512-4.167,3.141c-1.748,1.566-3.036,3.565-3.161,3.732c0.003,0.232,0.291-2.11,1.452-4.441
						c1.016-2.406,2.907-4.65,3.412-5.06c0.452-0.47,3.196-2.088,5.959-2.854C126.598,101.289,129.248,101.411,129.229,101.348z"/>
				</g>
				<g>
					<path d="M131.068,101.55c0.341-0.031,1.652,0.046,2.834,0.922c1.136,0.86,1.911,2.271,1.949,2.63
						c0.465,1.043-2.342,4.956-2.453,4.956c0.083,0.089-0.779-4.171-1.099-4.345c0.009-0.237,0.157-1.227-0.088-2.274
						C131.93,102.432,131.04,101.576,131.068,101.55z"/>
				</g>
				<g>
					<path d="M136.937,107.504c0.645-0.182,3.902,1.621,3.997,2.744c0.112,0.318-0.313,1.699-1.152,2.437
						c-0.782,0.778-1.706,1.056-1.706,1.136c0.183-0.08-0.291-3-0.67-2.855C137.767,110.997,137.15,107.57,136.937,107.504z"/>
				</g>
				<g>
					<path d="M141.901,109.488c0.904,0.415,3.134,5.738,2.456,7.035c-0.074,0.469-1.268,2.111-2.769,2.879
						c-1.516,0.803-2.982,0.711-3.047,0.821c-0.159-0.01,1.021-0.774,1.583-1.956c0.64-1.127,0.648-2.402,0.753-2.643
						C141.51,115.449,142.209,109.631,141.901,109.488z"/>
				</g>
				<g>
					<path d="M130.446,118.693c0.211,0.291,0.766,1.287,0.973,2.541c0.191,1.238-0.33,2.814-0.657,3.062
						c-0.742,1.212-5.217,0.338-5.196,0.219c0.027,0.104,2.907-2.469,2.586-2.709c0.14-0.059,0.802-0.322,1.398-1.18
						C130.124,119.79,130.415,118.671,130.446,118.693z"/>
				</g>
				<g>
					<path d="M126.986,99.871c-0.67,0.025-2.798-0.169-4.747,0.139c-1.97,0.363-3.638,1.086-4.098,1.28
						c-0.826-0.339-7.764,1.517-8.05,2.13c-0.083,0.167,0.956-1.493,2.639-2.892c1.59-1.511,3.864-2.578,4.409-2.693
						c0.508-0.228,3.255-0.311,5.606,0.268C125.118,98.719,126.97,99.926,126.986,99.871z"/>
				</g>
				<g>
					<path fill="#414042" d="M139.301,99.11c-1.011,0.038-6.241-1.674-6.872-1.763c-0.338-0.115-1.247-1.243-2.448-1.918
						c-1.187-0.771-2.853-0.568-2.967-0.486c-0.137,0.126,0.997-1.177,2.91-1.35c1.866-0.253,3.714,0.342,4.059,0.507
						C134.948,94.441,139.27,99.23,139.301,99.11z"/>
				</g>
				<g>
					<path fill="#414042" d="M133.339,99.074c-0.99-0.359-6.1-2.45-6.776-2.526c-0.339-0.138-1.242-1.312-2.451-2.022
						c-1.189-0.824-2.918-0.396-3.018-0.272c-0.153,0.161,0.901-1.427,2.973-1.562c1.963-0.23,3.823,0.492,4.175,0.67
						C129.294,93.671,133.45,99.065,133.339,99.074z"/>
				</g>
				<g>
					<path fill="#414042" d="M136.257,101.738c-1.125-0.023-6.464,1.182-7.028,1.521c-0.318,0.119-1.751-0.371-2.817-0.025
						c-1.277,0.395-1.044,2.557-1.005,2.562c0.3,0.109-1.5-0.992-0.579-3.48c1.31-2.23,3.533-2.454,3.881-2.616
						C129.807,99.264,136.372,101.473,136.257,101.738z"/>
				</g>
				<g>
					<path fill="#414042" d="M128.892,105.899c0.61-0.456,3.854,1.224,3.963,2.147c0.572,0.912-2.157,3.86-2.325,3.539
						c0.171-0.102-0.836-2.596-1.147-2.568C129.67,108.915,129.213,105.946,128.892,105.899z"/>
				</g>
				<g>
					<path fill="#414042" d="M128.304,114.006c-0.072,0.387-0.568,1.78-1.794,2.843c-1.195,1.017-2.745,1.622-3.144,1.671
						c-1.017,0.332-5.507-2.448-5.639-2.518c-0.163,0.025,4.921-0.826,5.295-1.07c0.293,0.017,1.58,0.217,2.878,0.064
						C127.153,114.803,128.275,113.977,128.304,114.006z"/>
				</g>
				<g>
					<path fill="#414042" d="M117.029,114.97c-0.302,0.719-0.06,3.385,0.082,3.564c-0.166-0.043-2.4,1.903-2,2.489
						c-0.234,0.486-1.982-3.098-1.406-3.652C113.726,116.643,116.972,114.694,117.029,114.97z"/>
				</g>
				<g>
					<path fill="#414042" d="M110.497,117.598c-0.351-0.887-2.71-5.043-2.63-6.281c-0.09-0.258,0.733-2.805,2.816-3.106
						c1.741-0.166,2.793,0.729,2.924,0.653c0.155,0.025-1.264,0.252-1.994,0.929c-0.557,0.627-0.067,1.326-0.148,1.649
						C111.278,111.595,110.682,117.614,110.497,117.598z"/>
				</g>
				<g>
					<path fill="#414042" d="M114.205,105.611c-0.719,0.434-1.637,2.855-1.832,3.191c-0.182,0.285-3.714,0.035-3.717-0.076
						c0.017,0.075,1.214-2.48,1.535-2.787C110.382,105.521,114.288,105.262,114.205,105.611z"/>
				</g>
				<g>
					<path fill="#414042" d="M102.346,106.918c-0.602,0.691-2.045,4.283-1.894,4.635c-0.054,0.211-0.967,0.533-1.438,1.334
						c-0.578,0.841-0.12,2.159-0.06,2.203c0.141,0.037-1.125-0.305-1.736-1.834c-0.605-1.534-0.063-3.229,0.093-3.467
						C97.567,108.715,102.309,106.623,102.346,106.918z"/>
				</g>
				<g>
					<path fill="#414042" d="M99.841,115.604c0.311,0.636,0.203,4.42-0.237,5.021c-0.319,0.803-4.492,1.508-4.534,1.377
						c0.06,0.07,1.553-3.13,1.569-3.438C96.904,118.441,99.867,115.712,99.841,115.604z"/>
				</g>
				<g>
					<path fill="#414042" d="M99.873,123.294c0.348,0.944,2.239,6.072,2.008,7.28c0.005,0.435-0.868,2.295-2.287,3.363
						c-1.37,1.12-2.893,1.274-2.961,1.373c-0.128,0.058,0.916-0.974,1.341-2.232c0.447-1.252,0.305-2.595,0.335-2.923
						C98.566,129.814,99.756,123.306,99.873,123.294z"/>
				</g>
				<g>
					<path fill="#414042" d="M82.183,138.725c0.766-0.345,2.853-2.316,3.011-2.61c0.179-0.062,3.636,0.457,3.827,0.238
						c0.231-0.07-1.834,2.931-2.434,3.079C86.057,139.897,82.028,138.916,82.183,138.725z"/>
				</g>
				<g>
					<path fill="#414042" d="M86.998,142.938c0.639,0.736,1.725,6.708,0.475,7.946c-0.069,0.398-2.178,1.984-3.876,1.902
						c-1.635,0.021-3.138,0.216-3.283,0.342c-0.166,0.075,1.05-1.098,2.362-1.938c1.369-0.927,1.499-1.857,1.734-2.196
						c0.153-0.213,1.187-1.203,1.687-2.823C86.636,144.617,86.98,142.919,86.998,142.938z"/>
				</g>
				<g>
					<path fill="#414042" d="M80.96,159.797c-0.382,0.613-0.938,3.302-1.203,3.682c-0.171,0.406-3.934,0.413-3.714-0.042
						c0.099,0.195,0.987-2.207,1.238-2.574C77.431,160.608,80.921,159.614,80.96,159.797z"/>
				</g>
				<g>
					<path fill="#414042" d="M77.175,155.325c0.387,0.427,1.344,2.902,1.33,3.198c-0.037,0.201-2.562,1.704-2.542,1.959
						c-0.074,0.177-1.1-2.563-0.935-2.896C75.13,157.258,77.186,155.34,77.175,155.325z"/>
				</g>
				<g>
					<path fill="#414042" d="M74.101,162.174c-0.108-0.929-1.395-5.255-1.33-6.145c0.017-0.355,0.773-1.756,1.837-2.788
						c1.067-1.083,2.365-1.336,2.374-1.436c-0.331-0.092-0.99,4.036-0.633,4.682C76.3,156.892,74.28,162.24,74.101,162.174z"/>
				</g>
				<g>
					<path fill="#414042" d="M78.399,147.534c-0.395-0.741-0.736-5.446-0.445-6.19c0.131-0.811,4.173-3.812,4.302-3.834
						c-0.015-0.148-0.83,4.539-0.916,5.065C81.041,143.004,78.326,147.445,78.399,147.534z"/>
				</g>
				<g>
					<path fill="#414042" d="M84.242,133.479c-0.186-0.981-1.355-6.087-1.238-7.033c0.048-0.409,0.833-1.922,1.877-3.17
						c1.11-1.361,2.54-1.653,2.563-1.703c0.081-0.015-0.683,0.913-0.8,2.204c-0.12,1.338-0.005,2.831-0.065,3.157
						C86.453,127.479,84.369,133.482,84.242,133.479z"/>
				</g>
				<g>
					<path fill="#414042" d="M83.886,121.414c0.431-1.135-0.183-6.599-0.03-7.637c0.065-0.429,1.006-2.062,2.279-3.313
						c1.333-1.319,2.94-1.487,2.961-1.603c0.157,0.014-0.97,0.913-1.251,2.328c-0.381,1.34-0.368,2.977-0.459,3.336
						C87.372,115.125,84.285,121.625,83.886,121.414z"/>
				</g>
				<g>
					<path fill="#414042" d="M88.263,112.863c0.311-1.05-0.21-5.809-0.097-6.77c0.058-0.377,0.99-1.855,2.281-2.835
						c1.227-1.046,2.679-1.24,2.694-1.373c0.143-0.026-0.749,0.966-1.043,2.201c-0.396,1.163-0.338,2.55-0.434,2.855
						C91.688,107.439,88.547,113.096,88.263,112.863z"/>
				</g>
				<g>
					<path fill="#414042" d="M99.435,102.612c-0.626-0.653-0.133-5.319,0.443-5.953c0.287-0.901,5.094-2.219,5.182-2
						c-0.07-0.153-2.187,3.561-2.225,4.069C102.375,98.912,99.228,102.389,99.435,102.612z"/>
				</g>
				<g>
					<path fill="#414042" d="M102.897,100.766c-0.439-0.46-0.802-3.837-0.517-4.325c0.171-0.551,3.672-1.644,3.731-1.638
						c0.003-0.072-0.482,3.1-0.575,3.377C105.293,98.368,102.845,100.641,102.897,100.766z"/>
				</g>
				<g>
					<path fill="#414042" d="M96.384,95.386c-0.077-0.835,2.477-4.62,3.476-4.881c0.321-0.17,1.936-0.144,3.203,0.499
						c1.311,0.605,1.834,1.737,1.924,1.697c0.054,0.121-0.979-0.238-1.908,0.146c-0.919,0.248-1.689,0.936-1.897,1.009
						C100.851,93.652,96.372,95.149,96.384,95.386z"/>
				</g>
				<g>
					<path fill="#414042" d="M107.009,92.479c-0.402-1.118,3.732-4.945,4.86-4.887c0.405-0.123,2.108,0.194,3.466,0.92
						c1.417,0.707,2.229,1.817,2.333,1.814c0.062-0.288-4.685,0.244-5.098,0.803c-0.275,0.006-1.673-0.032-3.056,0.246
						C108.169,91.674,107.027,92.482,107.009,92.479z"/>
				</g>
				<g>
					<path fill="#414042" d="M117.174,92.608c-0.107-1.455,5.681-2.533,6.49-2.082c1.063-0.027,4.63,4.443,4.313,4.704
						c0.24-0.196-4.65-1.366-5.282-1.232c-0.274-0.099-1.579-0.857-2.917-1.263C118.453,92.276,117.209,92.599,117.174,92.608z"/>
				</g>
				<g>
					<path fill="#414042" d="M134.289,103.168c0.655-0.713,5.794-0.842,6.59-0.33c1.053,0.131,3.497,5.062,3.183,5.232
						c0.2-0.152-4.112-2.036-4.728-1.978C139.025,105.624,134.475,102.909,134.289,103.168z"/>
				</g>
				<g>
					<path fill="#414042" d="M144.559,108.206c0.798-0.265,3.286,2.72,3.121,3.552c0.303,0.955-3.138,3.387-3.251,3.018
						c0.202-0.023-0.056-2.916-0.348-3.11C144.372,111.518,144.897,108.312,144.559,108.206z"/>
				</g>
				<g>
					<path fill="#414042" d="M135.356,115.996c0.39,0.729,0.768,5.158,0.39,5.95c-0.114,0.329-1.218,1.364-2.463,1.97
						c-1.341,0.643-2.52,0.341-2.553,0.406c0.345,0.228,1.86-3.163,1.708-3.821C132.731,120.253,135.416,116.086,135.356,115.996z"
						/>
				</g>
				<g>
					<path fill="#414042" d="M122.239,124.004c0.409,1.538-5.606,2.896-6.273,2.609c-0.877-0.031-5.224-3.299-5.538-3.264
						c-0.201-0.131,5.472-0.359,6.054-0.303C117.135,123.467,122.481,124.926,122.239,124.004z"/>
				</g>
				<g>
					<path fill="#414042" d="M107.718,119.854c-1.084,0.191-2.588,2.83-2.505,3.172c-0.228-0.125-3.366,1.463-3.256,2.107
						c-0.391,0.329-0.271-4.227,0.647-4.59c0.171-0.231,1.491-0.891,2.749-1.04C106.691,119.374,107.736,119.889,107.718,119.854z"
						/>
				</g>
				<g>
					<path fill="#414042" d="M117.398,128.601c-0.151,1.176-5.341,2.021-6.074,1.65c-0.892-0.055-4.085-4.085-4.031-4.256
						c-0.174,0.059,4.547,0.831,5.074,0.806C112.799,127.266,117.267,129.142,117.398,128.601z"/>
				</g>
				<g>
					<path fill="#414042" d="M97.748,136.522c0.157,0.228,0.336,1.628-0.7,2.712c-0.919,1.09-2.168,1.686-2.485,1.776
						c-0.83,0.362-4.732-1.966-4.792-2.051c-0.105,0.06,3.894-1.262,4.164-1.494c0.223-0.022,1.31,0.167,2.265,0.029
						C97.105,137.4,97.719,136.53,97.748,136.522z"/>
				</g>
				<g>
					<path fill="#414042" d="M88.441,141.128c0.54,0.176,1.973,2.491,1.869,2.978c0,0.552-2.916,1.689-2.941,1.587
						c0.06-0.005-0.528-2.283-0.572-2.41C86.91,143.196,88.501,141.242,88.441,141.128z"/>
				</g>
				<g>
					<path fill="#414042" d="M81.03,158.924c0.092,0.447,0.142,2.142-0.559,3.803c-0.662,1.627-1.848,3.07-2.231,3.371
						c-0.787,1.133-7.109,0.768-7.124,0.378c0.006,0.279,4.807-2.56,4.99-3.287c0.284-0.146,1.717-0.821,2.971-1.821
						C80.263,160.345,81.001,158.921,81.03,158.924z"/>
				</g>
				<g>
					<path fill="#414042" d="M144.705,107.934c0.109-0.237,0.568-0.996,1.551-1.38c0.973-0.366,2.343,0.05,2.52,0.292
						c1.036,0.715-0.428,4.061-0.574,3.908c0.078-0.11-1.939-1.77-1.977-1.365c-0.038-0.075,0.119-0.438-0.297-0.902
						C145.516,108.051,144.686,107.971,144.705,107.934z"/>
				</g>
				<g>
					<path fill="#414042" d="M149.498,108.758c0.473,1.196-0.609,8.684-1.837,9.756c-0.538,1.555-7.842,4.318-8.084,4.268
						c-0.092,0.255,5.083-5.453,5.127-6.329C145.625,116.236,149.714,108.99,149.498,108.758z"/>
				</g>
				<g>
					<path fill="#414042" d="M133.55,99.453c1.052-0.633,7.26-3.756,8.67-3.701c0.522-0.045,2.891,0.289,4.699,1.678
						c1.942,1.466,1.683,3.556,1.757,3.596c0.027,0.194-0.693-1.593-2.316-1.829c-1.491-0.398-3.426,0.145-3.834,0.146
						C141.835,99.086,133.633,99.504,133.55,99.453z"/>
				</g>
			</g>
			<g>
				<g>
					<path d="M146.602,103.486c0.172,0.781,0.535,3.428,1.553,5.696c0.96,2.323,2.562,3.975,2.939,4.417
						c0.362,0.406,1.292,2.533,3.255,3.912c1.874,1.496,4.412,1.973,4.602,1.996c0.234-0.07-2.202,0.578-4.971-0.166
						c-2.816-0.609-5.32-2.864-5.674-3.463c-0.471-0.536-2.042-3.662-2.139-6.701C145.899,106.152,146.634,103.48,146.602,103.486z"
						/>
				</g>
				<g>
					<path d="M145.807,115.844c0.504,0.517,1.871,2.349,3.621,3.42c1.832,0.992,3.694,1.381,4.229,1.505
						c0.593,0.64,7.788,3.686,8.27,3.575c0.448,0.168-8.199,0.776-9.425-0.167c-0.545-0.106-3.094-1.675-4.686-3.801
						C146.212,118.195,145.906,115.788,145.807,115.844z"/>
				</g>
				<g>
					<path d="M145.43,111.479c0.061-0.726,0.657-3.303,2.254-5.537c1.532-2.25,3.865-3.94,4.562-4.273
						c0.639-0.356,3.523-0.951,6.113-0.501c2.624,0.332,4.668,1.559,4.85,1.589c0.196,0.086-2.085-0.328-4.399,0.218
						c-2.336,0.427-4.479,1.661-4.947,1.915c-0.484,0.19-3.03,1.023-5.062,2.701C146.726,109.191,145.439,111.494,145.43,111.479z"
						/>
				</g>
				<g>
					<path d="M157.438,96.775c1.596-1.285,11.505-7.945,13.629-8.425c0.872-0.291,4.59-0.977,8.09-0.362
						c3.612,0.549,5.938,2.894,6.121,3c0.23,0.191-2.49-1.497-5.724-1.139c-3.18,0.139-6.432,1.671-7.177,1.868
						C170.885,91.784,157.48,96.769,157.438,96.775z"/>
				</g>
				<g>
					<path d="M167.528,92.541c1.047-0.74,4.732-3.085,8.764-4.923c3.986-1.908,8.579-2.778,9.922-2.755
						c1.09-0.092,6.61,0.777,9.207,4.814c2.661,3.742,2.26,7.959,2.499,8.214c-0.014,0.431-0.808-3.673-3.479-6.609
						c-2.768-2.941-7.1-2.878-8.021-2.801c-0.881-0.104-5.618-0.115-10.168,1.217C171.723,90.869,167.531,92.568,167.528,92.541z"/>
				</g>
				<g>
					<path d="M198.9,89.683c0.776,0.112,3.482,0.749,5.963,2.174c2.464,1.411,4.623,3.441,5.076,4.105
						c0.497,0.584,1.667,3.352,2.025,6.068c0.477,2.703,0.12,5.219,0.231,5.41c-0.065,0.242-0.545-2.188-1.832-4.437
						c-1.129-2.325-2.929-4.358-3.28-4.833c-0.26-0.543-1.806-2.99-3.757-5.076C201.315,91.099,198.883,89.72,198.9,89.683z"/>
				</g>
				<g>
					<path d="M204.563,97.63c0.994-0.17,5.163,0.36,8.001,3.45c2.951,2.795,4.65,6.574,4.983,7.604
						c0.414,0.977,0.965,5.044,0.548,8.801c-0.283,3.803-1.67,7.049-1.744,7.313c-0.084,0.296,0.529-3.081-0.064-6.716
						c-0.434-3.641-1.794-7.304-2.1-8.092c-0.197-0.822-1.17-4.947-3.488-8.118C208.48,98.51,204.526,97.609,204.563,97.63z"/>
				</g>
				<g>
					<path d="M213.353,112.059c0.842,0.396,3.678,2.375,5.568,5.297c1.997,2.818,3.27,6.085,3.515,6.999
						c1.021,1.858-0.571,13.733-1.051,14.096c0.423,0.44-1.512-11.784-2.406-13.062c-0.144-0.74-0.691-4.371-2.018-7.603
						C215.705,114.519,213.353,112.053,213.353,112.059z"/>
				</g>
				<g>
					<path d="M219.992,128.724c0.688,2.632,5.771,17.271,6.646,19.595c0.594,2.247,3.074,18.015,3.335,18.725
						c0.194,0.73-6.25-15.327-6.732-17.501C222.401,147.469,219.712,128.743,219.992,128.724z"/>
				</g>
				<g>
					<path d="M194.722,127.355c0.634,1.278,2.75,5.608,5.865,9.095c3.044,3.537,6.613,6.498,7.549,7.393
						c1.68,1.657,12.403,14.601,12.63,15.365c0.79,0.272-13.282-10.903-14.973-12.616c-0.809-0.812-4.579-5.026-7.243-9.678
						C195.78,132.283,194.732,127.327,194.722,127.355z"/>
				</g>
				<g>
					<path d="M207.645,139.016c0.309,1.662,4.352,9.116,5.304,9.977c0.324,0.52,1,2.841,2.095,4.982
						c1.056,2.151,2.601,3.996,2.742,4.161c0.218,0.08-1.964-0.934-3.895-2.712c-2.016-1.696-3.743-4.027-4.04-4.596
						c-0.342-0.547-1.353-3.496-1.825-6.312C207.57,141.667,207.676,139.006,207.645,139.016z"/>
				</g>
				<g>
					<path d="M212.28,154.683c1,1.157,6.422,7.606,7.409,8.191c0.422,0.394,1.395,2.48,3.095,3.954
						c1.641,1.573,4.031,2.174,4.223,2.187c0.239-0.059-2.146,0.525-4.739-0.402c-2.633-0.798-4.829-2.846-5.231-3.307
						C215.732,164.374,212.152,154.665,212.28,154.683z"/>
				</g>
				<g>
					<path d="M194.716,127.334c0.239,0.214,1.017,0.938,1.392,2.104c0.432,1.147-0.266,2.931-0.667,3.09
						c-1.087,1.213-4.888-0.799-4.793-0.888c0.026,0.115,3.029-1.735,2.514-1.904c0.093-0.023,0.519,0.139,1.011-0.629
						C194.633,128.392,194.662,127.305,194.716,127.334z"/>
				</g>
				<g>
					<path d="M189.929,126.457c0.089,0.408,0.239,2.117-0.779,3.654c-0.912,1.615-2.658,2.548-3.115,2.701
						c-1.248,0.754-6.646-1.968-6.635-2.179c-0.104,0.164,5.365-0.772,5.63-1.279c0.261-0.092,1.754-0.015,2.93-0.792
						C189.19,127.875,189.905,126.435,189.929,126.457z"/>
				</g>
				<g>
					<path d="M183.378,125.037c-0.594,0.885-5.393,4.543-6.476,4.777c-0.995,0.684-7.303-1.181-7.314-1.494
						c-0.111,0.232,5.695-1.408,6.285-1.959C176.54,126.391,183.361,125.149,183.378,125.037z"/>
				</g>
				<g>
					<path d="M171.647,123.385c0.617,0.124,1.118,2.979,0.212,3.488c-0.691,0.604-3.03-1.175-3.03-1.174
						c-0.011,0.028,1.371-1.857,1.036-1.828C169.717,124.324,171.619,123.707,171.647,123.385z"/>
				</g>
				<g>
					<path d="M169.066,123.902c0.183,0.658-0.215,4.176-0.631,4.688c-0.311,0.667-4.313,1.106-4.346,1.018
						c0.029,0.062,1.474-2.993,1.551-3.297C165.892,126.176,169.069,123.968,169.066,123.902z"/>
				</g>
				<g>
					<path d="M193.538,93.782c0.661-0.211,3.212-0.736,5.84,0.123c2.606,0.822,4.738,2.799,5.172,3.385
						c1.558,1.15,2.427,10.254,2.191,10.558c0.354,0.186-3.999-7.936-5.013-8.313c-0.28-0.436-1.515-2.696-3.579-4.055
						C196.125,94.035,193.512,93.809,193.538,93.782z"/>
				</g>
				<g>
					<path d="M196.011,104.281c0.68-0.212,3.307-0.59,5.922,0.24c2.619,0.733,4.934,2.415,5.45,2.971
						c0.562,0.475,1.957,3.01,2.433,5.551c0.577,2.536,0.232,4.873,0.273,5.053c-0.002,0.212-0.504-2.028-1.813-4.008
						c-1.224-2.036-3.052-3.689-3.439-4.046c-0.323-0.419-1.913-2.548-4.099-3.94C198.59,104.662,196,104.289,196.011,104.281z"/>
				</g>
				<g>
					<path d="M201.605,113.027c0.775,0.263,3.418,1.37,5.809,3.119c2.319,1.791,4.307,4.067,4.747,4.763
						c1.371,1.31,2.517,11.521,2.329,11.898c0.313,0.281-4.287-9.179-5.347-9.921c-0.291-0.562-1.623-3.318-3.441-5.682
						C203.885,114.848,201.562,113.078,201.605,113.027z"/>
				</g>
				<g>
					<path d="M207.42,122.43c0.305,1.371,3.735,6.93,4.576,7.343c0.284,0.336,0.805,2.061,1.832,3.622
						c0.984,1.576,2.434,2.838,2.554,2.952c0.188,0.008-1.681-0.3-3.499-1.373c-1.884-0.967-3.55-2.695-3.834-3.134
						c-0.31-0.427-1.265-2.809-1.532-5.074C207.205,124.496,207.471,122.424,207.42,122.43z"/>
				</g>
				<g>
					<path d="M202.584,125.421c0.32,0.573,1.093,2.489,2.177,4.068c1.158,1.569,2.494,2.76,2.815,3.117
						c0.108,0.823,4.168,6.51,4.837,6.526c0.275,0.513-7.203-2.778-7.611-4.23c-0.351-0.395-1.526-2.737-1.963-5.039
						C202.377,127.544,202.644,125.408,202.584,125.421z"/>
				</g>
				<g>
					<path d="M217.453,141.42c1.019,0.645,4.17,6.667,4.238,7.805c0.316,1.056-1.411,7.75-1.419,8.03
						c0.038,0.281-1.918-6.628-2.136-7.408C218.286,148.987,217.724,141.437,217.453,141.42z"/>
				</g>
				<g>
					<path d="M214.235,139.465c0.69,0.095,3.565,2.541,3.746,3.148c0.27,0.533-1.06,4.29-1.054,4.411
						c0.047,0.114-2.223-2.916-2.358-3.256C214.574,143.388,214.356,139.509,214.235,139.465z"/>
				</g>
				<g>
					<path d="M218.04,128.287c0.628,0.507,3.03,4.019,3.207,4.7c0.306,0.698-1.694,4.974-1.814,5.013
						c0.099,0.09-1.536-3.896-1.728-4.347C217.654,133.177,218.075,128.308,218.04,128.287z"/>
				</g>
				<g>
					<path d="M223.897,160.421c0.335-0.503,2.864,0.114,3.016,0.559c0.239,0.349-1.441,2.517-1.475,2.512
						c0.027-0.006-1.795-1.049-1.84-1.093C223.66,162.318,224.104,160.523,223.897,160.421z"/>
				</g>
				<g>
					<path d="M170.243,100.219c0.458-0.383,2.158-1.58,4.291-2.216c2.107-0.561,4.606-0.368,5.197-0.023
						c0.62,0.174,2.604,1.844,3.353,3.888c0.966,1.913,0.827,3.907,1.015,3.987c-0.005,0.205-0.881-1.479-2.289-2.644
						c-1.31-1.328-3.081-1.738-3.406-1.88c-0.272-0.279-1.999-1.1-4.051-1.356C172.307,99.784,170.247,100.273,170.243,100.219z"/>
				</g>
				<g>
					<path d="M181.054,94.876c0.429-0.478,2.085-2.19,4.581-2.827c2.501-0.761,5.326,0.333,5.898,0.779
						c0.7,0.32,2.347,2.671,2.715,5.012c0.508,2.322,0.068,4.409,0.125,4.573c-0.005,0.195-0.493-1.833-1.663-3.55
						c-1.138-1.782-2.833-2.878-3.194-3.039c-0.293-0.237-1.825-1.769-4.078-1.797C183.228,93.822,181.045,94.938,181.054,94.876z"
						/>
				</g>
				<g>
					<path d="M188.595,97.467c1.049,0.916,6.208,6.835,6.88,7.88c0.641,0.988,2.527,8.922,2.708,9.242
						c0.182,0.322-5.259-6.42-5.782-7.363C191.872,106.285,188.595,97.467,188.595,97.467z"/>
				</g>
				<g>
					<path d="M204.278,113.061c0.566,0.361,2.774,2.73,2.954,3.156c0.168,0.4-1.335,3.711-1.304,3.841
						c0.029,0.132-2.102-2.578-2.191-2.964C203.65,116.709,204.278,113.061,204.278,113.061z"/>
				</g>
				<g>
					<path d="M191.898,111.457c0.763,0.605,4.483,3.207,5.025,3.497c0.275,0.415,2.242,4.892,2.621,5.022
						c0.188,0.275-4.81-1.834-5.231-2.543C193.613,116.971,191.734,111.451,191.898,111.457z"/>
				</g>
				<g>
					<path d="M179.787,107.006c0.893,0.371,5.277,3.01,5.87,3.459c0.453,0.49,2.519,5.465,2.774,5.632
						c0.181,0.22-4.89-2.493-5.34-3.105C182.522,112.486,179.755,107.004,179.787,107.006z"/>
				</g>
				<g>
					<path d="M176.215,107.686c0.593,0.763,3.558,4.102,4.032,4.508c0.208,0.464,0.882,5.299,1.144,5.512
						c0.113,0.267-4.017-3.002-4.278-3.735C176.546,113.391,176.053,107.639,176.215,107.686z"/>
				</g>
				<g>
					<path d="M172.345,106.867c0.688,0.098,3.565,2.543,3.745,3.15c0.268,0.533-1.06,4.289-1.058,4.41
						c0.052,0.114-2.22-2.916-2.357-3.255C172.683,110.79,172.464,106.912,172.345,106.867z"/>
				</g>
				<g>
					<path d="M165.496,109.232c0.291,0.861,1.139,3.895,3.133,5.89c1.961,2.022,4.499,2.988,5.176,3.29
						c0.762,1.101,10.298,5.42,11.009,5.133c0.565,0.455-11.165-0.336-12.561-1.877c-0.668-0.296-3.97-2.59-5.509-5.898
						C165.104,112.49,165.563,109.188,165.496,109.232z"/>
				</g>
				<g>
					<path d="M187.763,120.92c1.017,0.231,6.183,0.687,6.958,0.781c0.643,0.238,4.997,3.752,5.3,3.777
						c0.26,0.113-5.68,0.006-6.393-0.345C192.819,125.027,187.615,121.061,187.763,120.92z"/>
				</g>
				<g>
					<path d="M162.065,109.832c-0.297,0.809-1.369,3.502-1.165,6.135c0.106,2.652,1.228,4.822,1.55,5.35
						c0.198,0.547,0.743,2.926,2.515,4.796c1.666,1.971,4.305,2.831,4.499,2.903c0.261-0.025-2.425,0.177-5.204-1.156
						c-2.816-1.279-4.879-4.285-5.072-5.016c-0.428-0.656-1.142-4.431-0.15-7.613C159.926,111.99,162.107,109.826,162.065,109.832z"
						/>
				</g>
				<g>
					<path d="M168.163,110.87c0.299-0.935,4.991-3.757,6.138-3.528c1.18-0.352,5.592,3.286,5.564,3.465
						c0.131-0.102-5.104-0.208-5.556,0.141C173.882,110.525,168.248,110.576,168.163,110.87z"/>
				</g>
				<g>
					<path d="M171.357,101.783c0.716-0.096,3.243-0.23,5.823,0.354c2.525,0.637,4.954,1.926,5.526,2.4
						c0.571,0.428,2.212,2.683,3.075,5.048c0.941,2.346,1.124,4.657,1.248,4.812c0,0.226-0.979-1.817-2.601-3.521
						c-1.515-1.808-3.557-3.165-3.96-3.501c-0.37-0.388-2.212-2.242-4.427-3.588C173.835,102.46,171.343,101.842,171.357,101.783z"
						/>
				</g>
				<g>
					<path d="M169.283,100.658c-0.21,0.398-0.947,1.477-1.073,2.523c-0.103,1.079,0.138,1.943,0.169,2.216
						c-0.24,0.151-1.963,4.235-1.796,4.56c-0.039,0.326-2.183-4.094-1.777-5.03c-0.018-0.313,0.728-1.978,1.915-3.019
						C167.97,100.865,169.32,100.709,169.283,100.658z"/>
				</g>
				<g>
					<path d="M163.221,106.76c-0.213,0.778-0.288,3.881,0.054,3.914c0.04,0.117-0.605,0.484-0.936,1.338
						c-0.365,0.826-0.345,1.852-0.339,1.918c0,0.479-2.839-2.771-2.271-3.869C159.649,108.91,163.235,106.525,163.221,106.76z"/>
				</g>
				<g>
					<path d="M158.1,109.011c-0.085,1.155,1.093,6.011,1.687,6.28c0.126,0.266-0.06,1.492,0.396,2.824
						c0.441,1.312,1.58,2.4,1.673,2.492c0.16-0.029-1.375-0.067-2.832-1.083c-1.521-0.917-2.562-2.739-2.684-3.155
						C155.444,115.172,157.846,108.754,158.1,109.011z"/>
				</g>
				<g>
					<path d="M169.522,118.42c0.248,0.307,0.761,1.377,1.424,2.133c0.73,0.738,1.366,0.918,1.546,0.967
						c-0.322,0.142,2.054,3.428,2.457,3.421c0.303,0.194-4.299,0.256-4.969-0.845c-0.331-0.162-1.087-1.907-0.953-3.26
						C169.087,119.466,169.568,118.434,169.522,118.42z"/>
				</g>
				<g>
					<path d="M173.95,100.266c0.465-0.391,2.218-1.592,4.352-2.255c2.117-0.614,4.49-0.646,5.101-0.478
						c1.755-0.206,6.848,5.828,6.699,6.139c0.285-0.124-6.582-3.045-7.466-2.615c-0.394-0.18-2.364-0.879-4.485-1.074
						C176.045,99.832,173.959,100.314,173.95,100.266z"/>
				</g>
				<g>
					<path fill="#414042" d="M161.713,99.467c0.604-0.799,3.885-5.111,4.89-5.582c0.359-0.216,2.205-0.59,3.934-0.212
						c1.8,0.338,2.699,1.609,2.771,1.617c0.096,0.073-1.227-0.353-2.408,0.189c-1.181,0.421-2.28,1.43-2.575,1.571
						C167.828,97.125,161.8,99.551,161.713,99.467z"/>
				</g>
				<g>
					<path fill="#414042" d="M167.806,99.343c0.274-0.976,3.484-5.704,4.534-6.188c0.359-0.241,2.245-0.713,4.047-0.383
						c1.929,0.308,2.706,1.763,2.76,1.769c0.088,0.079-1.188-0.54-2.37,0.037c-1.185,0.423-2.297,1.52-2.586,1.669
						C173.616,96.267,167.806,99.23,167.806,99.343z"/>
				</g>
				<g>
					<path fill="#414042" d="M164.625,102.15c0.584-0.872,6.056-2.98,7.226-2.73c0.404,0.078,2.464,0.651,3.549,2.574
						c0.877,2.209-0.941,3.141-0.774,3.252c-0.094,0.219,0.319-1.621-0.556-1.977c-0.64-0.412-2.28-0.207-2.537-0.258
						C171.096,102.639,164.639,101.875,164.625,102.15z"/>
				</g>
				<g>
					<path fill="#414042" d="M171.363,105.068c-0.435,0.756-0.333,3.521-0.065,3.654c-0.207-0.111-2.121,2.437-1.794,2.899
						c-0.104,0.446-2.253-2.997-1.7-3.776C167.725,106.885,171.339,104.706,171.363,105.068z"/>
				</g>
				<g>
					<path fill="#414042" d="M171.822,114.186c0.477,0.166,1.795,0.793,3.044,0.808c1.275,0.007,2.4-0.3,2.725-0.327
						c0.39,0.166,5.186,1.864,5.469,1.771c0.285,0.006-4.72,2.092-5.651,1.825c-0.338,0.021-2.16-0.565-3.55-1.583
						C172.443,115.584,171.856,114.136,171.822,114.186z"/>
				</g>
				<g>
					<path fill="#414042" d="M183.206,115.256c0.592-0.383,3.562,1.105,3.748,1.796c0.121,0.216-0.096,1.338-0.64,2.173
						c-0.558,0.896-1.387,1.16-1.371,1.198c0.211-0.167-1.08-2.06-1.369-2.124C183.732,118.156,183.449,115.273,183.206,115.256z"/>
				</g>
				<g>
					<path fill="#414042" d="M190.885,117.332c-0.579-0.722-1.428-5.801-1.674-6.092c-0.131-0.312,0.619-1.047,0.101-1.956
						c-0.67-0.963-2.234-1.372-2.294-1.39c-0.086,0.078,1.05-0.605,2.887-0.351c2.251,0.419,2.981,3.208,2.898,3.405
						C192.984,112.126,190.691,117.291,190.885,117.332z"/>
				</g>
				<g>
					<path fill="#414042" d="M186.406,106.053c0.276-0.725,3.708-0.725,4.039-0.403c0.375,0.235,0.97,3.378,1.271,3.452
						c0.134,0.188-3.207-0.329-3.378-0.533C188.151,108.229,186.668,105.916,186.406,106.053z"/>
				</g>
				<g>
					<path fill="#414042" d="M197.988,107.271c0.752-0.361,4.899,1.188,5.331,2.178c0.2,0.26,0.557,1.945-0.162,3.305
						c-0.69,1.369-1.936,1.482-1.925,1.566c-0.09,0.073,0.44-0.918,0.096-1.631c-0.262-0.689-0.976-1.186-1.076-1.357
						C200.467,111.032,198.237,107.16,197.988,107.271z"/>
				</g>
				<g>
					<path fill="#414042" d="M200.182,115.614c0.641,0.444,3.493,2.481,3.817,2.653c0.065,0.23,0.85,3.924,1.232,4.072
						c0.161,0.272-3.831-1.23-4.113-1.922C200.604,119.93,200.079,115.567,200.182,115.614z"/>
				</g>
				<g>
					<path fill="#414042" d="M200.098,123.07c0.579,0.85,1.941,6.271,2.264,6.744c0.081,0.346-0.302,1.636-0.022,3.031
						c0.212,1.433,1.238,2.715,1.323,2.793c0.137,0.041-1.365-0.317-2.711-1.575c-1.373-1.25-2.124-3.252-2.142-3.643
						C198.476,129.306,200.225,123.052,200.098,123.07z"/>
				</g>
				<g>
					<path fill="#414042" d="M218.423,137.76c-0.228,0.634-3.646,1.775-4.282,1.429c-0.695-0.128-2.105-3.602-2.058-3.664
						c-0.057,0.035,3.135,0.31,3.364,0.304C215.564,136.101,218.224,137.887,218.423,137.76z"/>
				</g>
				<g>
					<path fill="#414042" d="M212.972,142.697c0.313,1.11,2.522,6.035,3.254,5.974c0.266,0.352,0.218,1.345,1.449,2.476
						c1.216,1.032,2.246,2.233,2.281,2.301c0.078,0.032-1.152-0.33-2.802-0.537c-1.691-0.062-3.815-1.832-3.894-2.182
						c-0.316-0.374-1.088-2.669-0.82-4.554C212.597,144.292,212.993,142.713,212.972,142.697z"/>
				</g>
				<g>
					<path fill="#414042" d="M219.421,160.177c0.517-0.426,3.67,0.188,3.939,0.396c0.279,0.214,0.532,3.379,1.26,3.309
						c0.055,0.446-3.571-0.31-3.671-0.634C220.694,162.915,219.562,160.105,219.421,160.177z"/>
				</g>
				<g>
					<path fill="#414042" d="M222.814,155.223c0.538,0.26,2.64,1.724,2.824,2.059c0.245,0.387-1.568,3.001-1.629,2.961
						c0.04,0.002-1.712-1.75-1.828-1.951C222.103,158.071,222.798,155.216,222.814,155.223z"/>
				</g>
				<g>
					<path fill="#414042" d="M227.255,161.718c-0.759-0.485-2.748-4.919-2.91-5.427c-0.087-0.3,0.296-1.475,0.357-2.695
						c0.108-1.229-0.493-2.482-0.547-2.593c-0.163-0.031,1.188,0.413,2.115,1.656c1,1.186,1.569,2.701,1.62,3.021
						C227.994,156.498,227.072,161.705,227.255,161.718z"/>
				</g>
				<g>
					<path fill="#414042" d="M222.971,147.141c-0.562-0.729-3.249-4.261-3.606-4.767c-0.165-0.501-0.105-5.274-0.357-5.52
						c-0.056-0.29,3.535,3.442,3.684,4.149C223.068,141.624,223.078,147.18,222.971,147.141z"/>
				</g>
				<g>
					<path fill="#414042" d="M217.119,133.053c-0.707-0.687-2.776-5.648-3.005-6.303c-0.112-0.345,0.217-1.77,0.28-3.189
						c0.127-1.38-0.652-2.764-0.814-2.865c-0.177-0.086,1.442,0.479,2.433,1.982c0.931,1.398,1.562,3.035,1.635,3.405
						C217.82,126.929,217.002,133.084,217.119,133.053z"/>
				</g>
				<g>
					<path fill="#414042" d="M217.393,120.779c-1.118-0.312-3.864-5.738-4.076-6.429c-0.137-0.384,0.062-1.928-0.09-3.428
						c-0.117-1.499-1.196-2.819-1.309-2.942c-0.221-0.012,1.564,0.338,2.77,1.848c1.248,1.412,2.008,3.199,2.104,3.582
						C216.902,114.38,216.984,120.844,217.393,120.779z"/>
				</g>
				<g>
					<path fill="#414042" d="M213.027,112.244c-1.001-0.227-3.839-4.904-3.988-5.49c-0.129-0.331,0.116-1.662-0.08-2.967
						c-0.103-1.371-0.951-2.598-0.992-2.727c-0.152-0.021,1.256,0.389,2.415,1.577c1.248,1.14,2.014,2.769,2.107,3.101
						C212.586,106.643,212.686,112.239,213.027,112.244z"/>
				</g>
				<g>
					<path fill="#414042" d="M201.937,102.227c-0.448-0.87-3.589-3.455-4.047-3.713c-0.102-0.414-1.431-4.627-1.92-4.733
						c-0.151-0.368,4.558,1.746,4.783,2.551C201.445,96.803,202.278,102.253,201.937,102.227z"/>
				</g>
				<g>
					<path fill="#414042" d="M198.468,100.339c-0.565-0.491-3.008-2.169-3.308-2.387c-0.156-0.236,0.126-3.708-0.052-3.865
						c-0.084-0.185,2.963,1.581,3.156,2.044C198.633,96.507,198.596,100.395,198.468,100.339z"/>
				</g>
				<g>
					<path fill="#414042" d="M204.786,94.619c-0.836-0.377-4.837-1.157-5.244-1.012c-0.239-0.039-0.863-0.871-1.845-1.369
						c-0.965-0.564-2.278-0.41-2.387-0.404c-0.065,0.153,0.659-0.98,2.09-1.396c1.396-0.54,3.031-0.351,3.331-0.225
						C201.766,90.279,205.023,94.552,204.786,94.619z"/>
				</g>
				<g>
					<path fill="#414042" d="M194.231,91.784c-0.911-0.908-5.49-1.16-6.056-0.91c-0.347-0.417-5.001-1.99-5.506-1.43
						c-0.103,0.121,0.904-0.96,2.406-1.481c1.474-0.613,3.248-0.732,3.621-0.647c0.391,0.016,2.14,0.807,3.47,1.896
						C193.538,90.349,194.221,91.816,194.231,91.784z"/>
				</g>
				<g>
					<path fill="#414042" d="M183.937,91.79c-1.288-0.822-5.373,1.551-5.88,1.917c-0.551-0.018-5.648,0.134-5.889,0.792
						c-0.511-0.08,3.806-4.287,4.754-4.206c0.35-0.124,2.188-0.287,3.927,0.024C182.659,90.552,183.98,91.811,183.937,91.79z"/>
				</g>
				<g>
					<path fill="#414042" d="M166.361,102.198c-1,0.308-4.562,3.134-4.957,3.597c-0.513,0.025-5.231,1.002-5.38,1.619
						c-0.496,0.073,2.744-4.734,3.686-4.797C160.362,101.953,166.434,101.856,166.361,102.198z"/>
				</g>
				<g>
					<path fill="#414042" d="M155.562,107.514c-0.271,0.889,0.781,3.676,1.039,3.85c-0.213,0.086-1.359,3.25-0.88,3.617
						c-0.03,0.473-3.044-2.594-2.719-3.42C152.629,110.754,155.327,107.161,155.562,107.514z"/>
				</g>
				<g>
					<path fill="#414042" d="M164.634,115.896c0.562,0.649,3.223,3.959,3.576,4.288c0.155,0.225,0.076,1.338,0.303,2.466
						c0.191,1.092,1.136,2.039,1.255,2.093c0.161-0.015-1.229,0.106-2.471-0.733c-1.235-0.771-2.188-1.965-2.325-2.249
						C164.49,121.08,164.539,115.846,164.634,115.896z"/>
				</g>
				<g>
					<path fill="#414042" d="M177.873,124.168c1.198,1.197,5.522-1.125,6.238-1.369c0.622-0.129,6.039,0.932,6.215,0.988
						c0.233-0.133-4.728,2.451-5.521,2.549c-0.356,0.049-2.132,0.033-3.872-0.357C179.102,125.773,177.729,124.221,177.873,124.168z
						"/>
				</g>
				<g>
					<path fill="#414042" d="M193.035,120.293c0.186-0.988,4.475-0.908,4.984-0.066c0.993,0.486,0.37,4.857-0.006,4.668
						c0.151-0.164-2.153-2.212-2.527-2.1C195.626,122.39,193.424,119.999,193.035,120.293z"/>
				</g>
				<g>
					<path fill="#414042" d="M182.981,128.979c1.21,0.337,4.771-2.062,5.264-2.415c0.488-0.076,5.297,0.082,5.542-0.256
						c0.335-0.013-3.561,3.598-4.352,3.654c-0.308,0.11-1.963,0.254-3.535,0.052C184.269,129.854,182.952,128.963,182.981,128.979z"
						/>
				</g>
				<g>
					<path fill="#414042" d="M202.232,136.385c0.548,1.453,4.009,1.03,4.46,0.81c0.276,0.147,4.005,2.305,4.292,2.205
						c0.26,0.055-4.035,1.661-4.787,1.361c-0.274-0.035-1.736-0.607-2.856-1.707C202.119,137.857,202.267,136.313,202.232,136.385z"
						/>
				</g>
				<g>
					<path fill="#414042" d="M211.527,140.821c0.411,0.5,2.174,2.056,2.336,2.173c0.03,0.076-1.337,2.585-1.157,2.805
						c0.034,0.214-2.29-1.454-2.331-1.918C210.178,143.454,211.45,140.718,211.527,140.821z"/>
				</g>
				<g>
					<path fill="#414042" d="M218.959,158.823c0.434,1.325,4.787,4.05,5.54,4.058c0.213,0.582,4.379,4.267,5.03,4.037
						c0.384,0.415-6.353,0.062-7.001-1.024c-0.387-0.202-1.81-1.802-2.668-3.518C219.021,160.576,218.992,158.797,218.959,158.823z"
						/>
				</g>
				<g>
					<path fill="#414042" d="M156.194,107c-0.281,0.169-1.146,0.487-1.551,1.015c-0.378,0.604-0.177,1.003-0.188,1.099
						c0.068-0.439-2.722,0.891-2.692,1.301c-0.168,0.301-0.839-3.146,0.087-3.781c0.091-0.246,1.599-0.879,2.688-0.554
						C155.646,106.348,156.166,107.053,156.194,107z"/>
				</g>
				<g>
					<path fill="#414042" d="M150.491,108.656c0.545,1.306,4.489,7.072,5.41,7.445c0.123,0.824,4.313,6.87,4.821,7.012
						c0.288,0.403-7.141-3.326-7.623-4.753c-0.396-0.394-1.528-2.87-2.008-5.198C150.583,110.826,150.534,108.654,150.491,108.656z"
						/>
				</g>
				<g>
					<path fill="#414042" d="M167.227,98.489c-1.21,0.278-8.131,0.327-8.97,0.592c-0.462,0.034-2.188-0.683-3.886-0.545
						c-1.803,0.021-3.043,1.894-3.056,2.046c0.018,0.299-0.17-2.096,2.015-3.563c2.025-1.449,4.513-1.525,4.992-1.54
						C159.615,95.276,167.289,98.576,167.227,98.489z"/>
				</g>
			</g>
		</g>
	</g>
</g>
</svg>
