<?xml version="1.0" encoding="utf-8"?>
<!-- Generator: Adobe Illustrator 15.0.0, SVG Export Plug-In . SVG Version: 6.00 Build 0)  -->
<!DOCTYPE svg PUBLIC "-//W3C//DTD SVG 1.1//EN" "http://www.w3.org/Graphics/SVG/1.1/DTD/svg11.dtd">
<svg version="1.1" xmlns="http://www.w3.org/2000/svg" xmlns:xlink="http://www.w3.org/1999/xlink" x="0px" y="0px" width="300px"
	 height="300px" viewBox="0 0 300 300" enable-background="new 0 0 300 300" xml:space="preserve">
<g id="Layer_13">
	<g id="EUvz30_1_">
		
	</g>
</g>
<g id="natural">
	<g>
		<g>
			<g>
				<path fill="#414042" d="M144.273,108.276c-1.504-2.732-16.354-6.339-17.929-3.401c-0.928,0.436-5.026,1.889-8.111,4.526
					c-3.274,2.558-4.453,6.626-4.476,6.954c-0.033,0.444,0.198-3.875,3.302-7.256c2.909-3.449,7.249-5.61,8.219-6.053
					c0.487-0.205,2.006-0.863,4.166-1.008c2.214-0.19,4.672,0.721,6.872,1.465C141.082,104.786,144.343,108.314,144.273,108.276z"/>
			</g>
			<g>
				<path fill="#414042" d="M118.055,137.348c-0.126,0.862-2.081,3.587-5.272,4.528c-3.083,1.053-6.25,1.02-7.066,1.107
					c-0.793-0.015-4.043-0.215-6.898-1.478c-3.298-1.164-3.517-4.549-3.347-4.644c-0.071-0.323,0.252,2.843,3.313,3.508
					c2.759,0.792,6.046,0.471,6.755,0.509c0.74-0.08,4.308,0.491,7.406-0.242C116.297,140.129,118.1,137.323,118.055,137.348z"/>
			</g>
			<g>
				<path fill="#414042" d="M146.492,103.221c-0.031-0.77-0.493-2.652-2.359-3.463c-1.769-0.828-4.169-0.968-6.468-0.805
					c-4.919,0.346-8.508,2.23-8.692,3.291c-0.823,0.582-3.931,3.822-5.63,8.14c-1.868,4.174-2.394,8.736-2.402,9.129
					c0.062,0.417-0.719-4.069,0.165-9.015c0.596-4.975,3.499-10.113,4.635-10.956c0.232-0.354,2.16-2.273,4.731-2.641
					c2.436-0.555,5.326-0.573,8.107-0.171c2.75,0.392,5.504,1.396,6.996,3.074C147.045,101.666,146.378,103.296,146.492,103.221z"/>
			</g>
			<g>
				<path fill="#414042" d="M128.213,104.332c-1.09-0.029-5.447-0.973-8.821,0.99c-3.311,1.918-4.762,5.828-5.354,6.666
					c-0.519,0.859-2.625,4.208-4.037,7.78c-1.491,3.531-2.222,7.179-2.282,7.501c-0.021,0.336,0.129-3.357,1.112-7.278
					c0.882-3.943,2.738-7.978,3.256-8.828c0.557-0.655,2.769-5.437,7.435-7.165C124.175,102.584,128.233,104.568,128.213,104.332z"
					/>
			</g>
			<g>
				<path fill="#414042" d="M119.107,111.17c-1.296,0.762-4.472,4.309-7.643,7.986c-3.14,4.075-8.81,5.004-10.009,4.907
					c-1.271,0.135-6.398-0.021-10.756-1.973c-4.651-1.735-6.728-6.017-6.726-6.331c-0.242-0.389,1.871,3.753,6.484,5.108
					c4.387,1.565,9.502,1.2,10.574,1.117c1.194,0.062,6.556-0.06,10.195-4.192C114.891,114.059,119.03,111.031,119.107,111.17z"/>
			</g>
			<g>
				<path fill="#414042" d="M140.631,110.696c-0.313-0.944-1.771-2.888-4.447-3.603c-2.604-0.778-5.982-0.766-9.141-0.106
					c-6.304,1.742-12.167,4.757-13.723,5.59c-1.658,0.497-6.956,4.313-12.789,7.29c-2.976,1.303-5.954,2.11-7.889,3.579
					c-2.059,1.262-2.897,2.836-3.175,2.946c-0.53,0.427,3.361-4.91,9.766-7.089c2.88-1.459,5.564-3.497,7.743-5.238
					c2.425-1.605,4.259-2.82,5.004-3.177c1.484-0.73,8.546-4.025,15.959-5.182c3.712-0.334,7.429,0.217,9.812,1.613
					C140.224,108.719,140.598,110.789,140.631,110.696z"/>
			</g>
			<g>
				<path fill="#414042" d="M110.706,118.354c-1.119-0.147-4.931-1.199-8.713-1.465c-3.868-0.324-7.123,1.369-7.926,1.885
					c-0.781,0.405-3.999,2.287-6.025,5.437c-2.068,3.044-3.696,6.249-3.863,6.505c-0.08,0.298,1.007-3.023,2.676-6.564
					c1.501-3.702,5.067-6.639,5.954-7.1c0.79-0.546,5.617-2.423,9.953-1.183C107.021,116.807,110.677,118.42,110.706,118.354z"/>
			</g>
			<g>
				<path fill="#414042" d="M145.495,107.199c-0.823,1.919,0.512,13.128-0.646,15.177c-0.058,0.96-1.995,4.18-4.687,6.024
					c-2.66,1.918-5.6,2.69-5.822,2.806c-0.274,0.081,2.515-1.116,4.777-3.329c2.382-2.145,3.596-5.237,3.669-5.938
					C143.825,120.919,144.635,107.07,145.495,107.199z"/>
			</g>
			<g>
				<path fill="#414042" d="M141.981,125.562c0.123,0.957,0.419,4.296-0.087,7.655c-0.275,3.436-2.248,6.56-2.987,7.292
					c-0.609,0.789-3.8,2.725-7.024,3.195c-3.178,0.599-6.204,0.824-6.473,0.927c-0.282,0.031,2.676-0.762,5.734-1.808
					c3.154-0.991,5.674-3.119,6.136-3.635c0.49-0.438,2.888-3.148,3.621-6.735C141.833,129.013,141.957,125.551,141.981,125.562z"/>
			</g>
			<g>
				<path fill="#414042" d="M125.133,144.668c-0.823,0.73-4.308,2.908-8.408,3.197c-4.014,0.462-8.007-0.07-9.093-0.191
					c-1.056-0.195-4.854-1.13-8.539-2.313c-3.993-1.095-5.662-4.74-5.782-4.896c-0.168-0.351,1.718,3.037,5.558,3.729
					c3.691,0.721,8.01,1.165,8.881,1.369c0.925,0.121,5.324,1.226,9.539,1.14C121.612,146.883,125.144,144.626,125.133,144.668z"/>
			</g>
			<g>
				<path fill="#414042" d="M131.666,136.829c0.118,1.004-0.515,5.475-4.343,7.597c-3.338,2.272-7.435,3.162-8.555,3.271
					c-1.005,0.184-5.492,0.069-8.728-2.312c-3.307-2.28-4.481-5.867-4.653-6.073c-0.105-0.37,1.473,3.053,4.749,4.896
					c3.236,1.956,7.366,1.53,8.197,1.413c0.847-0.023,5.276-0.434,8.946-2.492C131.184,141.258,131.634,136.693,131.666,136.829z"/>
			</g>
			<g>
				<path fill="#414042" d="M94.14,138.465c-0.323,0.686-2.874,2.324-5.84,1.861c-2.868-0.204-5.515-1.533-6.208-1.98
					c-0.677-0.407-2.913-2.638-3.532-5.407c-0.682-2.699-0.171-5.201-0.225-5.414c0.04-0.247,0.072,2.326,1.09,4.698
					c0.996,2.402,3.269,4.042,3.747,4.307c0.426,0.343,2.916,2.15,5.747,2.743C91.837,140.211,94.193,138.499,94.14,138.465z"/>
			</g>
			<g>
				<path fill="#414042" d="M84.148,132.561c-0.859,0.194-4.396,0.5-7.372-1.422c-3.035-1.675-4.979-4.886-5.321-5.647
					c-0.425-0.792-1.607-4.054-1.79-7.32c-0.473-3.415,1.411-6.009,1.599-6.089c0.132-0.252-1.592,2.284-0.613,5.49
					c0.619,3.092,2.273,6.144,2.593,6.807c0.287,0.692,1.735,4.099,4.588,6.128C80.643,132.641,84.189,132.553,84.148,132.561z"/>
			</g>
			<g>
				<path fill="#414042" d="M78.632,122.841c-0.819,1.033-5.46,0.651-8.114-2.807c-2.955-2.911-3.99-7.376-4.005-8.404
					c-0.126-1.021-0.405-5.263,0.943-9.023c1.155-3.966,4.594-5.881,4.741-6.069c0.356-0.169-2.813,2.025-3.586,5.836
					c-0.898,3.695-0.125,7.855-0.049,8.76c0.027,0.977,0.378,5.32,3.239,8.657C74.304,123.677,78.78,123.194,78.632,122.841z"/>
			</g>
			<g>
				<path fill="#414042" d="M78.112,119.03c-1.018-1.349-4.082-6.541-5.143-12.481c-1.387-5.936,0.629-12.185,1.803-13.543
					c0.459-0.7,1.58-2.349,3.864-3.771c2.436-1.662,6.195-0.54,8.138,1.593c2.068,1.962,3.666,4.78,2.906,6.928
					c-0.587,2.04-1.724,3.095-1.777,3.326c-0.56,0.761,4.199-4.969-1.261-8.916c-1.996-1.95-4.959-2.857-6.726-1.612
					c-1.793,1.088-2.828,2.844-3.203,3.288c-0.97,0.854-3.7,7.038-2.463,13.472C75.028,113.662,78.132,119.063,78.112,119.03z"/>
			</g>
			<g>
				<path fill="#414042" d="M134.705,111.342c0.752,0.396,4.314,1.13,5.973,4.473c1.452,3.604-1.129,7.02-1.606,7.58
					c-0.782,2.185-11.314,7.181-11.934,6.838c-0.159,0.714,9.889-6.347,10.186-8.017c0.38-0.442,3.337-3.359,2.091-6.448
					C138.145,112.717,134.51,111.432,134.705,111.342z"/>
			</g>
			<g>
				<path fill="#414042" d="M130.299,119.726c0.094,0.706,0.511,3.344-0.577,5.896c-1.057,2.59-3.609,4.202-4.268,4.475
					c-1.393,1.312-10.572,0.768-10.904,0.515c-0.345,0.268,9.186-1.315,9.896-2.366c0.499-0.186,3.16-1.177,4.447-3.519
					C130.316,122.476,130.23,119.681,130.299,119.726z"/>
			</g>
			<g>
				<path fill="#414042" d="M127.965,129.812c0.074,0.607-0.462,3.275-2.76,4.659c-2.082,1.488-4.595,2.04-5.255,2.152
					c-1.396,0.582-9.772-1.186-10.033-1.525c-0.371,0.234,8.615,0.009,9.607-0.538c0.536-0.051,3.238-0.168,5.438-1.253
					C127.306,132.301,127.979,129.774,127.965,129.812z"/>
			</g>
			<g>
				<path fill="#414042" d="M105.636,135.146c-0.203,1.43-6.468,2.496-7.4,2.122c-1.059,0.185-6.464-3.06-6.118-3.655
					c-0.493,0.419,5.508,1.805,6.328,1.562C99.149,135.732,105.865,136.035,105.636,135.146z"/>
			</g>
			<g>
				<path fill="#414042" d="M95.708,126.531c-1.027-0.167-6.639-0.073-7.405,0.166c-0.399,0.048-1.915-0.222-3.409,0.025
					c-1.494,0.267-2.548,1.571-2.665,1.669c0.019,0.242,0.36-1.552,2.015-2.511c1.544-0.995,3.492-1.251,3.902-1.273
					C89.132,124.292,95.803,126.355,95.708,126.531z"/>
			</g>
			<g>
				<path fill="#414042" d="M91.128,131.788c-0.779,0.336-3.806,0.973-6.883,0.469c-3.074-0.341-5.998-1.854-6.669-2.55
					c-1.148-0.516-2.319-3.683-2.556-6.623c-0.41-3.135,1.307-5.504,1.5-5.547c0.09-0.236-1.37,2.085-0.505,4.968
					c0.593,2.781,2.328,5.482,2.807,5.503c0.314,0.508,3.002,2.456,6.143,3.238C88.052,132.226,91.139,131.792,91.128,131.788z"/>
			</g>
			<g>
				<path fill="#414042" d="M67.937,111.575c-0.748-0.269-2.496-2.714-2.83-5.624c-0.5-2.818-0.249-5.752-0.063-6.561
					c0.231-0.643,0.943-3.659,3.144-5.662c2.257-1.891,4.956-1.87,5.115-2.039c0.311,0.019-2.392,0.614-4.082,2.517
					c-1.675,1.847-1.85,4.942-2.093,5.515c-0.168,0.59-0.967,3.585-0.844,6.574C66.17,109.373,67.859,111.644,67.937,111.575z"/>
			</g>
			<g>
				<path fill="#414042" d="M140.939,104.333c3.344-0.231,8.973,12.747,8.665,15.118c0.177,1.058,0.079,5.129-0.984,8.788
					c-0.864,3.79-3.256,6.538-3.457,6.712c-0.195,0.262,1.965-2.557,2.312-6.396c0.603-3.728,0.18-7.786,0.069-8.649
					c0.042-0.859-0.656-5.19-2.102-9.135C144.179,106.643,141.022,104.197,140.939,104.333z"/>
			</g>
			<g>
				<path fill="#414042" d="M143.931,124.394c0.4,0.929,1.003,6.914,0.37,8.003c0.126,1.47-5.062,5.235-5.347,5.069
					c0.072,0.279,3.681-4.767,3.324-5.66C142.897,131.348,144.059,124.456,143.931,124.394z"/>
			</g>
			<g>
				<path d="M145.939,104.146c-0.954-0.04-4.195-0.881-7.358-1.587c-3.164-0.751-6.311-0.327-7.104-0.228
					c-0.736,0.062-3.909,0.209-5.939,2.62c-2.097,2.274-2.724,5.447-2.852,5.644c0.03,0.294,0.074-2.791,1.696-5.881
					c1.669-3.305,5.889-4.463,6.653-4.459c0.854-0.104,4.953-0.109,8.378,1.367C142.798,102.996,145.91,104.191,145.939,104.146z"/>
			</g>
			<g>
				<path d="M143.434,113.291c-0.89-0.094-3.864-1.139-6.771-2.01c-2.885-0.875-5.9-0.719-6.459-0.375
					c-0.711-0.141-3.424,0.627-4.183,3.613c-0.893,2.746-0.342,5.708-0.348,5.932c0.142,0.242-1.028-2.426-0.79-5.691
					c-0.143-3.568,3.837-6.252,4.717-5.874c0.89-0.48,4.841-0.075,7.94,1.509C140.595,111.967,143.399,113.329,143.434,113.291z"/>
			</g>
			<g>
				<path d="M132.926,116.53c0.159,0.433,0.884,2.045,0.566,3.929c-0.423,1.808-1.677,3.385-2.087,3.646
					c-0.701,1.093-6.778,2.163-7.001,2.102c-0.164,0.192,5.355-2.946,5.592-3.666c0.339-0.176,1.736-1.199,2.49-2.697
					C133.187,118.312,132.827,116.518,132.926,116.53z"/>
			</g>
			<g>
				<path d="M124.256,119.903c-0.665,0.365-3.406,0.873-5.83,1.591c-2.354,0.839-3.398,3.306-3.748,3.788
					c-0.314,0.587-1.886,2.636-2.891,4.945c-1.054,2.289-1.321,4.778-1.398,4.991c0.105,0.24-0.326-2.251,0.285-4.924
					c0.46-2.703,1.789-5.39,2.125-5.952c0.293-0.491,2.371-3.676,5.782-4.049C121.627,120.118,124.225,119.973,124.256,119.903z"/>
			</g>
			<g>
				<path d="M140.817,113.889c0.521,0.856,2.241,3.992,2.762,7.588c0.711,3.576-0.437,7.378-1.093,8.224
					c-0.223,0.989-3.05,4.079-6.533,4.854c-3.344,0.822-6.525,1.121-6.807,1.261c-0.309,0.027,2.835-0.862,5.977-2.102
					c3.298-1.212,5.175-4.064,5.432-4.864c0.569-0.509,2.163-4.042,1.835-7.833C142.284,117.26,140.769,113.886,140.817,113.889z"/>
			</g>
			<g>
				<path d="M133.42,130.242c-0.392,1.721-5.813,9.963-7.734,10.88c-1.538,1.963-11.891,1.089-12.241,0.836
					c-0.396,0.259,10.44-1.04,11-2.53C125.683,139.4,133.753,130.438,133.42,130.242z"/>
			</g>
			<g>
				<path d="M118.778,118.109c-1.398-0.25-6.852,3.22-7.252,4.308c-1.057,0.341-4.604,5.936-4.34,6.48
					c-0.481,0.219,2.251-6.759,3.512-7.131c0.29-0.378,2.098-1.834,4.053-2.722C116.757,118.2,118.793,118.157,118.778,118.109z"/>
			</g>
			<g>
				<path d="M112.785,119.529c-0.713,0.189-3.298,0.377-5.743,0.933c-2.55,0.459-4.154,2.309-4.647,2.831
					c-0.443,0.452-2.359,2.14-3.531,4.247c-1.548,2.136-0.357,4.614-0.009,4.607c0.134,0.355-1.958-1.846-0.62-4.499
					c0.942-2.461,2.875-4.554,3.31-4.99c0.32-0.438,2.828-2.709,5.804-2.817C110.172,119.559,112.782,119.574,112.785,119.529z"/>
			</g>
			<g>
				<path d="M120.416,124.994c0.203,0.912-0.225,4.271-2.082,7.06c-1.706,3.229-5.801,3.447-6.521,3.393
					c-1.828,0.647-13.091-2.253-12.957-3.59c-0.274-0.084,2.186,1.561,5.397,1.997c3.135,0.617,6.584,0.589,7.334,0.551
					c0.739,0.033,4.714,0.238,6.564-3.108C120.299,128.444,120.456,124.953,120.416,124.994z"/>
			</g>
			<g>
				<path d="M109.134,137.502c-1.871,1.922-15.073,0.828-16.891-0.862c-0.919-0.408-4.217-2.63-6.223-5.711
					c-2.151-2.968-3.077-6.327-3.212-6.586c-0.068-0.318,1.029,2.968,3.32,5.861c2.193,3.005,5.611,5.029,6.379,5.401
					c0.725,0.448,4.695,2.028,8.806,2.369C105.399,138.624,109.171,137.576,109.134,137.502z"/>
			</g>
			<g>
				<path d="M85.29,128.252c0.08,0.556-1.538,1.734-3.209,0.826c-1.546-0.636-2.771-1.8-3.079-2.131
					c-0.289-0.316-1.3-1.703-1.681-3.262c-0.524-1.602,0.2-2.992,0.271-3.051c0.048-0.133-0.568,1.245,0.162,2.665
					c0.562,1.411,1.742,2.61,1.969,2.885c0.24,0.254,1.353,1.708,2.831,2.487C84.171,129.75,85.393,128.271,85.29,128.252z"/>
			</g>
			<g>
				<path d="M84.768,121.264c-0.784-0.017-3.502-0.999-5.454-3.085c-2.021-1.936-3.392-4.534-3.657-5.2
					c-0.314-0.617-1.455-3.534-0.603-6.245c1.093-2.644,3.658-3.683,3.618-4.039c0.368-0.06-2.005,1.506-2.986,3.826
					c-0.704,2.606,0.553,5.327,0.858,5.86c0.249,0.651,1.418,3.517,3.492,5.727C81.975,120.471,84.771,121.313,84.768,121.264z"/>
			</g>
			<g>
				<path d="M82.58,119.848c-1.471-0.394-6.662-2.969-9.295-8.002c-2.853-4.813-3.023-10.602-2.891-12.078
					c-0.003-1.067,0.269-8.083,5.854-10.241c2.576-1.243,5.295-0.012,6.792,1.128c1.587,1.152,2.535,2.125,2.724,2.25
					c0.335,0.828-3.328-4.381-8.641-3.196c-5.48,1.989-5.696,8.701-5.663,9.787c-0.153,1.242-0.38,7.648,2.762,12.824
					C77.039,117.751,82.654,119.89,82.58,119.848z"/>
			</g>
			<g>
				<path d="M75.447,117.482c-3.694-0.328-11.417-17.128-10.58-20.315c-0.05-1.281,0.454-7.136,4.617-10.423
					c4.728-2.473,9.54,0.194,9.863-0.105c0.505,0.422-4.397-1.745-8.992,0.198c-4.22,2.69-4.379,9.185-4.427,10.018
					c-0.285,1.144,0.949,6.96,3.325,12.055C71.528,114.024,75.088,118.262,75.447,117.482z"/>
			</g>
			<g>
				<path d="M74.594,120.519c-1.409-1.43-7.188-11.59-7.688-13.473c-0.296-0.835-1.512-4.108-1.732-7.429
					c-0.735-3.681,2.284-5.776,2.576-5.564c0.264-0.293-2.933,1.387-2.101,5.05c0.404,3.277,1.901,6.611,2.16,7.363
					C68.054,108.105,74.288,120.689,74.594,120.519z"/>
			</g>
			<g>
				<path d="M71.802,119.69c-1.661,1.399-7.007-4.293-7.189-5.472c-1.568-1.007-0.249-8.513,0.377-8.561
					c0.08-0.154-0.539,1.626-0.548,3.631c-0.138,2.064,0.775,3.933,1.044,4.335c0.201,0.421,1.252,2.531,2.744,4.169
					C69.646,119.705,71.811,119.796,71.802,119.69z"/>
			</g>
			<g>
				<path d="M71.57,117.58c-0.269,1.235,1.931,7.214,2.658,7.961c0.234,0.412,0.976,2.087,2.095,3.473
					c1.122,1.391,2.745,2.118,2.878,2.215c0.201-0.021-1.615-0.335-3.052-1.664c-1.48-1.235-2.579-3.026-2.789-3.437
					C72.428,125.415,71.062,117.611,71.57,117.58z"/>
			</g>
			<g>
				<path d="M79.764,121.354c-0.27,0.832,1.598,3.36,2.202,3.424c0.174,0.446,2.955,2.299,3.235,2.202
					c0.153,0.206-3.564-0.731-3.86-1.361c-0.209-0.127-1.035-1.063-1.43-2.127C79.539,122.384,79.811,121.344,79.764,121.354z"/>
			</g>
			<g>
				<path d="M82.914,133.652c-0.033,0.763,0.71,3.81,3.472,4.61c2.453,1.005,5.189,0.893,5.903,0.925
					c1.361,0.402,10.822-0.224,11.23-0.702c0.529,0.252-9.697,2.243-11.104,1.758c-0.634-0.028-3.945-0.131-6.681-1.667
					C82.652,137.025,82.914,133.481,82.914,133.652z"/>
			</g>
			<g>
				<path d="M91.58,140.75c-0.021,0.639,0.938,2.815,3.124,3.062c1.972,0.428,4.025,0.13,4.581,0.095
					c1.043,0.118,8.304-0.581,8.637-0.696c0.358-0.033-7.363,1.888-8.45,1.736c-0.493,0.003-3.01,0.183-5.266-0.705
					C91.601,143.444,91.537,140.595,91.58,140.75z"/>
			</g>
			<g>
				<path d="M104.938,144.519c1.646,2.403,13.131,1.044,14.572-0.009c0.671-0.171,4.084-1.151,7.167-1.78
					c3.12-0.66,5.733-2.422,5.941-2.606c0.216-0.214-1.948,2.136-5.142,3.442c-3.221,1.277-6.181,2.62-7.189,2.901
					c-0.832,0.301-4.807,0.946-8.552,0.526C107.862,146.893,104.832,144.59,104.938,144.519z"/>
			</g>
			<g>
				<path d="M119.59,147.938c1.301,0.041,7.332-2.779,7.816-3.891c1.03-0.296,5.304-5.672,5.332-6.082
					c0.328-0.23-3.373,6.428-4.564,6.801c-0.335,0.358-2.332,1.696-4.434,2.351C121.643,147.814,119.574,147.875,119.59,147.938z"/>
			</g>
			<g>
				<path d="M134.441,137.438c0.014,0.518,0.236,2.331-0.177,4.154c-0.442,1.805-1.584,3.406-1.985,3.743
					c-0.521,1.273-6.773,2.991-7.049,2.873c-0.191,0.253,6.027-2.537,6.233-3.556c0.346-0.218,1.709-1.677,2.322-3.509
					C134.462,139.336,134.348,137.421,134.441,137.438z"/>
			</g>
			<g>
				<path d="M117.06,118.426c-1.778,0.013-12.228-0.689-13.758,0.044c-0.687,0.14-3.902,0.413-5.619,2.824
					c-1.792,2.321-1.575,5.391-1.688,5.571c0.105,0.281-0.392-2.613,0.987-5.51c1.56-2.988,5.306-3.855,5.965-3.885
					C104.552,116.6,117.082,118.504,117.06,118.426z"/>
			</g>
			<g>
				<path d="M99.164,121.936c-0.201,0.435-0.733,2.734-0.7,3.102c-0.143,0.285-0.964,2.615-0.896,2.791
					c-0.068,0.146-0.332-2.634-0.132-3.006C97.386,124.382,99.086,121.856,99.164,121.936z"/>
			</g>
			<g>
				<path d="M93.187,125.087c-0.465-1.185-5.426-2.33-6.211-1.982c-0.365,0.018-1.795-0.135-3.13,0.314
					c-1.355,0.454-2.071,1.771-2.179,1.843c0.039,0.221,0.308-1.382,1.757-2.196c1.337-0.894,3.104-1.011,3.473-1.006
					c0.382-0.038,2.213,0.236,3.756,0.957C92.223,123.773,93.178,125.111,93.187,125.087z"/>
			</g>
			<g>
				<path d="M96.434,128.67c-0.694-0.099-4.636-0.195-5.209-0.06c-0.285,0.039-1.371-0.097-2.409,0.163
					c-1.027,0.342-1.419,1.476-1.484,1.553c0.083,0.184-0.057-1.163,1.101-1.918c1.065-0.703,2.42-0.815,2.7-0.842
					C91.783,127.387,96.473,128.585,96.434,128.67z"/>
			</g>
			<g>
				<path d="M95.908,132.611c-0.62,0.692-5.436,0.925-6.199,0.37c-0.351-0.121-1.649-0.799-2.574-1.79
					c-0.946-1.005-1.254-2.229-1.338-2.296c-0.41,0.172,3.305,3.356,4.186,3.062C90.448,132.614,95.883,133.026,95.908,132.611z"/>
			</g>
			<g>
				<path d="M110.053,136.73c-0.103,0.67-3.107,1.828-3.663,1.698c-0.568,0.221-3.5-1.145-3.457-1.394
					c-0.149,0.152,2.992,0.581,3.396,0.34C106.743,137.639,110.14,137.078,110.053,136.73z"/>
			</g>
			<g>
				<path d="M118.422,111.82c-0.896,0.386-4.562,3.939-4.579,4.84c-0.76,0.402-2.11,5.473-1.934,5.801
					c-0.208,0.293,0.057-5.627,0.981-6.242C112.914,115.051,118.322,111.561,118.422,111.82z"/>
			</g>
			<g>
				<path d="M142.039,109.653c-0.375-1.345-3.865-3.043-7.682-3.458c-3.712-1.105-7.306-1.185-8.113-0.432
					c-0.797,0.273-4.177,2.18-6.325,5.072c-2.476,2.858-1.822,6.689-1.708,6.915c0.104,0.409-1.261-3.315,0.956-6.778
					c2.01-3.344,5.508-5.729,6.446-6.088c0.873-0.982,5.687-0.584,9.477,0.921c1.979,0.519,4.025,1.017,5.274,1.964
					C141.61,108.711,141.993,109.698,142.039,109.653z"/>
			</g>
			<g>
				<path d="M145.462,109.264c0.039-0.758-0.128-2.354-0.701-4.285c-0.613-1.875-1.316-4.482-3.709-5.007
					c-4.588-1.311-9.4-0.757-10.629-0.517c-1.126,0.211-6.21,0.354-9.694,3.34c-3.795,3.139-2.16,8.539-2.143,8.68
					c0.419,0.584-2.457-4.266,0.887-8.885c3.4-4.25,9.317-4.964,10.38-5.185c1.185-0.175,7.213-0.644,12.393,1.884
					C146.797,103.597,145.236,109.431,145.462,109.264z"/>
			</g>
			<g>
				<path d="M145.471,111.748c-0.53,2.254,3.885,14.062,2.864,16.433c0.052,1.005-1.133,4.761-3.565,7.381
					c-2.28,2.758-5.315,4.285-5.534,4.456c-0.306,0.116,2.675-1.508,4.811-4.395c2.304-2.773,3.243-6.533,3.224-7.355
					C148.413,126.712,144.475,111.852,145.471,111.748z"/>
			</g>
			<g>
				<path d="M141.532,136.022c0.016,0.514,0.242,2.312-0.134,4.128c-0.408,1.798-1.518,3.419-1.929,3.744
					c-0.526,1.258-6.725,2.99-6.995,2.895c-0.193,0.237,5.972-2.581,6.177-3.572c0.354-0.206,1.678-1.676,2.262-3.503
					C141.553,137.906,141.443,136.005,141.532,136.022z"/>
			</g>
			<g>
				<path d="M137.56,117.805c-1.367,0.193-6.034,1.123-10.216,3.149c-4.265,1.884-7.731,4.856-8.569,5.732
					c-0.808,0.736-4.539,3.726-5.31,8.137c-0.896,4.402,1.464,8.525,1.571,8.794c0.354,0.336-2.705-3.186-2.688-8.233
					c-0.06-5.156,3.978-9.396,4.796-10.057c0.796-0.896,5.466-4.204,10.499-5.711C132.615,117.911,137.575,117.789,137.56,117.805z"
					/>
			</g>
			<g>
				<path fill="#414042" d="M80.538,120.11c-2.023,0.247-9.163-7.138-9.635-8.836c-0.374-0.659-1.542-3.515-1.613-6.414
					c-0.213-3.112,2.021-4.989,2.149-5.028c0.173-0.201-1.766,1.773-1.116,4.533c0.428,2.642,2.06,5.2,2.354,5.767
					c0.274,0.589,1.683,3.495,3.583,5.925C78.042,118.632,80.512,120.177,80.538,120.11z"/>
			</g>
			<g>
				<path fill="#414042" d="M130.268,114.651c-0.59,0.273-2.807,1.221-3.734,3.132c-0.973,1.846-0.907,3.935-0.91,4.49
					c-0.568,0.932-0.149,8.663,0.405,9.009c-0.242,0.557-3.19-7.666-2.512-9.031c-0.003-0.521,0.451-3.454,2.329-5.447
					C127.748,114.762,130.335,114.697,130.268,114.651z"/>
			</g>
			<g>
				<path fill="#414042" d="M119.221,123.215c-1.837-0.453-4.404,4.535-4.276,5.488c-0.502,0.587-2.873,5.95-2.559,6.401
					c-0.363,0.309-0.108-6.321,0.576-7.104c0.144-0.387,1.122-2.262,2.671-3.57C117.182,122.941,119.298,123.194,119.221,123.215z"
					/>
			</g>
			<g>
				<path fill="#414042" d="M107.548,128.768c-0.132,0.486-1.201,2.515-3.4,3.116c-2.065,0.72-4.253,0.541-4.813,0.46
					c-1.283,0.064-7.468-3.632-7.68-3.854c-0.308-0.008,7.05,1.898,7.94,1.764c0.439,0.1,2.593,0.735,4.609,0.462
					C106.279,130.504,107.562,128.744,107.548,128.768z"/>
			</g>
			<g>
				<path fill="#414042" d="M74.552,118.944c-0.559,0.336-3.289,1.479-5.914,0.15c-2.59-1.138-4.305-3.513-4.658-4.161
					c-0.422-0.594-1.397-3.293-1.358-5.904c-0.103-2.655,1.024-4.832,1.093-4.99c0.083-0.205-0.665,2.063-0.071,4.512
					c0.419,2.451,1.771,4.756,2.094,5.219c0.217,0.516,1.521,3.117,3.789,4.539C71.837,119.784,74.597,118.915,74.552,118.944z"/>
			</g>
			<g>
				<path fill="#414042" d="M136.726,134.53c0.122,0.6,0.484,2.722,0.212,4.946c-0.359,2.183-1.387,4.29-1.79,4.792
					c-0.344,0.498-2.146,2.097-4.208,2.754c-2.017,0.78-4.017,0.598-4.154,0.725c-0.211-0.075,1.758-0.369,3.4-1.549
					c1.758-1.007,2.948-2.766,3.219-3.128c0.329-0.314,1.736-2.1,2.493-4.218C136.663,136.744,136.655,134.521,136.726,134.53z"/>
			</g>
			<g>
				<path fill="#414042" d="M155.76,108.576c0.691-2.903,15.686-8.855,18.461-5.638c1.09,0.454,5.099,2.577,7.921,5.843
					c2.99,3.23,3.415,7.365,3.451,7.643c0.037,0.402-0.642-3.656-3.813-6.467c-2.95-2.896-7.271-4.586-8.136-4.98
					c-0.88-0.645-5.161-2.067-9.846-0.27C159.115,105.526,155.744,108.576,155.76,108.576z"/>
			</g>
			<g>
				<path fill="#414042" d="M181.334,137.531c0.445,0.875,2.852,3.046,5.896,3.362c2.906,0.458,5.941-0.051,6.801-0.01
					c0.782-0.057,3.829,0.364,6.624-0.207c3.13-0.295,4.24-3.548,4.043-3.801c0.102-0.484,0.228,3.346-3.27,4.664
					c-3.013,1.325-6.465,1.394-7.194,1.439c-0.701-0.09-4.382,0.093-7.789-1.14C182.851,140.816,181.248,137.458,181.334,137.531z"
					/>
			</g>
			<g>
				<path fill="#414042" d="M154.082,103.121c-0.173-0.539-0.389-2.289,1.324-3.694c1.612-1.336,4.113-2.112,6.602-2.502
					c4.742-1.002,10.814,0.528,11.771,2.376c1.286,0.874,3.895,5.827,4.325,10.625c0.691,4.794-0.138,9.191-0.115,9.563
					c-0.051,0.41-0.155-4.026-1.78-8.384c-1.417-4.49-4.47-8.144-5.249-8.678c-0.515-0.486-0.827-1.387-2.709-1.996
					c-1.789-0.709-4.395-1.16-6.885-1.191c-2.493-0.062-4.941,0.48-6.219,1.514C153.914,101.835,154.16,103.166,154.082,103.121z"/>
			</g>
			<g>
				<path fill="#414042" d="M171.631,104.734c1.052-0.249,5.082-1.932,9.175-0.327c4.069,1.714,6.099,5.722,6.731,6.536
					c0.602,0.905,2.239,4.745,3.052,8.562c0.907,3.808,0.979,7.499,1.038,7.813c0.022,0.331-0.55-3.279-1.908-6.968
					c-1.264-3.731-3.402-7.364-3.882-8.156c-0.545-0.677-2.28-5.266-6.064-7.03C175.913,103.51,171.554,104.928,171.631,104.734z"/>
			</g>
			<g>
				<path fill="#414042" d="M180.438,111.525c1.344,0.453,5.058,3.666,8.551,6.894c3.507,3.508,8.1,3.57,9.446,3.552
					c1.177,0.077,5.939,0.566,10.324-0.699c4.594-0.979,7.381-4.928,7.395-5.335c0.275-0.451-1.556,4.192-6.385,6.101
					c-4.534,2.09-9.996,2.144-11.166,2.05c-0.604-0.061-2.315-0.14-4.577-0.791c-2.399-0.729-4.565-2.675-6.38-4.6
					C184.212,114.594,180.551,111.425,180.438,111.525z"/>
			</g>
			<g>
				<path fill="#414042" d="M159.516,110.832c0.158-0.889,1.335-2.929,3.989-3.924c2.577-1.039,6.017-1.337,9.383-0.922
					c6.648,1.252,12.817,3.875,14.51,4.726c1.79,0.516,7.01,5.029,12.226,8.374c2.712,1.532,5.734,2.717,7.483,4.366
					c1.911,1.456,2.567,3.07,2.843,3.172c0.398,0.34-3.386-4.362-9.967-6.186c-3.087-1.322-6.017-3.276-8.304-4.899
					c-2.33-1.342-4.185-2.463-4.884-2.79c-1.341-0.673-8.185-4.29-15.131-5.791c-3.489-0.527-7.079-0.199-9.335,0.954
					C159.991,109.053,159.551,110.906,159.516,110.832z"/>
			</g>
			<g>
				<path fill="#414042" d="M189.17,118.75c1.065-0.411,4.59-2.031,8.47-2.867c3.943-0.949,8.111,0.451,9.072,1.059
					c1.01,0.449,4.29,3.278,5.757,6.828c1.557,3.441,2.554,6.838,2.733,7.118c0.093,0.321-1.429-2.915-3.398-6.121
					c-1.854-3.378-5.206-5.498-5.917-5.9c-0.694-0.414-4.476-2.467-8.709-1.754C193.064,117.592,189.17,118.818,189.17,118.75z"/>
			</g>
			<g>
				<path fill="#414042" d="M153.866,107.32c1.311,1.634,1.963,13.161,3.048,14.438c0.079,0.778,1.104,3.692,3.26,5.986
					c2.095,2.291,4.854,3.736,5.088,3.845c0.281,0.076-2.705-0.708-5.432-2.747c-2.829-1.908-4.768-5.39-4.861-6.26
					C153.764,120.766,154.737,107.188,153.866,107.32z"/>
			</g>
			<g>
				<path fill="#414042" d="M157.359,125.562c0.151,0.965,0.474,4.324,1.491,7.429c0.823,3.224,2.95,5.535,3.508,6.062
					c0.484,0.556,2.745,2.691,5.769,3.817c2.926,1.189,5.876,2.07,6.121,2.163c0.263,0.029-2.708-0.333-5.989-1.003
					c-3.325-0.557-6.669-2.651-7.265-3.349c-0.709-0.592-3.079-4.188-3.376-7.976C157.078,129.017,157.39,125.56,157.359,125.562z"
					/>
			</g>
			<g>
				<path fill="#414042" d="M174.393,145.006c1.047,0.558,4.774,2.125,8.687,1.846c3.864-0.091,7.631-1.085,8.689-1.246
					c0.962-0.218,4.981-0.562,8.662-1.087c3.868-0.335,6.238-3.617,6.37-3.844c0.193-0.419-1.381,3.457-5.546,4.721
					c-3.869,1.199-7.914,2.011-8.894,2.235c-0.934,0.121-5.558,0.845-9.988,0.323C177.814,147.69,174.353,144.947,174.393,145.006z"
					/>
			</g>
			<g>
				<path fill="#414042" d="M167.686,136.88c0.152,1.095,1.488,5.281,5.249,6.664c3.478,1.699,7.268,2,8.262,2.064
					c0.915,0.103,4.747,0.666,8.076-0.977c3.391-1.535,5.314-4.911,5.462-5.136c0.087-0.383-1.035,3.294-4.429,5.763
					c-3.362,2.583-8.15,2.6-9.06,2.456c-0.988-0.025-5.767-0.944-9.438-3.523C167.645,141.589,167.731,136.668,167.686,136.88z"/>
			</g>
			<g>
				<path fill="#414042" d="M205.315,138.748c0.684,0.627,3.393,1.538,5.956,0.579c2.567-0.719,4.659-2.323,5.194-2.706
					c0.472-0.347,2.752-1.694,3.914-4c1.221-2.257,1.415-4.9,1.452-5.099c-0.052-0.232,0.391,2.288-0.311,5.107
					c-0.692,2.892-3.071,5.247-3.709,5.603c-0.575,0.455-3.611,2.078-6.796,2.282C207.662,141.109,205.183,138.752,205.315,138.748z
					"/>
			</g>
			<g>
				<path fill="#414042" d="M215.576,132.971c0.964-0.057,4.438-0.451,6.821-2.664c2.516-2.048,3.662-4.902,4.024-5.755
					c0.342-0.724,2.011-3.516,2.802-6.517c1.109-3.027-0.129-6.033-0.422-6.225c-0.169-0.347,2.18,2.363,1.55,5.924
					c-0.231,3.405-1.596,6.827-1.951,7.569c-0.282,0.717-2.387,4.402-5.802,6.265C219.197,133.548,215.513,132.947,215.576,132.971z
					"/>
			</g>
			<g>
				<path fill="#414042" d="M220.96,123.219c1.207,0.825,5.499-0.291,7.486-3.82c2.387-3.237,2.691-6.904,2.713-8.029
					c0.074-0.994,0.955-4.854,0.293-8.535c-0.407-3.852-3.451-6.439-3.654-6.632c-0.401-0.18,3.219,1.71,4.547,5.8
					c1.414,3.932,1.012,8.434,0.935,9.38c0.029,0.865-0.979,6.083-4.38,9.236c-1.547,1.638-3.549,2.896-5.256,3.029
					C221.943,123.818,220.96,123.156,220.96,123.219z"/>
			</g>
			<g>
				<path fill="#414042" d="M221.998,119.244c0.81-1.516,3.306-7.02,3.785-12.834c0.756-5.894-1.574-11.19-2.571-12.276
					c-0.362-0.554-1.353-2.15-3.002-3.413c-1.604-1.382-4.508-0.999-6.658,0.772c-2.145,1.64-3.976,4.052-3.487,6.266
					c0.355,2.122,1.389,3.325,1.442,3.554c0.175,0.174-0.69-0.717-1.534-2.639c-1.102-1.99,0.022-5.389,2.259-7.405
					c1.897-2.246,5.7-3.922,8.439-2.352c2.576,1.391,3.586,3.161,4.115,3.752c1.195,1.075,3.729,8.342,1.953,14.854
					C225.497,114.057,221.972,119.267,221.998,119.244z"/>
			</g>
			<g>
				<path fill="#414042" d="M164.884,110.966c-0.662,0.573-4.028,2.187-4.844,5.183c-0.665,2.959,1.775,5.366,2.277,5.924
					c0.394,1.648,9.301,8.773,10.157,8.544c0.283,0.788-10.992-4.977-11.653-7.054c-0.34-0.385-3.682-4.335-1.616-8.324
					C161.304,111.727,165.055,111.15,164.884,110.966z"/>
			</g>
			<g>
				<path fill="#414042" d="M169.045,119.717c0.153,0.733,0.433,3.425,1.877,5.412c1.407,2.014,3.665,2.836,4.254,3.06
					c0.773,1.001,9.521,3.09,10.027,2.837c0.49,0.268-9.478,0.401-10.747-0.859c-0.559-0.178-3.659-1.933-4.723-4.883
					C168.538,122.45,169.138,119.688,169.045,119.717z"/>
			</g>
			<g>
				<path fill="#414042" d="M171.382,129.881c0.213,0.7,1.396,3.008,3.664,3.705c2.101,0.868,4.425,0.896,5.044,0.955
					c1.062,0.465,9.38,1.322,9.828,0.96c0.473,0.229-8.684,1.724-9.961,1.142c-0.569-0.059-3.501-0.616-5.823-2.27
					C171.604,132.729,171.364,129.783,171.382,129.881z"/>
			</g>
			<g>
				<path fill="#414042" d="M193.841,135.449c0.995,1.129,6.587,0.109,7.374-0.258c0.793,0.108,6.621-0.435,6.741-1.313
					c0.639,0.427-5.349,3.621-6.328,3.375C200.775,137.871,193.445,136.422,193.841,135.449z"/>
			</g>
			<g>
				<path fill="#414042" d="M204.157,126.928c0.758-0.666,6.265-2.48,7.343-2.329c0.454,0,2.271,0.392,3.718,1.323
					c1.509,1.034,1.812,2.604,1.932,2.64c-0.025,0.192-0.733-1.19-2.197-1.558c-1.393-0.45-3.047-0.274-3.405-0.297
					C210.895,126.396,204.173,126.732,204.157,126.928z"/>
			</g>
			<g>
				<path fill="#414042" d="M208.535,132.188c0.91,0.091,3.968,0.087,6.744-0.92c2.835-0.869,5.098-2.616,5.534-3.153
					c0.567-0.031,2.226-2.499,3.064-5.186c1.035-2.723-0.029-5.511-0.335-5.672c-0.127-0.327,1.965,2.159,1.442,5.43
					c-0.228,3.101-1.638,6.339-2.648,6.887c-0.525,0.716-3.896,2.526-7.289,2.9C211.661,133.087,208.509,132.188,208.535,132.188z"
					/>
			</g>
			<g>
				<path fill="#414042" d="M232.076,111.898c2.354-1.193,1.427-10.836,0.597-12.018c-0.272-0.646-0.332-3.5-1.749-5.56
					c-1.501-2.105-4.225-2.909-4.358-3.028c-0.279,0.066,2.424,0.085,4.844,2.007c2.437,2.068,2.995,5.359,3.261,5.918
					c0.193,0.683,0.628,4.096,0.055,7.204C234.417,109.695,232.142,112.021,232.076,111.898z"/>
			</g>
			<g>
				<path fill="#414042" d="M158.656,103.955c-3.381,0.586-6.788,13.772-6.42,15.724c-0.114,0.936-0.651,4.726-0.242,8.396
					c0.182,3.726,2.032,6.919,2.293,7.149c0.219,0.303-2.441-2.455-3.234-6.411c-1.061-3.812-1.061-8.141-0.935-9.113
					c-0.028-1.029,1.149-5.542,3.04-9.43C154.866,106.119,158.591,103.771,158.656,103.955z"/>
			</g>
			<g>
				<path fill="#414042" d="M155.414,124.394c0.145,1.06,1.441,6.729,2.029,7.325c-0.291,0.856,2.57,5.972,3.11,6.073
					c0.108,0.496-5.238-3.907-5.056-5.287C154.733,131.553,155.284,124.328,155.414,124.394z"/>
			</g>
			<g>
				<path d="M153.917,104.549c0.938-0.324,3.892-1.709,6.977-2.965c3.123-1.318,6.622-1.428,7.609-1.34
					c0.842-0.041,4.801,1.082,6.425,4.195c1.708,2.89,1.58,6.014,1.736,6.232c-0.007,0.311-0.552-2.753-2.344-5.272
					c-1.839-2.618-5.185-3.001-5.854-3.058c-0.685-0.064-4.325-0.533-7.759,0.482C157.287,103.766,153.917,104.602,153.917,104.549z
					"/>
			</g>
			<g>
				<path d="M156.452,113.682c0.86-0.375,3.488-1.934,6.286-3.35c2.84-1.441,6.154-1.88,7.204-1.488
					c0.915-0.371,4.778,2.096,4.651,5.504c0.283,3.132-0.938,5.764-0.91,6.008c-0.13,0.266,0.578-2.572-0.052-5.412
					c-0.521-3.078-3.227-4.185-3.924-4.006c-0.487-0.37-3.883-0.496-7.027,0.625C159.557,112.706,156.455,113.734,156.452,113.682z"
					/>
			</g>
			<g>
				<path d="M166.429,116.43c0.075,0.537,0.034,2.31,0.791,3.688c0.865,1.326,2.08,2.161,2.465,2.369
					c0.286,0.689,5.164,4.122,5.541,4.112c0.282,0.234-6.153-1.409-6.787-2.422c-0.37-0.182-1.927-1.933-2.37-3.963
					C165.681,118.128,166.551,116.436,166.429,116.43z"/>
			</g>
			<g>
				<path d="M175.411,120.306c0.823,0.116,3.402-0.022,6.178,0.205c3.041,0.461,4.847,3.102,5.283,3.683
					c0.381,0.606,1.521,3.187,1.937,5.786c0.47,2.604,0.063,5.036,0.147,5.238c-0.103,0.231-0.111-2.216-1.087-4.594
					c-0.823-2.42-2.405-4.679-2.716-5.204c-0.292-0.424-1.578-3.252-4.239-3.898C178.195,120.972,175.359,120.362,175.411,120.306z"
					/>
			</g>
			<g>
				<path d="M158.564,113.713c-0.29,0.992-1.43,4.403-1.37,7.838c-0.108,3.478,1.353,6.484,1.914,7.132
					c0.245,0.802,1.92,3.657,5.013,5.056c3.011,1.384,6.139,2.348,6.376,2.474c0.276,0.016-2.831-0.419-6.288-1.314
					c-3.612-0.734-6.645-4.157-6.821-4.99c-0.71-0.67-2.098-5.081-1.27-9.019C156.683,116.921,158.622,113.718,158.564,113.713z"/>
			</g>
			<g>
				<path d="M165.979,130.45c0.841,1.488,7.928,8.581,9.203,8.892c0.604,1.447,10.584,3.307,11.128,3.03
					c0.592,0.235-10.657,0.755-12.078-1.139C172.229,140.63,165.701,130.652,165.979,130.45z"/>
			</g>
			<g>
				<path d="M180.959,118.316c1.246-0.598,7.456,2.158,8.015,3.36c1.248,0.491,3.733,6.895,3.395,7.264
					c0.422,0.111-2.935-6.192-4.063-6.437c-0.272-0.353-1.805-1.854-3.576-2.892C182.921,118.624,180.951,118.359,180.959,118.316z"
					/>
			</g>
			<g>
				<path d="M186.943,119.736c0.757,0.056,3.296-0.067,5.867,0.226c2.684,0.171,4.857,2.102,5.289,2.583
					c0.485,0.464,2.262,2.464,3.189,4.81c1.292,2.476-0.257,4.716-0.523,4.641c-0.097,0.267,1.595-1.764,0.176-4.103
					c-1.065-2.218-3.063-4.084-3.473-4.492c-0.418-0.473-2.33-2.602-5.162-2.938C189.604,119.981,186.932,119.775,186.943,119.736z"
					/>
			</g>
			<g>
				<path d="M179.134,124.982c-0.074,0.973,0.694,4.261,2.703,6.774c1.886,2.877,5.284,2.635,6.135,2.641
					c1.632,0.59,12.963-0.94,13.066-2.391c0.294-0.088-2.169,1.812-5.403,2.463c-3.143,0.838-6.689,1.028-7.492,0.985
					c-0.564,0.133-5.341-0.115-7.066-3.811C179.02,128.533,179.1,124.943,179.134,124.982z"/>
			</g>
			<g>
				<path d="M190.542,137.69c2.119,1.695,15.024-0.414,16.504-1.989c0.831-0.401,4.102-2.199,6.341-5.038
					c2.366-2.708,3.622-5.987,3.755-6.251c0.068-0.32-0.825,3.058-3.006,6.163c-2.062,3.206-5.568,5.568-6.407,5.967
					c-0.822,0.506-5.075,1.937-9.231,2.061C194.318,139.05,190.494,137.766,190.542,137.69z"/>
			</g>
			<g>
				<path d="M214.283,128.344c0.152,0.613,1.84,1.354,3.167,0.278c1.306-0.821,2.254-2.057,2.521-2.372
					c0.246-0.299,1.404-1.368,2.054-2.718c0.8-1.332,0.429-2.891,0.32-2.999c-0.062-0.176,0.85,1.296,0.253,2.962
					c-0.408,1.629-1.52,3.073-1.771,3.377c-0.269,0.284-1.627,1.708-3.373,2.374C215.461,130.274,214.066,128.307,214.283,128.344z"
					/>
			</g>
			<g>
				<path d="M215.022,121.467c0.825-0.167,3.369-1.436,5.047-3.635c1.785-2.113,2.798-4.552,3.079-5.302
					c0.267-0.603,1.613-3.079,1.127-5.696c-0.665-2.485-3.124-4.006-3.041-4.279c-0.326,0.022,2.02,1.131,3.432,3.762
					c1.007,2.808-0.174,5.961-0.497,6.498c-0.208,0.574-1.716,3.645-3.999,5.731C217.992,120.855,215.005,121.523,215.022,121.467z"
					/>
			</g>
			<g>
				<path d="M217.243,120.045c1.479-0.537,6.474-3.407,8.78-8.44c2.54-4.871,2.429-10.325,2.288-11.776
					c-0.082-1.183,0.141-7.525-4.989-9.903c-2.305-1.317-5.025-0.333-6.611,0.728c-1.655,1.053-2.67,1.974-2.855,2.098
					c-0.154,0.166,0.633-0.65,2.128-1.782c1.418-1.066,3.975-2.708,6.844-1.857c6.028,1.895,6.613,9.357,6.513,10.317
					c0.172,1.233,0.158,8.045-3.267,13.212C222.963,118.132,217.153,120.085,217.243,120.045z"/>
			</g>
			<g>
				<path d="M224.293,117.686c3.889-0.693,10.399-17.801,9.546-20.53c0.065-1.053-0.188-6.842-3.813-10.05
					c-4.254-2.646-9.403-0.406-9.655-0.672c-0.449,0.46,4.17-2.033,9.322-0.158c4.893,2.999,5.056,9.488,5.189,10.559
					c0.285,1.381-1.224,7.299-3.813,12.353C228.553,114.25,224.873,118.438,224.293,117.686z"/>
			</g>
			<g>
				<path d="M225.332,120.637c1.207-1.63,6.115-12.154,6.543-13.974c0.271-0.827,1.747-3.91,2.274-7.092
					c1.09-3.444-1.67-5.876-2.077-5.711c-0.172-0.017,0.613,0.138,1.489,0.95c1.006,0.841,1.192,2.658,1.174,4.342
					c-0.21,3.453-1.542,6.928-1.809,7.697C232.646,108.574,225.631,120.822,225.332,120.637z"/>
			</g>
			<g>
				<path d="M227.898,119.888c1.997,0.994,6.158-5.098,6.313-6.155c1.354-0.584,1.409-7.839,0.744-8.154
					c-0.086-0.16,0.76,1.578,0.986,3.676c0.388,2.088-0.447,4.458-0.734,4.85c-0.225,0.463-1.518,2.57-3.242,4.134
					C230.329,120.114,227.849,120.024,227.898,119.888z"/>
			</g>
			<g>
				<path d="M227.979,117.587c0.564,1.099-0.762,7.543-1.523,8.438c-0.222,0.45-1.315,2.09-2.713,3.3
					c-1.431,1.23-3.133,1.609-3.243,1.706c-0.186-0.025,1.486-0.531,2.675-1.923c1.249-1.308,2.095-3.086,2.293-3.471
					C226.325,125.058,228.461,117.705,227.979,117.587z"/>
			</g>
			<g>
				<path d="M219.787,121.376c0.637,0.543-0.543,3.979-1.321,4.205c-0.353,0.639-3.816,1.346-3.947,1.196
					c-0.063,0.167,3.094-1.474,3.227-1.967c0.186-0.113,0.996-0.742,1.529-1.576C219.772,122.381,219.748,121.371,219.787,121.376z"
					/>
			</g>
			<g>
				<path d="M216.633,133.657c0.171,0.668-0.206,3.883-3.047,5.065c-2.497,1.324-5.337,1.458-6.076,1.512
					c-1.521,0.451-10.904-1.488-11.215-1.946c-0.484,0.256,9.733,1.385,11.009,0.903c0.613-0.019,3.806,0.073,6.417-1.168
					C216.626,136.843,216.641,133.538,216.633,133.657z"/>
			</g>
			<g>
				<path d="M207.97,140.74c0.169,0.537-0.455,2.95-2.77,3.558c-2.041,0.734-4.214,0.668-4.783,0.657
					c-1.18,0.148-8.23-1.837-8.546-1.945c-0.327-0.029,7.505,1.049,8.478,0.89c0.473,0.005,2.891,0.37,4.992-0.248
					C207.716,143.179,207.997,140.651,207.97,140.74z"/>
			</g>
			<g>
				<path d="M194.536,144.219c-0.514,0.804-3.606,2.487-7.069,2.681c-3.396,0.386-6.829-0.104-7.785-0.369
					c-1.03-0.241-3.867-1.692-6.898-2.976c-3.041-1.327-5.187-3.585-5.376-3.741c-0.2-0.195,2.165,1.741,5.316,2.579
					c3.061,0.771,6.79,1.939,7.342,2.06c0.662,0.252,4.312,1.276,7.899,1.288C191.651,146.047,194.594,144.296,194.536,144.219z"/>
			</g>
			<g>
				<path d="M180.195,147.736c-1.196,0.359-7.821-1.658-8.519-2.886c-1.25-0.445-4.499-6.656-4.477-6.979
					c-0.284-0.168,4.037,5.874,5.067,6.098c0.308,0.332,2.016,1.729,3.972,2.562C178.174,147.396,180.215,147.675,180.195,147.736z"
					/>
			</g>
			<g>
				<path d="M165.109,137.434c0.12,0.526,0.216,2.359,0.867,4.004c0.69,1.632,1.868,2.86,2.236,3.147
					c0.263,1.004,5.869,3.901,6.263,3.821c0.275,0.28-6.461-1.767-6.91-2.997c-0.386-0.24-1.774-2.085-2.197-4.093
					C164.864,139.324,165.208,137.426,165.109,137.434z"/>
			</g>
			<g>
				<path d="M182.708,118.633c1.752-0.253,12.09-1.914,13.912-1.199c0.71,0.101,4.253,0.812,5.816,3.62
					c1.601,2.664,0.985,5.619,1.118,5.812c-0.088,0.295,0.133-2.643-1.322-5.193c-1.588-2.572-4.944-3.116-5.6-3.164
					C195.331,117.666,182.717,118.699,182.708,118.633z"/>
			</g>
			<g>
				<path d="M200.424,122.054c0.38,0.194,1.853,2.261,1.887,2.726c0.215,0.412-0.254,2.965-0.329,3.034
					c0.063,0.073-0.512-2.466-0.684-2.736C201.374,124.744,200.532,122.046,200.424,122.054z"/>
			</g>
			<g>
				<path d="M206.737,125.209c0.039-1.236,5.017-3.479,6.025-3.155c0.406-0.011,2.044,0.176,3.343,0.974
					c1.35,0.841,1.674,2.267,1.793,2.307c-0.041,0.198-0.511-1.215-1.875-1.722c-1.267-0.609-2.824-0.505-3.158-0.504
					c-0.328-0.034-1.99,0.009-3.522,0.486C207.82,124.104,206.752,125.221,206.737,125.209z"/>
			</g>
			<g>
				<path d="M203.364,128.872c0.59-0.358,4.467-1.4,5.186-1.31c0.316,0.013,1.563,0.206,2.588,0.82
					c1.059,0.777,0.993,1.934,1.082,1.974c-0.065,0.151-0.207-1.021-1.216-1.406c-0.953-0.401-2.152-0.308-2.405-0.332
					C208.11,128.438,203.373,128.777,203.364,128.872z"/>
			</g>
			<g>
				<path d="M203.788,132.809c0.863,0.437,5.352-0.295,5.914-0.817c0.813,0.198,4.63-2.38,4.447-3.018
					c-0.009-0.153-0.295,1.157-1.325,2.152c-0.959,1.048-2.377,1.706-2.694,1.822C209.471,133.681,203.691,133.23,203.788,132.809z"
					/>
			</g>
			<g>
				<path d="M189.566,136.884c0.46,0.536,3.378,0.65,3.81,0.497c0.396,0.176,3.407,0.146,3.56-0.168
					c0.257,0.129-2.994,1.473-3.512,1.216C192.887,138.71,189.358,137.213,189.566,136.884z"/>
			</g>
			<g>
				<path d="M181.233,112.002c0.922,0.07,5.372,3.006,5.587,4.129c0.942,0.688,1.014,6.145,0.82,6.329
					c0.194,0.183-0.896-5.359-1.688-5.724C186.09,115.828,181.431,111.812,181.233,112.002z"/>
			</g>
			<g>
				<path d="M157.897,109.758c0.149-1.324,3.631-3.383,7.366-4.051c3.478-1.361,7.597-1.772,8.646-0.914
					c1.03,0.357,4.325,2.617,6.289,5.799c2.282,3.207,1.232,6.917,1.148,7.102c-0.089,0.375,0.985-3.257-1.293-6.389
					c-2.067-3.057-5.605-5.202-6.345-5.459C172.571,103.726,156.408,107.992,157.897,109.758z"/>
			</g>
			<g>
				<path d="M154.702,109.201c-0.165-0.661-0.228-2.262,0.099-4.267c0.33-1.81,0.793-4.901,3.522-5.904
					c4.709-1.962,9.895-1.865,11.27-1.657c1.201,0.173,6.667,1.005,10.065,4.814c3.598,4.105,1.036,9.021,1.121,9.164
					c-0.321,0.574,1.77-4.398-1.466-7.959c-3.175-3.393-8.695-3.715-9.691-3.902c-1.007-0.188-6.752-0.959-11.526,0.91
					C154.328,103.242,154.705,109.645,154.702,109.201z"/>
			</g>
			<g>
				<path d="M154.079,111.756c0.797,2.164-2.688,14.46-1.614,16.298c-0.031,0.892,0.737,4.449,2.867,7.238
					c1.966,2.887,4.859,4.732,5.088,4.901c0.308,0.114-2.812-1.326-5.191-4.169c-2.548-2.705-3.803-6.689-3.779-7.611
					C150.302,126.29,155.087,111.869,154.079,111.756z"/>
			</g>
			<g>
				<path d="M158.018,136.016c0.116,0.523,0.209,2.344,0.826,3.989c0.662,1.629,1.805,2.87,2.184,3.143
					c0.256,0.981,5.814,3.898,6.194,3.837c0.277,0.267-6.394-1.803-6.848-3.012c-0.396-0.229-1.749-2.101-2.138-4.097
					C157.774,137.889,158.111,136.009,158.018,136.016z"/>
			</g>
			<g>
				<path d="M162.166,118.217c1.352-0.08,6.11,0.232,10.62,1.795c4.562,1.396,8.624,4.163,9.603,5.118
					c0.913,0.731,4.639,4.715,4.776,9.595c0.232,4.841-2.722,8.389-2.798,8.686c-0.327,0.359,2.253-3.461,1.788-7.953
					c-0.362-4.549-4.211-7.948-4.969-8.585c-0.694-0.784-4.753-4.199-9.512-6.075C167.015,118.75,162.153,118.196,162.166,118.217z"
					/>
			</g>
			<g>
				<path fill="#414042" d="M219.364,120.497c2.071-0.477,7.333-8.71,7.639-10.212c0.311-0.639,1.915-2.945,2.595-5.529
					c0.884-2.654-0.77-5.138-1.009-5.234c-0.249-0.273,2.352,1.648,2.1,4.944c-0.045,3.062-1.434,6.029-1.749,6.647
					c-0.305,0.654-2.193,3.535-4.498,5.775C222.263,119.286,219.383,120.578,219.364,120.497z"/>
			</g>
			<g>
				<path fill="#414042" d="M169.403,115.055c0.578,0.021,2.998,0.255,4.646,2.133c1.636,1.809,2.136,4.298,2.178,4.919
					c0.665,1.487-2.403,8.931-2.875,9.01c0.282,0.387,1.442-7.811,0.793-8.718c0-0.475,0.014-2.93-1.213-4.803
					C171.727,115.663,169.35,115.073,169.403,115.055z"/>
			</g>
			<g>
				<path fill="#414042" d="M180.553,123.627c0.393-0.213,2.3-0.212,3.68,1.1c1.414,1.153,2.318,2.739,2.519,3.174
					c0.707,0.875,0.55,7.023,0.21,7.183c0.333,0.183-1.535-5.752-2.111-6.29c-0.126-0.349-0.623-2.138-1.627-3.49
					C182.277,123.822,180.541,123.612,180.553,123.627z"/>
			</g>
			<g>
				<path fill="#414042" d="M191.854,128.978c0.417,0.456,1.997,1.961,3.965,1.916c1.89,0.119,3.721-0.498,4.229-0.612
					c0.931,0.058,7.914-1.148,8.217-1.409c0.388-0.039-6.534,3.523-7.714,3.451c-0.472,0.102-3.002,0.393-5.312-0.388
					C192.796,131.154,191.831,128.907,191.854,128.978z"/>
			</g>
			<g>
				<path fill="#414042" d="M225.062,119.329c0.744,0.141,3.592,0.529,5.558-1.119c2.005-1.455,3.052-3.729,3.331-4.312
					c0.32-0.518,1.727-2.6,2.317-4.984c0.732-2.357,0.256-4.83,0.158-5.029c-0.099-0.234,1.132,2.037,0.939,4.793
					c-0.011,2.727-1.125,5.553-1.506,6.105c-0.246,0.584-2.17,3.397-5.067,4.65C227.76,120.736,224.986,119.261,225.062,119.329z"/>
			</g>
			<g>
				<path fill="#414042" d="M162.618,134.506c0.144,0.641,0.41,2.788,1.182,4.702c0.867,1.895,2.113,3.388,2.471,3.778
					c0.322,0.373,1.329,2.087,2.957,3.264c1.554,1.273,3.534,1.787,3.682,1.905c0.212-0.084-1.846,0.07-3.902-0.832
					c-2.152-0.71-3.981-2.5-4.306-2.95c-0.405-0.39-1.694-2.806-2.065-5.218C162.235,136.726,162.696,134.5,162.618,134.506z"/>
			</g>
			<g>
				<path fill="#414042" d="M142.592,102.84c0.529-0.178,3.086-0.996,5.415,0.812c2.196,1.802,2.938,4.553,3.044,5.159
					c0.51,1.579-2.641,9.294-2.578,9.686c-0.085,0.329-1.226-8.366-1.58-9.075c-0.038-0.486,0.186-2.858-0.798-4.497
					C145.116,103.182,142.517,102.859,142.592,102.84z"/>
			</g>
			<g>
				<path fill="#414042" d="M148.694,100.402c1.323,1.928,6.456,14.717,6.174,17.234c0.097,1.02,0.282,5.372-1.518,8.986
					c-1.625,3.763-5.089,5.49-5.261,5.686c-0.391,0.133,2.943-1.856,4.067-5.573c1.345-3.565,0.745-7.768,0.637-8.659
					C153.438,116.181,148.982,100.346,148.694,100.402z"/>
			</g>
			<g>
				<path fill="#414042" d="M155.877,103.617c-0.946,0.168-4.583,0.63-6.807,3.086c-2.223,2.377-2.924,5.606-3.112,6.454
					c-1.05,1.371-2.544,13.121-2.174,13.738c-0.311,0.635-1.109-12.409,0.098-14.115c0.152-0.757,1.562-4.95,4.884-7.295
					C152.12,103.089,155.956,103.721,155.877,103.617z"/>
			</g>
			<g>
				<path fill="#414042" d="M155.187,99.422c-1.138,0.183-5.675,0.255-8.664,3.001c-2.963,2.769-2.844,6.975-2.693,7.952
					c-0.071,0.969,0.148,4.996,1.82,8.592c1.478,3.669,4.262,6.434,4.483,6.675c0.314,0.201-2.912-2.02-5.148-5.648
					c-2.379-3.526-3.329-8.226-3.253-9.3c-0.206-0.83,0.135-6.914,4.664-9.557C150.648,98.447,155.282,99.663,155.187,99.422z"/>
			</g>
			<g>
				<path d="M146.961,125.609c1.087-1.668,4.921-12.143,4.874-13.896c0.115-0.784,1.312-3.825,0.861-6.808
					c-0.392-3.157-3.55-4.701-3.727-4.766c-0.456-0.027,3.226,0.436,4.582,4.014c1.399,3.34,0.47,7.107,0.365,7.857
					C154.092,113.955,147.286,125.848,146.961,125.609z"/>
			</g>
			<g>
				<path d="M156.575,106.414c-0.791,0.15-3.974,0.69-5.351,3.152c-1.449,2.295-1.452,5.095-1.465,5.818
					c-0.818,1.289,0.123,11.238,1.035,11.599c0.13,0.217-1.415-2.005-2.195-4.839c-0.907-2.783-1.065-6.035-0.948-6.766
					c0.011-0.666,0.52-4.402,2.985-6.918C153.265,105.91,156.685,106.5,156.575,106.414z"/>
			</g>
		</g>
	</g>
</g>
</svg>
