<?xml version="1.0" encoding="utf-8"?>
<!-- Generator: Adobe Illustrator 15.0.0, SVG Export Plug-In . SVG Version: 6.00 Build 0)  -->
<!DOCTYPE svg PUBLIC "-//W3C//DTD SVG 1.1//EN" "http://www.w3.org/Graphics/SVG/1.1/DTD/svg11.dtd">
<svg version="1.1" xmlns="http://www.w3.org/2000/svg" xmlns:xlink="http://www.w3.org/1999/xlink" x="0px" y="0px" width="300px"
	 height="300px" viewBox="0 0 300 300" enable-background="new 0 0 300 300" xml:space="preserve">
<g id="Layer_13">
	<g id="EUvz30_1_">
		
	</g>
</g>
<g id="pencil">
	<g>
		<g>
			<g>
				<path fill="#414042" d="M143.391,109.463c-0.073,1.857-6.531,9.531-8.478,9.863c-1.241,1.49-11.366,2.529-11.776,2.221
					c-0.34,0.377,9.958-2.382,10.787-3.683C135.645,118.06,143.885,109.992,143.391,109.463z"/>
			</g>
			<g>
				<path fill="#414042" d="M139.143,106.436c-2.174,1.204-13.862,9.64-16.071,10.633c-0.971,0.533-4.937,2.289-8.96,3.118
					c-4.064,0.896-7.902,0.091-8.228,0.189c-0.354-0.226,3.518,0.409,7.44-0.938c3.947-1.097,7.822-3.347,8.703-3.809
					C123.841,114.898,139.01,106.217,139.143,106.436z"/>
			</g>
			<g>
				<path fill="#414042" d="M134.666,112.512c-1.096,1.037-8.518,5.873-9.933,6.351c-1.242,0.889-10.285,1.938-10.682,1.724
					c-0.292,0.3,8.871-2.494,9.861-3.293C125.093,117.053,134.705,112.639,134.666,112.512z"/>
			</g>
			<g>
				<path fill="#414042" d="M122.991,110.115c-1.052,0.926-4.713,4.182-9.126,6.399c-4.424,2.121-9.198,3.415-10.528,3.651
					c-2.541,0.963-19.586,1.065-20.364,1.086c-0.785,0.086,17.586-1.892,19.735-2.757c1.15-0.135,6.597-1.191,11.474-3.179
					C119.041,113.268,122.927,110.014,122.991,110.115z"/>
			</g>
			<g>
				<path fill="#414042" d="M116.59,110.561c-1.556-0.389-7.679,2.982-8.451,3.947c-0.782,0.797-7.894,3.375-8.273,3.029
					c-0.096,0.456,6.477-3.63,7.242-4.453C107.729,111.918,116.52,109.738,116.59,110.561z"/>
			</g>
			<g>
				<path fill="#414042" d="M97.047,113.672c-0.884,1.07-7.87,5.256-9.265,5.46c-1.205,0.61-9.484,0.993-9.837,0.854
					c-0.306,0.205,8.208-1.96,9.179-2.495C88.29,117.534,97.125,113.945,97.047,113.672z"/>
			</g>
			<g>
				<path fill="#414042" d="M78.332,115.051c-0.391,0.408-2.888,2.303-3.326,2.523c-0.414,0.214-3.688,0.405-3.823,0.461
					c-0.134,0.057,2.704-1.895,3.098-2.06C74.674,115.812,78.332,115.051,78.332,115.051z"/>
			</g>
			<g>
				<path fill="#414042" d="M146.184,113.305c-1.059,1.36-9.12,7.405-10.816,7.861c-1.412,1.065-11.646,2.257-12.104,2.009
					c-0.338,0.332,10.143-2.601,11.238-3.558C135.919,119.493,146.287,113.545,146.184,113.305z"/>
			</g>
		</g>
		<g>
			<path d="M142.678,111.279c0.981,0.614,0.787,6.275-0.508,6.936c-0.392,1.297-5.847,2.596-6.026,2.365
				c-0.052,0.27,4.661-2.583,4.618-3.428C141.906,117.121,143.263,111.475,142.678,111.279z"/>
		</g>
		<g>
			<path d="M136.187,110.754c-0.832,0.551-4.633,4.153-5.105,4.835c-0.615,0.424-4.862,3.803-4.945,4.161
				c-0.284,0.152,2.967-4.941,3.691-5.387C130.291,113.615,136.125,110.57,136.187,110.754z"/>
		</g>
		<g>
			<path d="M125.492,109.903c-1.054,0.63-7.209,3.988-8.251,4.474c-0.974,0.573-8.161,1.717-8.471,1.681
				c-0.261,0.179,6.857-2.769,7.702-3.266C117.356,112.411,125.48,109.868,125.492,109.903z"/>
		</g>
		<g>
			<path d="M118.003,107.994c-1.908,0.063-10.552,4.791-11.75,5.93c-1.201,0.937-10.73,4.898-11.237,4.795
				c-0.274,0.429,9.059-5.305,10.198-6.221C106.205,111.26,117.859,107.354,118.003,107.994z"/>
		</g>
		<g>
			<path d="M98.802,114.34c-1.357,0.468-9.43,2.77-10.771,2.999c-1.29,0.195-9.892,0.156-10.264,0.206
				c-0.383,0.048,8.697-1.78,9.838-1.92C88.759,115.479,98.798,114.326,98.802,114.34z"/>
		</g>
		<g>
			<path d="M84.934,114.553c-1.03-0.02-5.775,1.402-6.393,1.895c-0.672,0.121-5.546,1.943-5.714,2.31
				c-0.342,0.03,4.107-3.763,4.999-3.905C78.579,114.217,84.982,114.284,84.934,114.553z"/>
		</g>
		<g>
			<path d="M142.732,112.066c0.395,0.502,0.639,4.222,0.238,4.872c-0.041,0.92-3.473,2.849-3.657,2.59
				c0.165,0.197,2.11-2.707,2.028-3.226C141.682,116.013,142.901,112.185,142.732,112.066z"/>
		</g>
		<g>
			<path d="M139.211,108.106c-0.144,0.577-1.232,3.38-1.475,3.776c-0.264,0.418-2.921,2.199-2.987,2.29
				c-0.074,0.095,1.284-2.942,1.511-3.251C136.512,110.582,139.225,108.086,139.211,108.106z"/>
		</g>
		<g>
			<g>
				<path fill="#414042" d="M156.446,109.631c0.637,1.82,7.931,8.045,9.615,8.155c0.92,1.252,10.295,4.373,10.911,4.101
					c0.488,0.409-10.478-1.028-11.588-2.476C163.359,119.453,155.802,110.008,156.446,109.631z"/>
			</g>
			<g>
				<path fill="#414042" d="M160.837,106.746c2.357,0.779,14.944,7.919,17.045,8.771c0.969,0.489,4.551,2.645,8.332,3.964
					c3.788,1.39,7.738,1.147,8.087,1.237c0.379-0.234-3.552,0.785-7.732-0.257c-4.198-0.796-8.367-2.8-9.267-3.274
					C175.332,116.369,160.963,106.519,160.837,106.746z"/>
			</g>
			<g>
				<path fill="#414042" d="M165.292,112.808c1.38,0.675,9.461,4.075,10.791,4.432c1.085,0.755,9.403,3.864,9.984,3.682
					c0.402,0.334-9.395-1.149-10.507-2.012C174.249,118.624,165.205,112.909,165.292,112.808z"/>
			</g>
			<g>
				<path fill="#414042" d="M176.922,110.379c1.911,2.683,17.351,8.52,20.218,8.067c2.339,0.858,19.196,3.13,19.997,3.147
					c0.815,0.088-17.698-0.477-20.042-1.373c-1.166-0.132-6.737-1.582-11.586-3.945
					C180.661,113.832,176.987,110.274,176.922,110.379z"/>
			</g>
			<g>
				<path fill="#414042" d="M183.561,110.902c1.234-0.934,8.5,1.143,9.354,2.111c0.865,0.753,6.658,5.096,7.279,4.856
					c0.218,0.53-7.425-2.519-8.094-3.298C191.502,113.467,183.846,110.18,183.561,110.902z"/>
			</g>
			<g>
				<path fill="#414042" d="M202.898,113.957c1.255,0.752,8.696,3.402,9.98,3.501c1.062,0.494,8.812,2.992,9.288,2.871
					c0.388,0.215-8.573-0.583-9.671-1.16C211.195,119.177,202.729,114.188,202.898,113.957z"/>
			</g>
			<g>
				<path fill="#414042" d="M221.671,115.368c0.565-0.011,3.668,0.437,4.135,0.591c0.44,0.146,2.883,2.342,3.013,2.397
					c0.129,0.056-3.249-0.588-3.643-0.756C224.786,117.435,221.671,115.368,221.671,115.368z"/>
			</g>
			<g>
				<path fill="#414042" d="M153.744,113.575c1.425,1.057,10.174,5.674,11.728,5.984c1.204,0.905,10.739,4.17,11.377,3.957
					c0.463,0.358-10.632-1.249-11.903-2.283C163.342,121.026,153.562,113.768,153.744,113.575z"/>
			</g>
		</g>
		<g>
			<path d="M157.126,111.197c-0.491,1.151,1.218,5.738,2.19,5.897c-0.006,0.795,4.134,3.933,4.596,3.816
				c0.25,0.359-5.568-1.38-5.875-2.625C156.493,117.81,156.469,111.018,157.126,111.197z"/>
		</g>
		<g>
			<path d="M163.798,111.062c0.926,0.076,5.82,2.51,6.442,3.229c0.793,0.5,3.478,5.397,3.472,5.642
				c0.219,0.084-3.969-3.923-4.597-4.28C168.756,115.004,163.941,110.939,163.798,111.062z"/>
		</g>
		<g>
			<path d="M174.527,110.226c1.193,0.191,7.983,2.122,9.021,2.52c0.932,0.478,7.339,3.652,7.749,3.647
				c0.319,0.199-7.394-1.451-8.279-1.975C182.088,114.027,174.545,110.194,174.527,110.226z"/>
		</g>
		<g>
			<path d="M182.075,108.334c1.806-0.456,11.415,2.957,12.693,4.074c1.268,0.885,9.594,6.671,10.23,6.633
				c0.345,0.467-9.889-4.148-10.962-5.027C193.071,112.808,182.346,107.754,182.075,108.334z"/>
		</g>
		<g>
			<path d="M201.272,114.681c1.442,0.021,9.775,0.769,11.105,0.924c1.242,0.116,9.545,2.229,9.965,2.284
				c0.41,0.047-8.902-0.387-10.092-0.529C211.077,117.212,201.27,114.665,201.272,114.681z"/>
		</g>
		<g>
			<path d="M215.235,114.896c0.787-0.488,6.096-0.608,6.989-0.084c0.973,0.172,4.844,3.944,4.861,4.205
				c0.232-0.034-4.743-2.469-5.411-2.524C221.169,115.959,215.352,114.652,215.235,114.896z"/>
		</g>
		<g>
			<path d="M157.06,112.041c0.079,0.746,1.371,3.852,1.721,4.206c-0.078,0.481,1.385,3.572,1.916,3.6
				c0.017,0.398-3.501-2.006-3.505-2.843C156.724,116.443,156.866,111.983,157.06,112.041z"/>
		</g>
		<g>
			<path d="M160.663,108.332c0.457,0.229,2.858,2.172,3.186,2.553c0.271,0.309,1.181,3.377,1.284,3.508
				c0.091,0.13-2.432-2.107-2.701-2.467C162.192,111.603,160.678,108.352,160.663,108.332z"/>
		</g>
	</g>
</g>
</svg>
