<?xml version="1.0" encoding="utf-8"?>
<!-- Generator: Adobe Illustrator 15.0.0, SVG Export Plug-In . SVG Version: 6.00 Build 0)  -->
<!DOCTYPE svg PUBLIC "-//W3C//DTD SVG 1.1//EN" "http://www.w3.org/Graphics/SVG/1.1/DTD/svg11.dtd">
<svg version="1.1" xmlns="http://www.w3.org/2000/svg" xmlns:xlink="http://www.w3.org/1999/xlink" x="0px" y="0px" width="300px"
	 height="300px" viewBox="0 0 300 300" enable-background="new 0 0 300 300" xml:space="preserve">
<g id="Layer_13">
	<g id="EUvz30_1_">
		
	</g>
</g>
<g id="toothbrush">
	<g>
		<g>
			<path fill="#414042" d="M161.163,95.3c1.474-0.097,7.049,0.124,11.981,3.305c4.916,3.066,8.243,8.203,8.851,9.639
				c0.778,1.359,1.687,7.235,1.121,12.508c-0.404,5.314-1.898,9.991-1.898,10.411c-0.076,0.436-0.229-4.401-1.493-9.32
				c-1.118-4.977-3.415-9.688-3.947-10.655c-0.374-1.049-1.949-6.432-5.684-10.269C166.492,96.918,161.101,95.341,161.163,95.3z"/>
		</g>
		<g>
			<path fill="#414042" d="M167.528,100.594c1.433,1.502,8.561,10.231,9.374,11.965c1.169,1.593,0.083,13.882-0.266,14.172
				c0.368,0.246-5.122-10.276-6.056-11.47C170.099,113.974,167.417,100.621,167.528,100.594z"/>
		</g>
		<g>
			<path fill="#414042" d="M158.405,100.659c1.536,0.703,7.542,8.38,7.799,10.018c0.557,1.464-2.131,11.136-2.146,11.493
				c0.111,0.352-4.186-8.766-4.519-9.793C159.652,111.232,158.698,100.734,158.405,100.659z"/>
		</g>
		<g>
			<path fill="#414042" d="M164.059,98.164c1.044,1.541,6.112,9.006,6.818,10.217c0.713,1.255-1.021,11.246-1.099,11.522
				c0.188,0.277-4.863-8.151-5.4-9.282C163.773,109.449,163.856,98.104,164.059,98.164z"/>
		</g>
		<g>
			<path fill="#414042" d="M152.688,108.061c0.388,1.191,2.81,4.404,3.016,4.74c0.083,0.284-4.263,3.317-4.231,3.561
				c-0.029,0.224-2.701-3.525-2.613-4.156C148.728,111.524,152.592,107.793,152.688,108.061z"/>
		</g>
		<g>
			<path fill="#414042" d="M154.905,100.357c0.89,1.373,3.964,9.43,4.107,10.736c0.139,1.229-4.107,9.456-4.107,9.841
				c0,0.387-2.768-8.562-2.768-9.7C152.14,110.102,154.905,100.357,154.905,100.357z"/>
		</g>
		<g>
			<path fill="#414042" d="M148.294,98.688c-1.431,1.68-2.331,9.67-1.954,10.766c-0.449,0.668-5.325,8.55-5.161,9.192
				c-0.18,0.562-2.351-9.31-1.506-10.837c0.105-0.635,1.769-3.584,3.889-5.783C145.776,99.797,148.356,98.729,148.294,98.688z"/>
		</g>
		<g>
			<path fill="#414042" d="M140.089,100.092c0.022,1.92,0.166,11.384,0.194,12.752c-0.205,1.221-5.954,9.752-5.956,10.277
				c-0.141,0.479-1.179-10.225-0.772-11.637C133.619,109.957,139.949,99.908,140.089,100.092z"/>
		</g>
		<g>
			<path fill="#414042" d="M135.573,95.409c-0.677,1.942-0.431,10.65-0.058,11.846c-0.23,0.946-4.727,9.707-4.63,10.245
				c-0.084,0.519-2.664-9.549-2.183-11.105C128.287,104.622,135.157,94.862,135.573,95.409z"/>
		</g>
		<g>
			<path fill="#414042" d="M127.568,97.695c-0.7,1.973-0.82,11.23-0.5,12.486c-0.441,0.938-4.641,10.071-4.182,10.858
				c-0.301,0.702-3.405-10.233-2.606-11.868C119.944,107.291,127.163,97.186,127.568,97.695z"/>
		</g>
		<g>
			<path fill="#414042" d="M124.028,97.984c0.821,1.912,1.252,13.441,1.175,14.962c-0.044,0.79-1.573,3.515-2.586,6.422
				c-1.016,2.857-0.879,6.108-0.829,6.401c0.238,0.259-1.843-2.306-2.611-5.812c-0.875-3.445-0.886-7.214-0.764-8.009
				C118.71,110.141,124.256,98.061,124.028,97.984z"/>
		</g>
		<g>
			<path d="M178.785,131.284c0.45-2.005-2.685-10.805-4.012-11.595c0.141-1.427-5.531-9.287-6.436-9.328
				c-0.24-0.778,9.268,5.395,9.365,7.536c0.479,0.578,1.584,4.009,1.767,7.236C179.544,128.413,178.734,131.284,178.785,131.284z"/>
		</g>
		<g>
			<path d="M170.66,132.64c0.531-0.832,2.408-3.403,2.953-6.32c0.529-2.925,0.076-5.69-0.153-6.389
				c-0.088-0.687,0.016-3.533-1.337-6.081c-1.083-2.721-3.712-4.347-3.798-4.635c-0.386,0.046,2.685,0.715,4.906,3.244
				c2.52,2.291,3.55,6.051,3.604,6.849c0.355,0.798-0.069,4.895-1.632,8.158C173.431,130.738,170.574,132.585,170.66,132.64z"/>
		</g>
		<g>
			<path d="M168.491,117.569c0.202-1.53-1.964-7.874-3.037-8.063c0.341-0.922-4.457-6.091-5.187-6.031
				c-0.385-0.556,7.708,2.088,8.009,4.087C170.13,108.688,169.018,117.857,168.491,117.569z"/>
		</g>
		<g>
			<path d="M159.3,130.261c1.069-1.752,2.75-12.066,1.838-13.402c-0.095-0.668,0.335-3.505-1.125-5.933
				c-1.299-2.554-4.143-3.906-4.314-4.024c-0.315,0.007,2.728,0.241,5.347,2.539c2.727,2.278,3.554,6.285,3.506,7.041
				C165.723,118.733,159.842,130.696,159.3,130.261z"/>
		</g>
		<g>
			<path d="M152.998,103.621c-1.002,1.856-3.583,12.744-3.241,14.426c-1.212,1.393-1.232,12.691-0.209,13.324
				c0.28,0.206-1.721-2.295-2.486-5.671c-1.033-3.318-0.871-7.152-0.722-7.967C145.863,115.627,152.604,103.297,152.998,103.621z"/>
		</g>
		<g>
			<path d="M154.097,117.513c0.417,0.657,2.046,4.202,2.183,4.692c-0.048,0.417-1.284,4.271-1.004,4.602
				c-0.064,0.328-2.542-3.578-2.414-4.236C152.774,121.968,154.062,117.479,154.097,117.513z"/>
		</g>
		<g>
			<path d="M147.259,102.526c-0.616,2.015-1.875,13.429-1.554,15.156c-0.005,0.837-0.729,4.011-0.722,7.213
				c-0.008,3.184,1.076,6.215,1.146,6.493c0.267,0.216-1.826-2.294-2.75-5.719c-1.062-3.362-1.158-7.204-1.107-8.048
				C141.835,115.657,146.922,102.326,147.259,102.526z"/>
		</g>
		<g>
			<path d="M142.154,128.799c-0.904-0.628-4.606-5.92-4.824-6.979c-0.399-0.942,0.294-7.535,0.278-7.795
				c-0.09-0.255,2.717,6.009,3,6.752C140.617,121.605,142.002,128.785,142.154,128.799z"/>
		</g>
		<g>
			<path d="M129.61,116.368c-0.419-0.907-2.351-5.587-2.593-6.343c-0.239-0.745,1.381-6.071,1.449-6.233
				c-0.083-0.19,1.774,5.005,1.946,5.696C130.601,110.197,129.688,116.404,129.61,116.368z"/>
		</g>
		<g>
			<path d="M137.55,131.035c-1.155-0.562-6.176-6.41-6.437-7.744c-0.692-1.125-0.414-8.979-0.357-9.258
				c-0.152-0.251,3.015,7.148,3.532,7.935C134.224,122.985,137.302,131.062,137.55,131.035z"/>
		</g>
		<g>
			<path d="M127.323,124.375c-0.451-0.963-1.179-7.089-1.069-8.048c0.018-0.944,3.228-6.524,3.35-6.729
				c-0.014-0.262,0.12,6.334,0.061,7.15C129.491,117.524,127.217,124.399,127.323,124.375z"/>
		</g>
		<g>
			<path d="M122.747,130.094c-0.335-2.342-2.954-15.825-2.6-18.281c0.055-1.055,0.752-5.345,2.839-8.83
				c1.957-3.603,5.174-5.569,5.35-5.788c0.313-0.188-2.445,2.327-3.532,5.978c-1.275,3.543-1.152,7.69-1.207,8.601
				C123.112,113.441,122.964,130.069,122.747,130.094z"/>
		</g>
		<g>
			<path d="M123.812,124.157c-0.729-0.641-3.228-3.015-4.861-6.235c-1.488-3.227-1.884-7.01-1.732-8.047
				c0.059-0.971,1.299-4.793,4.007-7.083c2.507-2.507,5.793-2.947,5.88-3.266c0.4,0.055-2.601,1.329-4.229,4.044
				c-1.969,2.495-2.128,5.854-2.209,6.543c-0.214,0.665-0.617,4.229,0.24,7.697C121.779,121.267,123.911,124.097,123.812,124.157z"
				/>
		</g>
		<g>
			<path d="M170.501,132.714c1.035-0.425,4.921-1.815,6.846-4.898c1.929-3.069,1.615-6.589,1.501-7.462
				c0.074-0.83,0.151-4.392-1.381-7.637c-1.338-3.342-4.311-5.617-4.553-5.781c-0.365-0.109,3.206,1.111,5.72,4.365
				c2.675,3.086,3.753,7.665,3.634,8.696c0.18,0.899-0.324,6.36-3.971,9.485C174.814,132.758,170.392,132.593,170.501,132.714z"/>
		</g>
		<g>
			<path d="M170.469,132.717c1.204-0.356,5.71-1.35,8.459-4.432c2.819-3.036,3.038-7.069,3.024-8.057
				c0.212-0.921,0.636-4.933-0.886-8.707c-1.3-3.857-4.455-6.623-4.692-6.852c-0.377-0.154,3.387,1.645,5.936,5.469
				c2.704,3.701,3.372,8.976,3.087,10.109c0.104,1.028-1.264,7.092-5.837,9.892C175.239,133.166,170.372,132.563,170.469,132.717z"
				/>
		</g>
		<g>
			<path d="M169.639,131.237c-0.448-1.068-1.979-7.336-2.055-8.347c-0.067-0.959,2.055-7.355,2.055-7.656
				c0-0.3,1.38,6.66,1.38,7.543C171.022,123.657,169.639,131.237,169.639,131.237z"/>
		</g>
		<g>
			<path d="M162.729,127.979c0.81-1.403,1.132-8.722,0.539-9.692c0.53-0.877,0.082-8.525-0.533-8.943
				c0.104-0.644,4.609,7.173,3.96,8.714C167.504,119.6,163.212,128.388,162.729,127.979z"/>
		</g>
		<g>
			<path d="M157.025,129.101c0.31-1.36,0.696-8.121,0.466-9.135c0.291-0.852,2.101-7.728,1.85-8.231
				c0.144-0.445,2.002,7.389,1.569,8.51C161.194,121.471,157.246,129.296,157.025,129.101z"/>
		</g>
		<g>
			<path d="M151.271,129.152c0.925-1.27,1.272-8.016,0.905-9.015c0.316-0.825,1.674-7.969,1.442-8.399
				c0.091-0.443,2.416,7.321,1.985,8.515C156.174,121.598,151.812,129.613,151.271,129.152z"/>
		</g>
		<g>
			<path d="M144.479,125.52c-0.447-0.383-1.979-2.621-2.054-2.983c-0.071-0.341,2.054-2.624,2.054-2.733
				c0-0.106,1.381,2.38,1.381,2.693C145.86,122.812,144.479,125.52,144.479,125.52z"/>
		</g>
		<g>
			<path d="M137.615,126.661c-0.409-0.677-2.456-2.798-2.764-3.073c-0.153-0.28,0.542-3.792,0.442-3.936
				c-0.055-0.157,2.586,2.159,2.738,2.645C138.409,122.718,137.778,126.766,137.615,126.661z"/>
		</g>
		<g>
			<path d="M131.748,129.813c-0.819,0.256-5.023-2.143-5.335-3.188c-0.622-0.87,0.719-5.655,0.91-5.676
				c-0.153-0.015,1.89,3.961,2.203,4.202C129.38,125.603,131.422,129.827,131.748,129.813z"/>
		</g>
		<g>
			<path d="M127.286,126.512c-1.183-1.025-5.828-8.891-6.14-10.433c-0.685-1.43,0.224-10.818,0.455-11.134
				c-0.245-0.301,2.28,9.038,2.831,10.102C124.474,116.229,127.066,126.521,127.286,126.512z"/>
		</g>
		<g>
			<path d="M162.115,97.782c0.623,0.429,3.094,2.84,3.321,3.272c0.245,0.49-0.695,4.249-0.653,4.348
				c0.036,0.113-2.41-2.702-2.54-3.072C162.086,101.891,162.102,97.742,162.115,97.782z"/>
		</g>
		<g>
			<path d="M160.196,98.072c0.487,0.516,2.182,3.01,2.306,3.374c0.124,0.372-1.56,3.39-1.539,3.54
				c0.021,0.145-1.805-2.655-1.864-3.058C159.029,101.5,160.2,98.02,160.196,98.072z"/>
		</g>
		<g>
			<path d="M157.529,98.072c0.428,0.576,1.898,3.925,2.025,4.337c-0.061,0.335-1.446,3.847-1.239,4.176
				c-0.029,0.301-2.332-3.312-2.188-3.942C156.051,102.04,157.526,98.051,157.529,98.072z"/>
		</g>
		<g>
			<path d="M154.887,98.318c0.065,0.854,0.85,4.311,1.007,4.796c0,0.427-2.204,3.897-2.178,4.101
				c-0.026,0.195-1.335-3.748-1.25-4.336C152.316,102.248,154.773,98.176,154.887,98.318z"/>
		</g>
		<g>
			<path d="M151.886,98.998c-0.368,1.092,0.303,4.754,0.616,5.29c-0.04,0.418-1.604,4.612-1.446,4.914
				c-0.033,0.285-2.107-4.106-1.981-4.851C148.602,103.53,151.603,98.665,151.886,98.998z"/>
		</g>
		<g>
			<path d="M147.247,96.83c0.122,0.957,0.739,5.7,0.82,6.401c-0.058,0.623-2.403,5.221-2.359,5.506
				c-0.058,0.264-1.203-5.082-1.062-5.811C144.597,102.167,147.161,96.75,147.247,96.83z"/>
		</g>
		<g>
			<path d="M141.9,99.173c0.303,0.746,1.449,4.651,1.592,5.087c-0.188,0.328-1.209,4.249-0.772,4.672
				c-0.071,0.435-2.957-3.682-2.651-4.537C139.949,103.645,141.857,99.111,141.9,99.173z"/>
		</g>
		<g>
			<path d="M139.263,97.539c-0.075,0.952,0.59,4.688,0.838,5.109c-0.09,0.327-1.469,4.341-1.232,4.687
				c-0.051,0.334-2.379-3.855-2.196-4.656C136.395,101.828,139.11,97.33,139.263,97.539z"/>
		</g>
		<g>
			<path d="M136.595,97.92c0.03,0.822,0.044,4.779,0.025,5.283c-0.166,0.37-2.815,3.648-2.728,4.012
				c-0.143,0.271-0.909-4.336-0.573-4.955C133.428,101.595,136.559,97.839,136.595,97.92z"/>
		</g>
		<g>
			<path d="M132.036,96.367c-0.291,1.171,0.341,5.779,0.636,6.475c-0.046,0.586-1.613,5.631-1.442,5.969
				c-0.06,0.328-2.119-5.07-1.985-5.906C128.829,102.012,131.736,96.112,132.036,96.367z"/>
		</g>
		<g>
			<path fill="#414042" d="M165.376,131.058c0.445-0.979,0.775-5.726,0.536-6.279c0.495-0.354,1.656-5.057,1.005-5.54
				c0.231-0.639,3.195,4.967,2.402,5.994C169.547,126.354,165.582,131.352,165.376,131.058z"/>
		</g>
		<g>
			<path fill="#414042" d="M163.765,130.759c0.482-0.683,2.106-2.708,2.186-5.021c0.069-2.31-0.758-4.362-0.944-4.914
				c0.579-1.188-2.679-8.972-3.923-8.937c-0.285-0.031,2.146,0.673,3.943,2.684c1.926,1.859,3.14,4.615,3.262,5.275
				c0.275,0.587,0.468,3.957-0.636,6.787C166.32,129.556,163.637,130.676,163.765,130.759z"/>
		</g>
		<g>
			<path fill="#414042" d="M163.525,130.575c0.474-1.537-2.014-7.606-2.722-8.318c0.06-0.882-1.933-7.507-2.718-7.669
				c0-0.65,5.957,4.957,5.879,6.331C165.052,121.898,164.299,130.797,163.525,130.575z"/>
		</g>
		<g>
			<path fill="#414042" d="M158.143,130.667c0.148-0.736,0.891-2.985,0.58-5.077c-0.398-2.099-1.4-3.819-1.673-4.311
				c0.142-0.955-2.977-8.332-3.516-8.568c-0.161-0.521,6.591,5.508,6.647,7.162c0.309,0.485,0.925,3.526,0.359,6.238
				C159.889,128.88,158.022,130.621,158.143,130.667z"/>
		</g>
		<g>
			<path fill="#414042" d="M153.988,126.55c-0.882-0.767-3.864-6.969-3.86-8.17c-0.285-1.127,1.863-7.847,1.972-8.078
				c-0.077-0.253,1.239,6.841,1.444,7.638C153.341,118.782,153.786,126.508,153.988,126.55z"/>
		</g>
		<g>
			<path fill="#414042" d="M151.589,127.92c-0.768-0.334-3.71-2.16-4.864-5.5c-1.243-3.207-1.125-6.687-1.032-7.569
				c-0.086-1.988,5.172-11.974,5.251-12.493c0.214-0.45-1.965,11.459-1.82,12.796c-0.128,0.701-1.005,4.106-0.482,7.273
				C149.104,125.659,151.626,127.928,151.589,127.92z"/>
		</g>
		<g>
			<path fill="#414042" d="M144.745,129.844c-1.267,0.308-4.899-4.666-4.613-5.89c-0.408-1.133,2.589-6.298,2.805-6.336
				c-0.117-0.168,0.256,5.52,0.622,6.023C143.005,124.317,144.086,129.919,144.745,129.844z"/>
		</g>
		<g>
			<path fill="#414042" d="M141.41,128.463c-0.665-0.54-3.449-3.943-3.749-4.523c-0.277-0.486,0.024-5.192-0.08-5.427
				c-0.092-0.219,3.015,3.553,3.27,4.149C141.082,123.232,141.407,128.473,141.41,128.463z"/>
		</g>
		<g>
			<path fill="#414042" d="M134.17,127.327c-0.665-0.669-3.619-4.747-3.928-5.508c-0.376-0.727,0.486-6.099,0.507-6.269
				c-0.09-0.169,2.48,4.579,2.756,5.167C133.685,121.326,134.187,127.326,134.17,127.327z"/>
		</g>
		<g>
			<path fill="#414042" d="M132.438,130.54c-1.266,0.486-8.74-2.331-9.252-4.344c-1.578-1.301-0.303-9.302-0.058-9.435
				c-0.229-0.177,1.964,7.366,2.949,7.558C125.577,125.462,132.022,130.826,132.438,130.54z"/>
		</g>
		<g>
			<path fill="#414042" d="M123.452,128.001c-1.327-1.151-10.243-9.276-8.739-13.063c-0.562-3.505,9.295-10.502,9.478-10.928
				c0.365-0.355-7.221,10.012-6.053,11.194C115.9,116.049,123.386,128.011,123.452,128.001z"/>
		</g>
		<g>
			<path fill="#414042" d="M173.373,131.07c0.755-1.108,1.446-6.715,0.868-7.289c0.748-0.469-0.086-6.206-0.89-6.51
				c0.012-0.768,5.189,4.757,4.322,6.423C178.371,125.271,173.658,131.511,173.373,131.07z"/>
		</g>
		<g>
			<path fill="#414042" d="M178.38,130.989c0.21-1.317,1.285-8.491,1.189-9.476c0.766-0.761,1.979-7.771,1.084-8.351
				c0.464-0.774,3.436,7.659,2.301,8.905C182.995,123.405,178.458,131.098,178.38,130.989z"/>
		</g>
		<g>
			<path fill="#414042" d="M151.437,97.624c0.358,0.464,1.421,3.007,1.421,3.379c-0.003,0.355-2.539,2.224-2.562,2.331
				c-0.024,0.108-0.883-2.646-0.82-2.96C149.539,100.059,151.437,97.624,151.437,97.624z"/>
		</g>
		<g>
			<path fill="#414042" d="M146.142,97.511c-0.242,1.077,0.151,5.504,0.372,6.159c-0.062,0.543-2.06,5.17-1.942,5.486
				c-0.069,0.289-1.649-4.904-1.491-5.683C142.799,102.605,145.911,97.277,146.142,97.511z"/>
		</g>
		<g>
			<path fill="#414042" d="M155.743,129.345c-0.004-1.065-1.581-6.022-2.116-6.722c-0.228-0.71-1.515-6.1-1.707-6.324
				c-0.065-0.274,3.075,4.861,3.291,5.657C155.852,122.673,156.039,129.377,155.743,129.345z"/>
		</g>
		<g>
			<path fill="#414042" d="M153.075,130.837c-0.275-0.749-1.709-4.964-1.928-5.628c-0.104-0.639-0.242-5.231-0.362-5.454
				c-0.024-0.235,1.963,4.376,2.027,5.029C153.013,125.407,153.124,130.847,153.075,130.837z"/>
		</g>
		<g>
			<path fill="#414042" d="M144.665,128.864c-0.75-0.585-3.354-5.595-3.406-6.545c-0.193-0.829-0.316-6.479-0.385-6.739
				c-0.049-0.268,1.909,5.543,2.038,6.271C142.813,122.662,144.435,128.893,144.665,128.864z"/>
		</g>
		<g>
			<path fill="#414042" d="M138.132,131.861c-1.362,0.032-5.577-5.224-5.697-6.385c-0.403-0.947-1.583-7.378-1.861-7.645
				c0.009-0.356,3.135,6.125,3.421,6.906C133.821,125.827,137.556,132.224,138.132,131.861z"/>
		</g>
		<g>
			<path fill="#414042" d="M132.864,129.663c-0.697-1.011-2.743-7.942-2.586-9.192c-0.196-1.163,1.323-8.35,1.449-8.646
				c-0.057-0.315,0.09,7.512,0.266,8.454C131.69,121.254,132.646,129.654,132.864,129.663z"/>
		</g>
		<g>
			<path fill="#414042" d="M130.19,125.458c-0.562-0.654-2.931-5.1-3.083-5.954c-0.422-0.808,0.271-6.003,0.431-6.162
				c-0.137-0.163,0.865,5.081,1.224,5.671C128.772,119.659,130.116,125.458,130.19,125.458z"/>
		</g>
		<g>
			<path fill="#414042" d="M168.983,131.395c1.157-0.272,3.414-4.291,3.172-5.067c0.716-0.438,0.976-5.17,0.338-5.469
				c0.31-0.518,2.332,5.017,1.325,5.883C174.16,128.018,169.285,132.002,168.983,131.395z"/>
		</g>
		<g>
			<path fill="#414042" d="M172.081,125.264c0.99-0.674,0.927-4.048,0.042-4.196c0.2-0.508-2.353-3.385-2.766-3.331
				c-0.174-0.325,4.108,1.343,4.22,2.42c0.23,0.181,0.733,1.855,0.165,3.19C173.176,124.688,171.998,125.196,172.081,125.264z"/>
		</g>
	</g>
	<g>
		<g>
			<path fill="#414042" d="M138.537,94.902c-1.449,0.757-6.504,3.123-9.528,7.121c-3.098,3.939-4.305,8.586-4.71,9.816
				c-0.487,1.084-3.077,5.326-4.602,10.16c-1.651,4.758-2.302,9.755-2.288,10.186c0.084,0.443-1.177-4.336-1.257-9.828
				c-0.259-5.469,1.004-11.595,1.682-12.863c0.417-1.252,3.953-7.447,9.453-10.854C132.706,95.045,138.623,94.989,138.537,94.902z"
				/>
		</g>
		<g>
			<path fill="#414042" d="M131.174,101.045c0.266,2.047-1.294,13.391-1.73,14.965c-0.75,1.296-7.656,10.562-7.454,11.472
				c-0.487,0.641-0.054-12.401,0.996-13.815C123.592,112.083,131.271,101.104,131.174,101.045z"/>
		</g>
		<g>
			<path fill="#414042" d="M140.352,100.98c-0.09,1.907-0.006,10.857,0.1,12.168c-0.202,1.136-5.872,9.252-5.879,9.756
				c-0.132,0.463-1.249-9.779-0.848-11.143C133.682,110.244,140.172,100.73,140.352,100.98z"/>
		</g>
		<g>
			<path fill="#414042" d="M134.569,98.899c0.79,1.495,1.547,11.071,1.065,12.499c-0.405,1.221-6.771,8.583-6.772,9.204
				c-0.243,0.473-0.378-10.003,0.177-11.142C129.603,108.373,134.714,99.051,134.569,98.899z"/>
		</g>
		<g>
			<path fill="#414042" d="M146.071,109.588c1.024-0.232,4.945,2.734,5.027,3.481c0.228,0.688-3.918,4.159-3.954,4.223
				c0.029,0.08-2.824-3.253-2.882-3.511C144.383,113.484,146.269,109.783,146.071,109.588z"/>
		</g>
		<g>
			<path fill="#414042" d="M143.712,101.281c0.89,1.372,3.963,9.432,4.107,10.734c0.14,1.23-4.107,9.455-4.107,9.84
				c0,0.387-2.766-8.561-2.766-9.699C140.949,111.025,143.712,101.281,143.712,101.281z"/>
		</g>
		<g>
			<path fill="#414042" d="M150.829,100.665c1.877-0.684,9.343,5.933,9.419,7.901c0.962,1.682-2.632,10.824-2.815,10.998
				c0.158,0.229-3.168-8.443-3.785-9.062c-0.092-0.517-0.152-2.981-0.745-5.391C152.273,102.77,150.792,100.705,150.829,100.665z"/>
		</g>
		<g>
			<path fill="#414042" d="M158.636,101.548c1.515,0.913,7.412,9.029,7.742,10.696c0.551,1.516-2.055,11.615-2.073,11.993
				c0.122,0.369-4.26-9.205-4.595-10.313C159.713,112.756,158.855,101.611,158.636,101.548z"/>
		</g>
		<g>
			<path fill="#414042" d="M163.271,97.082c1.852,0.203,7.985,8.2,7.968,10.07c0.599,1.688-3.412,10.961-3.509,11.271
				c0.087,0.332-2.876-9.223-3.266-10.099C164.932,107.246,163.891,97.149,163.271,97.082z"/>
		</g>
		<g>
			<path fill="#414042" d="M171.278,99.369c1.896,0.312,8.312,8.582,8.38,10.547c0.858,1.84-3.492,11.773-3.915,11.832
				c0.303,0.231-2.179-9.566-2.832-10.486C173.346,110.144,171.879,99.398,171.278,99.369z"/>
		</g>
		<g>
			<path fill="#414042" d="M174.597,99.079c0.987,1.858,6.462,11.609,6.928,13.588c0.205,0.854-0.214,4.472-1.312,7.706
				c-1.135,3.335-3.282,5.566-3.27,5.79c-0.199,0.188,0.407-2.605-0.258-5.5c-0.535-2.883-1.792-5.894-1.9-6.61
				C174.594,112.82,174.354,99.095,174.597,99.079z"/>
		</g>
		<g>
			<path d="M121.845,132.112c-1.379-1.33-1.24-11.609,0.327-13.118c0.213-2.276,9.335-7.444,9.794-7.115
				c-0.054-0.51-6.933,7.106-6.689,8.607c-0.402,0.472-1.896,3.045-2.742,5.88C121.809,129.204,121.892,132.112,121.845,132.112z"/>
		</g>
		<g>
			<path d="M129.733,133.046c-0.73-0.443-3.387-2.252-4.938-5.232c-1.521-2.911-1.91-6.445-1.697-7.373
				c0.006-0.897,1.176-4.366,3.595-6.521c2.193-2.381,5.201-2.879,5.252-3.184c0.365,0.031-2.271,1.365-3.598,3.918
				c-1.634,2.36-1.748,5.417-1.809,6.036c-0.295,0.593-0.577,3.803,0.139,6.923C127.582,130.674,129.796,132.993,129.733,133.046z"
				/>
		</g>
		<g>
			<path d="M132.139,118.381c-1.091-0.799-2.083-8.434-0.535-9.775c0.403-2.119,8.141-3.914,8.308-3.568
				c-0.03-0.324-5.724,4.289-5.338,5.313C133.368,110.376,131.646,118.136,132.139,118.381z"/>
		</g>
		<g>
			<path d="M141.248,130.851c-1.689-0.943-6.613-10.859-5.852-13.224c-0.021-0.825,0.81-4.598,3.454-6.691
				c2.468-2.211,5.465-2.303,5.629-2.465c0.306-0.035-2.466,1.004-4.049,3.293c-1.671,2.24-1.597,5.217-1.584,5.855
				C137.689,118.775,140.583,130.978,141.248,130.851z"/>
		</g>
		<g>
			<path d="M146.384,104.881c1.661,1.148,7.32,11.339,7.216,13.563c0.2,0.884,0.152,4.506-0.915,7.662
				c-0.91,3.215-2.898,5.609-2.873,5.884c0.545,0.474,1.814-11.442,0.414-12.833C150.801,117.647,146.872,104.787,146.384,104.881z"
				/>
		</g>
		<g>
			<path d="M145.193,118.438c0.479,0.581,1.915,4.303,1.913,4.987c0.16,0.76-2.875,4.091-3.014,4.002
				c0.12,0.08-0.288-3.794-0.407-4.234C143.749,122.775,145.229,118.472,145.193,118.438z"/>
		</g>
		<g>
			<path d="M152.079,103.688c1.387,1.494,5.74,12.497,5.606,14.642c0.087,0.916-0.212,4.533-1.292,7.737
				c-1.089,3.251-3.099,5.651-3.142,5.911c-0.242,0.195,1.145-2.557,1.317-5.786c0.317-3.197-0.265-6.622-0.305-7.389
				C154.741,117.291,152.461,103.67,152.079,103.688z"/>
		</g>
		<g>
			<path d="M158.413,130.024c0.172-1.188,0.883-7.274,0.918-8.219c0.221-0.823,3.652-6.395,3.684-6.726
				c0.096-0.303-0.031,6.673-0.351,7.56C162.621,123.613,158.516,130.141,158.413,130.024z"/>
		</g>
		<g>
			<path d="M171.033,117.294c-0.479-0.792-1.603-5.966-1.491-6.788c0.1-0.738,2.688-5.451,2.63-5.785
				c0.093-0.27,0.962,5.475,0.787,6.147C172.779,111.527,170.96,117.245,171.033,117.294z"/>
		</g>
		<g>
			<path d="M162.957,132.364c0.565-1.312,2.646-8.224,2.688-9.348c0.445-0.873,4.246-7.474,4.233-7.943
				c0.179-0.382-0.374,7.989-0.977,9.019C168.876,125.367,163.105,132.572,162.957,132.364z"/>
		</g>
		<g>
			<path d="M173.316,125.299c-0.451-1.059-2.753-6.605-2.996-7.523c-0.149-0.854,0.842-7.096,0.699-7.412
				c0.003-0.318,2.621,5.932,2.682,6.785C173.879,117.989,173.425,125.253,173.316,125.299z"/>
		</g>
		<g>
			<path d="M177.893,131.018c-0.549-2.322-1.007-16.115-1.502-18.086c-0.13-0.982,0.263-4.877-0.734-8.477
				c-0.817-3.685-3.364-6.62-3.58-6.847c-0.342-0.189,3.015,1.83,4.96,5.64c2.111,3.688,2.71,8.266,2.771,9.229
				C180.294,114.664,177.668,131.033,177.893,131.018z"/>
		</g>
		<g>
			<path d="M176.668,125.519c0.434-0.964,2.108-3.988,2.773-7.195c0.514-3.279,0.065-6.31-0.106-7.106
				c-0.152-0.75-0.083-3.882-1.717-6.601c-1.398-2.878-4.373-4.476-4.487-4.776c-0.414,0.078,2.96,0.646,5.506,3.316
				c2.883,2.41,3.991,6.547,4.062,7.421c0.275,0.884-0.049,5.324-1.723,8.863C179.311,123.04,176.554,125.456,176.668,125.519z"/>
		</g>
		<g>
			<path d="M129.573,132.972c-1.014-0.023-5.123-0.211-8.228-3.168c-3.084-2.931-3.763-7.514-3.66-8.613
				c-0.174-1.126,0.987-5.433,3.609-8.316c2.466-3.073,5.889-4.247,6.085-4.418c0.335-0.111-2.728,1.716-4.351,4.945
				c-1.8,3.132-1.987,6.908-1.897,7.68c-0.116,0.724-0.452,4.915,2.034,7.931C125.485,132.177,129.677,132.909,129.573,132.972z"/>
		</g>
		<g>
			<path d="M129.542,132.969c-1.163,0.046-5.744,0.245-9.598-2.512c-3.926-2.688-5.337-7.746-5.351-8.991
				c-0.362-1.235,0.402-6.211,3.047-9.697c2.433-3.674,6.138-5.388,6.338-5.622c0.352-0.168-2.883,2.22-4.539,5.945
				c-1.82,3.689-1.659,7.974-1.438,8.823c-0.044,0.822,0.248,5.603,3.682,8.523C124.881,132.579,129.649,132.867,129.542,132.969z"
				/>
		</g>
		<g>
			<path d="M131,132.161c-0.452-1.068-1.979-7.333-2.054-8.347c-0.068-0.957,2.054-7.355,2.054-7.656c0-0.3,1.377,6.661,1.377,7.543
				C132.381,124.583,131,132.161,131,132.161z"/>
		</g>
		<g>
			<path d="M137.812,128.557c-1.416-0.479-5.022-7.795-4.55-9.427c-0.613-1.688,4.128-8.603,4.547-8.515
				c-0.223-0.293-1.763,7.568-1.108,8.475C135.936,119.961,137.225,128.571,137.812,128.557z"/>
		</g>
		<g>
			<path d="M143.547,129.724c-1.019-0.675-4.534-7.1-4.482-8.42c-0.466-1.255,1.999-8.363,2.223-8.509
				c-0.152-0.215,0.799,7.156,1.186,7.979C142.16,121.676,143.262,129.695,143.547,129.724z"/>
		</g>
		<g>
			<path d="M149.232,129.673c-1.448-0.247-5.1-6.956-4.87-8.359c-0.475-1.318,2.442-8.341,2.646-8.519
				c-0.108-0.27,0.374,7.36,0.779,8.149C147.237,121.884,148.588,129.749,149.232,129.673z"/>
		</g>
		<g>
			<path d="M156.162,126.443c-0.447-0.383-1.979-2.621-2.055-2.983c-0.07-0.341,2.055-2.624,2.055-2.732
				c0-0.107,1.381,2.379,1.381,2.692C157.543,123.735,156.162,126.443,156.162,126.443z"/>
		</g>
		<g>
			<path d="M163.022,127.587c-0.541-0.337-1.383-3.787-1.108-4.315c0.106-0.552,3.295-2.313,3.36-2.393
				c0.028-0.104-0.062,3.302-0.141,3.594C164.852,124.711,162.926,127.436,163.022,127.587z"/>
		</g>
		<g>
			<path d="M168.592,131.298c0.662-0.84,1.917-4.658,1.833-5.161c0.225-0.253,3.033-3.811,2.892-4.263
				c0.205-0.318,0.815,4.818,0.266,5.595C173.469,128.536,168.652,131.621,168.592,131.298z"/>
		</g>
		<g>
			<path d="M173.282,127.738c0.449-1.588,2.106-10.26,2.22-11.617c0.472-1.133,3.742-9.645,3.535-10.251
				c0.271-0.482,0.442,9.684-0.176,10.972C178.759,118.26,173.453,127.881,173.282,127.738z"/>
		</g>
		<g>
			<path d="M137.202,98.521c0.265,0.589,0.643,4.145,0.532,4.678c-0.071,0.422-3.137,2.758-3.2,2.947
				c-0.06,0.168-0.19-3.643-0.029-4.109C134.648,101.631,137.188,98.559,137.202,98.521z"/>
		</g>
		<g>
			<path d="M139.094,98.996c0.409,0.399,1.771,3.309,1.777,3.809c0.003,0.445-2.518,2.885-2.533,2.994
				c-0.018,0.113-0.937-3.025-0.882-3.379C137.51,102.099,139.081,99.045,139.094,98.996z"/>
		</g>
		<g>
			<path d="M141.764,98.996c0.458,0.555,2.063,3.846,2.077,4.503c0.174,0.739-2.71,3.812-2.812,3.746
				c0.078,0.038-0.493-3.497-0.628-3.862C140.472,103.059,141.77,99.015,141.764,98.996z"/>
		</g>
		<g>
			<path d="M144.46,99.51c0.68,0.213,3.035,3.535,3.035,4.228c0.151,0.632-1.892,4.272-1.92,4.401
				c0.031,0.143-1.429-3.648-1.493-4.04C144.228,103.672,144.617,99.584,144.46,99.51z"/>
		</g>
		<g>
			<path d="M147.561,100.354c0.842-0.069,3.578,3.953,3.335,4.845c0.167,0.835-2.529,4.716-2.646,4.765
				c0.065,0.11-0.674-4.271-0.797-4.686C147.84,104.769,147.932,100.467,147.561,100.354z"/>
		</g>
		<g>
			<path d="M152.071,97.949c0.699,0.551,3.158,4.974,3.237,5.812c0.214,0.792-1.673,5.735-1.726,5.899
				c0.052,0.18-1.554-4.846-1.681-5.428C151.965,103.637,152.179,97.989,152.071,97.949z"/>
		</g>
		<g>
			<path d="M157.397,100.18c0.572,0.533,2.506,4.247,2.512,5.059c0.309,1-3.032,4.445-3.207,4.229
				c0.189,0.012,0.031-3.829-0.232-4.228C156.581,104.904,157.451,100.227,157.397,100.18z"/>
		</g>
		<g>
			<path d="M160.1,98.766c0.76,0.174,3.303,3.851,3.194,4.754c0.221,0.91-2.688,4.54-2.829,4.502c0.1,0.066-0.438-4.045-0.61-4.39
				C160.125,103.278,160.323,98.869,160.1,98.766z"/>
		</g>
		<g>
			<path d="M162.767,99.146c0.706,0.286,3.62,3.264,3.86,3.967c0.404,0.697-1.107,4.992-1.228,5.021
				c0.106,0.057-1.795-3.596-2.039-3.953C163.325,103.771,162.855,99.176,162.767,99.146z"/>
		</g>
		<g>
			<path d="M167.356,97.648c0.91,0.229,3.562,5.102,3.374,6.089c0.178,0.929-2.513,5.755-2.647,5.851
				c0.08,0.162-0.662-5.172-0.79-5.739C167.648,103.211,167.714,97.735,167.356,97.648z"/>
		</g>
		<g>
			<path fill="#414042" d="M135.127,131.578c-0.982-0.093-4.466-4.183-4.469-5.322c-0.748-1.177,2.553-6.079,2.952-5.719
				c-0.33-0.057-0.206,4.653,0.431,5.093C133.719,126.117,134.791,131.585,135.127,131.578z"/>
		</g>
		<g>
			<path fill="#414042" d="M136.566,131.117c-0.584-0.256-3.005-1.408-4.157-4.034c-1.084-2.527-0.958-5.435-0.787-6.149
				c0.117-0.726,1.446-3.257,3.338-4.972c1.889-1.806,4.146-2.405,4.235-2.556c-0.365-0.582-4.956,6.865-4.197,8.214
				c-0.221,0.475-0.951,2.89-0.729,5.336C134.672,129.357,136.647,131.046,136.566,131.117z"/>
		</g>
		<g>
			<path fill="#414042" d="M137.085,131.3c-1.341-0.699-1.917-8.17-1.134-9.333c0.031-1.492,5.958-6.239,6.352-5.933
				c-0.188-0.359-3.289,6.068-3.091,7.041C138.329,123.667,136.381,131.124,137.085,131.3z"/>
		</g>
		<g>
			<path fill="#414042" d="M142.38,131.208c-0.456-0.429-2.149-2.1-2.799-4.587c-0.548-2.436-0.125-5.066,0.143-5.682
				c0.095-1.802,6.87-6.848,7.183-6.834c0.007-0.332-4.168,6.992-3.936,7.988c-0.271,0.424-1.29,2.479-1.5,4.728
				C141.334,129.073,142.477,131.176,142.38,131.208z"/>
		</g>
		<g>
			<path fill="#414042" d="M146.611,127.701c0.092-1.28-0.023-7.76-0.193-8.729c0.127-0.855,2.229-7.396,2.118-7.795
				c0.077-0.368,1.538,6.975,1.307,8.003C150.028,120.273,146.776,127.832,146.611,127.701z"/>
		</g>
		<g>
			<path fill="#414042" d="M148.785,129.38c0.615-0.747,2.738-3.376,2.844-6.429c0.257-2.984-0.605-5.876-0.761-6.688
				c0.051-1.43-1.115-12.631-1.193-13.137c-0.231-0.517,4.615,10.621,4.57,12.446c0.128,0.748,0.42,4.777-0.945,8.359
				C151.929,127.631,148.697,129.39,148.785,129.38z"/>
		</g>
		<g>
			<path fill="#414042" d="M155.67,131.27c0.997-0.998,1.132-5.939,0.734-6.615c0.256-0.51,1.553-5.933,1.27-6.302
				c0.081-0.393,2.557,5.398,2.161,6.426C160.442,125.988,156.143,131.881,155.67,131.27z"/>
		</g>
		<g>
			<path fill="#414042" d="M159.195,129.6c-0.192-0.798-0.289-5.266-0.109-5.941c0.214-0.682,3.846-3.787,3.9-3.92
				c0.063-0.152-0.444,4.579-0.649,5.06C162.122,125.313,159.203,129.592,159.195,129.6z"/>
		</g>
		<g>
			<path fill="#414042" d="M166.441,128.446c-0.194-0.907-0.148-5.99,0-6.719c0.202-0.646,3.423-4.825,3.438-5.133
				c0.105-0.258,0.159,5.396-0.137,6.062C169.536,123.352,166.427,128.438,166.441,128.446z"/>
		</g>
		<g>
			<path fill="#414042" d="M167.759,132.097c1.432-0.617,6.366-5.644,6.082-6.755c0.892-0.214,3.887-7.087,3.669-7.654
				c0.263-0.515,0.836,8.129-0.656,9.299C176.677,129.159,167.742,132.642,167.759,132.097z"/>
		</g>
		<g>
			<path fill="#414042" d="M177.073,129.299c0.859-1.714,6.659-11.995,4.767-13.02c1.155-1.168-5.224-11.383-5.534-11.76
				c-0.577-0.438,9.429,7.84,8.917,11.09C187.286,119.39,176.768,129.483,177.073,129.299z"/>
		</g>
		<g>
			<path fill="#414042" d="M127.111,131.567c-1.189-0.063-5.212-5.225-4.821-6.821c-0.79-1.818,4.457-6.509,4.777-6.052
				c-0.313-0.188-2.19,5.334-1.338,5.93C125.009,125.126,126.627,131.584,127.111,131.567z"/>
		</g>
		<g>
			<path fill="#414042" d="M122.205,131.647c-0.973-0.845-5.013-7.096-5.172-8.517c-1.047-1.427,2.155-8.988,2.864-8.709
				c-0.511-0.2-0.482,7.081,0.481,7.896C120.225,123.156,122.07,131.629,122.205,131.647z"/>
		</g>
		<g>
			<path fill="#414042" d="M147.869,98.68c0.514,0.295,2.464,2.232,2.61,2.578c0.139,0.333-1.492,3.031-1.467,3.136
				c0.022,0.108-1.833-2.106-1.896-2.422C147.055,101.658,147.869,98.68,147.869,98.68z"/>
		</g>
		<g>
			<path fill="#414042" d="M153.252,98.793c0.866,0.205,3.704,4.578,3.623,5.514c0.221,0.864-2.041,5.577-2.147,5.695
				c0.073,0.152-1.131-4.818-1.272-5.334C153.723,104.076,153.556,98.86,153.252,98.793z"/>
		</g>
		<g>
			<path fill="#414042" d="M144.559,130.242c-0.46-0.838-0.365-6.41,0.16-7.27c0.218-0.873,3.464-5.422,3.63-5.599
				c0.044-0.237-1.807,5.407-1.978,6.088C145.795,124.049,144.288,130.13,144.559,130.242z"/>
		</g>
		<g>
			<path fill="#414042" d="M147.224,131.799c-0.164-0.76-0.245-5.286-0.085-6.013c0.054-0.72,2.262-4.839,2.365-5.002
				c0.008-0.194-0.608,4.672-0.665,5.273C148.647,126.627,147.181,131.777,147.224,131.799z"/>
		</g>
		<g>
			<path fill="#414042" d="M155.586,129.962c0.425-0.956,1.469-6.197,1.442-7.097c0.114-0.803,2.329-6.045,2.392-6.284
				c0.038-0.252-0.545,5.784-0.697,6.566C158.827,124.018,155.788,130.095,155.586,129.962z"/>
		</g>
		<g>
			<path fill="#414042" d="M162.019,133.062c1.3-0.569,3.878-6.225,3.919-7.297c0.303-0.862,3.52-6.686,3.763-6.862
				c-0.026-0.312-1.796,6.482-2.125,7.394C167.735,127.481,162.49,133.615,162.019,133.062z"/>
		</g>
		<g>
			<path fill="#414042" d="M167.422,130.688c0.299-1.258,0.782-8.247,0.554-9.36c0.122-1.013,0.73-8.247,0.599-8.616
				c0.055-0.367,1.293,7.487,1.116,8.554C169.99,122.381,167.626,130.775,167.422,130.688z"/>
		</g>
		<g>
			<path fill="#414042" d="M170.087,126.507c0.168-0.871,1.05-5.74,1.106-6.481c0.309-0.632,1.733-5.445,1.572-5.789
				c0.148-0.279,0.511,5.378,0.114,6.104C172.828,121.12,170.144,126.556,170.087,126.507z"/>
		</g>
		<g>
			<path fill="#414042" d="M131.11,132.006c-1.049,0.409-5.009-3.064-4.942-4.244c-0.925-0.971,1.072-5.971,1.581-5.789
				c-0.345-0.194-0.809,4.733,0.043,5.203C127.356,128.014,130.612,132.374,131.11,132.006z"/>
		</g>
		<g>
			<path fill="#414042" d="M128.104,125.937c-0.248-0.169-1.29-0.699-1.864-1.877c-0.443-1.197-0.136-2.658,0.099-2.912
				c0.168-1.139,4.256-2.373,4.373-2.162c-0.022-0.214-3.061,2.403-2.844,2.96C126.795,122.095,127.434,125.943,128.104,125.937z"/>
		</g>
	</g>
</g>
</svg>
